<svg viewBox="0 0 330 200" xmlns="http://www.w3.org/2000/svg"><g><g><g><g><g><line x1="41.149001121520996" y1="156.02121041658256" x2="36.149001121520996" y2="156.02121041658256" style="visibility: inherit;" fill="rgb(0, 0, 0)" stroke="rgb(204, 204, 204)" stroke-width="1px"></line><line x1="41.149001121520996" y1="132.27082421296342" x2="36.149001121520996" y2="132.27082421296342" style="visibility: inherit;" fill="rgb(0, 0, 0)" stroke="rgb(204, 204, 204)" stroke-width="1px"></line><line x1="41.149001121520996" y1="108.52043800934429" x2="36.149001121520996" y2="108.52043800934429" style="visibility: inherit;" fill="rgb(0, 0, 0)" stroke="rgb(204, 204, 204)" stroke-width="1px"></line><line x1="41.149001121520996" y1="84.77005180572513" x2="36.149001121520996" y2="84.77005180572513" style="visibility: inherit;" fill="rgb(0, 0, 0)" stroke="rgb(204, 204, 204)" stroke-width="1px"></line><line x1="41.149001121520996" y1="61.019665602105974" x2="36.149001121520996" y2="61.019665602105974" style="visibility: inherit;" fill="rgb(0, 0, 0)" stroke="rgb(204, 204, 204)" stroke-width="1px"></line><line x1="41.149001121520996" y1="37.26927939848684" x2="36.149001121520996" y2="37.26927939848684" style="visibility: inherit;" fill="rgb(0, 0, 0)" stroke="rgb(204, 204, 204)" stroke-width="1px"></line><line x1="41.149001121520996" y1="13.518893194867683" x2="36.149001121520996" y2="13.518893194867683" style="visibility: inherit;" fill="rgb(0, 0, 0)" stroke="rgb(204, 204, 204)" stroke-width="1px"></line></g><g transform="translate(31.149001121520996, 0)"><text style="text-anchor: end; visibility: inherit; font-family: Roboto, sans-serif; font-size: 12px; font-weight: 200;" x="0" y="156.02121041658256" dx="0em" dy="0.3em" fill="rgb(33, 33, 33)" stroke="none" stroke-width="1px">550</text><text style="text-anchor: end; visibility: hidden; font-family: Roboto, sans-serif; font-size: 12px; font-weight: 200;" x="0" y="132.27082421296342" dx="0em" dy="0.3em" fill="rgb(33, 33, 33)" stroke="none" stroke-width="1px">600</text><text style="text-anchor: end; visibility: inherit; font-family: Roboto, sans-serif; font-size: 12px; font-weight: 200;" x="0" y="108.52043800934429" dx="0em" dy="0.3em" fill="rgb(33, 33, 33)" stroke="none" stroke-width="1px">650</text><text style="text-anchor: end; visibility: hidden; font-family: Roboto, sans-serif; font-size: 12px; font-weight: 200;" x="0" y="84.77005180572513" dx="0em" dy="0.3em" fill="rgb(33, 33, 33)" stroke="none" stroke-width="1px">700</text><text style="text-anchor: end; visibility: inherit; font-family: Roboto, sans-serif; font-size: 12px; font-weight: 200;" x="0" y="61.019665602105974" dx="0em" dy="0.3em" fill="rgb(33, 33, 33)" stroke="none" stroke-width="1px">750</text><text style="text-anchor: end; visibility: hidden; font-family: Roboto, sans-serif; font-size: 12px; font-weight: 200;" x="0" y="37.26927939848684" dx="0em" dy="0.3em" fill="rgb(33, 33, 33)" stroke="none" stroke-width="1px">800</text><text style="text-anchor: end; visibility: inherit; font-family: Roboto, sans-serif; font-size: 12px; font-weight: 200;" x="0" y="13.518893194867683" dx="0em" dy="0.3em" fill="rgb(33, 33, 33)" stroke="none" stroke-width="1px">850</text></g><line x1="41.149001121520996" y1="0" x2="41.149001121520996" y2="176.5999994277954" fill="rgb(0, 0, 0)" stroke="rgb(204, 204, 204)" stroke-width="1px"></line></g></g><g transform="translate(41, 0)" clip-path="url(#clip_0)"><clipPath id="clip_0"><rect width="288" height="176"></rect></clipPath><g><g><g><line x1="0.7037673590932666" y1="0" x2="0.7037673590932666" y2="176.5999994277954" fill="rgb(0, 0, 0)" stroke="rgb(66, 66, 66)" stroke-width="1px" opacity="0.25"></line><line x1="25.398167079424173" y1="0" x2="25.398167079424173" y2="176.5999994277954" fill="rgb(0, 0, 0)" stroke="rgb(66, 66, 66)" stroke-width="1px" opacity="0.25"></line><line x1="50.092566799755076" y1="0" x2="50.092566799755076" y2="176.5999994277954" fill="rgb(0, 0, 0)" stroke="rgb(66, 66, 66)" stroke-width="1px" opacity="0.25"></line><line x1="74.78696652008598" y1="0" x2="74.78696652008598" y2="176.5999994277954" fill="rgb(0, 0, 0)" stroke="rgb(66, 66, 66)" stroke-width="1px" opacity="0.25"></line><line x1="99.48136624041689" y1="0" x2="99.48136624041689" y2="176.5999994277954" fill="rgb(0, 0, 0)" stroke="rgb(66, 66, 66)" stroke-width="1px" opacity="0.25"></line><line x1="124.1757659607478" y1="0" x2="124.1757659607478" y2="176.5999994277954" fill="rgb(0, 0, 0)" stroke="rgb(66, 66, 66)" stroke-width="1px" opacity="0.25"></line><line x1="148.87016568107873" y1="0" x2="148.87016568107873" y2="176.5999994277954" fill="rgb(0, 0, 0)" stroke="rgb(66, 66, 66)" stroke-width="1px" opacity="0.25"></line><line x1="173.56456540140962" y1="0" x2="173.56456540140962" y2="176.5999994277954" fill="rgb(0, 0, 0)" stroke="rgb(66, 66, 66)" stroke-width="1px" opacity="0.25"></line><line x1="198.25896512174052" y1="0" x2="198.25896512174052" y2="176.5999994277954" fill="rgb(0, 0, 0)" stroke="rgb(66, 66, 66)" stroke-width="1px" opacity="0.25"></line><line x1="222.95336484207144" y1="0" x2="222.95336484207144" y2="176.5999994277954" fill="rgb(0, 0, 0)" stroke="rgb(66, 66, 66)" stroke-width="1px" opacity="0.25"></line><line x1="247.64776456240233" y1="0" x2="247.64776456240233" y2="176.5999994277954" fill="rgb(0, 0, 0)" stroke="rgb(66, 66, 66)" stroke-width="1px" opacity="0.25"></line><line x1="272.3421642827332" y1="0" x2="272.3421642827332" y2="176.5999994277954" fill="rgb(0, 0, 0)" stroke="rgb(66, 66, 66)" stroke-width="1px" opacity="0.25"></line></g><g><line x1="0" y1="156.02121041658256" x2="288.850998878479" y2="156.02121041658256" fill="rgb(0, 0, 0)" stroke="rgb(66, 66, 66)" stroke-width="1px" opacity="0.25"></line><line x1="0" y1="132.27082421296342" x2="288.850998878479" y2="132.27082421296342" fill="rgb(0, 0, 0)" stroke="rgb(66, 66, 66)" stroke-width="1px" opacity="0.25"></line><line x1="0" y1="108.52043800934429" x2="288.850998878479" y2="108.52043800934429" fill="rgb(0, 0, 0)" stroke="rgb(66, 66, 66)" stroke-width="1px" opacity="0.25"></line><line x1="0" y1="84.77005180572513" x2="288.850998878479" y2="84.77005180572513" fill="rgb(0, 0, 0)" stroke="rgb(66, 66, 66)" stroke-width="1px" opacity="0.25"></line><line x1="0" y1="61.019665602105974" x2="288.850998878479" y2="61.019665602105974" fill="rgb(0, 0, 0)" stroke="rgb(66, 66, 66)" stroke-width="1px" opacity="0.25"></line><line x1="0" y1="37.26927939848684" x2="288.850998878479" y2="37.26927939848684" fill="rgb(0, 0, 0)" stroke="rgb(66, 66, 66)" stroke-width="1px" opacity="0.25"></line><line x1="0" y1="13.518893194867683" x2="288.850998878479" y2="13.518893194867683" fill="rgb(0, 0, 0)" stroke="rgb(66, 66, 66)" stroke-width="1px" opacity="0.25"></line></g></g></g><g><g><line x1="0" y1="417.2754586563932" x2="288.850998878479" y2="417.2754586563932" fill="rgb(0, 0, 0)" stroke="rgb(153, 153, 153)" stroke-width="1.5px"></line></g></g><g><g><line x1="25.398167079424173" y1="0" x2="25.398167079424173" y2="176.5999994277954" fill="rgb(0, 0, 0)" stroke="rgb(153, 153, 153)" stroke-width="1.5px"></line></g></g><g><g><g><g><g><path style="fill: none;" stroke="rgb(255, 112, 67)" stroke-width="2px" d="M25.89205507383079,172.1714730350436L26.38594306823741,133.83752144186366L26.879831062644026,137.42229495397387L27.373719057050646,132.24103498101732L27.867607051457263,130.24740991488892L28.36149504586388,122.51845635946638L28.8553830402705,102.50557697120085L29.349271034677116,115.76632873454777L29.843159029083736,116.34110484463125L30.337047023490353,120.44601196532963L30.830935017896973,124.93822957097665L31.32482301230359,120.73055700155909L31.818711006710206,117.05532596768379L32.31259900111682,116.72882064334348L32.80648699552344,114.59852735548594L33.30037498993006,112.84185835285062L33.79426298433668,111.88140953843083L34.288150978743296,112.58511808726243L34.782038973149916,116.67349301920149L35.275926967556536,116.43029811186581L35.76981496196315,108.75057369948655L36.26370295636977,107.72394616211658L36.75759095077638,110.26098810768491L37.251478945183,108.74697847660384L37.74536693958962,94.98219608019454L38.239254933996236,94.87222353679736L38.733142928402856,89.00845647235825L39.227030922809476,97.28278545325877L39.720918917216096,100.7052898279079L40.21480691162271,102.88549741202159L40.70869490602933,106.2204368532861L41.20258290043595,104.0155211387869L41.69647089484256,102.91188218380246L42.19035888924918,95.47579232186361L42.6842468836558,99.04270253766786L43.17813487806242,107.38264497207462L43.672022872469036,103.45846254700072L44.165910866875656,104.13534682155355L44.659798861282276,109.71240618821962L45.15368685568889,111.53602762601994L45.64757485009551,109.16033206058972L46.14146284450213,106.08278058645672L46.63535083890875,110.04260659783692L47.12923883331536,111.27991119372591L47.62312682772198,117.09922794873779L48.1170148221286,112.23683958515186L48.610902816535216,103.63424926666447L49.104790810941836,113.16113067554018L49.598678805348456,108.5220965416439L50.092566799755076,110.0339143501885L50.58645479416169,107.73436573680982L51.08034278856831,108.07565193128843L51.57423078297493,102.82782819216271L52.06811877738154,105.73445546780098L52.56200677178816,106.14096051236373L53.05589476619478,105.52219961753168L53.5497827606014,108.52112732039399L54.043670755008016,104.28408964461946L54.537558749414636,103.16964194633859L55.031446743821256,100.51740370191108L55.52533473822787,92.75501391439133L56.01922273263449,95.1996292907404L56.51311072704111,88.9709276229229L57.00699872144773,92.79875448837151L57.50088671585434,83.10295140223197L57.99477471026096,92.55717496630761L58.48866270466758,84.69408920432271L58.9825506990742,91.7055553805013L59.476438693480816,95.1945019946408L59.970326687887436,92.58289510893707L60.464214682294056,98.8352509288419L60.95810267670067,106.80626277272617L61.45199067110729,108.59352293561687L61.94587866551391,112.29279545546014L62.43976665992053,118.86497930775401L62.93365465432714,113.2369087896515L63.42754264873376,114.06386302148307L63.92143064314038,104.45803247665278L64.415318637547,105.185079733989L64.90920663195362,107.13406762752723L65.40309462636023,108.88807581301101L65.89698262076685,110.22907174092082L66.39087061517347,103.24865353250627L66.88475860958009,110.22110384201281L67.37864660398671,115.24114426463082L67.87253459839333,120.05597188399206L68.36642259279995,123.44701437250374L68.86031058720656,124.50762299919101L69.35419858161318,125.94907594100559L69.8480865760198,126.98508625418114L70.34197457042642,127.81455417689952L70.83586256483304,121.08714944157285L71.32975055923966,117.95402379549914L71.82363855364628,112.16529711102855L72.3175265480529,106.55964145827622L72.81141454245952,109.46338269497643L73.30530253686614,113.31179255452585L73.79919053127276,109.58664979759445L74.29307852567936,110.82196189662672L74.78696652008598,104.70155116273L75.2808545144926,105.25762360567943L75.77474250889922,105.48890847726373L76.26863050330584,106.48875975256362L76.76251849771246,103.57265840505558L77.25640649211908,99.80814042962467L77.75029448652569,104.11531922465949L78.24418248093231,108.36782211360374L78.73807047533893,115.24702397151951L79.23195846974555,114.51102440474588L79.72584646415217,107.04803503472604L80.21973445855879,113.54855782512828L80.71362245296541,101.83547568713719L81.20751044737202,102.26647096720836L81.70139844177864,95.18086686211551L82.19528643618526,101.82307161794756L82.68917443059188,103.06282362788572L83.1830624249985,99.07224362409704L83.67695041940512,106.14469089904706L84.17083841381174,105.54308217254035L84.66472640821834,99.26985828184189L85.15861440262496,95.5081614779723L85.65250239703158,93.4605793205605L86.1463903914382,88.25311139661532L86.64027838584482,86.09977152375218L87.13416638025144,92.3477475927911L87.62805437465806,87.97991181525673L88.12194236906467,84.96720975825376L88.61583036347129,83.03162775169206L89.10971835787791,85.02633462849725L89.60360635228453,79.94186835990045L90.09749434669115,80.66219129647392L90.59138234109777,82.76717444948004L91.08527033550439,82.08869733865556L91.579158329911,79.9224165991562L92.07304632431762,83.99349114330762L92.56693431872424,85.54367208177997L93.06082231313086,92.6033049103077L93.55471030753748,103.5764260892305L94.0485983019441,95.26734813689306L94.54248629635072,86.49873954503614L95.03637429075732,90.347605161285L95.53026228516394,92.63989689912752L96.02415027957056,97.3036273583059L96.51803827397718,94.11856993832323L97.0119262683838,101.92386205747209L97.50581426279042,100.52515352291881L97.99970225719704,105.46912529247092L98.49359025160365,109.16264465368046L98.98747824601027,111.5209637407202L99.48136624041689,109.73651178558015L99.97525423482351,104.36606839530556L100.46914222923013,99.36641674791237L100.96303022363675,98.86867084526818L101.45691821804337,106.53145715932575L101.95080621244998,92.71762626757821L102.4446942068566,89.97533695319528L102.93858220126322,86.05850295487689L103.43247019566984,88.76387171941938L103.92635819007646,98.01902221066403L104.42024618448308,100.03501195929894L104.9141341788897,102.24524443466385L105.4080221732963,100.41855618072847L105.90191016770292,103.04960643101181L106.39579816210954,103.72335930276948L106.88968615651616,99.1917355567407L107.38357415092278,78.84425924741883L107.8774621453294,79.6743423842361L108.37135013973602,78.04637853461004L108.86523813414263,82.59005889693326L109.35912612854925,78.39048628404664L109.85301412295587,65.51447289349147L110.34690211736249,66.30001225753067L110.84079011176911,71.32956802465675L111.33467810617573,79.67206266211892L111.82856610058235,85.3911139730825L112.32245409498896,93.73664454624148L112.81634208939558,98.27090598710532L113.3102300838022,103.70155586900674L113.80411807820882,94.94454379336953L114.29800607261544,99.3421826745497L114.79189406702206,100.51334470057866L115.28578206142868,104.14826776857846L115.77967005583528,105.38112273569179L116.2735580502419,90.13855124165279L116.76744604464852,89.10294318423543L117.26133403905514,90.71218726485846L117.75522203346176,90.90965422601954L118.24911002786838,93.97700385321328L118.742998022275,88.4249833262767L119.23688601668161,91.08370698926771L119.73077401108823,99.691241719796L120.22466200549485,99.02246848261255L120.71854999990147,100.8035289550395L121.21243799430809,91.766310346378L121.70632598871471,97.40803761541976L122.20021398312133,92.66480745051959L122.69410197752794,77.45884744572737L123.18798997193456,76.5274408466626L123.68187796634118,77.73170812277077L124.1757659607478,80.92141528288974L124.66965395515442,77.71205285458201L125.16354194956104,81.25206647175685L125.65742994396766,76.09377540326109L126.15131793837426,76.18555806063742L126.64520593278088,65.35881741845523L127.1390939271875,76.82384572913207L127.63298192159412,72.48838291534669L128.12686991600074,70.05899032828934L128.62075791040735,72.29010883515858L129.11464590481398,79.34507256073559L129.60853389922062,88.20020565846174L130.10242189362722,82.80627577254926L130.59630988803386,81.40345973816594L131.09019788244046,78.67631912421486L131.5840858768471,81.77156518238861L132.0779738712537,89.12527854815843L132.5718618656603,98.21366074263575L133.06574986006694,95.90740920745388L133.55963785447355,95.58535397377658L134.05352584888018,90.56125964673977L134.5474138432868,87.27459483517205L135.04130183769342,90.25419305612662L135.53518983210003,88.32825653115611L136.02907782650664,86.0882377865941L136.52296582091327,95.72970311178483L137.01685381531988,94.98207601239224L137.5107418097265,88.68828785426382L138.00462980413312,91.13463540083282L138.49851779853975,97.70246182304376L138.99240579294636,101.88368484137116L139.48629378735296,95.54099622793008L139.9801817817596,104.2015601294032L140.4740697761662,101.26089307641925L140.96795777057284,100.76766011151064L141.46184576497944,104.64236330093473L141.95573375938608,107.80104819584243L142.44962175379268,102.98040761917814L142.9435097481993,93.10799111467885L143.43739774260592,95.63091940032996L143.93128573701253,96.36569461674894L144.42517373141916,98.57868517658123L144.91906172582577,96.78614751221211L145.41294972023238,95.53703716914667L145.906837714639,93.22531855020048L146.40072570904562,98.01655116784708L146.89461370345225,101.04613966872087L147.38850169785886,98.91185501032777L147.8823896922655,100.96523107560508L148.3762776866721,106.72020806486411L148.87016568107873,104.8101970733867L149.3640536754853,97.17734101633776L149.85794166989194,103.77423954249018L150.35182966429855,101.87382076880866L150.84571765870518,98.80175409707978L151.3396056531118,92.29225083415218L151.83349364751842,95.77947486866225L152.32738164192503,99.3811090306914L152.82126963633166,94.28619421903309L153.31515763073827,79.48810482097146L153.8090456251449,89.36207649058349L154.3029336195515,89.87663985644667L154.79682161395814,80.4675039868145L155.29070960836475,82.14861147569204L155.78459760277138,89.72587445941636L156.27848559717796,82.37434834300267L156.7723735915846,79.3205327687767L157.2662615859912,77.53794682451584L157.76014958039784,75.26860866097948L158.25403757480444,75.22123675490205L158.74792556921108,66.2009560544603L159.24181356361768,70.76540965680121L159.73570155802432,76.61511385357935L160.22958955243092,83.01194840664647L160.72347754683756,88.87201881102793L161.21736554124416,84.8992641799537L161.7112535356508,80.96752921893278L162.2051415300574,78.46606698516665L162.69902952446404,79.9989801429603L163.19291751887062,71.2371870760274L163.68680551327725,78.63494683781946L164.18069350768386,86.48440736490807L164.6745815020905,88.84238793967542L165.1684694964971,87.1051326988776L165.66235749090373,87.1407966196091L166.15624548531034,92.27130942023902L166.65013347971697,95.53499892719955L167.14402147412358,92.41597100154067L167.6379094685302,104.33408531469252L168.13179746293682,103.63645243258755L168.62568545734345,90.06462235771991L169.11957345175006,93.8894037395898L169.6134614461567,97.98880003516713L170.10734944056327,103.95829377673424L170.6012374349699,99.71193173167843L171.0951254293765,82.92249502395187L171.58901342378314,88.77567524298745L172.08290141818975,74.97989508041967L172.57678941259638,66.26875318187345L173.070677407003,52.15862351542622L173.56456540140962,54.56475244112587L174.05845339581623,53.86438950542446L174.55234139022286,58.52248122489348L175.04622938462947,50.71290097778082L175.5401173790361,53.121099840023234L176.0340053734427,58.269152284595634L176.52789336784934,56.295834688809684L177.02178136225592,50.094359256922274L177.51566935666256,62.80874505720885L178.00955735106916,61.75899058397156L178.5034453454758,66.58951283683237L178.9973333398824,68.47881789233253L179.49122133428904,73.90800307625086L179.98510932869564,73.55335215258445L180.47899732310228,73.64583774933597L180.97288531750888,68.79691221786653L181.46677331191552,67.44917828740363L181.96066130632212,60.298621199082135L182.45454930072876,45.24172962767909L182.94843729513536,47.832872070070465L183.442325289542,56.83084392884984L183.93621328394858,52.09589228999006L184.4301012783552,51.75324953861342L184.92398927276182,43.46474129795846L185.41787726716845,47.725899472855055L185.91176526157506,30.957481798622283L186.4056532559817,43.45197946731657L186.8995412503883,49.81632300429757L187.39342924479493,37.145597742365524L187.88731723920154,48.605652058122104L188.38120523360817,62.577260417660405L188.87509322801478,58.787691846951255L189.3689812224214,54.89415464743372L189.86286921682802,59.860944179970076L190.35675721123465,58.36179006033754L190.85064520564123,58.548408694096686L191.34453320004786,61.629748104935146L191.83842119445447,67.75967289198995L192.3323091888611,67.16484108341928L192.8261971832677,72.70959132383217L193.32008517767434,69.49806553814834L193.81397317208095,65.39642263464825L194.30786116648758,75.7414222678371L194.8017491608942,57.66772664493422L195.29563715530082,57.48041204417175L195.78952514970743,62.06190614420934L196.28341314411406,57.31843901848636L196.77730113852067,71.03627872328231L197.2711891329273,69.60711045949951L197.76507712733388,80.9560644824204L198.25896512174052,77.774905284208L198.75285311614712,68.89509653449434L199.24674111055376,74.9476646678978L199.74062910496036,72.11400896470471L200.234517099367,82.2622576889603L200.7284050937736,80.64467435235781L201.22229308818024,82.18139801107156L201.71618108258684,80.35022940461845L202.21006907699348,81.55222400324493L202.70395707140008,91.9560457269293L203.19784506580672,85.12567931867187L203.69173306021332,76.32622405824176L204.18562105461996,76.53726416729924L204.67950904902654,37.07988792980377L205.17339704343317,40.67721763161164L205.66728503783978,47.93654739345729L206.1611730322464,51.509063665472816L206.65506102665302,45.52501108767935L207.14894902105965,58.522162689266466L207.64283701546626,64.13950026256835L208.1367250098729,67.5959104410907L208.6306130042795,78.38597210733663L209.12450099868613,71.02841768836271L209.61838899309274,81.22189214344858L210.11227698749937,83.7934117884197L210.60616498190598,90.43430718924729L211.1000529763126,93.08210155019057L211.5939409707192,92.36173074495521L212.08782896512582,86.07664062739582L212.58171695953243,81.59966106996647L213.07560495393906,88.85181291499913L213.56949294834567,87.56012359698396L214.0633809427523,86.61610560415674L214.5572689371589,88.69570467546424L215.05115693156554,86.59311158182976L215.54504492597215,85.34995598686334L216.03893292037878,80.18563253497139L216.5328209147854,74.95981439757487L217.02670890919202,82.10010592693416L217.52059690359863,64.38805815867356L218.01448489800526,58.32737582794457L218.50837289241184,64.85483157001433L219.00226088681848,71.35892697227304L219.49614888122508,72.3912844349712L219.99003687563172,65.39569492119766L220.48392487003832,64.05557731355094L220.97781286444496,62.16071026676394L221.47170085885156,65.58541334463742L221.9655888532582,53.934488906672804L222.4594768476648,55.99677858982245L222.95336484207144,54.298199135921095L223.44725283647804,54.56658921707804L223.94114083088468,59.201961737788814L224.43502882529128,67.96949673682886L224.92891681969792,65.26364855785583L225.4228048141045,74.6244093781719L225.91669280851113,67.27883767725326L226.41058080291774,71.30799616564785L226.90446879732437,69.13914457151995L227.39835679173098,71.30391271183782L227.8922447861376,82.64943921295024L228.38613278054422,88.9415993403542L228.88002077495085,95.38830619973724L229.37390876935746,89.14889656794706L229.8677967637641,97.37198529423895L230.3616847581707,97.99599021728038L230.85557275257733,97.98758537913079L231.34946074698394,93.51494841851577L231.84334874139057,94.68299197074795L232.33723673579715,93.9925352130858L232.83112473020378,102.87919637444442L233.3250127246104,99.94409600419547L233.81890071901702,96.36040798463357L234.31278871342363,99.44477373538365L234.80667670783026,101.60319286976463L235.30056470223687,104.12369712140128L235.7944526966435,98.63764985239257L236.2883406910501,98.61257982313904L236.78222868545674,99.41336255213062L237.27611667986335,93.86396505046756L237.77000467426998,91.49788240576561L238.2638926686766,96.28768817259396L238.75778066308322,95.72176642919068L239.2516686574898,92.48906020851838L239.74555665189644,87.48959062399483L240.23944464630304,83.96383383227199L240.73333264070968,89.98205218052212L241.22722063511628,86.13579807453573L241.72110862952292,82.78104611706428L242.21499662392952,81.15908471005852L242.70888461833616,81.61518296443967L243.20277261274276,81.40816135208858L243.6966606071494,81.85122713536852L244.190548601556,88.53196349117773L244.68443659596264,84.878219026533L245.17832459036924,84.46364573899065L245.67221258477588,88.09246985551242L246.16610057918246,83.69891200971483L246.6599885735891,80.08513311715454L247.1538765679957,74.3785245730706L247.64776456240233,76.09852073443413L248.14165255680894,84.72017493704487L248.63554055121557,82.09678751711807L249.12942854562218,80.03657609802409L249.6233165400288,75.18983715918353L250.11720453443542,79.9162522684062L250.61109252884205,77.76533935353636L251.10498052324866,69.82067002063788L251.5988685176553,76.49319239153554L252.0927565120619,63.21314892800477L252.58664450646853,61.71127974041942L253.0805325008751,53.851991651801L253.57442049528174,54.75876213646045L254.06830848968835,58.29823222426324L254.56219648409498,65.98049605757669L255.0560844785016,69.37947634942317L255.54997247290822,69.1610053159855L256.04386046731486,65.35432268294154L256.5377484617215,71.95097129112929L257.03163645612807,65.4744208158123L257.5255244505347,61.593057056723765L258.0194124449413,56.73813989813092L258.5133004393479,64.94058651891878L259.00718843375455,37.44930376890806L259.5010764281612,37.90630905593833L259.99496442256776,41.80892058619756L260.4888524169744,30.857285765426806L260.98274041138103,31.37973319771469L261.47662840578766,34.3437264381538L261.97051640019424,35.4200444789065L262.4644043946009,42.57174889033186L262.9582923890075,45.58822724729354L263.45218038341415,50.93143287535384L263.9460683778207,59.28704324675426L264.43995637222736,65.65915628143405L264.93384436663393,68.7577651440441L265.42773236104057,81.48604974660775L265.9216203554472,73.78681941569619L266.41550834985384,63.651209980387264L266.9093963442604,54.82208388485952L267.40328433866705,62.8994633245206L267.8971723330737,69.24283975827441L268.3910603274803,70.0038804564932L268.8849483218869,60.6661541069628L269.37883631629353,55.99892878816049L269.87272431070016,52.28926634970756L270.3666123051068,45.989689641454376L270.8605002995134,43.692625444940454L271.35438829392,51.457927556376255L271.8482762883266,62.46843248688706L272.3421642827332,75.10126357595604" fill="none"></path></g></g></g></g><g opacity="0.2"><g><g><g><path style="fill: none;" stroke="rgb(255, 112, 67)" stroke-width="2px" d="M25.89205507383079,172.1714730350436L26.38594306823741,99.33696500800175L26.879831062644026,143.5522576596825L27.373719057050646,119.60394190697632L27.867607051457263,124.07694097271481L28.36149504586388,94.03270242513659L28.8553830402705,18.11064419162427L29.349271034677116,178.02990646396475L29.843159029083736,119.28728941904185L30.337047023490353,143.07724993561013L30.830935017896973,151.27113317585875L31.32482301230359,94.74521401124517L31.818711006710206,93.32019083902803L32.31259900111682,114.53721217831801L32.80648699552344,99.81197273207414L33.30037498993006,100.28698045614654L33.79426298433668,104.83912814778331L34.288150978743296,117.86226624682469L34.782038973149916,147.94607910735206L35.275926967556536,114.53721217831801L35.76981496196315,48.0361308081844L36.26370295636977,99.49529125196901L36.75759095077638,130.84580104074627L37.251478945183,96.32856342742954L37.74536693958962,-19.019135904090543L38.239254933996236,93.95352480706762L38.733142928402856,39.644318018848736L39.227030922809476,167.42139579431978L39.720918917216096,129.8957855926015L40.21480691162271,121.5831504213348L40.70869490602933,134.96254431343047L41.20258290043595,84.92837804969237L41.69647089484256,93.32019083902803L42.19035888924918,30.619171261473472L42.6842468836558,130.2520413856558L43.17813487806242,180.56327132829392L43.672022872469036,68.93647066736925L44.165910866875656,110.10378742552868L44.659798861282276,158.99000869203496L45.15368685568889,127.67907321620683L45.64757485009551,88.09510587423182L46.14146284450213,78.75327763675139L46.63535083890875,145.254359006885L47.12923883331536,122.29566200744337L47.62312682772198,168.965170897555L48.1170148221286,68.8572930493003L48.610902816535216,26.819109468894396L49.104790810941836,198.29689785902465L49.598678805348456,67.03643977107971L50.092566799755076,123.5623589356933L50.58645479416169,87.14509042608704L51.08034278856831,111.13298049174239L51.57423078297493,55.794580637309764L52.06811877738154,131.79581648889106L52.56200677178816,109.78713493759417L53.05589476619478,99.97029897604139L53.5497827606014,135.43755203750285L54.043670755008016,66.24475056690218L54.537558749414636,93.16186459506078L55.031446743821256,76.6949204964946L55.52533473822787,23.019047676315342L56.01922273263449,117.16558438589578L56.51311072704111,32.994209881835395L57.00699872144773,127.20406549213446L57.50088671585434,-4.056392595810477L57.99477471026096,177.5548987398924L58.48866270466758,13.993900918940076L58.9825506990742,154.75451348833266L59.476438693480816,126.57073152409482L59.970326687887436,69.0947969113365L60.464214682294056,155.0711949684378L60.95810267670067,178.50491418803713L61.45199067110729,124.67070062780529L61.94587866551391,145.57104048699014L62.43976665992053,177.9903176549303L62.93365465432714,62.603015018290364L63.42754264873376,121.50397280326584L63.92143064314038,18.031466573555328L64.415318637547,111.72674014683285L64.90920663195362,124.67070062780529L65.40309462636023,124.67070062780529L65.89698262076685,122.29566200744337L66.39087061517347,40.43600722302627L66.88475860958009,172.9631622392211L67.37864660398671,160.41503186425211L67.87253459839333,163.38383013970451L68.36642259279995,153.9628532763258L68.86031058720656,134.05210317823486L69.35419858161318,138.92093234997677L69.8480865760198,136.30838986757868L70.34197457042642,135.27919680136498L70.83586256483304,60.544657878033604L71.32975055923966,89.75763290848515L71.82363855364628,60.06965015396121L72.3175265480529,56.1112621174149L72.81141454245952,135.5958782814701L73.30530253686614,147.94607910735206L73.79919053127276,76.06158652845498L74.29307852567936,121.93940621438908L74.78696652008598,49.619480224368786L75.2808545144926,110.26214266166656L75.77474250889922,107.5704225611995L76.26863050330584,115.48722762646277L76.76251849771246,77.32825446453424L77.25640649211908,65.92806908679705L77.75029448652569,142.8793203865231L78.24418248093231,146.639807866153L78.73807047533893,177.1590541378036L79.23195846974555,107.88710404130464L79.72584646415217,39.881821880884935L80.21973445855879,172.0527211040255L80.71362245296541,-3.5813848717380856L81.20751044737202,106.14539938898237L81.70139844177864,31.410860465651005L82.19528643618526,161.60255117443307L82.68917443059188,114.22053069821287L83.1830624249985,63.1572003604317L83.67695041940512,169.79643441468167L84.17083841381174,100.12862522000863L84.66472640821834,42.81104584338819L85.15861440262496,61.6529995701456L85.65250239703158,75.03239346224127L86.1463903914382,41.386022671171034L86.64027838584482,66.71975829097458L87.13416638025144,148.57941307539167L87.62805437465806,48.669464776224025L88.12194236906467,57.852937777566545L88.61583036347129,65.61141659886256L89.10971835787791,102.97867156444292L89.60360635228453,34.18172919201635L90.09749434669115,87.14509042608704L90.59138234109777,101.71200362836368L91.08527033550439,75.98240891038604L91.579158329911,60.42590594701551L92.07304632431762,120.63313497319004L92.56693431872424,99.49529125196901L93.06082231313086,156.13996234760066L93.55471030753748,202.3344635136399L94.0485983019441,20.48568281198619L94.54248629635072,7.581296643962904L95.03637429075732,124.98738210791043L95.53026228516394,113.2705152500681L96.02415027957056,139.27718814303105L96.51803827397718,65.45306136272467L97.0119262683838,172.1714730350436L97.50581426279042,87.93677963026457L97.99970225719704,149.9648619346597L98.49359025160365,142.4043126624507L98.98747824601027,132.7458319370358L99.48136624041689,93.67644663208232L99.97525423482351,56.03208449934596L100.46914222923013,54.36955746509261L100.96303022363675,94.38895821819087L101.45691821804337,175.49652710355028L101.95080621244998,-31.606840592008687L102.4446942068566,65.29473511875742L102.93858220126322,50.806999534549746L103.43247019566984,113.11218900610088L103.92635819007646,181.31537172343695L104.42024618448308,118.17891873475918L104.9141341788897,122.13733576347614L105.4080221732963,83.9783626015476L105.90191016770292,126.72905776806208L106.39579816210954,109.78713493759417L106.88968615651616,58.40712311970788L107.38357415092278,-104.28302237508333L107.8774621453294,87.14509042608704L108.37135013973602,63.394704222467894L108.86523813414263,123.48318131762433L109.35912612854925,40.594333466993504L109.85301412295587,-50.36964569286781L110.34690211736249,73.36986642798794L110.84079011176911,116.59556931857479L111.33467810617573,154.75451348833266L111.82856610058235,136.86257520972L112.32245409498896,168.8464189665369L112.81634208939558,139.07925859394402L113.3102300838022,152.5774044170578L113.80411807820882,16.1314356772658L114.29800607261544,138.92093234997677L114.79189406702206,111.05380287367342L115.28578206142868,136.86257520972L115.77967005583528,116.4768173875567L116.2735580502419,-47.044591624361146L116.76744604464852,79.7824707029651L117.26133403905514,105.19538394083759L117.75522203346176,92.68685687098838L118.24911002786838,121.5831504213348L118.742998022275,38.456798708667776L119.23688601668161,115.0122199023904L119.73077401108823,177.1590541378036L120.22466200549485,93.00350935892288L120.71854999990147,116.83307318061098L121.21243799430809,10.431342988397196L121.70632598871471,148.18358296938825L122.20021398312133,49.97573601742308L122.69410197752794,-59.394792450243095L123.18798997193456,68.14478146319172L123.68187796634118,88.57011359830419L124.1757659607478,109.62877970145628L124.66965395515442,48.827791020191256L125.16354194956104,113.11218900610088L125.65742994396766,29.669155813328707L126.15131793837426,77.01160197659975L126.64520593278088,-32.08184831608108L127.1390939271875,180.0091004822379L127.63298192159412,33.469217605907765L128.12686991600074,48.194457052151634L128.62075791040735,92.37017539088325L129.11464590481398,142.83974607357393L129.60853389922062,167.89640351839213L130.10242189362722,34.260906810085295L130.59630988803386,68.77811543123134L131.09019788244046,54.132053603056434L131.5840858768471,109.62877970145628L132.0779738712537,155.308698830474L132.5718618656603,180.0091004822379L133.06574986006694,75.15114539325937L133.55963785447355,92.68685687098838L134.05352584888018,45.344410707717344L134.5474138432868,57.69461153359929L135.04130183769342,117.07057704264716L135.53518983210003,70.99482780762602L136.02907782650664,65.92806908679705L136.52296582091327,182.50289103361794L137.01685381531988,88.25343211819904L137.5107418097265,32.04419443369063L138.00462980413312,113.15176331905L138.49851779853975,156.81289962076008L138.99240579294636,139.51469200506725L139.48629378735296,38.456798708667776L139.9801817817596,182.14663524056363L140.4740697761662,74.79488960020508L140.96795777057284,96.32856342742954L141.46184576497944,139.51469200506725L141.95573375938608,136.22921224950974L142.44962175379268,59.594642429888836L142.9435097481993,4.256242575456221L143.43739774260592,118.33727397089706L143.93128573701253,102.97867156444292L144.42517373141916,118.49560021486431L144.91906172582577,80.65330853304091L145.41294972023238,84.29504408165273L145.906837714639,72.41985097984316L146.40072570904562,141.13764472637146L146.89461370345225,128.31243617641712L147.38850169785886,79.70329308489615L147.8823896922655,119.44561566300908L148.3762776866721,158.51500096796258L148.87016568107873,87.62009815015942L149.3640536754853,28.481636503147747L149.85794166989194,163.14632627766832L150.35182966429855,84.77005180572513L150.84571765870518,71.15315405159326L151.3396056531118,33.70672146794396L151.83349364751842,127.1644911791853L152.32738164192503,131.79581648889106L152.82126963633166,48.43196091418783L153.31515763073827,-53.694699761374515L153.8090456251449,178.2278215169665L154.3029336195515,94.50771014920896L154.79682161395814,-4.2147188397777295L155.29070960836475,97.27857887557434L155.78459760277138,157.9212413128721L156.27848559717796,16.210613295334742L156.7723735915846,51.836192600763454L157.2662615859912,61.494673326178365L157.76014958039784,54.844565189165L158.25403757480444,74.79488960020508L158.74792556921108,-14.981570249475292L159.24181356361768,111.84549207785095L159.73570155802432,129.2624516245619L160.22958955243092,140.5834593842301L160.72347754683756,141.61265245044382L161.21736554124416,49.144472500296395L161.7112535356508,45.581914569753536L162.2051415300574,55.952906881277016L162.69902952446404,93.7951985631004L163.19291751887062,-7.618950526353337L163.68680551327725,145.21478469393585L164.18069350768386,157.12955210869458L164.6745815020905,110.06421311257952L165.1684694964971,71.4698355316984L165.66235749090373,87.46177190619218L166.15624548531034,138.4459246259044L166.65013347971697,124.9082044898415L167.14402147412358,64.34471967061266L167.6379094685302,211.59711413305138L168.13179746293682,97.35775649364328L168.62568545734345,-32.08184831608108L169.11957345175006,128.31243617641712L169.6134614461567,134.88336669536153L170.10734944056327,157.6837374508359L170.6012374349699,61.494673326178365L171.0951254293765,-68.18243534558222L171.58901342378314,141.45429721430594L172.08290141818975,-49.18212638268687L173.070677407003,-74.83254348259555L173.56456540140962,76.21991277242223L174.05845339581623,47.56112308411201L174.55234139022286,100.44530670011376L175.04622938462947,-19.573321246231878L175.5401173790361,74.79488960020508L176.0340053734427,104.6016242857471L176.52789336784934,38.535976326736744L177.02178136225592,-5.71891963006381L177.51566935666256,177.23821725978723L178.00955735106916,52.31120032483585L178.5034453454758,110.06421311257952L178.9973333398824,85.4825633918337L179.49122133428904,122.77066973151577L179.98510932869564,70.3614938395864L180.47899732310228,74.47820812009994L180.97288531750888,25.156582434641066L181.46677331191552,55.319572913237394L181.96066130632212,-4.056392595810477L182.45454930072876,-90.270294514948L182.94843729513536,71.15315405159326L183.442325289542,137.81259065786477L183.93621328394858,9.481327540252432L184.4301012783552,48.669464776224025L184.92398927276182,-31.131832867936296L185.41787726716845,86.07632304692419L185.91176526157506,-119.95827726947195L186.4056532559817,155.90245848556447L186.8995412503883,107.09541483712711L187.39342924479493,-76.89092961502301L187.88731723920154,151.7461408999311L188.38120523360817,188.32173565350462L188.87509322801478,24.681574710568693L189.3689812224214,19.85231985177591L189.86286921682802,104.56204997279798L190.35675721123465,44.86940298364495L190.85064520564123,60.227976397928465L191.34453320004786,89.36180280248172L191.83842119445447,122.92899597548302L192.3323091888611,61.811354806283504L192.8261971832677,122.61234348754851L193.32008517767434,40.594333466993504L193.81397317208095,28.481636503147747L194.30786116648758,168.8464189665369L194.8017491608942,-104.99553396119188L195.29563715530082,55.794580637309764L195.78952514970743,103.29535304454805L196.28341314411406,14.6272348869797L196.77730113852067,194.49683606644558L197.2711891329273,56.744596085454525L197.76507712733388,183.09665068870837L198.25896512174052,49.144472500296395L198.75285311614712,-11.023182212928983L199.24674111055376,129.42077786852914L199.74062910496036,46.611107635967244L200.234517099367,173.59649620726074L200.7284050937736,66.08642432293496L201.22229308818024,96.01191093949508L201.71618108258684,63.869711946540264L202.21006907699348,92.37017539088325L202.70395707140008,185.5904412400884L203.19784506580672,23.652381644354968L203.69173306021332,-2.8688732856295376L204.18562105461996,78.4366251488169L204.67950904902654,-318.03649820765565L205.17339704343317,73.05318494788278L205.66728503783978,113.2705152500681L206.1611730322464,83.66171011361311L206.65506102665302,-8.331462112461924L207.14894902105965,175.49652710355028L207.64283701546626,114.69553842228527L208.1367250098729,98.70360204779146L208.6306130042795,175.49652710355028L209.12450099868613,4.810427917597557L209.61838899309274,172.9631622392211L210.11227698749937,106.93708859315988L210.60616498190598,150.2023657966959L211.1000529763126,116.91225079867993L211.5939409707192,85.87839349783712L212.08782896512582,29.510829569361455L212.58171695953243,41.30684505310209L213.07560495393906,154.12117952029303L213.56949294834567,75.93491973484706L214.0633809427523,78.11994366871177L214.5572689371589,107.41209631723225L215.05115693156554,67.66977373911934L215.54504492597215,74.16155563216546L216.03893292037878,33.70672146794396L216.5328209147854,27.927451161006413L217.02670890919202,146.36272969116766L217.52059690359863,-95.02037175567185L218.01448489800526,3.781234851383829L218.50837289241184,123.60193324864242L219.00226088681848,129.8957855926015L219.49614888122508,81.68250159925465L219.99003687563172,2.4353892972356372L220.48392487003832,51.994518844730706L220.97781286444496,45.106906845681145L221.47170085885156,96.4077410454985L221.9655888532582,-50.923831035009144L222.4594768476648,74.55738573816889L222.95336484207144,39.010984050809114L223.44725283647804,56.982099947490724L223.94114083088468,100.92031442418613L224.43502882529128,146.8773117281892L224.92891681969792,40.911014947098664L225.4228048141045,158.87125676101687L225.91669280851113,1.1686923689857336L226.41058080291774,107.5704225611995L226.90446879732437,49.619480224368786L227.39835679173098,90.78682597469886L227.8922447861376,184.75917772296174L228.38613278054422,145.57104048699014L228.88002077495085,153.40866793418445L229.37390876935746,32.994209881835395L229.8677967637641,171.37978383086607L230.3616847581707,103.6120345246532L230.85557275257733,97.91194183578462L231.34946074698394,53.26121577298061L231.84334874139057,105.19538394083759L232.33723673579715,87.77842439412667L232.83112473020378,182.85914682667223L233.3250127246104,73.52819267195518L233.81890071901702,64.10721580857647L234.31278871342363,127.20406549213446L234.80667670783026,121.02896507919347L235.30056470223687,126.80823538613102L235.7944526966435,49.2632244313145L236.2883406910501,98.386949559857L236.78222868545674,106.62040711305474L237.27611667986335,43.919387535500185L237.77000467426998,70.2031386034485L238.2638926686766,139.39594007404915L238.75778066308322,90.62847073856096L239.2516686574898,63.394704222467894L239.74555665189644,42.49436436328305L240.23944464630304,52.232022706766884L240.73333264070968,144.146017314773L241.22722063511628,51.519511120658315L241.72110862952292,52.58827849982118L242.21499662392952,66.56143204700733L242.70888461833616,85.7200672538699L243.20277261274276,79.54496684092892L243.6966606071494,85.838819184888L244.190548601556,148.65859069346064L244.68443659596264,51.994518844730706L245.17832459036924,80.73248615110988L245.67221258477588,120.75188690420813L246.16610057918246,44.156891397536384L246.6599885735891,47.56112308411201L247.1538765679957,23.019047676315342L247.64776456240233,91.57848618670573L248.14165255680894,162.31506276054162L248.63554055121557,58.48630073777682L249.12942854562218,61.494673326178365L249.6233165400288,31.569186709618236L250.11720453443542,122.45398825141062L250.61109252884205,58.40712311970788L251.10498052324866,-1.681353975448558L251.5988685176553,136.54589372961487L252.0927565120619,-56.30724224377259L252.58664450646853,48.194457052151634L253.0805325008751,-16.88160114576482L253.57442049528174,62.9196964983955L254.06830848968835,90.15346301448858L254.56219648409498,135.12087055739772L255.0560844785016,99.97029897604139L255.54997247290822,67.19476601504695L256.04386046731486,31.094178985545845L256.5377484617215,131.32080876481865L257.03163645612807,7.1854665379594564L257.5255244505347,26.660783224927165L258.0194124449413,13.043885470795312L258.5133004393479,138.76260610600954L259.00718843375455,-209.9722409811885L259.5010764281612,42.019356639210656L259.99496442256776,76.93242435853081L260.4888524169744,-67.70742762150984L260.98274041138103,36.08176008830588L261.47662840578766,61.019665602105974L261.97051640019424,45.106906845681145L262.4644043946009,106.93708859315988L262.9582923890075,72.73653245994832L263.45218038341415,99.02028352789661L263.9460683778207,134.4875365893581L264.43995637222736,123.00817359355196L264.93384436663393,96.64524490753469L265.42773236104057,196.04061116968083L265.9216203554472,4.493746437492417L266.41550834985384,-27.569274937393438L266.9093963442604,-24.640050974890183L267.40328433866705,135.5958782814701L267.8971723330737,126.33322766205862L268.3910603274803,76.85324674046186L268.8849483218869,-23.373383038810935L269.37883631629353,13.993900918940076L269.87272431070016,18.902304403631145L270.3666123051068,-10.706500732823844L270.8605002995134,23.019047676315342L271.35438829392,121.34564655929861L271.8482762883266,161.56297686148392L272.3421642827332,188.796743377577" fill="none"></path></g></g></g></g></g></g><g transform="translate(41, 176)" clip-path="url(#clip_1)"><clipPath id="clip_1"><rect width="288" height="23"></rect></clipPath><g><g><line x1="0.7037673590932666" y1="0" x2="0.7037673590932666" y2="5" style="visibility: inherit;" fill="rgb(0, 0, 0)" stroke="rgb(204, 204, 204)" stroke-width="1px"></line><line x1="25.398167079424173" y1="0" x2="25.398167079424173" y2="5" style="visibility: inherit;" fill="rgb(0, 0, 0)" stroke="rgb(204, 204, 204)" stroke-width="1px"></line><line x1="50.092566799755076" y1="0" x2="50.092566799755076" y2="5" style="visibility: inherit;" fill="rgb(0, 0, 0)" stroke="rgb(204, 204, 204)" stroke-width="1px"></line><line x1="74.78696652008598" y1="0" x2="74.78696652008598" y2="5" style="visibility: inherit;" fill="rgb(0, 0, 0)" stroke="rgb(204, 204, 204)" stroke-width="1px"></line><line x1="99.48136624041689" y1="0" x2="99.48136624041689" y2="5" style="visibility: inherit;" fill="rgb(0, 0, 0)" stroke="rgb(204, 204, 204)" stroke-width="1px"></line><line x1="124.1757659607478" y1="0" x2="124.1757659607478" y2="5" style="visibility: inherit;" fill="rgb(0, 0, 0)" stroke="rgb(204, 204, 204)" stroke-width="1px"></line><line x1="148.87016568107873" y1="0" x2="148.87016568107873" y2="5" style="visibility: inherit;" fill="rgb(0, 0, 0)" stroke="rgb(204, 204, 204)" stroke-width="1px"></line><line x1="173.56456540140962" y1="0" x2="173.56456540140962" y2="5" style="visibility: inherit;" fill="rgb(0, 0, 0)" stroke="rgb(204, 204, 204)" stroke-width="1px"></line><line x1="198.25896512174052" y1="0" x2="198.25896512174052" y2="5" style="visibility: inherit;" fill="rgb(0, 0, 0)" stroke="rgb(204, 204, 204)" stroke-width="1px"></line><line x1="222.95336484207144" y1="0" x2="222.95336484207144" y2="5" style="visibility: inherit;" fill="rgb(0, 0, 0)" stroke="rgb(204, 204, 204)" stroke-width="1px"></line><line x1="247.64776456240233" y1="0" x2="247.64776456240233" y2="5" style="visibility: inherit;" fill="rgb(0, 0, 0)" stroke="rgb(204, 204, 204)" stroke-width="1px"></line><line x1="272.3421642827332" y1="0" x2="272.3421642827332" y2="5" style="visibility: inherit;" fill="rgb(0, 0, 0)" stroke="rgb(204, 204, 204)" stroke-width="1px"></line></g><g transform="translate(0, 8)"><text style="text-anchor: middle; visibility: hidden; font-family: Roboto, sans-serif; font-size: 12px; font-weight: 200;" x="0.7037673590932666" y="0" dx="0em" dy="0.95em" fill="rgb(33, 33, 33)" stroke="none" stroke-width="1px">-100k</text><text style="text-anchor: middle; visibility: inherit; font-family: Roboto, sans-serif; font-size: 12px; font-weight: 200;" x="25.398167079424173" y="0" dx="0em" dy="0.95em" fill="rgb(33, 33, 33)" stroke="none" stroke-width="1px">0</text><text style="text-anchor: middle; visibility: hidden; font-family: Roboto, sans-serif; font-size: 12px; font-weight: 200;" x="50.092566799755076" y="0" dx="0em" dy="0.95em" fill="rgb(33, 33, 33)" stroke="none" stroke-width="1px">100k</text><text style="text-anchor: middle; visibility: inherit; font-family: Roboto, sans-serif; font-size: 12px; font-weight: 200;" x="74.78696652008598" y="0" dx="0em" dy="0.95em" fill="rgb(33, 33, 33)" stroke="none" stroke-width="1px">200k</text><text style="text-anchor: middle; visibility: hidden; font-family: Roboto, sans-serif; font-size: 12px; font-weight: 200;" x="99.48136624041689" y="0" dx="0em" dy="0.95em" fill="rgb(33, 33, 33)" stroke="none" stroke-width="1px">300k</text><text style="text-anchor: middle; visibility: inherit; font-family: Roboto, sans-serif; font-size: 12px; font-weight: 200;" x="124.1757659607478" y="0" dx="0em" dy="0.95em" fill="rgb(33, 33, 33)" stroke="none" stroke-width="1px">400k</text><text style="text-anchor: middle; visibility: hidden; font-family: Roboto, sans-serif; font-size: 12px; font-weight: 200;" x="148.87016568107873" y="0" dx="0em" dy="0.95em" fill="rgb(33, 33, 33)" stroke="none" stroke-width="1px">500k</text><text style="text-anchor: middle; visibility: inherit; font-family: Roboto, sans-serif; font-size: 12px; font-weight: 200;" x="173.56456540140962" y="0" dx="0em" dy="0.95em" fill="rgb(33, 33, 33)" stroke="none" stroke-width="1px">600k</text><text style="text-anchor: middle; visibility: hidden; font-family: Roboto, sans-serif; font-size: 12px; font-weight: 200;" x="198.25896512174052" y="0" dx="0em" dy="0.95em" fill="rgb(33, 33, 33)" stroke="none" stroke-width="1px">700k</text><text style="text-anchor: middle; visibility: inherit; font-family: Roboto, sans-serif; font-size: 12px; font-weight: 200;" x="222.95336484207144" y="0" dx="0em" dy="0.95em" fill="rgb(33, 33, 33)" stroke="none" stroke-width="1px">800k</text><text style="text-anchor: middle; visibility: hidden; font-family: Roboto, sans-serif; font-size: 12px; font-weight: 200;" x="247.64776456240233" y="0" dx="0em" dy="0.95em" fill="rgb(33, 33, 33)" stroke="none" stroke-width="1px">900k</text><text style="text-anchor: middle; visibility: inherit; font-family: Roboto, sans-serif; font-size: 12px; font-weight: 200;" x="272.3421642827332" y="0" dx="0em" dy="0.95em" fill="rgb(33, 33, 33)" stroke="none" stroke-width="1px">1M</text></g><line x1="0" y1="0" x2="288.850998878479" y2="0" fill="rgb(0, 0, 0)" stroke="rgb(204, 204, 204)" stroke-width="1px"></line></g></g></g></g></svg>