<svg viewBox="0 0 330 200" xmlns="http://www.w3.org/2000/svg"><g><g><g><g><g><line x1="51.53200149536133" y1="162.84550956774487" x2="46.53200149536133" y2="162.84550956774487" style="visibility: inherit;" fill="rgb(0, 0, 0)" stroke="rgb(204, 204, 204)" stroke-width="1px"></line><line x1="51.53200149536133" y1="145.56660850079052" x2="46.53200149536133" y2="145.56660850079052" style="visibility: inherit;" fill="rgb(0, 0, 0)" stroke="rgb(204, 204, 204)" stroke-width="1px"></line><line x1="51.53200149536133" y1="128.28770743383615" x2="46.53200149536133" y2="128.28770743383615" style="visibility: inherit;" fill="rgb(0, 0, 0)" stroke="rgb(204, 204, 204)" stroke-width="1px"></line><line x1="51.53200149536133" y1="111.00880636688176" x2="46.53200149536133" y2="111.00880636688176" style="visibility: inherit;" fill="rgb(0, 0, 0)" stroke="rgb(204, 204, 204)" stroke-width="1px"></line><line x1="51.53200149536133" y1="93.72990529992737" x2="46.53200149536133" y2="93.72990529992737" style="visibility: inherit;" fill="rgb(0, 0, 0)" stroke="rgb(204, 204, 204)" stroke-width="1px"></line><line x1="51.53200149536133" y1="76.45100423297299" x2="46.53200149536133" y2="76.45100423297299" style="visibility: inherit;" fill="rgb(0, 0, 0)" stroke="rgb(204, 204, 204)" stroke-width="1px"></line><line x1="51.53200149536133" y1="59.17210316601862" x2="46.53200149536133" y2="59.17210316601862" style="visibility: inherit;" fill="rgb(0, 0, 0)" stroke="rgb(204, 204, 204)" stroke-width="1px"></line><line x1="51.53200149536133" y1="41.89320209906423" x2="46.53200149536133" y2="41.89320209906423" style="visibility: inherit;" fill="rgb(0, 0, 0)" stroke="rgb(204, 204, 204)" stroke-width="1px"></line><line x1="51.53200149536133" y1="24.614301032109868" x2="46.53200149536133" y2="24.614301032109868" style="visibility: inherit;" fill="rgb(0, 0, 0)" stroke="rgb(204, 204, 204)" stroke-width="1px"></line><line x1="51.53200149536133" y1="7.335399965155478" x2="46.53200149536133" y2="7.335399965155478" style="visibility: inherit;" fill="rgb(0, 0, 0)" stroke="rgb(204, 204, 204)" stroke-width="1px"></line></g><g transform="translate(41.53200149536133, 0)"><text style="text-anchor: end; visibility: inherit; font-family: Roboto, sans-serif; font-size: 12px; font-weight: 200;" x="0" y="162.84550956774487" dx="0em" dy="0.3em" fill="rgb(33, 33, 33)" stroke="none" stroke-width="1px">-100</text><text style="text-anchor: end; visibility: hidden; font-family: Roboto, sans-serif; font-size: 12px; font-weight: 200;" x="0" y="145.56660850079052" dx="0em" dy="0.3em" fill="rgb(33, 33, 33)" stroke="none" stroke-width="1px">-50</text><text style="text-anchor: end; visibility: inherit; font-family: Roboto, sans-serif; font-size: 12px; font-weight: 200;" x="0" y="128.28770743383615" dx="0em" dy="0.3em" fill="rgb(33, 33, 33)" stroke="none" stroke-width="1px">0</text><text style="text-anchor: end; visibility: hidden; font-family: Roboto, sans-serif; font-size: 12px; font-weight: 200;" x="0" y="111.00880636688176" dx="0em" dy="0.3em" fill="rgb(33, 33, 33)" stroke="none" stroke-width="1px">50</text><text style="text-anchor: end; visibility: inherit; font-family: Roboto, sans-serif; font-size: 12px; font-weight: 200;" x="0" y="93.72990529992737" dx="0em" dy="0.3em" fill="rgb(33, 33, 33)" stroke="none" stroke-width="1px">100</text><text style="text-anchor: end; visibility: hidden; font-family: Roboto, sans-serif; font-size: 12px; font-weight: 200;" x="0" y="76.45100423297299" dx="0em" dy="0.3em" fill="rgb(33, 33, 33)" stroke="none" stroke-width="1px">150</text><text style="text-anchor: end; visibility: inherit; font-family: Roboto, sans-serif; font-size: 12px; font-weight: 200;" x="0" y="59.17210316601862" dx="0em" dy="0.3em" fill="rgb(33, 33, 33)" stroke="none" stroke-width="1px">200</text><text style="text-anchor: end; visibility: hidden; font-family: Roboto, sans-serif; font-size: 12px; font-weight: 200;" x="0" y="41.89320209906423" dx="0em" dy="0.3em" fill="rgb(33, 33, 33)" stroke="none" stroke-width="1px">250</text><text style="text-anchor: end; visibility: inherit; font-family: Roboto, sans-serif; font-size: 12px; font-weight: 200;" x="0" y="24.614301032109868" dx="0em" dy="0.3em" fill="rgb(33, 33, 33)" stroke="none" stroke-width="1px">300</text><text style="text-anchor: end; visibility: hidden; font-family: Roboto, sans-serif; font-size: 12px; font-weight: 200;" x="0" y="7.335399965155478" dx="0em" dy="0.3em" fill="rgb(33, 33, 33)" stroke="none" stroke-width="1px">350</text></g><line x1="51.53200149536133" y1="0" x2="51.53200149536133" y2="176.5999994277954" fill="rgb(0, 0, 0)" stroke="rgb(204, 204, 204)" stroke-width="1px"></line></g></g><g transform="translate(51, 0)" clip-path="url(#clip_0)"><clipPath id="clip_0"><rect width="278" height="176"></rect></clipPath><g><g><g><line x1="11.741880400037967" y1="0" x2="11.741880400037967" y2="176.5999994277954" fill="rgb(0, 0, 0)" stroke="rgb(66, 66, 66)" stroke-width="1px" opacity="0.25"></line><line x1="36.17129897545491" y1="0" x2="36.17129897545491" y2="176.5999994277954" fill="rgb(0, 0, 0)" stroke="rgb(66, 66, 66)" stroke-width="1px" opacity="0.25"></line><line x1="60.60071755087186" y1="0" x2="60.60071755087186" y2="176.5999994277954" fill="rgb(0, 0, 0)" stroke="rgb(66, 66, 66)" stroke-width="1px" opacity="0.25"></line><line x1="85.03013612628881" y1="0" x2="85.03013612628881" y2="176.5999994277954" fill="rgb(0, 0, 0)" stroke="rgb(66, 66, 66)" stroke-width="1px" opacity="0.25"></line><line x1="109.45955470170577" y1="0" x2="109.45955470170577" y2="176.5999994277954" fill="rgb(0, 0, 0)" stroke="rgb(66, 66, 66)" stroke-width="1px" opacity="0.25"></line><line x1="133.88897327712272" y1="0" x2="133.88897327712272" y2="176.5999994277954" fill="rgb(0, 0, 0)" stroke="rgb(66, 66, 66)" stroke-width="1px" opacity="0.25"></line><line x1="158.31839185253966" y1="0" x2="158.31839185253966" y2="176.5999994277954" fill="rgb(0, 0, 0)" stroke="rgb(66, 66, 66)" stroke-width="1px" opacity="0.25"></line><line x1="182.7478104279566" y1="0" x2="182.7478104279566" y2="176.5999994277954" fill="rgb(0, 0, 0)" stroke="rgb(66, 66, 66)" stroke-width="1px" opacity="0.25"></line><line x1="207.17722900337358" y1="0" x2="207.17722900337358" y2="176.5999994277954" fill="rgb(0, 0, 0)" stroke="rgb(66, 66, 66)" stroke-width="1px" opacity="0.25"></line><line x1="231.60664757879053" y1="0" x2="231.60664757879053" y2="176.5999994277954" fill="rgb(0, 0, 0)" stroke="rgb(66, 66, 66)" stroke-width="1px" opacity="0.25"></line><line x1="256.03606615420745" y1="0" x2="256.03606615420745" y2="176.5999994277954" fill="rgb(0, 0, 0)" stroke="rgb(66, 66, 66)" stroke-width="1px" opacity="0.25"></line></g><g><line x1="0" y1="162.84550956774487" x2="278.4679985046387" y2="162.84550956774487" fill="rgb(0, 0, 0)" stroke="rgb(66, 66, 66)" stroke-width="1px" opacity="0.25"></line><line x1="0" y1="145.56660850079052" x2="278.4679985046387" y2="145.56660850079052" fill="rgb(0, 0, 0)" stroke="rgb(66, 66, 66)" stroke-width="1px" opacity="0.25"></line><line x1="0" y1="128.28770743383615" x2="278.4679985046387" y2="128.28770743383615" fill="rgb(0, 0, 0)" stroke="rgb(66, 66, 66)" stroke-width="1px" opacity="0.25"></line><line x1="0" y1="111.00880636688176" x2="278.4679985046387" y2="111.00880636688176" fill="rgb(0, 0, 0)" stroke="rgb(66, 66, 66)" stroke-width="1px" opacity="0.25"></line><line x1="0" y1="93.72990529992737" x2="278.4679985046387" y2="93.72990529992737" fill="rgb(0, 0, 0)" stroke="rgb(66, 66, 66)" stroke-width="1px" opacity="0.25"></line><line x1="0" y1="76.45100423297299" x2="278.4679985046387" y2="76.45100423297299" fill="rgb(0, 0, 0)" stroke="rgb(66, 66, 66)" stroke-width="1px" opacity="0.25"></line><line x1="0" y1="59.17210316601862" x2="278.4679985046387" y2="59.17210316601862" fill="rgb(0, 0, 0)" stroke="rgb(66, 66, 66)" stroke-width="1px" opacity="0.25"></line><line x1="0" y1="41.89320209906423" x2="278.4679985046387" y2="41.89320209906423" fill="rgb(0, 0, 0)" stroke="rgb(66, 66, 66)" stroke-width="1px" opacity="0.25"></line><line x1="0" y1="24.614301032109868" x2="278.4679985046387" y2="24.614301032109868" fill="rgb(0, 0, 0)" stroke="rgb(66, 66, 66)" stroke-width="1px" opacity="0.25"></line><line x1="0" y1="7.335399965155478" x2="278.4679985046387" y2="7.335399965155478" fill="rgb(0, 0, 0)" stroke="rgb(66, 66, 66)" stroke-width="1px" opacity="0.25"></line></g></g></g><g><g><line x1="0" y1="128.28770743383615" x2="278.4679985046387" y2="128.28770743383615" fill="rgb(0, 0, 0)" stroke="rgb(153, 153, 153)" stroke-width="1.5px"></line></g></g><g><g><line x1="11.741880400037967" y1="0" x2="11.741880400037967" y2="176.5999994277954" fill="rgb(0, 0, 0)" stroke="rgb(153, 153, 153)" stroke-width="1.5px"></line></g></g><g><g><g><g><g><path style="fill: none;" stroke="rgb(255, 112, 67)" stroke-width="2px" d="M12.230468771546304,139.5786595962584L12.719057143054643,131.45830277683172L13.207645514562982,127.38573995032326L13.696233886071322,128.22093168035835L14.184822257579661,127.2863933610783L14.673410629088,119.39681131965402L15.161999000596339,116.26953320953703L15.650587372104678,111.45220805273213L16.13917574361302,113.21413141191866L16.627764115121355,116.14696046582922L17.116352486629694,116.48732480970554L17.604940858138036,120.30460201267726L18.09352922964637,121.4480627799304L18.582117601154714,120.06096420179796L19.07070597266305,122.42677861184156L19.55929434417139,122.1561429139294L20.047882715679727,121.14948864231924L20.53647108718807,122.41555148795264L21.025059458696408,124.12998428433447L21.513647830204746,126.67715937564698L22.002236201713085,127.98284213568229L22.490824573221424,126.53691438743117L22.979412944729763,127.91407381199674L23.468001316238105,128.9217479770374L23.95658968774644,129.15921532337285L24.44517805925478,131.52501949068872L24.933766430763118,130.03912220326652L25.422354802271457,132.55721194780972L25.9109431737798,134.10124737003704L26.399531545288134,134.15995597911422L26.888119916796477,133.71387148867808L27.376708288304812,134.08126710949162L27.865296659813154,132.40044798325607L28.35388503132149,129.5632347437404L28.84247340282983,131.29500949195668L29.33106177433817,133.1692494084459L29.81965014584651,138.6204402292825L30.308238517354848,140.22564127569984L30.796826888863183,137.73518516743533L31.285415260371526,138.69933132289185L31.774003631879864,135.93263953333914L32.2625920033882,134.5496835664184L32.75118037489654,138.05564843286808L33.23976874640488,135.99246097016578L33.72835711791322,136.9775141395477L34.21694548942156,133.50469331561305L34.7055338609299,129.90630860422434L35.19412223243824,131.10211526217003L35.68271060394658,133.040895423197L36.17129897545491,133.78772617072016L36.65988734696325,134.58678302570056L37.148475718471595,166.40157908601958L37.63706408997994,164.12411121265777L38.12565246148827,159.90966226890134L38.61424083299661,157.30113874749333L39.10282920450495,154.09878043642954L39.591417576013285,151.70317164713458L40.08000594752163,149.24821985023203L40.56859431902997,145.63036867281843L41.057182690538305,142.56673346184394L41.54577106204664,142.81064764526L42.03435943355498,143.49957291374594L42.522947805063325,142.93583220659167L43.01153617657167,143.27329579427584L43.500124548079995,135.65431015120225L43.98871291958834,135.95072735695135L44.47730129109668,134.69488295461878L44.96588966260502,134.6177663551144L45.45447803411336,133.31416840179875L45.94306640562169,131.4499745691067L46.431654777130035,130.3466071967919L46.92024314863837,130.02715918051533L47.40883152014671,129.9900631625444L47.897419891655055,130.40144335547163L48.38600826316339,131.2125719911555L48.874596634671725,134.893361596553L49.36318500618007,133.0671440446937L49.85177337768841,130.747335289211L50.340361749196745,131.52023776936255L50.82895012070508,132.74122462707246L51.31753849221342,129.12323924337505L51.806126863721765,129.2592673426456L52.29471523523011,127.55704477267408L52.783303606738436,129.89430481788392L53.27189197824678,127.90904775864448L53.76048034975512,128.750048008663L54.249068721263455,127.59429550498596L54.7376570927718,127.91668169564194L55.22624546428013,128.66039261177707L55.714833835788475,127.13653844828018L56.20342220729681,129.20836769944327L56.69201057880515,129.0726116226268L57.180598950313495,126.7400276265664L57.66918732182183,125.17175707351247L58.157775693330166,124.34276932618197L58.64636406483851,125.79866168788124L59.13495243634685,125.77405168392116L59.62354080785519,124.43214314866974L60.11212917936352,123.2898481949066L60.60071755087186,119.37746658767425L61.089305922380206,119.75973944790562L61.57789429388854,119.07069035093627L62.06648266539688,119.76515278236539L62.55507103690522,119.50560942449366L63.04365940841356,120.63774494069743L63.532247779921896,120.60238166911275L64.02083615143025,120.74706103894415L64.50942452293857,121.75517150379342L64.99801289444692,123.70809520676099L65.48660126595526,127.80496249197736L65.9751896374636,126.86430583717573L66.46377800897193,126.08680345805936L66.95236638048027,126.54154417031498L67.44095475198861,124.0539042883791L67.92954312349694,124.55461018285273L68.41813149500528,123.8513256399845L68.90671986651363,127.65907879143919L69.39530823802197,127.58234480325646L69.88389660953031,127.24758603848002L70.37248498103864,127.78465523758403L70.86107335254698,123.59267828618333L71.34966172405532,119.92591364923554L71.83825009556365,116.5066148338935L72.32683846707201,113.05825675198193L72.81542683858034,115.04410751409259L73.30401521008866,115.77296843474957L73.79260358159702,120.48909971739144L74.28119195310535,120.68516408960973L74.7697803246137,127.35914279198747L75.25836869612203,126.3592800683133L75.74695706763036,122.50277378746979L76.23554543913872,121.74348743551981L76.72413381064705,117.09335206845907L77.21272218215539,114.70231248260451L77.70131055366373,114.83564006274025L78.18989892517206,115.43412296728438L78.67848729668042,115.19883437687663L79.16707566818874,121.86223214061805L79.65566403969709,118.70111623793602L80.14425241120543,114.84341832585261L80.63284078271376,112.4666395781733L81.1214291542221,110.57999451010282L81.61001752573044,110.32528098535879L82.09860589723878,111.3539718738637L82.58719426874711,110.12661184060832L83.07578264025545,106.00522915883448L83.5643710117638,108.77769358222035L84.05295938327214,106.76249552825423L84.54154775478048,103.7824918722842L85.03013612628881,108.6954876739357L85.51872449779715,106.86081552888321L86.0073128693055,106.82646653393536L86.49590124081382,106.37335989292453L86.98448961232218,111.07325378384807L87.4730779838305,111.49269973855861L87.96166635533883,115.8078728620133L88.45025472684719,116.85635430316958L88.93884309835552,116.73428218035684L89.42743146986388,118.2201352460714L89.9160198413722,122.18725173951347L90.40460821288053,122.23925763388276L90.89319658438889,122.3245144335825L91.38178495589722,120.92270157599403L91.87037332740556,121.31461460607731L92.3589616989139,122.8469092403055L92.84755007042223,116.27771543575552L93.33613844193059,118.34162284640904L93.82472681343891,119.25260097867225L94.31331518494724,122.6717125553117L94.8019035564556,125.20250804616938L95.29049192796393,122.61726128579967L95.77908029947227,119.3527092813427L96.26766867098061,119.72288274947608L96.75625704248894,122.39095359012813L97.24484541399728,121.65559041707017L97.73343378550562,125.33008279288299L98.22202215701397,127.2835368116054L98.71061052852231,126.71358413201727L99.19919890003064,128.4057781973795L99.68778727153898,126.71067787029392L100.17637564304732,127.33557896414774L100.66496401455566,126.90426923253844L101.15355238606399,125.30178090097536L101.64214075757234,118.64447527747444L102.13072912908068,115.78069243800178L102.619317500589,116.35484392818756L103.10790587209736,115.98588689669191L103.59649424360569,117.99144197590363L104.08508261511403,112.74723916424018L104.57367098662237,111.7483396937057L105.0622593581307,114.49905469158735L105.55084772963906,115.40256579416157L106.03943610114739,115.32117416369427L106.52802447265572,119.08107305080111L107.01661284416407,118.94848364153434L107.5052012156724,117.65439592328734L107.99378958718076,108.5482648559717L108.48237795868909,101.2452363076494L108.97096633019741,103.86131491359917L109.45955470170577,103.27166891219186L109.9481430732141,100.1190176252309L110.43673144472244,102.0251964262235L110.92531981623078,105.13287133888075L111.41390818773911,105.75370924618854L111.90249655924745,101.37892303569527L112.3910849307558,102.7709810532859L112.87967330226414,101.15899168207464L113.36826167377248,101.96973245511501L113.85685004528081,99.79375693628516L114.34543841678915,99.45588604279358L114.83402678829749,100.6596047953484L115.32261515980584,102.42076894217034L115.81120353131416,99.78013540360375L116.2997919028225,103.75834050640518L116.78838027433085,103.68498643494323L117.27696864583918,105.3800281287767L117.76555701734753,107.48423009731198L118.25414538885586,105.04962386717466L118.7427337603642,106.75019367087428L119.23132213187255,106.5267607373301L119.71991050338087,103.95126096617122L120.20849887488923,106.07654646487123L120.69708724639756,104.66470453471435L121.18567561790589,103.65902492554228L121.67426398941424,101.37427254541215L122.16285236092257,100.72797756486639L122.65144073243093,101.30940035156632L123.14002910393926,98.20281642968602L123.62861747544758,100.89353442198045L124.11720584695594,103.29984890579404L124.60579421846427,100.89858034587117L125.09438258997261,99.59360850622734L125.58297096148095,96.6250773855741L126.07155933298928,98.84024025269248L126.56014770449762,95.64556847112459L127.04873607600597,98.15414129512705L127.5373244475143,96.82848917139786L128.02591281902264,94.98333124132817L128.51450119053098,98.98326880015655L129.00308956203932,94.44100294515718L129.49167793354766,93.84919965595927L129.98026630505598,93.64448349715848L130.46885467656435,93.64710477470618L130.95744304807266,89.64921455986251L131.44603141958103,92.64517899567247L131.93461979108935,96.70227221253728L132.4232081625977,89.07468110463158L132.91179653410603,91.2837597536463L133.40038490561437,90.65356086411937L133.88897327712272,89.56676563363995L134.37756164863106,90.22062968746738L134.86615002013937,90.27218320287764L135.35473839164774,91.01935607502631L135.84332676315606,92.04665056691945L136.3319151346644,94.23166630470557L136.82050350617274,93.0800815425562L137.30909187768108,89.71552477034753L137.79768024918943,84.96930251767292L138.28626862069777,75.46164284586912L138.7748569922061,80.50880664569974L139.26344536371445,80.06639521853425L139.75203373522277,75.15165898322701L140.2406221067311,80.75981143670424L140.72921047823948,81.5759661122772L141.2177988497478,76.28405776074369L141.70638722125614,71.11837294327879L142.19497559276448,70.38011608117169L142.6835639642728,75.78279141090857L143.17215233578113,73.10270614556538L143.6607407072895,71.99837719141259L144.14932907879785,69.61655952126996L144.63791745030616,72.30428743857L145.1265058218145,77.14147652395832L145.61509419332285,77.69910109887307L146.1036825648312,77.75099728321648L146.59227093633953,74.64097602233971L147.08085930784787,74.22309259645529L147.5694476793562,76.70849832528096L148.05803605086453,77.94421257405003L148.5466244223729,80.42085283505516L149.03521279388121,84.0458431793793L149.52380116538956,83.10550137318624L150.0123895368979,80.5199517066466L150.50097790840624,79.37467185004323L150.98956627991456,81.20141349725615L151.47815465142293,81.87585135884497L151.96674302293127,79.23052523010558L152.45533139443958,83.42819983682575L152.94391976594792,89.58110460315478L153.43250813745627,92.3251463142248L153.92109650896458,86.66465830083757L154.40968488047295,89.00096321927253L154.8982732519813,87.69839339320538L155.38686162348964,87.40926240698137L155.87544999499795,84.45122158840894L156.3640383665063,81.3143091620223L156.85262673801466,75.54326200211145L157.34121510952298,61.342486726058404L157.82980348103132,50.62291910127623L158.31839185253966,48.96516321153705L158.80698022404798,50.12104794483141L159.29556859555635,49.296086623694485L159.7841569670647,34.33678335578276L160.27274533857303,38.71691676429252L160.76133371008135,43.697406612249964L161.2499220815897,52.45174422275083L161.73851045309803,55.61598475812388L162.22709882460637,60.756867442636555L162.71568719611471,50.69744571219526L163.20427556762306,57.8392697148967L163.69286393913137,57.20965646282144L164.1814523106397,62.081594805315355L164.67004068214808,60.88541641682417L165.15862905365643,63.50739256515978L165.64721742516474,60.747466934956094L166.13580579667308,64.55760454328433L166.62439416818142,62.15417859705031L167.11298253968974,62.43215395966439L167.6015709111981,59.622226700772714L168.09015928270645,58.9621096201215L168.57874765421477,57.88179892005178L169.0673360257231,53.439973643481906L169.55592439723145,56.35634436846272L170.04451276873982,51.048110328804036L170.53310114024814,43.07550353165096L171.02168951175648,45.37607802968824L171.51027788326482,48.38683190022912L171.99886625477313,30.937576450851758L172.48745462628148,35.169789506089536L172.97604299778985,43.82252935207023L173.46463136929816,47.0715091088629L173.9532197408065,43.00552610058026L174.44180811231485,47.520109363189L174.9303964838232,46.14731512006033L175.41898485533153,49.58088229431018L175.90757322683987,54.40665363950232L176.39616159834821,53.34404072042488L176.88474996985653,52.01190779752304L177.37333834136487,53.767149247975865L177.86192671287324,56.31621248139137L178.35051508438156,51.22652146296781L178.8391034558899,57.85923987584345L179.32769182739824,53.13284116783117L179.81628019890655,49.918166088947466L180.3048685704149,49.7928889237018L180.79345694192327,52.58193390608L181.2820453134316,52.272780278531194L181.77063368493992,51.93134704854348L182.25922205644827,58.949660097657464L182.7478104279566,63.52332898795788L183.23639879946492,57.34186761341513L183.7249871709733,60.153841849041775L184.21357554248164,63.467928491267564L184.70216391398995,65.59269727227873L185.1907522854983,66.1865633587157L185.67934065700663,68.00919630095103L186.167929028515,64.058171989668L186.65651740002332,66.5474799315427L187.14510577153166,69.76542851925396L187.63369414304,71.0064477681684L188.12228251454832,58.79720985832255L188.6108708860567,60.13041006351016L189.09945925756503,59.28301783691705L189.58804762907334,55.17028500645377L190.0766360005817,58.35292304260358L190.56522437209003,64.05182023761313L191.05381274359837,63.36223885277012L191.5424011151067,65.06552339249453L192.03098948661506,72.07078833553767L192.5195778581234,70.73141013535586L193.0081662296317,73.7350637572656L193.49675460114005,78.860854585935L193.98534297264843,77.61741750551396L194.47393134415674,74.2038007086838L194.96251971566508,77.84815363207682L195.45110808717342,81.70972514413752L195.93969645868177,83.2002084755163L196.42828483019008,79.00145318175231L196.91687320169845,75.44351217822422L197.4054615732068,73.85866999306774L197.8940499447151,70.27105096637209L198.38263831622345,74.90528475792684L198.8712266877318,71.98091820861154L199.35981505924013,69.69843626522174L199.84840343074848,66.04537474802356L200.33699180225682,65.7472035818035L200.82558017376516,64.90375024897634L201.31416854527347,62.51812225812684L201.80275691678182,58.140948275628006L202.2913452882902,56.570325780318754L202.7799336597985,58.452612560260214L203.26852203130684,57.35021910164497L203.7571104028152,58.189120702253085L204.2456987743235,61.08255829772658L204.73428714583187,59.903885538765515L205.2228755173402,56.40787237560182L205.71146388884856,57.18810239704457L206.20005226035687,48.93487561993378L206.6886406318652,47.590076980559026L207.17722900337358,51.51414769461069L207.6658173748819,47.08825569718331L208.15440574639024,55.94239261152756L208.64299411789858,62.29585556402911L209.1315824894069,70.16243691256338L209.62017086091524,75.43015997148687L210.1087592324236,69.99910345221606L210.59734760393195,62.30446065996895L211.08593597544026,60.32639161379635L211.5745243469486,61.19392542866266L212.06311271845695,66.1834136093845L212.55170108996526,71.3151328596851L213.04028946147363,72.46608143366949L213.52887783298198,64.82802014855208L214.0174662044903,67.85883702445457L214.50605457599863,70.8075336479655L214.99464294750697,64.9270119654175L215.48323131901532,63.1075562169038L215.97181969052366,67.16913362200364L216.460408062032,69.07233440493542L216.94899643354034,72.75775158066045L217.43758480504866,68.06857520573904L217.92617317655703,65.96882910432733L218.41476154806537,67.2997070385094L218.90334991957369,72.54840807035944L219.39193829108203,71.9058278085282L219.88052666259037,64.46462589767305L220.36911503409868,66.1633151702655L220.85770340560705,62.44895612870914L221.83488014862374,61.3204052633494L222.32346852013205,66.14543878245502L222.8120568916404,63.570096224133366L223.30064526314877,65.82638183482982L223.78923363465708,74.20878516916007L224.27782200616542,66.4536824879349L224.76641037767376,71.66953619363751L225.25499874918208,71.21745715966182L225.74358712069042,65.67707029261804L226.2321754921988,68.62906309549284L226.72076386370713,70.59207457054015L227.20935223521545,74.82647673290181L227.6979406067238,70.13245304088784L228.18652897823213,76.76316249897572L228.67511734974047,76.53473687111104L229.16370572124882,74.27837952764486L229.65229409275716,74.4271834224355L230.14088246426547,77.48974250332003L230.62947083577382,75.43667069158107L231.11805920728216,64.41757775324699L231.60664757879053,64.76218200891726L232.09523595029884,68.25873938522436L232.58382432180719,75.55064271062504L233.07241269331553,64.58474068916362L233.56100106482384,66.67526111864619L234.0495894363322,65.99284020450762L234.53817780784055,62.10154494214714L235.02676617934887,57.09025112362659L235.5153545508572,61.16300112861416L236.00394292236555,57.05711847511076L236.49253129387392,53.01823824360416L236.98111966538224,49.608056307693246L237.46970803689058,43.277050720684144L237.95829640839892,44.5859699822789L238.44688477990724,47.13075849757233L238.93547315141558,53.05210190150587L239.42406152292395,58.17011676509936L239.91264989443226,59.393996595646776L240.4012382659406,57.639909061057814L240.88982663744895,48.584166033866964L241.3784150089573,45.356433931368166L241.8670033804656,43.99321409434203L242.35559175197398,49.48355679015942L242.84418012348232,15.68816523611818L243.33276849499063,15.445970325142367L243.82135686649897,21.83751942425365L244.30994523800732,19.276240602809093L244.79853360951566,22.77507295374714L245.287121981024,22.963673003174737L245.77571035253234,29.3798618105045L246.26429872404069,27.743985754138507L246.752887095549,31.5842211471991L247.24147546705737,37.009996760713044L247.7300638385657,39.2134443848427L248.21865221007403,46.17839393284312L248.70724058158237,48.79520038405334L249.1958289530907,52.294477563075375L249.68441732459902,50.92891946396208L250.1730056961074,60.10948718970374L250.66159406761574,47.819633050472994L251.15018243912405,40.13922038383782L251.6387708106324,45.38288914452336L252.12735918214074,51.15479844885121L252.6159475536491,47.149469882489434L253.10453592515742,48.44798841716443L253.59312429666576,46.43891501421029L254.0817126681741,51.067589130948825L254.57030103968242,49.288394766417966L255.05888941119076,53.3718313587592L255.54747778269913,56.259236732314314L256.03606615420745,65.35528117887114" fill="none"></path></g></g></g></g><g opacity="0.2"><g><g><g><path style="fill: none;" stroke="rgb(255, 112, 67)" stroke-width="2px" d="M12.230468771546304,139.5786595962584L12.719057143054643,124.1499816393477L13.207645514562982,120.42165751699382L13.696233886071322,130.25796430991392L14.184822257579661,124.39390380907464L14.673410629088,90.31904664360113L15.161999000596339,103.08170447355225L15.650587372104678,88.8332868406143L16.13917574361302,122.24538955063171L16.627764115121355,132.31627935504923L17.116352486629694,118.4825045281964L17.604940858138036,143.8789785288748L18.09352922964637,128.83268583489294L18.582117601154714,110.75031362725674L19.07070597266305,138.8481062301369L19.55929434417139,120.22191504477526L20.047882715679727,113.76841581746667L20.53647108718807,131.90982468786885L21.025059458696408,137.24393496394384L21.513647830204746,146.50496493487745L22.002236201713085,138.3053220987049L22.490824573221424,114.94747222630889L22.979412944729763,139.08794075700467L23.468001316238105,137.1870296231459L23.95658968774644,131.12594411031503L24.44517805925478,151.28869155064118L24.933766430763118,117.53009198123817L25.422354802271457,153.9021833411415L25.9109431737798,147.27030561490318L26.399531545288134,134.66344620141373L26.888119916796477,129.86930141889664L27.376708288304812,137.26167565693L27.865296659813154,117.79250197660964L28.35388503132149,104.81742513691407L28.84247340282983,146.44749207646254L29.33106177433817,149.61517240003138L29.81965014584651,186.5758981735444L30.308238517354848,154.37953354821443L30.796826888863183,115.73009286202199L31.285415260371526,147.23413740737809L31.774003631879864,111.40046075465243L32.2625920033882,122.2686544772392L32.75118037489654,169.23155527257774L33.23976874640488,117.62385630594054L33.72835711791322,145.75701758223497L34.21694548942156,102.52210178286941L34.7055338609299,97.77523942411224L35.19412223243824,141.78828976755187L35.68271060394658,150.3788942377025L36.17129897545491,140.4707129205221L36.65988734696325,141.74123128584813L37.148475718471595,451.4066165408818L37.63706408997994,143.71246714629368L38.12565246148827,122.12212881087707L38.61424083299661,133.9038110178951L39.10282920450495,125.36526590768287L39.591417576013285,130.20174513153097L40.08000594752163,127.20811755051453L40.56859431902997,113.1419449186448L41.057182690538305,115.04907040336646L41.54577106204664,145.0019304493054L42.03435943355498,149.68987248311237L42.522947805063325,137.86955096108252L43.01153617657167,146.3064893254462L43.500124548079995,67.16428568586434L43.98871291958834,138.6156514097032L44.47730129109668,123.40307737222072L44.96588966260502,133.92431349812304L45.45447803411336,121.59086245277744L45.94306640562169,114.68391071725928L46.431654777130035,120.42252296488127L46.92024314863837,127.15374832466556L47.40883152014671,129.65636844647875L47.897419891655055,134.1021739147683L48.38600826316339,138.5097286297594L48.874596634671725,168.0082113972023L49.36318500618007,116.63665908162915L49.85177337768841,109.87531351528877L50.340361749196745,138.4744838742452L50.82895012070508,143.72743880152268L51.31753849221342,96.56848472804487L51.806126863721765,130.483279514845L52.29471523523011,112.23975273725635L52.783303606738436,150.9262949700513L53.27189197824678,110.04429534621883L53.76048034975512,136.318073804497L54.249068721263455,117.19373068328849L54.7376570927718,130.8178542198785L55.22624546428013,135.35316136893428L55.714833835788475,113.42301180849796L56.20342220729681,147.85341052178944L56.69201057880515,127.85089069773548L57.180598950313495,105.74806702258155L57.66918732182183,111.05810591699169L58.157775693330166,116.88225249516312L58.64636406483851,138.90110354311707L59.13495243634685,125.5525706150314L59.62354080785519,112.35540636804745L60.11212917936352,113.00953073272636L60.60071755087186,84.16707130586775L61.089305922380206,123.20010380667067L61.57789429388854,112.8693967252863L62.06648266539688,126.01518019466252L62.55507103690522,117.16976443409743L63.04365940841356,130.82678701967498L63.532247779921896,120.28411721666504L64.02083615143025,122.04915698701994L64.50942452293857,130.828050421989L64.99801289444692,141.2842075692195L65.48660126595526,164.67638863218528L65.9751896374636,118.39847435003017L66.46377800897193,119.08934037209106L66.95236638048027,130.6341798785636L67.44095475198861,101.66529650980878L67.92954312349694,129.0609358507295L68.41813149500528,117.52179936899743L68.90671986651363,161.92868848276603L69.39530823802197,126.89174196878386L69.88389660953031,124.23476916680767L70.37248498103864,132.6182606862344L70.86107335254698,85.86500755590096L71.34966172405532,86.92512782787475L71.83825009556365,85.73300599022434L72.32683846707201,82.02310707542719L72.81542683858034,132.9167265061418L73.30401521008866,122.33270421228856L73.79260358159702,162.93420841871145L74.28119195310535,122.44974071411383L74.7697803246137,187.4248676168365L75.25836869612203,117.36052681338472L75.74695706763036,87.79425634061846L76.23554543913872,114.90991719292302L76.72413381064705,75.24217193466552L77.21272218215539,93.18297387366835L77.70131055366373,116.0355873975028L78.18989892517206,120.82046552694466L78.67848729668042,113.08123833034729L79.16707566818874,181.83277971730112L79.65566403969709,90.2510869033207L80.14425241120543,80.12415226245945L80.63284078271376,91.07563924718946L81.1214291542221,93.60019489712724L81.61001752573044,108.03285999166808L82.09860589723878,120.61218722064955L82.58719426874711,99.08037438666099L83.07578264025545,68.91279362189687L83.5643710117638,133.72986818656526L84.05295938327214,88.62571644828044L84.54154775478048,76.9624635011884L85.03013612628881,152.91244316332683L85.51872449779715,90.34876848376955L86.0073128693055,106.51732561749154L86.49590124081382,102.29540057599976L86.98448961232218,153.37229458097391L87.4730779838305,115.2677129919025L87.96166635533883,154.64442783382796L88.45025472684719,126.29268658708531L88.93884309835552,115.63563314697595L89.42743146986388,131.5928120494868L89.9160198413722,157.8912982869434L90.40460821288053,122.70731066086567L90.89319658438889,123.09182559791819L91.38178495589722,108.3063863454721L91.87037332740556,124.84183175409404L92.3589616989139,136.6375605164857L92.84755007042223,57.15497286116505L93.33613844193059,136.916789071108L93.82472681343891,127.45140398186567L94.31331518494724,153.44371611280414L94.8019035564556,147.97966704269297L95.29049192796393,99.35004082970423L95.77908029947227,89.97174168131372L96.26766867098061,123.0544439177649L96.75625704248894,146.4035908646605L97.24484541399728,115.03732193181581L97.73343378550562,158.40051385020152L98.22202215701397,144.8646228246082L98.71061052852231,121.58401005655658L99.19919890003064,143.63552467653096L99.68778727153898,111.45477502489014L100.17637564304732,132.9596887761954L100.66496401455566,123.02248166832803L101.15355238606399,110.8793859846989L101.64214075757234,58.72872491943271L102.13072912908068,90.00664698087814L102.619317500589,121.52220732215332L103.10790587209736,112.66527362347142L103.59649424360569,136.04143763871048L104.08508261511403,65.5494139771694L104.57367098662237,102.75824447910688L105.0622593581307,139.2554896224303L105.55084772963906,123.5341657025218L106.03943610114739,114.58864949068912L106.52802447265572,152.92016298484847L107.01661284416407,117.7551789597176L107.5052012156724,106.00760647297979L107.99378958718076,26.59308533825773L108.48237795868909,35.517979436357834L108.97096633019741,127.40602234663999L109.45955470170577,97.96485490368579L109.9481430732141,71.74515606260044L110.43673144472244,119.18080562426378L110.92531981623078,133.1019455368126L111.41390818773911,111.34125040908494L111.90249655924745,62.005847159480844L112.3910849307558,115.29950320638233L112.87967330226414,86.65108734661283L113.36826167377248,109.26639941001622L113.85685004528081,80.20997727276395L114.34543841678915,96.41504800220066L114.83402678829749,111.49307356567665L115.32261515980584,118.2712462600588L115.81120353131416,76.01443356123983L116.2997919028225,139.56218642519727L116.78838027433085,103.02479979189208L117.27696864583918,120.6354033710623L117.76555701734753,126.42204781165361L118.25414538885586,83.13816779851687L118.7427337603642,122.05532190255032L119.23132213187255,104.51586433562393L119.71991050338087,80.7717630277295L120.20849887488923,125.20411595169473L120.69708724639756,91.95812716418523L121.18567561790589,94.60790844355968L121.67426398941424,80.81150112539814L122.16285236092257,94.9113227402493L122.65144073243093,106.54220543162701L123.14002910393926,70.24356113391049L123.62861747544758,125.10999635173623L124.11720584695594,124.95667925939665L124.60579421846427,79.28716330721178L125.09438258997261,87.84886194974898L125.58297096148095,69.90829730034208L126.07155933298928,118.7767060563232L126.56014770449762,66.89352243757762L127.04873607600597,120.73129671075054L127.5373244475143,84.8976200580249L128.02591281902264,78.37690987093866L128.51450119053098,134.98270682914855L129.00308956203932,53.56061025063653L129.49167793354766,88.52297005323356L129.98026630505598,91.80203806796851L130.46885467656435,93.67069627263541L130.95744304807266,53.668202626542936L131.44603141958103,119.60885891777784L131.93461979108935,133.21611116409574L132.4232081625977,20.42636113386044L132.91179653410603,111.16546759467981L133.40038490561437,84.9817708584024L133.88897327712272,79.78560855936479L134.37756164863106,96.10540617189287L134.86615002013937,90.73616484156842L135.35473839164774,97.74391192434454L135.84332676315606,101.29230099393305L136.3319151346644,113.89680794473375L136.82050350617274,82.71581868323439L137.30909187768108,59.434513820527876L137.79768024918943,42.25330224367555L138.28626862069777,-10.107294200230818L138.7748569922061,125.93328084411105L139.26344536371445,76.08469237404992L139.75203373522277,30.919032865512374L140.2406221067311,131.23318351794745L140.72921047823948,88.92135819242714L141.2177988497478,28.6568825969817L141.70638722125614,24.627209586129602L142.19497559276448,63.735804322212125L142.6835639642728,124.40686937851117L143.17215233578113,48.981938757489566L143.6607407072895,62.05941660404237L144.14932907879785,48.180200489996004L144.63791745030616,96.49383869426073L145.1265058218145,120.67617829243768L145.61509419332285,82.71772227310413L146.1036825648312,78.21806294230679L146.59227093633953,46.6507846744563L147.08085930784787,70.46214176349648L147.5694476793562,99.07714988470713L148.05803605086453,89.06564081296975L148.5466244223729,102.71061518409732L149.03521279388121,116.6707562782918L149.52380116538956,74.64242511744987L150.0123895368979,57.25000470779245L150.50097790840624,69.06715314061421L150.98956627991456,97.6420883221708L151.47815465142293,87.94579211314397L151.96674302293127,55.42259007145292L152.45533139443958,121.20727129730471L152.94391976594792,144.95724750011223L153.43250813745627,117.02152171385349L153.92109650896458,35.72026618035518L154.40968488047295,110.02770748518633L154.8982732519813,75.97526495860147L155.38686162348964,84.80708353096524L155.87544999499795,57.82885422125796L156.3640383665063,53.082097324543426L156.85262673801466,23.603837562915462L157.34121510952298,-66.4644907584158L157.82980348103132,-45.85318952176092L158.31839185253966,34.045360203884584L158.80698022404798,60.52401054448042L159.29556859555635,41.87143473346232L159.7841569670647,-100.29694605542089L160.27274533857303,78.13811744087975L160.76133371008135,88.52181524386663L161.2499220815897,131.2407827172578L161.73851045309803,84.09414957648087L162.22709882460637,107.02481160325027L162.71568719611471,-39.83734986177584L163.20427556762306,122.11568573920924L163.69286393913137,51.543137194144364L164.1814523106397,105.92903988776034L164.67004068214808,50.119810920403374L165.15862905365643,87.1051779001804L165.64721742516474,35.908136263122955L166.13580579667308,98.84884301823818L166.62439416818142,40.52334508094427L167.11298253968974,64.93393222319115L167.6015709111981,34.33288137074759L168.09015928270645,53.02105589426053L168.57874765421477,48.15900261942434L169.0673360257231,13.463546154353233L169.55592439723145,82.60368089328996L170.04451276873982,3.2740039718757785L170.53310114024814,-28.67795764272656L171.02168951175648,66.0812485120238L171.51027788326482,75.48361673509694L171.99886625477313,-126.10572259354433L172.48745462628148,73.25970700322935L172.97604299778985,121.69718796589657L173.46463136929816,76.31232691999698L173.9532197408065,6.411679026036592L174.44180811231485,88.15135872666757L174.9303964838232,33.79216693190249L175.41898485533153,80.48298686255902L175.90757322683987,97.83859574623122L176.39616159834821,43.78052444872823L176.88474996985653,40.02271149140639L177.37333834136487,69.5643223020512L177.86192671287324,79.2577815821309L178.35051508438156,5.419302297155814L178.8391034558899,117.55370559172415L179.32769182739824,10.59525279572051L179.81628019890655,20.98609037899444L180.3048685704149,48.665394436490644L180.79345694192327,77.68333874748393L181.2820453134316,49.49039763059171L181.77063368493992,48.858447978654425L182.25922205644827,122.1144775396832L182.7478104279566,104.68634900066168L183.23639879946492,1.7087152425303753L183.7249871709733,85.46160996968176L184.21357554248164,93.29470827129964L184.70216391398995,84.71561630137926L185.1907522854983,71.53135813664842L185.67934065700663,84.41289278106895L186.167929028515,28.49895318812083L186.65651740002332,88.95125140841485L187.14510577153166,98.72696580865552L187.63369414304,82.17562100839824L188.12228251454832,-51.08593133028996L188.6108708860567,72.12921191019856L189.09945925756503,51.65648779757919L189.58804762907334,18.155689532284065L190.0766360005817,86.9966653679519L190.56522437209003,115.341894992699L191.05381274359837,57.15600638918296L191.5424011151067,80.39508425001442L192.03098948661506,135.118172822926L192.5195778581234,58.6770063337196L193.0081662296317,100.76794635445324L193.49675460114005,124.99297204395963L193.98534297264843,66.4264837817243L194.47393134415674,43.48124953721243L194.96251971566508,110.64732994261394L195.45110808717342,116.46386875268406L195.93969645868177,96.6145584579254L196.42828483019008,41.21265553787615L196.91687320169845,43.42204314647153L197.4054615732068,59.59509032665913L197.8940499447151,37.982479726111436L198.38263831622345,116.61338888191953L198.8712266877318,45.661619264774046L199.35981505924013,49.15609877471349L199.84840343074848,33.16782109323991L200.33699180225682,63.063663085822846L200.82558017376516,57.3126702535321L201.31416854527347,41.04747034048131L201.80275691678182,18.746382433138624L202.2913452882902,42.43472332253558L202.7799336597985,75.39319357973315L203.26852203130684,47.428677974107835L203.7571104028152,65.7392351077261L204.2456987743235,87.12349665698784L204.73428714583187,49.295830708115965L205.2228755173402,24.943753907128528L205.71146388884856,64.21017259002926L206.20005226035687,-25.344165374063145L206.6886406318652,35.486889226186086L207.17722900337358,86.83078412107561L207.6658173748819,7.255227720336766L208.15440574639024,135.62962484062598L208.64299411789858,119.47702213654286L209.1315824894069,140.96166904937175L209.62017086091524,122.83966750179844L210.1087592324236,21.119594778778715L210.59734760393195,-6.947324470254876L211.08593597544026,42.52377019824288L211.5745243469486,69.00172976245939L212.06311271845695,111.08880723588116L212.55170108996526,117.50060611239014L213.04028946147363,82.82461859952907L213.52887783298198,-3.914531417504477L214.0174662044903,95.13618890757692L214.50605457599863,97.345803259564L214.99464294750697,12.002316822485643L215.48323131901532,46.73245448028056L215.97181969052366,103.7233302679022L216.460408062032,86.20114145132118L216.94899643354034,105.92650616218579L217.43758480504866,25.865987831446137L217.92617317655703,47.07111419162214L218.41476154806537,79.27760844614815L218.90334991957369,119.78671735700978L219.39193829108203,66.12260545204704L219.88052666259037,-2.50619130002338L220.36911503409868,81.45151862359776L220.85770340560705,29.019724754701766L221.83488014862374,51.16344747511175L222.32346852013205,109.57074045440558L222.8120568916404,40.39201319923847L223.30064526314877,86.132952331098L223.78923363465708,149.65041517813228L224.27782200616542,-3.3422416430914725L224.76641037767376,118.6122195449609L225.25499874918208,67.14874585388061L225.74358712069042,15.813588489224227L226.2321754921988,95.19699832136602L226.72076386370713,88.25917784596567L227.20935223521545,112.93609619415712L227.6979406067238,27.886239812761996L228.18652897823213,136.43954762176656L228.67511734974047,74.47890622032882L229.16370572124882,53.971163436449196L229.65229409275716,75.7664184755516L230.14088246426547,105.05277423128062L230.62947083577382,56.95902438593067L231.11805920728216,-34.75425869176004L231.60664757879053,67.86362030994964L232.09523595029884,99.72775577198829L232.58382432180719,141.1777726392311L233.07241269331553,-34.108377503989374L233.56100106482384,85.4899449839894L234.0495894363322,59.85105197726064L234.53817780784055,27.079887580902714L235.02676617934887,11.988606756941795L235.5153545508572,97.81775117350243L236.00394292236555,20.104174593580005L236.49253129387392,16.668316160044768L236.98111966538224,18.916418884495137L237.46970803689058,-13.70199956239793L237.95829640839892,56.36624333663173L238.44688477990724,70.03385513521307L238.93547315141558,106.34419253690787L239.42406152292395,104.23225053744092L239.91264989443226,70.40891507057357L240.4012382659406,41.85312124975702L240.88982663744895,-32.91752121085069L241.3784150089573,16.306845008879087L241.8670033804656,31.724235561106834L242.35559175197398,98.89664105251596L242.84418012348232,-288.470358750253L243.33276849499063,13.26621612636019L243.82135686649897,79.36146131625519L244.30994523800732,-3.7752687901917996L244.79853360951566,54.26456411218967L245.287121981024,24.66107344802292L245.77571035253234,87.1255610764726L246.26429872404069,13.02110124684473L246.752887095549,66.14633968474429L247.24147546705737,85.84197728233836L247.7300638385657,59.04447300200966L248.21865221007403,108.86293986484698L248.70724058158237,72.3464584449451L249.1958289530907,83.78797217427395L249.68441732459902,38.63889657194235L250.1730056961074,142.73459672137872L250.66159406761574,-62.789054202603964L251.15018243912405,-28.98449361587849L251.6387708106324,92.57590799069315L252.12735918214074,103.10198218780181L252.6159475536491,11.101512785233489L253.10453592515742,60.13465522923941L253.59312429666576,28.357254387623033L254.0817126681741,92.72565618159582L254.57030103968242,33.275645485640155L255.05888941119076,90.12276068983029L255.54747778269913,82.24588509431047L256.03606615420745,147.21968119788252" fill="none"></path></g></g></g></g></g></g><g transform="translate(51, 176)" clip-path="url(#clip_1)"><clipPath id="clip_1"><rect width="278" height="23"></rect></clipPath><g><g><line x1="11.741880400037967" y1="0" x2="11.741880400037967" y2="5" style="visibility: inherit;" fill="rgb(0, 0, 0)" stroke="rgb(204, 204, 204)" stroke-width="1px"></line><line x1="36.17129897545491" y1="0" x2="36.17129897545491" y2="5" style="visibility: inherit;" fill="rgb(0, 0, 0)" stroke="rgb(204, 204, 204)" stroke-width="1px"></line><line x1="60.60071755087186" y1="0" x2="60.60071755087186" y2="5" style="visibility: inherit;" fill="rgb(0, 0, 0)" stroke="rgb(204, 204, 204)" stroke-width="1px"></line><line x1="85.03013612628881" y1="0" x2="85.03013612628881" y2="5" style="visibility: inherit;" fill="rgb(0, 0, 0)" stroke="rgb(204, 204, 204)" stroke-width="1px"></line><line x1="109.45955470170577" y1="0" x2="109.45955470170577" y2="5" style="visibility: inherit;" fill="rgb(0, 0, 0)" stroke="rgb(204, 204, 204)" stroke-width="1px"></line><line x1="133.88897327712272" y1="0" x2="133.88897327712272" y2="5" style="visibility: inherit;" fill="rgb(0, 0, 0)" stroke="rgb(204, 204, 204)" stroke-width="1px"></line><line x1="158.31839185253966" y1="0" x2="158.31839185253966" y2="5" style="visibility: inherit;" fill="rgb(0, 0, 0)" stroke="rgb(204, 204, 204)" stroke-width="1px"></line><line x1="182.7478104279566" y1="0" x2="182.7478104279566" y2="5" style="visibility: inherit;" fill="rgb(0, 0, 0)" stroke="rgb(204, 204, 204)" stroke-width="1px"></line><line x1="207.17722900337358" y1="0" x2="207.17722900337358" y2="5" style="visibility: inherit;" fill="rgb(0, 0, 0)" stroke="rgb(204, 204, 204)" stroke-width="1px"></line><line x1="231.60664757879053" y1="0" x2="231.60664757879053" y2="5" style="visibility: inherit;" fill="rgb(0, 0, 0)" stroke="rgb(204, 204, 204)" stroke-width="1px"></line><line x1="256.03606615420745" y1="0" x2="256.03606615420745" y2="5" style="visibility: inherit;" fill="rgb(0, 0, 0)" stroke="rgb(204, 204, 204)" stroke-width="1px"></line></g><g transform="translate(0, 8)"><text style="text-anchor: middle; visibility: inherit; font-family: Roboto, sans-serif; font-size: 12px; font-weight: 200;" x="11.741880400037967" y="0" dx="0em" dy="0.95em" fill="rgb(33, 33, 33)" stroke="none" stroke-width="1px">0</text><text style="text-anchor: middle; visibility: hidden; font-family: Roboto, sans-serif; font-size: 12px; font-weight: 200;" x="36.17129897545491" y="0" dx="0em" dy="0.95em" fill="rgb(33, 33, 33)" stroke="none" stroke-width="1px">100k</text><text style="text-anchor: middle; visibility: inherit; font-family: Roboto, sans-serif; font-size: 12px; font-weight: 200;" x="60.60071755087186" y="0" dx="0em" dy="0.95em" fill="rgb(33, 33, 33)" stroke="none" stroke-width="1px">200k</text><text style="text-anchor: middle; visibility: hidden; font-family: Roboto, sans-serif; font-size: 12px; font-weight: 200;" x="85.03013612628881" y="0" dx="0em" dy="0.95em" fill="rgb(33, 33, 33)" stroke="none" stroke-width="1px">300k</text><text style="text-anchor: middle; visibility: inherit; font-family: Roboto, sans-serif; font-size: 12px; font-weight: 200;" x="109.45955470170577" y="0" dx="0em" dy="0.95em" fill="rgb(33, 33, 33)" stroke="none" stroke-width="1px">400k</text><text style="text-anchor: middle; visibility: hidden; font-family: Roboto, sans-serif; font-size: 12px; font-weight: 200;" x="133.88897327712272" y="0" dx="0em" dy="0.95em" fill="rgb(33, 33, 33)" stroke="none" stroke-width="1px">500k</text><text style="text-anchor: middle; visibility: inherit; font-family: Roboto, sans-serif; font-size: 12px; font-weight: 200;" x="158.31839185253966" y="0" dx="0em" dy="0.95em" fill="rgb(33, 33, 33)" stroke="none" stroke-width="1px">600k</text><text style="text-anchor: middle; visibility: hidden; font-family: Roboto, sans-serif; font-size: 12px; font-weight: 200;" x="182.7478104279566" y="0" dx="0em" dy="0.95em" fill="rgb(33, 33, 33)" stroke="none" stroke-width="1px">700k</text><text style="text-anchor: middle; visibility: inherit; font-family: Roboto, sans-serif; font-size: 12px; font-weight: 200;" x="207.17722900337358" y="0" dx="0em" dy="0.95em" fill="rgb(33, 33, 33)" stroke="none" stroke-width="1px">800k</text><text style="text-anchor: middle; visibility: hidden; font-family: Roboto, sans-serif; font-size: 12px; font-weight: 200;" x="231.60664757879053" y="0" dx="0em" dy="0.95em" fill="rgb(33, 33, 33)" stroke="none" stroke-width="1px">900k</text><text style="text-anchor: middle; visibility: inherit; font-family: Roboto, sans-serif; font-size: 12px; font-weight: 200;" x="256.03606615420745" y="0" dx="0em" dy="0.95em" fill="rgb(33, 33, 33)" stroke="none" stroke-width="1px">1M</text></g><line x1="0" y1="0" x2="278.4679985046387" y2="0" fill="rgb(0, 0, 0)" stroke="rgb(204, 204, 204)" stroke-width="1px"></line></g></g></g></g></svg>