<svg viewBox="0 0 330 200" xmlns="http://www.w3.org/2000/svg"><g><g><g><g><g><line x1="51.53200149536133" y1="154.524999499321" x2="46.53200149536133" y2="154.524999499321" style="visibility: inherit;" fill="rgb(0, 0, 0)" stroke="rgb(204, 204, 204)" stroke-width="1px"></line><line x1="51.53200149536133" y1="132.4499995708466" x2="46.53200149536133" y2="132.4499995708466" style="visibility: inherit;" fill="rgb(0, 0, 0)" stroke="rgb(204, 204, 204)" stroke-width="1px"></line><line x1="51.53200149536133" y1="110.37499964237213" x2="46.53200149536133" y2="110.37499964237213" style="visibility: inherit;" fill="rgb(0, 0, 0)" stroke="rgb(204, 204, 204)" stroke-width="1px"></line><line x1="51.53200149536133" y1="88.29999971389775" x2="46.53200149536133" y2="88.29999971389775" style="visibility: inherit;" fill="rgb(0, 0, 0)" stroke="rgb(204, 204, 204)" stroke-width="1px"></line><line x1="51.53200149536133" y1="66.22499978542328" x2="46.53200149536133" y2="66.22499978542328" style="visibility: inherit;" fill="rgb(0, 0, 0)" stroke="rgb(204, 204, 204)" stroke-width="1px"></line><line x1="51.53200149536133" y1="44.14999985694883" x2="46.53200149536133" y2="44.14999985694883" style="visibility: inherit;" fill="rgb(0, 0, 0)" stroke="rgb(204, 204, 204)" stroke-width="1px"></line><line x1="51.53200149536133" y1="22.074999928474448" x2="46.53200149536133" y2="22.074999928474448" style="visibility: inherit;" fill="rgb(0, 0, 0)" stroke="rgb(204, 204, 204)" stroke-width="1px"></line><line x1="51.53200149536133" y1="0" x2="46.53200149536133" y2="0" style="visibility: inherit;" fill="rgb(0, 0, 0)" stroke="rgb(204, 204, 204)" stroke-width="1px"></line></g><g transform="translate(41.53200149536133, 0)"><text style="text-anchor: end; visibility: inherit; font-family: Roboto, sans-serif; font-size: 12px; font-weight: 200;" x="0" y="154.524999499321" dx="0em" dy="0.3em" fill="rgb(33, 33, 33)" stroke="none" stroke-width="1px">0.15</text><text style="text-anchor: end; visibility: hidden; font-family: Roboto, sans-serif; font-size: 12px; font-weight: 200;" x="0" y="132.4499995708466" dx="0em" dy="0.3em" fill="rgb(33, 33, 33)" stroke="none" stroke-width="1px">0.16</text><text style="text-anchor: end; visibility: inherit; font-family: Roboto, sans-serif; font-size: 12px; font-weight: 200;" x="0" y="110.37499964237213" dx="0em" dy="0.3em" fill="rgb(33, 33, 33)" stroke="none" stroke-width="1px">0.17</text><text style="text-anchor: end; visibility: hidden; font-family: Roboto, sans-serif; font-size: 12px; font-weight: 200;" x="0" y="88.29999971389775" dx="0em" dy="0.3em" fill="rgb(33, 33, 33)" stroke="none" stroke-width="1px">0.18</text><text style="text-anchor: end; visibility: inherit; font-family: Roboto, sans-serif; font-size: 12px; font-weight: 200;" x="0" y="66.22499978542328" dx="0em" dy="0.3em" fill="rgb(33, 33, 33)" stroke="none" stroke-width="1px">0.19</text><text style="text-anchor: end; visibility: hidden; font-family: Roboto, sans-serif; font-size: 12px; font-weight: 200;" x="0" y="44.14999985694883" dx="0em" dy="0.3em" fill="rgb(33, 33, 33)" stroke="none" stroke-width="1px">0.2</text><text style="text-anchor: end; visibility: inherit; font-family: Roboto, sans-serif; font-size: 12px; font-weight: 200;" x="0" y="22.074999928474448" dx="0em" dy="0.3em" fill="rgb(33, 33, 33)" stroke="none" stroke-width="1px">0.21</text><text style="text-anchor: end; visibility: hidden; font-family: Roboto, sans-serif; font-size: 12px; font-weight: 200;" x="0" y="0" dx="0em" dy="0.3em" fill="rgb(33, 33, 33)" stroke="none" stroke-width="1px">0.22</text></g><line x1="51.53200149536133" y1="0" x2="51.53200149536133" y2="176.5999994277954" fill="rgb(0, 0, 0)" stroke="rgb(204, 204, 204)" stroke-width="1px"></line></g></g><g transform="translate(51, 0)" clip-path="url(#clip_0)"><clipPath id="clip_0"><rect width="278" height="176"></rect></clipPath><g><g><g><line x1="0" y1="0" x2="0" y2="176.5999994277954" fill="rgb(0, 0, 0)" stroke="rgb(66, 66, 66)" stroke-width="1px" opacity="0.25"></line><line x1="23.205666542053223" y1="0" x2="23.205666542053223" y2="176.5999994277954" fill="rgb(0, 0, 0)" stroke="rgb(66, 66, 66)" stroke-width="1px" opacity="0.25"></line><line x1="46.411333084106445" y1="0" x2="46.411333084106445" y2="176.5999994277954" fill="rgb(0, 0, 0)" stroke="rgb(66, 66, 66)" stroke-width="1px" opacity="0.25"></line><line x1="69.61699962615967" y1="0" x2="69.61699962615967" y2="176.5999994277954" fill="rgb(0, 0, 0)" stroke="rgb(66, 66, 66)" stroke-width="1px" opacity="0.25"></line><line x1="92.82266616821289" y1="0" x2="92.82266616821289" y2="176.5999994277954" fill="rgb(0, 0, 0)" stroke="rgb(66, 66, 66)" stroke-width="1px" opacity="0.25"></line><line x1="116.02833271026611" y1="0" x2="116.02833271026611" y2="176.5999994277954" fill="rgb(0, 0, 0)" stroke="rgb(66, 66, 66)" stroke-width="1px" opacity="0.25"></line><line x1="139.23399925231934" y1="0" x2="139.23399925231934" y2="176.5999994277954" fill="rgb(0, 0, 0)" stroke="rgb(66, 66, 66)" stroke-width="1px" opacity="0.25"></line><line x1="162.43966579437256" y1="0" x2="162.43966579437256" y2="176.5999994277954" fill="rgb(0, 0, 0)" stroke="rgb(66, 66, 66)" stroke-width="1px" opacity="0.25"></line><line x1="185.64533233642578" y1="0" x2="185.64533233642578" y2="176.5999994277954" fill="rgb(0, 0, 0)" stroke="rgb(66, 66, 66)" stroke-width="1px" opacity="0.25"></line><line x1="208.850998878479" y1="0" x2="208.850998878479" y2="176.5999994277954" fill="rgb(0, 0, 0)" stroke="rgb(66, 66, 66)" stroke-width="1px" opacity="0.25"></line><line x1="232.05666542053223" y1="0" x2="232.05666542053223" y2="176.5999994277954" fill="rgb(0, 0, 0)" stroke="rgb(66, 66, 66)" stroke-width="1px" opacity="0.25"></line><line x1="255.26233196258545" y1="0" x2="255.26233196258545" y2="176.5999994277954" fill="rgb(0, 0, 0)" stroke="rgb(66, 66, 66)" stroke-width="1px" opacity="0.25"></line><line x1="278.4679985046387" y1="0" x2="278.4679985046387" y2="176.5999994277954" fill="rgb(0, 0, 0)" stroke="rgb(66, 66, 66)" stroke-width="1px" opacity="0.25"></line></g><g><line x1="0" y1="154.524999499321" x2="278.4679985046387" y2="154.524999499321" fill="rgb(0, 0, 0)" stroke="rgb(66, 66, 66)" stroke-width="1px" opacity="0.25"></line><line x1="0" y1="132.4499995708466" x2="278.4679985046387" y2="132.4499995708466" fill="rgb(0, 0, 0)" stroke="rgb(66, 66, 66)" stroke-width="1px" opacity="0.25"></line><line x1="0" y1="110.37499964237213" x2="278.4679985046387" y2="110.37499964237213" fill="rgb(0, 0, 0)" stroke="rgb(66, 66, 66)" stroke-width="1px" opacity="0.25"></line><line x1="0" y1="88.29999971389775" x2="278.4679985046387" y2="88.29999971389775" fill="rgb(0, 0, 0)" stroke="rgb(66, 66, 66)" stroke-width="1px" opacity="0.25"></line><line x1="0" y1="66.22499978542328" x2="278.4679985046387" y2="66.22499978542328" fill="rgb(0, 0, 0)" stroke="rgb(66, 66, 66)" stroke-width="1px" opacity="0.25"></line><line x1="0" y1="44.14999985694883" x2="278.4679985046387" y2="44.14999985694883" fill="rgb(0, 0, 0)" stroke="rgb(66, 66, 66)" stroke-width="1px" opacity="0.25"></line><line x1="0" y1="22.074999928474448" x2="278.4679985046387" y2="22.074999928474448" fill="rgb(0, 0, 0)" stroke="rgb(66, 66, 66)" stroke-width="1px" opacity="0.25"></line><line x1="0" y1="0" x2="278.4679985046387" y2="0" fill="rgb(0, 0, 0)" stroke="rgb(66, 66, 66)" stroke-width="1px" opacity="0.25"></line></g></g></g><g><g><line x1="0" y1="485.64999842643743" x2="278.4679985046387" y2="485.64999842643743" fill="rgb(0, 0, 0)" stroke="rgb(153, 153, 153)" stroke-width="1.5px"></line></g></g><g><g><line x1="23.205666542053223" y1="0" x2="23.205666542053223" y2="176.5999994277954" fill="rgb(0, 0, 0)" stroke="rgb(153, 153, 153)" stroke-width="1.5px"></line></g></g><g><g><g><g><g><path style="fill: none;" stroke="rgb(255, 112, 67)" stroke-width="2px" d="M24.598006534576417,141.40943155962017L25.52623319625854,169.4172253071279L26.454459857940673,134.14572266436357L27.3826865196228,92.89114223969366L28.310913181304933,84.33594586159056L29.703253173828127,87.23382835891147L30.631479835510255,68.21878709152516L31.55970649719238,37.70691393442211L32.48793315887451,38.786492079227216L33.416159820556636,37.49806824936372L34.34438648223877,38.101282785497915L35.73672647476196,38.17271335683828L36.66495313644409,28.955677588742393L37.59317979812622,42.212081048678726L38.521406459808354,37.50659935645823L39.913746452331544,38.34147894413119L40.84197311401367,50.0981417175151L41.7701997756958,54.08478794948305L42.698426437377925,49.741555530728704L43.626653099060064,41.81879896486335L45.01899309158325,43.17054996532153L45.94721975326539,44.97038128737131L46.87544641494751,50.429042208474804L47.803673076629636,49.171359436781486L49.19601306915283,60.31206282808183L50.12423973083496,68.33074667003704L51.05246639251708,72.14296069484767L51.98069305419922,80.09788267527776L52.908919715881346,89.74995881014785L54.301259708404544,80.17222763380887L55.22948637008667,79.9716944090294L56.1577130317688,85.56207176334465L57.085939693450925,93.47612985992183L58.01416635513306,90.14156992825245L58.94239301681519,94.35199632223365L59.87061967849731,82.85275746070555L60.79884634017944,83.28610687211874L62.191186332702635,81.17117126282635L63.11941299438476,80.80018079360839L64.04763965606689,79.98848613126077L64.97586631774902,85.78073132537696L65.90409297943116,84.31484524316672L67.29643297195435,83.16830749763122L68.22465963363648,80.29138857147441L69.1528862953186,76.35300701377896L70.08111295700073,75.64764560754043L71.00933961868286,72.03497065781258L71.937566280365,76.04127793331428L72.86579294204712,77.4259044863518L73.79401960372925,82.1955972505626L75.18635959625244,91.70679846412962L76.11458625793456,96.44853396315503L77.04281291961671,104.44132922171592L77.97103958129884,108.75685574101682L78.89926624298096,98.46498978552023L80.29160623550415,94.31013317045684L81.21983289718628,92.13557413008778L82.1480595588684,96.3977499895572L83.07628622055054,91.39300810281148L84.00451288223267,86.90873065909418L85.39685287475585,82.75614910652864L86.32507953643798,81.57290500727848L87.25330619812013,84.59273942655904L88.64564619064332,71.05120013456327L89.57387285232544,72.6093294338778L90.50209951400757,63.143793288992235L91.43032617568969,66.32549046659804L92.35855283737183,63.327216971876936L94.21500616073608,60.45459248312332L95.60734615325927,66.28043035461076L96.5355728149414,69.9633777675774L97.46379947662354,81.00490863959241L98.39202613830567,91.88312286417393L99.3202527999878,96.29448541546104L100.24847946166992,99.15762968034635L101.6408194541931,109.76411484805155L102.56904611587525,116.05598859595486L103.49727277755737,121.56394142826508L104.4254994392395,125.58331824039878L105.81783943176269,127.87777366532877L106.74606609344484,126.23730017809706L107.67429275512696,132.66342283481768L108.60251941680909,126.01932548592558L109.99485940933228,126.39158540061403L110.9230860710144,130.47493592712334L111.85131273269654,119.83491633638496L112.77953939437867,118.05390023060943L113.70776605606079,111.42131349934503L114.63599271774292,106.4908561445355L116.02833271026611,102.63840952995656L116.95655937194823,99.16822698651805L117.88478603363038,105.30355996117298L118.81301269531251,108.00943732955129L120.20535268783568,101.59456741469172L121.13357934951782,98.52334531844353L122.06180601119996,100.72629696028243L122.99003267288208,93.15693844155442L124.38237266540527,95.24840009551616L125.3105993270874,102.28558764675265L126.23882598876952,108.65503721117976L127.16705265045167,104.37684664916974L128.09527931213378,93.39798563795729L129.487619304657,84.3375050080873L130.4158459663391,83.62052776730476L131.34407262802125,68.62470706131762L132.27229928970337,66.94039944770236L133.66463928222655,60.511804281518934L134.5928659439087,45.51075206217362L135.52109260559084,45.09265577633819L136.44931926727295,39.214679307111716L137.84165925979613,41.71482741313096L138.76988592147828,42.66173349225778L139.69811258316042,46.873055324145L140.62633924484254,44.165905472919746L141.55456590652466,43.048674484396884L142.4827925682068,33.36454930325847L143.87513256073,19.862231529749824L144.80335922241213,25.998444950189466L145.73158588409424,28.457014792346843L146.65981254577636,27.341659401580156L147.5880392074585,26.56850240782766L148.9803791999817,23.297908357980674L149.90860586166383,23.38606382822121L150.83683252334595,21.49335585086226L151.7650591850281,12.091082845596514L153.15739917755127,12.0119765836265L154.08562583923342,14.45683140548189L155.01385250091553,11.128750380097461L155.94207916259768,5.885955125912824L156.8703058242798,5.770715492945493L158.26264581680297,-3.8329992802540795L159.1908724784851,-0.6700839739424299L160.11909914016724,9.640547943053614L161.04732580184938,-3.2676123077932533L165.22434577941897,-5.617395200282809L166.15257244110109,7.035454261437681L167.0807991027832,8.912175948665581L168.47313909530638,13.219014908664922L169.4013657569885,24.044154772705433L170.32959241867067,27.286174350595335L171.2578190803528,34.1662937621655L172.1860457420349,29.133256666832835L173.11427240371705,26.125770664191883L174.50661239624026,22.969298956692032L175.43483905792237,26.911582404953496L176.3630657196045,26.68894523569405L177.29129238128664,28.04232173012855L178.21951904296876,30.15266823765558L179.14774570465087,35.35413196498877L180.54008569717408,33.77105557355842L181.4683123588562,35.86405765482733L182.39653902053834,35.5183307858002L183.78887901306155,31.835828332603334L184.71710567474366,26.215753745370517L185.64533233642578,36.55975240434047L186.57355899810793,30.534807615141524L187.9658989906311,39.76533383750356L188.89412565231325,38.656905181184L189.82235231399537,47.36496781167631L190.7505789756775,49.3792660059046L192.14291896820066,46.338098041494156L193.0711456298828,55.36840226212097L193.99937229156492,63.0071428175853L194.92759895324707,64.89274776064391L195.85582561492922,66.61835104454977L197.2481656074524,70.9938478295146L198.1763922691345,80.11049805225451L199.10461893081663,75.97280646180374L200.0328455924988,74.08409727512627L201.42518558502198,74.98070258011636L202.3534122467041,71.39357231255072L203.2816389083862,72.0089115380802L204.20986557006833,69.0621664943288L205.1380922317505,72.41388711187152L206.06631889343262,77.08848997992551L206.99454555511474,73.75012441412402L208.38688554763792,72.4760665550638L209.3151122093201,73.66926594185352L210.2433388710022,76.15255487659577L211.63567886352538,87.29060753604358L212.5639055252075,82.33787668460259L213.49213218688968,86.00442288136071L214.4203588485718,93.62687064557335L215.3485855102539,89.23025803671297L216.7409255027771,90.74243364167319L217.6691521644592,97.71906937929604L218.59737882614138,108.08060739416933L219.5256054878235,104.26179571913185L220.45383214950562,110.5526215336748L221.38205881118776,116.91983923337001L223.238512134552,117.63682735023413L224.16673879623414,126.13255175084599L225.55907878875735,136.69040305781326L226.48730545043946,136.91772024220094L227.41553211212158,136.86314128224623L228.3437587738037,142.42526375052265L229.27198543548585,145.7808103549555L230.20021209716796,150.5362667923747L231.59255208969117,152.6824649306512L232.52077875137329,155.2725841166157L233.44900541305543,155.18720276533256L234.37723207473755,147.9429584270042L235.30545873641967,148.1790679700621L236.2336853981018,150.00930559450612L237.62602539062502,142.74105531974138L238.55425205230713,138.17533160399438L239.48247871398925,146.99097434393747L240.41070537567137,147.63163357468457L241.33893203735352,137.4754374655732L242.26715869903563,134.1504176549553L243.65949869155884,127.07665304108217L244.58772535324096,125.47133515534551L245.5159520149231,130.82138260781787L246.44417867660522,130.01253063355261L247.37240533828734,133.26213105505892L248.3006319999695,145.53175799831175L249.69297199249266,148.74496550837182L250.6211986541748,149.18094310493106L251.54942531585692,149.36294736155827L252.47765197753904,148.4697944092166L253.86999197006224,152.54707152493253L254.7982186317444,153.46922867825774" fill="none"></path></g></g></g></g><g opacity="0.2"><g><g><g><path style="fill: none;" stroke="rgb(255, 112, 67)" stroke-width="2px" d="M24.598006534576417,141.40943155962017L25.52623319625854,194.62423967988494L26.454459857940673,73.83145314523652L27.3826865196228,-7.728779416076094L28.310913181304933,57.85675755172367L29.703253173828127,97.91423511221225L30.631479835510255,-11.968231399321873L31.55970649719238,-105.55633538138528L32.48793315887451,44.32018845473221L33.416159820556636,30.394709892436232L34.34438648223877,41.637262479161784L35.73672647476196,38.61384746735966L36.66495313644409,-30.56917606671187L37.59317979812622,131.19331312288725L38.521406459808354,4.845433653092478L39.913746452331544,44.30834650196983L40.84197311401367,136.30130655262724L41.7701997756958,83.98086191474135L42.698426437377925,16.519526735067146L43.626653099060064,-19.853787743791663L45.01899309158325,53.85723668916903L45.94721975326539,59.396441671025855L46.87544641494751,94.71901310241591L47.803673076629636,38.85542330371224L49.19601306915283,152.58050480369945L50.12423973083496,135.3179639529644L51.05246639251708,104.2360944887228L51.98069305419922,147.52899090977337L52.908919715881346,172.0723919448925L54.301259708404544,-1.9672417711055559L55.22948637008667,78.24340290705432L56.1577130317688,133.95590912509792L57.085939693450925,162.25695913760006L58.01416635513306,61.057966326527655L58.94239301681519,131.1918986674184L59.87061967849731,-18.04979781769577L60.79884634017944,87.09838755669118L62.191186332702635,62.52268430598132L63.11941299438476,77.52219508951207L64.04763965606689,72.80320980801629L64.97586631774902,137.14040758878167L65.90409297943116,71.29737393702658L67.29643297195435,72.97301025290355L68.22465963363648,54.67811427579466L69.1528862953186,41.251313502047836L70.08111295700073,69.3548002692976L71.00933961868286,39.77629960255354L71.937566280365,111.84313468308403L72.86579294204712,89.80825397479602L73.79401960372925,124.87701288531237L75.18635959625244,176.8664420491765L76.11458625793456,138.926206959662L77.04281291961671,176.07618906816688L77.97103958129884,147.45066954997552L78.89926624298096,6.151403676903776L80.29160623550415,57.03022214322267L81.21983289718628,72.61814640179085L82.1480595588684,134.6627750220724L83.07628622055054,46.45025970786557L84.00451288223267,46.63081659317866L85.39685287475585,45.45007521982954L86.32507953643798,70.9409311588789L87.25330619812013,111.73168874986473L88.64564619064332,-50.662996245679416L89.57387285232544,86.61595955887705L90.50209951400757,-21.95563567617468L91.43032617568969,94.93341823604148L92.35855283737183,36.36594878424061L94.21500616073608,34.62097125607725L95.60734615325927,118.67646773598977L96.5355728149414,103.0891355750597L97.46379947662354,180.32264754013045L98.39202613830567,189.73736182366918L99.3202527999878,135.97861333985236L100.24847946166992,124.91533476022397L101.6408194541931,205.18716286098947L102.56904611587525,172.66399616831313L103.49727277755737,171.12066078024256L104.4254994392395,161.74795253469702L105.81783943176269,148.52285968966945L106.74606609344484,111.4762644076428L107.67429275512696,190.4871547994073L108.60251941680909,66.23303126094125L109.99485940933228,129.7413910312796L110.9230860710144,167.21982285737442L111.85131273269654,24.087093753553766L112.77953939437867,102.02661636345503L113.70776605606079,51.7342706076931L114.63599271774292,62.1209131642043L116.02833271026611,67.9693246904122L116.95655937194823,67.93896323930198L117.88478603363038,160.51777100856498L118.81301269531251,132.36083098231836L120.20535268783568,43.86394433024824L121.13357934951782,70.88372794817396L122.06180601119996,120.55196989904516L122.99003267288208,25.035469698254374L124.38237266540527,114.07086915219381L125.3105993270874,165.61819874626235L126.23882598876952,165.9783914761181L127.16705265045167,65.87415430361463L128.09527931213378,-5.4094013903107765L129.487619304657,2.7949337436596764L130.4158459663391,77.16785754741103L131.34407262802125,-66.3353273119928L132.27229928970337,51.781868678935226L133.66463928222655,2.6552644896900333L134.5928659439087,-89.49700271993463L135.52109260559084,41.32983222772507L136.44931926727295,-13.686564533769875L137.84165925979613,64.21595197374894L138.76988592147828,51.183817170121735L139.69811258316042,84.77466748157966L140.62633924484254,19.80172130904053L141.55456590652466,32.99365668633344L142.4827925682068,-53.79210068588579L143.87513256073,-101.65803032063577L144.80335922241213,81.22412110028542L145.73158588409424,50.584055157020344L146.65981254577636,17.303496902250025L147.5880392074585,19.610111934482553L148.9803791999817,-6.137352542064946L149.90860586166383,24.17946098510034L150.83683252334595,4.459024155593326L151.7650591850281,-72.52919491572995L153.15739917755127,11.300021583481389L154.08562583923342,36.460487040460286L155.01385250091553,-18.823932585223226L155.94207916259768,-41.29913657039245L156.8703058242798,4.733560093801202L158.26264581680297,-90.26633491773067L159.1908724784851,27.796124935984544L160.11909914016724,102.43615056315406L161.04732580184938,-119.44095920665104L163.36789245605468,-18.7199865554201L164.2961191177368,2.6301990230096592L165.22434577941897,51.85328223295503L166.15257244110109,120.91104422225115L167.0807991027832,25.802663765690546L168.47313909530638,51.9805503308374L169.4013657569885,121.4703791243943L170.32959241867067,56.464341272746985L171.2578190803528,96.08735074410909L172.1860457420349,-16.164065523226213L174.50661239624026,-5.438940483590272L175.43483905792237,62.39212677677607L176.3630657196045,24.685211050993715L177.29129238128664,40.222708327382094L178.21951904296876,49.14578420540266L179.14774570465087,82.16729974349586L180.54008569717408,19.52336963049811L181.4683123588562,54.70107450642839L182.39653902053834,32.40678924401775L183.78887901306155,-1.3066910671572742L184.71710567474366,-24.36491385999441L185.64533233642578,129.6557342396317L186.57355899810793,-23.689692292346066L187.9658989906311,122.84006543292985L188.89412565231325,28.681047750466725L189.82235231399537,125.73752811937875L190.7505789756775,67.50794905306452L192.14291896820066,18.967587314183675L193.0711456298828,136.64113770259436L193.99937229156492,131.75580587910036L194.92759895324707,81.86319181769527L195.85582561492922,82.14878024514803L197.2481656074524,110.37331808507989L198.1763922691345,162.16034853964698L199.10461893081663,38.73358276751263L200.0328455924988,57.08571484963972L201.42518558502198,83.05015021624463L202.3534122467041,39.109400296152096L203.2816389083862,77.54696450737337L204.20986557006833,42.54146136119606L205.1380922317505,102.57937240295242L206.06631889343262,119.15991545751399L206.99454555511474,43.70483453716035L208.38688554763792,61.00954589745481L209.3151122093201,84.40806036064426L210.2433388710022,98.50215517255126L211.63567886352538,187.53308099989158L212.5639055252075,37.763299210201616L213.49213218688968,119.00333852654472L214.4203588485718,162.22890028841587L215.3485855102539,49.66074467900011L216.7409255027771,104.35201404854122L217.6691521644592,160.5087908610535L218.59737882614138,201.33444931837514L219.5256054878235,69.89249071333617L220.45383214950562,167.1700537614592L221.38205881118776,174.22479843670826L223.238512134552,124.08972039249338L224.16673879623414,202.59407125484702L225.55907878875735,231.71106470699047L226.48730545043946,138.96357489948997L227.41553211212158,136.37193064312956L228.3437587738037,192.4843659214094L229.27198543548585,175.9807297711768L230.20021209716796,193.33537469895265L231.59255208969117,171.99824816287472L232.52077875137329,178.58365677697472L233.44900541305543,154.4187706041798L234.37723207473755,82.7447594122281L235.30545873641967,150.30405385669778L236.2336853981018,166.4814442083267L237.62602539062502,77.32680286893277L238.55425205230713,97.08381817475025L239.48247871398925,226.331758981739L240.41070537567137,153.39756664999055L241.33893203735352,46.06967250380792L242.26715869903563,104.22523936535728L243.65949869155884,63.41277152764043L244.58772535324096,111.02347418604786L245.5159520149231,178.971809673075L246.44417867660522,122.73286286611707L247.37240533828734,162.5085348451742L248.3006319999695,255.95840047589346L249.69297199249266,177.66383309615674L250.6211986541748,153.10474147362743L251.54942531585692,151.00098567107713L252.47765197753904,140.43141783870038L253.86999197006224,189.24256556408102L254.7982186317444,161.76864305771798" fill="none"></path></g></g></g></g></g></g><g transform="translate(51, 176)" clip-path="url(#clip_1)"><clipPath id="clip_1"><rect width="278" height="23"></rect></clipPath><g><g><line x1="0" y1="0" x2="0" y2="5" style="visibility: inherit;" fill="rgb(0, 0, 0)" stroke="rgb(204, 204, 204)" stroke-width="1px"></line><line x1="23.205666542053223" y1="0" x2="23.205666542053223" y2="5" style="visibility: inherit;" fill="rgb(0, 0, 0)" stroke="rgb(204, 204, 204)" stroke-width="1px"></line><line x1="46.411333084106445" y1="0" x2="46.411333084106445" y2="5" style="visibility: inherit;" fill="rgb(0, 0, 0)" stroke="rgb(204, 204, 204)" stroke-width="1px"></line><line x1="69.61699962615967" y1="0" x2="69.61699962615967" y2="5" style="visibility: inherit;" fill="rgb(0, 0, 0)" stroke="rgb(204, 204, 204)" stroke-width="1px"></line><line x1="92.82266616821289" y1="0" x2="92.82266616821289" y2="5" style="visibility: inherit;" fill="rgb(0, 0, 0)" stroke="rgb(204, 204, 204)" stroke-width="1px"></line><line x1="116.02833271026611" y1="0" x2="116.02833271026611" y2="5" style="visibility: inherit;" fill="rgb(0, 0, 0)" stroke="rgb(204, 204, 204)" stroke-width="1px"></line><line x1="139.23399925231934" y1="0" x2="139.23399925231934" y2="5" style="visibility: inherit;" fill="rgb(0, 0, 0)" stroke="rgb(204, 204, 204)" stroke-width="1px"></line><line x1="162.43966579437256" y1="0" x2="162.43966579437256" y2="5" style="visibility: inherit;" fill="rgb(0, 0, 0)" stroke="rgb(204, 204, 204)" stroke-width="1px"></line><line x1="185.64533233642578" y1="0" x2="185.64533233642578" y2="5" style="visibility: inherit;" fill="rgb(0, 0, 0)" stroke="rgb(204, 204, 204)" stroke-width="1px"></line><line x1="208.850998878479" y1="0" x2="208.850998878479" y2="5" style="visibility: inherit;" fill="rgb(0, 0, 0)" stroke="rgb(204, 204, 204)" stroke-width="1px"></line><line x1="232.05666542053223" y1="0" x2="232.05666542053223" y2="5" style="visibility: inherit;" fill="rgb(0, 0, 0)" stroke="rgb(204, 204, 204)" stroke-width="1px"></line><line x1="255.26233196258545" y1="0" x2="255.26233196258545" y2="5" style="visibility: inherit;" fill="rgb(0, 0, 0)" stroke="rgb(204, 204, 204)" stroke-width="1px"></line><line x1="278.4679985046387" y1="0" x2="278.4679985046387" y2="5" style="visibility: inherit;" fill="rgb(0, 0, 0)" stroke="rgb(204, 204, 204)" stroke-width="1px"></line></g><g transform="translate(0, 8)"><text style="text-anchor: middle; visibility: hidden; font-family: Roboto, sans-serif; font-size: 12px; font-weight: 200;" x="0" y="0" dx="0em" dy="0.95em" fill="rgb(33, 33, 33)" stroke="none" stroke-width="1px">-100k</text><text style="text-anchor: middle; visibility: inherit; font-family: Roboto, sans-serif; font-size: 12px; font-weight: 200;" x="23.205666542053223" y="0" dx="0em" dy="0.95em" fill="rgb(33, 33, 33)" stroke="none" stroke-width="1px">0</text><text style="text-anchor: middle; visibility: hidden; font-family: Roboto, sans-serif; font-size: 12px; font-weight: 200;" x="46.411333084106445" y="0" dx="0em" dy="0.95em" fill="rgb(33, 33, 33)" stroke="none" stroke-width="1px">100k</text><text style="text-anchor: middle; visibility: inherit; font-family: Roboto, sans-serif; font-size: 12px; font-weight: 200;" x="69.61699962615967" y="0" dx="0em" dy="0.95em" fill="rgb(33, 33, 33)" stroke="none" stroke-width="1px">200k</text><text style="text-anchor: middle; visibility: hidden; font-family: Roboto, sans-serif; font-size: 12px; font-weight: 200;" x="92.82266616821289" y="0" dx="0em" dy="0.95em" fill="rgb(33, 33, 33)" stroke="none" stroke-width="1px">300k</text><text style="text-anchor: middle; visibility: inherit; font-family: Roboto, sans-serif; font-size: 12px; font-weight: 200;" x="116.02833271026611" y="0" dx="0em" dy="0.95em" fill="rgb(33, 33, 33)" stroke="none" stroke-width="1px">400k</text><text style="text-anchor: middle; visibility: hidden; font-family: Roboto, sans-serif; font-size: 12px; font-weight: 200;" x="139.23399925231934" y="0" dx="0em" dy="0.95em" fill="rgb(33, 33, 33)" stroke="none" stroke-width="1px">500k</text><text style="text-anchor: middle; visibility: inherit; font-family: Roboto, sans-serif; font-size: 12px; font-weight: 200;" x="162.43966579437256" y="0" dx="0em" dy="0.95em" fill="rgb(33, 33, 33)" stroke="none" stroke-width="1px">600k</text><text style="text-anchor: middle; visibility: hidden; font-family: Roboto, sans-serif; font-size: 12px; font-weight: 200;" x="185.64533233642578" y="0" dx="0em" dy="0.95em" fill="rgb(33, 33, 33)" stroke="none" stroke-width="1px">700k</text><text style="text-anchor: middle; visibility: inherit; font-family: Roboto, sans-serif; font-size: 12px; font-weight: 200;" x="208.850998878479" y="0" dx="0em" dy="0.95em" fill="rgb(33, 33, 33)" stroke="none" stroke-width="1px">800k</text><text style="text-anchor: middle; visibility: hidden; font-family: Roboto, sans-serif; font-size: 12px; font-weight: 200;" x="232.05666542053223" y="0" dx="0em" dy="0.95em" fill="rgb(33, 33, 33)" stroke="none" stroke-width="1px">900k</text><text style="text-anchor: middle; visibility: inherit; font-family: Roboto, sans-serif; font-size: 12px; font-weight: 200;" x="255.26233196258545" y="0" dx="0em" dy="0.95em" fill="rgb(33, 33, 33)" stroke="none" stroke-width="1px">1M</text><text style="text-anchor: middle; visibility: hidden; font-family: Roboto, sans-serif; font-size: 12px; font-weight: 200;" x="278.4679985046387" y="0" dx="0em" dy="0.95em" fill="rgb(33, 33, 33)" stroke="none" stroke-width="1px">1.1M</text></g><line x1="0" y1="0" x2="278.4679985046387" y2="0" fill="rgb(0, 0, 0)" stroke="rgb(204, 204, 204)" stroke-width="1px"></line></g></g></g></g></svg>