<svg viewBox="0 0 330 200" xmlns="http://www.w3.org/2000/svg"><g><g><g><g><g><line x1="41.149001121520996" y1="176.5999994277954" x2="36.149001121520996" y2="176.5999994277954" style="visibility: inherit;" fill="rgb(0, 0, 0)" stroke="rgb(204, 204, 204)" stroke-width="1px"></line><line x1="41.149001121520996" y1="161.88333280881244" x2="36.149001121520996" y2="161.88333280881244" style="visibility: inherit;" fill="rgb(0, 0, 0)" stroke="rgb(204, 204, 204)" stroke-width="1px"></line><line x1="41.149001121520996" y1="147.16666618982953" x2="36.149001121520996" y2="147.16666618982953" style="visibility: inherit;" fill="rgb(0, 0, 0)" stroke="rgb(204, 204, 204)" stroke-width="1px"></line><line x1="41.149001121520996" y1="132.44999957084656" x2="36.149001121520996" y2="132.44999957084656" style="visibility: inherit;" fill="rgb(0, 0, 0)" stroke="rgb(204, 204, 204)" stroke-width="1px"></line><line x1="41.149001121520996" y1="117.73333295186362" x2="36.149001121520996" y2="117.73333295186362" style="visibility: inherit;" fill="rgb(0, 0, 0)" stroke="rgb(204, 204, 204)" stroke-width="1px"></line><line x1="41.149001121520996" y1="103.01666633288065" x2="36.149001121520996" y2="103.01666633288065" style="visibility: inherit;" fill="rgb(0, 0, 0)" stroke="rgb(204, 204, 204)" stroke-width="1px"></line><line x1="41.149001121520996" y1="88.2999997138977" x2="36.149001121520996" y2="88.2999997138977" style="visibility: inherit;" fill="rgb(0, 0, 0)" stroke="rgb(204, 204, 204)" stroke-width="1px"></line><line x1="41.149001121520996" y1="73.58333309491475" x2="36.149001121520996" y2="73.58333309491475" style="visibility: inherit;" fill="rgb(0, 0, 0)" stroke="rgb(204, 204, 204)" stroke-width="1px"></line><line x1="41.149001121520996" y1="58.86666647593181" x2="36.149001121520996" y2="58.86666647593181" style="visibility: inherit;" fill="rgb(0, 0, 0)" stroke="rgb(204, 204, 204)" stroke-width="1px"></line><line x1="41.149001121520996" y1="44.14999985694885" x2="36.149001121520996" y2="44.14999985694885" style="visibility: inherit;" fill="rgb(0, 0, 0)" stroke="rgb(204, 204, 204)" stroke-width="1px"></line><line x1="41.149001121520996" y1="29.433333237965893" x2="36.149001121520996" y2="29.433333237965893" style="visibility: inherit;" fill="rgb(0, 0, 0)" stroke="rgb(204, 204, 204)" stroke-width="1px"></line><line x1="41.149001121520996" y1="14.716666618982957" x2="36.149001121520996" y2="14.716666618982957" style="visibility: inherit;" fill="rgb(0, 0, 0)" stroke="rgb(204, 204, 204)" stroke-width="1px"></line><line x1="41.149001121520996" y1="0" x2="36.149001121520996" y2="0" style="visibility: inherit;" fill="rgb(0, 0, 0)" stroke="rgb(204, 204, 204)" stroke-width="1px"></line></g><g transform="translate(31.149001121520996, 0)"><text style="text-anchor: end; visibility: hidden; font-family: Roboto, sans-serif; font-size: 12px; font-weight: 200;" x="0" y="176.5999994277954" dx="0em" dy="0.3em" fill="rgb(33, 33, 33)" stroke="none" stroke-width="1px">85</text><text style="text-anchor: end; visibility: inherit; font-family: Roboto, sans-serif; font-size: 12px; font-weight: 200;" x="0" y="161.88333280881244" dx="0em" dy="0.3em" fill="rgb(33, 33, 33)" stroke="none" stroke-width="1px">90</text><text style="text-anchor: end; visibility: hidden; font-family: Roboto, sans-serif; font-size: 12px; font-weight: 200;" x="0" y="147.16666618982953" dx="0em" dy="0.3em" fill="rgb(33, 33, 33)" stroke="none" stroke-width="1px">95</text><text style="text-anchor: end; visibility: inherit; font-family: Roboto, sans-serif; font-size: 12px; font-weight: 200;" x="0" y="132.44999957084656" dx="0em" dy="0.3em" fill="rgb(33, 33, 33)" stroke="none" stroke-width="1px">100</text><text style="text-anchor: end; visibility: hidden; font-family: Roboto, sans-serif; font-size: 12px; font-weight: 200;" x="0" y="117.73333295186362" dx="0em" dy="0.3em" fill="rgb(33, 33, 33)" stroke="none" stroke-width="1px">105</text><text style="text-anchor: end; visibility: inherit; font-family: Roboto, sans-serif; font-size: 12px; font-weight: 200;" x="0" y="103.01666633288065" dx="0em" dy="0.3em" fill="rgb(33, 33, 33)" stroke="none" stroke-width="1px">110</text><text style="text-anchor: end; visibility: hidden; font-family: Roboto, sans-serif; font-size: 12px; font-weight: 200;" x="0" y="88.2999997138977" dx="0em" dy="0.3em" fill="rgb(33, 33, 33)" stroke="none" stroke-width="1px">115</text><text style="text-anchor: end; visibility: inherit; font-family: Roboto, sans-serif; font-size: 12px; font-weight: 200;" x="0" y="73.58333309491475" dx="0em" dy="0.3em" fill="rgb(33, 33, 33)" stroke="none" stroke-width="1px">120</text><text style="text-anchor: end; visibility: hidden; font-family: Roboto, sans-serif; font-size: 12px; font-weight: 200;" x="0" y="58.86666647593181" dx="0em" dy="0.3em" fill="rgb(33, 33, 33)" stroke="none" stroke-width="1px">125</text><text style="text-anchor: end; visibility: inherit; font-family: Roboto, sans-serif; font-size: 12px; font-weight: 200;" x="0" y="44.14999985694885" dx="0em" dy="0.3em" fill="rgb(33, 33, 33)" stroke="none" stroke-width="1px">130</text><text style="text-anchor: end; visibility: hidden; font-family: Roboto, sans-serif; font-size: 12px; font-weight: 200;" x="0" y="29.433333237965893" dx="0em" dy="0.3em" fill="rgb(33, 33, 33)" stroke="none" stroke-width="1px">135</text><text style="text-anchor: end; visibility: inherit; font-family: Roboto, sans-serif; font-size: 12px; font-weight: 200;" x="0" y="14.716666618982957" dx="0em" dy="0.3em" fill="rgb(33, 33, 33)" stroke="none" stroke-width="1px">140</text><text style="text-anchor: end; visibility: hidden; font-family: Roboto, sans-serif; font-size: 12px; font-weight: 200;" x="0" y="0" dx="0em" dy="0.3em" fill="rgb(33, 33, 33)" stroke="none" stroke-width="1px">145</text></g><line x1="41.149001121520996" y1="0" x2="41.149001121520996" y2="176.5999994277954" fill="rgb(0, 0, 0)" stroke="rgb(204, 204, 204)" stroke-width="1px"></line></g></g><g transform="translate(41, 0)" clip-path="url(#clip_0)"><clipPath id="clip_0"><rect width="288" height="176"></rect></clipPath><g><g><g><line x1="0" y1="0" x2="0" y2="176.5999994277954" fill="rgb(0, 0, 0)" stroke="rgb(66, 66, 66)" stroke-width="1px" opacity="0.25"></line><line x1="24.07091657320658" y1="0" x2="24.07091657320658" y2="176.5999994277954" fill="rgb(0, 0, 0)" stroke="rgb(66, 66, 66)" stroke-width="1px" opacity="0.25"></line><line x1="48.14183314641316" y1="0" x2="48.14183314641316" y2="176.5999994277954" fill="rgb(0, 0, 0)" stroke="rgb(66, 66, 66)" stroke-width="1px" opacity="0.25"></line><line x1="72.21274971961975" y1="0" x2="72.21274971961975" y2="176.5999994277954" fill="rgb(0, 0, 0)" stroke="rgb(66, 66, 66)" stroke-width="1px" opacity="0.25"></line><line x1="96.28366629282633" y1="0" x2="96.28366629282633" y2="176.5999994277954" fill="rgb(0, 0, 0)" stroke="rgb(66, 66, 66)" stroke-width="1px" opacity="0.25"></line><line x1="120.35458286603293" y1="0" x2="120.35458286603293" y2="176.5999994277954" fill="rgb(0, 0, 0)" stroke="rgb(66, 66, 66)" stroke-width="1px" opacity="0.25"></line><line x1="144.4254994392395" y1="0" x2="144.4254994392395" y2="176.5999994277954" fill="rgb(0, 0, 0)" stroke="rgb(66, 66, 66)" stroke-width="1px" opacity="0.25"></line><line x1="168.4964160124461" y1="0" x2="168.4964160124461" y2="176.5999994277954" fill="rgb(0, 0, 0)" stroke="rgb(66, 66, 66)" stroke-width="1px" opacity="0.25"></line><line x1="192.56733258565265" y1="0" x2="192.56733258565265" y2="176.5999994277954" fill="rgb(0, 0, 0)" stroke="rgb(66, 66, 66)" stroke-width="1px" opacity="0.25"></line><line x1="216.63824915885925" y1="0" x2="216.63824915885925" y2="176.5999994277954" fill="rgb(0, 0, 0)" stroke="rgb(66, 66, 66)" stroke-width="1px" opacity="0.25"></line><line x1="240.70916573206586" y1="0" x2="240.70916573206586" y2="176.5999994277954" fill="rgb(0, 0, 0)" stroke="rgb(66, 66, 66)" stroke-width="1px" opacity="0.25"></line><line x1="264.7800823052724" y1="0" x2="264.7800823052724" y2="176.5999994277954" fill="rgb(0, 0, 0)" stroke="rgb(66, 66, 66)" stroke-width="1px" opacity="0.25"></line><line x1="288.850998878479" y1="0" x2="288.850998878479" y2="176.5999994277954" fill="rgb(0, 0, 0)" stroke="rgb(66, 66, 66)" stroke-width="1px" opacity="0.25"></line></g><g><line x1="0" y1="176.5999994277954" x2="288.850998878479" y2="176.5999994277954" fill="rgb(0, 0, 0)" stroke="rgb(66, 66, 66)" stroke-width="1px" opacity="0.25"></line><line x1="0" y1="161.88333280881244" x2="288.850998878479" y2="161.88333280881244" fill="rgb(0, 0, 0)" stroke="rgb(66, 66, 66)" stroke-width="1px" opacity="0.25"></line><line x1="0" y1="147.16666618982953" x2="288.850998878479" y2="147.16666618982953" fill="rgb(0, 0, 0)" stroke="rgb(66, 66, 66)" stroke-width="1px" opacity="0.25"></line><line x1="0" y1="132.44999957084656" x2="288.850998878479" y2="132.44999957084656" fill="rgb(0, 0, 0)" stroke="rgb(66, 66, 66)" stroke-width="1px" opacity="0.25"></line><line x1="0" y1="117.73333295186362" x2="288.850998878479" y2="117.73333295186362" fill="rgb(0, 0, 0)" stroke="rgb(66, 66, 66)" stroke-width="1px" opacity="0.25"></line><line x1="0" y1="103.01666633288065" x2="288.850998878479" y2="103.01666633288065" fill="rgb(0, 0, 0)" stroke="rgb(66, 66, 66)" stroke-width="1px" opacity="0.25"></line><line x1="0" y1="88.2999997138977" x2="288.850998878479" y2="88.2999997138977" fill="rgb(0, 0, 0)" stroke="rgb(66, 66, 66)" stroke-width="1px" opacity="0.25"></line><line x1="0" y1="73.58333309491475" x2="288.850998878479" y2="73.58333309491475" fill="rgb(0, 0, 0)" stroke="rgb(66, 66, 66)" stroke-width="1px" opacity="0.25"></line><line x1="0" y1="58.86666647593181" x2="288.850998878479" y2="58.86666647593181" fill="rgb(0, 0, 0)" stroke="rgb(66, 66, 66)" stroke-width="1px" opacity="0.25"></line><line x1="0" y1="44.14999985694885" x2="288.850998878479" y2="44.14999985694885" fill="rgb(0, 0, 0)" stroke="rgb(66, 66, 66)" stroke-width="1px" opacity="0.25"></line><line x1="0" y1="29.433333237965893" x2="288.850998878479" y2="29.433333237965893" fill="rgb(0, 0, 0)" stroke="rgb(66, 66, 66)" stroke-width="1px" opacity="0.25"></line><line x1="0" y1="14.716666618982957" x2="288.850998878479" y2="14.716666618982957" fill="rgb(0, 0, 0)" stroke="rgb(66, 66, 66)" stroke-width="1px" opacity="0.25"></line><line x1="0" y1="0" x2="288.850998878479" y2="0" fill="rgb(0, 0, 0)" stroke="rgb(66, 66, 66)" stroke-width="1px" opacity="0.25"></line></g></g></g><g><g><line x1="0" y1="426.7833319505056" x2="288.850998878479" y2="426.7833319505056" fill="rgb(0, 0, 0)" stroke="rgb(153, 153, 153)" stroke-width="1.5px"></line></g></g><g><g><line x1="24.07091657320658" y1="0" x2="24.07091657320658" y2="176.5999994277954" fill="rgb(0, 0, 0)" stroke="rgb(153, 153, 153)" stroke-width="1.5px"></line></g></g><g><g><g><g><g><path style="fill: none;" stroke="rgb(255, 112, 67)" stroke-width="2px" d="M25.51517156759898,154.96066546775802L26.47800823052724,177.32194204196912L27.440844893455505,158.95224024406207L28.403681556383766,76.96531317121627L29.366518219312034,96.40656740800024L30.81077321370443,116.48396407510174L31.77360987663269,85.13983110183615L32.73644653956095,105.0948484013504L33.69928320248922,118.50775155666618L34.66211986541748,121.27442814543986L35.62495652834574,125.98736811199002L37.06921152273814,135.49813099172073L38.0320481856664,135.57267280804925L38.994884848594666,136.97564120617912L39.95772151152293,134.9371356741779L41.40197650591533,126.87135072293333L42.36481316884359,119.68254773812345L43.32764983177185,124.30723995689999L44.29048649470011,138.216472025174L45.25332315762838,133.45378125530652L46.69757815202077,134.17016685375745L47.660414814949036,143.29427617377337L48.6232514778773,141.7954995849077L49.58608814080556,-47.30643422638072L51.03034313519796,-21.509508073554418L51.99317979812622,2.3167679628211366L52.95601646105448,22.392374595356678L53.91885312398275,41.96843352145866L54.88168978691101,50.9687247292043L56.325944781303406,67.18243530771556L57.28878144423167,79.03082836557236L58.25161810715993,96.06382871432552L59.214454770088196,100.6149281718294L60.177291433016464,108.02569432370821L61.140128095944725,100.24641061825257L62.102964758872986,108.53899328497019L63.06580142180125,109.87091662045852L64.51005641619365,116.31548402099469L65.4728930791219,127.31420067158498L66.43572974205017,131.44758916204086L67.39856640497844,131.5766854403332L68.36140306790669,135.74773755776346L69.80565806229909,143.05176252243947L70.76849472522736,142.47554475648L71.73133138815561,146.58862489781583L72.69416805108388,154.52416597879338L73.65700471401215,157.36990663359072L74.61984137694041,160.86317927410565L75.58267803986867,164.05058847508792L76.54551470279694,157.0599746792523L77.98976969718933,153.40668577491886L78.95260636011758,151.91549919243357L79.91544302304585,159.22342978297772L80.87827968597414,157.51756802466977L81.84111634890239,155.97047400060498L83.28537134329478,161.39848415009607L84.24820800622305,162.29888425775874L85.2110446691513,160.21672082985356L86.17388133207957,162.93030176170726L87.13671799500784,145.89547403594474L88.58097298940022,149.44191698617374L89.54380965232849,147.22971022567515L90.50664631525676,124.87045218474275L91.95090130964915,132.6212453504916L92.91373797257741,129.17666021395573L93.87657463550568,136.1771369467789L94.83941129843393,133.80461493621726L95.8022479613622,130.31539682438756L97.72792128721872,135.02388248842274L99.17217628161112,135.0658569930167L100.1350129445394,126.06624141472403L101.09784960746765,131.8810394679361L102.06068627039592,127.16728235282132L103.02352293332419,124.32555231577751L103.98635959625244,119.2405407618132L105.43061459064484,112.50700737073332L106.3934512535731,114.8009106237563L107.35628791650136,112.8387575017685L108.31912457942963,118.2940586832319L109.76337957382202,101.52210705130763L110.72621623675029,107.09384682537329L111.68905289967854,113.15856288691359L112.65188956260681,120.16865769047946L114.0961445569992,124.27852732699967L115.05898121992746,123.21357290952633L116.02181788285573,127.7769563720291L116.98465454578401,122.47845916151303L117.94749120871226,122.12353098891614L118.91032787164053,122.70339346088527L120.35458286603293,123.42354266538503L121.31741952896118,128.5656733945573L122.28025619188945,128.10278736071754L123.24309285481772,126.72323273731114L124.6873478492101,129.49844839487488L125.65018451213837,130.3201560799882L126.61302117506663,120.84871608664606L127.57585783799489,118.63364705259599L129.0201128323873,120.40303161382477L129.98294949531555,119.27055736557487L130.9457861582438,126.39026763192813L131.9086228211721,121.43029807354888L132.87145948410034,120.1444874492636L134.31571447849274,121.92890187076506L135.278551141421,124.04407256646523L136.24138780434927,121.51931770826238L137.20422446727753,123.13266807363605L138.64847946166992,128.7518283870289L139.61131612459818,121.66959930203411L140.57415278752646,121.54178575316182L141.5369894504547,121.46473374189866L142.9812444448471,126.32848241239198L143.9440811077754,124.45980097019817L144.90691777070364,123.7863344740239L145.8697544336319,124.60614600340186L146.83259109656015,119.75754664878245L147.79542775948843,120.08736650437844L149.23968275388083,122.42906089576222L150.20251941680908,126.04178986241425L151.16535607973734,130.1851523837569L152.1281927426656,124.7658862730403L153.09102940559387,107.76672963965413L154.53528439998627,105.05154744178267L155.49812106291452,97.76428104965412L156.46095772584277,95.33648916503485L157.42379438877106,102.8786094652435L158.86804938316345,103.14878284048257L159.8308860460917,81.6936718642407L160.79372270901996,87.34273836615537L161.75655937194827,72.60818877037514L162.71939603487652,73.14090044379336L164.16365102926892,55.13556141402951L165.12648769219717,59.15890563458384L166.08932435512543,70.53709278524217L167.0521610180537,70.5234814657953L168.4964160124461,32.92886024340535L169.45925267537436,38.99902808093779L170.4220893383026,42.532472010490835L171.3849260012309,43.19943685790216L172.34776266415915,47.297025856780934L173.3105993270874,42.7881343765758L174.7548543214798,47.74810897746301L175.71769098440805,58.12847912450699L176.68052764733633,57.33124190157063L177.6433643102646,67.13005775887166L178.60620097319284,63.0474081802968L179.56903763612112,62.16127080006118L181.01329263051352,58.20445760086923L181.97612929344177,58.066498638349536L182.93896595637003,61.85849514334353L183.9018026192983,54.707712234431234L184.86463928222656,60.633681429903284L185.82747594515482,61.381289798343175L187.2717309395472,64.85804253791935L188.23456760247547,62.994411294112034L189.19740426540375,69.5524432915949L190.64165925979614,61.705269947993685L191.6044959227244,61.95561186052423L192.56733258565265,47.33578216041014L193.53016924858093,49.94383248449628L194.97442424297333,54.687469740361664L195.93726090590158,53.838556007532326L196.90009756882984,53.41981932693548L197.86293423175815,56.00773732788032L199.30718922615048,58.73427819563077L200.2700258890788,62.27745341935829L201.23286255200705,69.72511952269122L202.1956992149353,65.94926526500082L203.15853587786359,59.18542119589876L204.60279087225598,53.97042528801842L205.56562753518423,56.026623512289426L206.5284641981125,53.2968055271639L207.49130086104077,56.962649319771856L208.93555585543317,54.619595352123966L209.89839251836142,57.88071228859212L210.86122918128967,55.964748368852646L211.82406584421793,51.84613797235926L212.7869025071462,52.34877613162403L213.74973917007446,44.99138039605027L214.71257583300272,45.110409410730746L216.1568308273951,49.579375798342916L217.1196674903234,43.028658134728886L218.08250415325165,23.3826657476599L219.52675914764404,26.52734106804933L220.4895958105723,27.963112349988666L221.45243247350058,27.159528853378916L222.41526913642883,27.706644684741438L223.3781057993571,30.080934597666516L224.82236079374948,22.78980518894347L225.78519745667774,31.9279093805701L226.74803411960602,32.533435844761435L227.71087078253427,19.080797336786866L228.67370744546253,15.385411491189108L229.6365441083908,18.11186075483951L231.56221743424732,15.21792539109883L232.5250540971756,10.413208667635727L233.96930909156802,3.0338854839644434L234.93214575449628,6.106859913849031L235.89498241742453,12.236652457192031L236.85781908035278,16.17716155238251L237.82065574328107,20.90760224535074L238.78349240620932,22.66720759478437L240.22774740060171,29.822856445401133L241.19058406352997,30.930145083223778L242.15342072645825,19.284824144788125L243.1162573893865,14.653937231724349L244.07909405231476,16.99132513366274L245.04193071524304,24.295172261253978L246.48618570963544,24.561798840560666L247.4490223725637,24.68454321881202L248.41185903549194,22.213748996631676L249.3746956984202,21.601057380194746L250.33753236134848,24.896351423231152L251.30036902427673,29.857136545743394L252.74462401866913,38.9471085046529L253.70746068159738,46.34282011674677L254.67029734452566,44.243134516873276L255.63313400745392,32.289477465331984L256.5959706703822,30.11143211486197L257.5588073333105,36.60155714306591L259.0030623277028,40.43437328540481L259.9658989906311,39.11009700955653L260.9287356535594,33.13835875854783L261.8915723164876,30.87267668266272L263.33582731088,39.67981078604524L264.2986639738083,43.62647753711905" fill="none"></path></g></g></g></g><g opacity="0.2"><g><g><g><path style="fill: none;" stroke="rgb(255, 112, 67)" stroke-width="2px" d="M25.51517156759898,154.96066546775802L26.47800823052724,197.44709095875913L27.440844893455505,127.54005016964112L28.403681556383766,-123.0008019594546L29.366518219312034,156.5791933962703L30.81077321370443,190.48101645740428L33.69928320248922,187.25954496108764L34.66211986541748,136.5277126720549L35.62495652834574,153.61412280854674L37.06921152273814,194.2337933922663L38.0320481856664,136.05407385929914L38.994884848594666,146.39281510285934L39.95772151152293,120.78768800381609L41.40197650591533,69.22534851532583L42.36481316884359,66.97221823291268L43.32764983177185,158.98805500650732L44.29048649470011,244.61025060869972L45.25332315762838,96.37988443299788L46.69757815202077,139.83377535970712L47.660414814949036,216.4261026872226L48.6232514778773,129.6348667013465L49.58608814080556,-1598.3839521371303L53.91885312398275,207.90787975339688L54.88168978691101,127.73209260879752L56.325944781303406,206.23265080069493L58.25161810715993,243.51223808224844L59.214454770088196,140.16838999790514L60.177291433016464,172.66144523625178L61.140128095944725,32.18013295237324L62.102964758872986,181.30405112967614L63.06580142180125,121.58817173026704L64.51005641619365,173.14058573254272L65.4728930791219,224.49630893447102L66.43572974205017,168.03713426185521L67.39856640497844,132.72137853216617L68.36140306790669,172.787826766604L69.80565806229909,208.00095925647258L70.76849472522736,137.34546494805107L71.73133138815561,183.24735803357652L75.58267803986867,192.55474694486645L76.54551470279694,94.50473103738089L77.98976969718933,120.69653970394053L78.95260636011758,138.55707039761654L79.91544302304585,224.72023868228064L80.87827968597414,142.2224940714498L81.84111634890239,142.09370976502296L83.28537134329478,210.10190623554578L84.24820800622305,170.3802900515857L85.2110446691513,141.5234434247076L86.17388133207957,187.2983486718994L88.58097298940022,181.30254658764815L89.54380965232849,127.35204978369426L90.50664631525676,-76.06995931773344L91.95090130964915,202.28700056018337L92.91373797257741,98.21194505023074L93.87657463550568,199.11457264280943L94.83941129843393,112.47230877355675L95.8022479613622,98.9394248045468L97.72792128721872,177.36747305303496L99.17217628161112,135.44336453103705L100.1350129445394,45.12045192086176L101.09784960746765,184.1847101728734L102.06068627039592,84.76499962362625L103.02352293332419,98.76166428673083L103.98635959625244,73.49425073334629L105.43061459064484,51.92762881937865L106.3934512535731,135.43916528686933L107.35628791650136,95.18467175478229L108.31912457942963,167.3785266030598L109.76337957382202,-49.3888151984543L110.72621623675029,157.22854924438604L111.68905289967854,167.73027505569615L112.65188956260681,183.24834609102774L114.0961445569992,161.2614629225217L115.05898121992746,113.63035701809555L116.02181788285573,168.842109158539L116.98465454578401,74.79752096736411L117.94749120871226,118.92951123167926L118.91032787164053,127.92166490432587L120.35458286603293,129.90433691531715L121.31741952896118,174.84132453216722L122.28025619188945,123.93709867374673L123.24309285481772,114.3080072386782L124.6873478492101,154.47400226132703L125.65018451213837,137.7151556257676L126.61302117506663,35.60959054217285L127.57585783799489,98.69883281517336L129.0201128323873,136.3269124509444L129.98294949531555,109.07862335466174L130.9457861582438,190.46576893446374L131.9086228211721,76.79175774170496L132.87145948410034,108.57246846942022L134.31571447849274,137.98828614347804L135.278551141421,143.08024021836948L136.24138780434927,98.79691997305865L137.20422446727753,137.65259362442413L138.64847946166992,179.32355733624777L139.61131612459818,57.93034730578851L140.57415278752646,120.3914769658746L141.5369894504547,120.77127277661506L142.9812444448471,170.1018150412982L143.9440811077754,107.64180817377031L144.90691777070364,117.72518147789098L145.8697544336319,131.98439995280762L146.83259109656015,76.12041761529946L147.79542775948843,123.05572897140229L149.23968275388083,143.50420668834994L150.20251941680908,158.5562065327682L151.16535607973734,167.47526640987525L152.1281927426656,75.9926662780262L153.09102940559387,-45.22518601069169L154.53528439998627,80.61497868166916L155.49812106291452,32.179055071517354L156.46095772584277,73.48641364128997L157.42379438877106,170.75754835114458L158.86804938316345,105.58033858104378L159.8308860460917,-111.40199553951656L160.79372270901996,138.18425835658817L161.75655937194827,-60.00257325122269L162.71939603487652,77.93529950639169L164.16365102926892,-106.91230739284947L165.12648769219717,95.36896692528704L166.08932435512543,172.94068374547885L167.0521610180537,70.4009796913262L168.4964160124461,-305.42248080157395L169.45925267537436,93.63050229570665L170.4220893383026,74.33344834720434L171.3849260012309,49.20211725187498L172.34776266415915,84.17530897205386L173.3105993270874,2.2081287566800434L174.7548543214798,92.38786285983224L175.71769098440805,151.5517774376248L176.68052764733633,50.156109176884506L177.6433643102646,155.31937523425523L178.60620097319284,26.303571437803964L179.56903763612112,54.186036226815354L181.01329263051352,22.593146238237626L181.97612929344177,56.82486820882514L182.93896595637003,95.98645792060076L183.9018026192983,-9.649324156967502L184.86463928222656,113.96739688821931L185.82747594515482,68.10976428533856L187.2717309395472,96.14881372451806L188.23456760247547,46.22173177365742L189.19740426540375,128.57472596788367L190.64165925979614,-8.91928443561871L191.6044959227244,64.208688909388L192.56733258565265,-84.2426765255465L193.53016924858093,73.41628401810414L194.97442424297333,97.38020277895922L195.93726090590158,46.1983327767443L196.90009756882984,49.65118936345703L197.86293423175815,79.29899843589241L199.30718922615048,83.27314515153132L200.2700258890788,94.16602943427097L201.23286255200705,136.75411256349253L202.1956992149353,31.966577807801514L203.15853587786359,-1.6891740362749417L204.60279087225598,7.035463081452322L205.56562753518423,74.53240718851934L206.5284641981125,28.728444069921057L207.49130086104077,89.95524295906348L208.93555585543317,33.532109927566246L209.89839251836142,87.2307643607134L210.86122918128967,38.72107327948713L211.82406584421793,14.778644768196203L212.7869025071462,56.87251952499562L213.74973917007446,-21.225180697015695L214.71257583300272,46.181670535180444L216.1568308273951,89.80007302751875L217.1196674903234,-15.927800495673988L218.08250415325165,-153.4312648125165L219.52675914764404,54.829418818521425L220.4895958105723,40.885053832778304L221.45243247350058,19.927277411426125L222.41526913642883,32.63068715013213L223.3781057993571,51.449543748092395L224.82236079374948,-42.830359307432346L225.78519745667774,114.17084689976714L226.74803411960602,37.98317401023087L227.71087078253427,-101.99294899000621L228.67370744546253,-17.87306105862567L229.6365441083908,42.64990408747665L231.56221743424732,-10.827492844149429L233.96930909156802,-63.38002308972598L234.93214575449628,33.763629753069345L235.89498241742453,67.40478529388905L236.85781908035278,51.64174337820697L237.82065574328107,63.48156844869057L238.78349240620932,38.503655728515156L240.22774740060171,94.22369606006069L241.19058406352997,40.89574281793247L242.15342072645825,-85.52306424722799L243.1162573893865,-27.02404496655677L244.07909405231476,38.02781624234533L245.04193071524304,90.02979638492872L246.48618570963544,26.961438053510932L247.4490223725637,25.78924262273867L248.41185903549194,-0.02339899691311943L249.3746956984202,16.08683283361898L250.33753236134848,54.55399780399227L251.30036902427673,74.50420263945708L252.74462401866913,120.75685612016763L253.70746068159738,112.90422461484935L254.67029734452566,25.345964120756975L255.63313400745392,-75.29343598447475L256.5959706703822,10.509023962938464L257.5588073333105,95.01268239071554L259.0030623277028,74.92971856316787L259.9658989906311,27.1916105279442L260.9287356535594,-20.60728549638102L261.8915723164876,10.481538001113467L263.33582731088,118.94401771153133L264.2986639738083,79.14647829478503" fill="none"></path></g></g></g></g></g></g><g transform="translate(41, 176)" clip-path="url(#clip_1)"><clipPath id="clip_1"><rect width="288" height="23"></rect></clipPath><g><g><line x1="0" y1="0" x2="0" y2="5" style="visibility: inherit;" fill="rgb(0, 0, 0)" stroke="rgb(204, 204, 204)" stroke-width="1px"></line><line x1="24.07091657320658" y1="0" x2="24.07091657320658" y2="5" style="visibility: inherit;" fill="rgb(0, 0, 0)" stroke="rgb(204, 204, 204)" stroke-width="1px"></line><line x1="48.14183314641316" y1="0" x2="48.14183314641316" y2="5" style="visibility: inherit;" fill="rgb(0, 0, 0)" stroke="rgb(204, 204, 204)" stroke-width="1px"></line><line x1="72.21274971961975" y1="0" x2="72.21274971961975" y2="5" style="visibility: inherit;" fill="rgb(0, 0, 0)" stroke="rgb(204, 204, 204)" stroke-width="1px"></line><line x1="96.28366629282633" y1="0" x2="96.28366629282633" y2="5" style="visibility: inherit;" fill="rgb(0, 0, 0)" stroke="rgb(204, 204, 204)" stroke-width="1px"></line><line x1="120.35458286603293" y1="0" x2="120.35458286603293" y2="5" style="visibility: inherit;" fill="rgb(0, 0, 0)" stroke="rgb(204, 204, 204)" stroke-width="1px"></line><line x1="144.4254994392395" y1="0" x2="144.4254994392395" y2="5" style="visibility: inherit;" fill="rgb(0, 0, 0)" stroke="rgb(204, 204, 204)" stroke-width="1px"></line><line x1="168.4964160124461" y1="0" x2="168.4964160124461" y2="5" style="visibility: inherit;" fill="rgb(0, 0, 0)" stroke="rgb(204, 204, 204)" stroke-width="1px"></line><line x1="192.56733258565265" y1="0" x2="192.56733258565265" y2="5" style="visibility: inherit;" fill="rgb(0, 0, 0)" stroke="rgb(204, 204, 204)" stroke-width="1px"></line><line x1="216.63824915885925" y1="0" x2="216.63824915885925" y2="5" style="visibility: inherit;" fill="rgb(0, 0, 0)" stroke="rgb(204, 204, 204)" stroke-width="1px"></line><line x1="240.70916573206586" y1="0" x2="240.70916573206586" y2="5" style="visibility: inherit;" fill="rgb(0, 0, 0)" stroke="rgb(204, 204, 204)" stroke-width="1px"></line><line x1="264.7800823052724" y1="0" x2="264.7800823052724" y2="5" style="visibility: inherit;" fill="rgb(0, 0, 0)" stroke="rgb(204, 204, 204)" stroke-width="1px"></line><line x1="288.850998878479" y1="0" x2="288.850998878479" y2="5" style="visibility: inherit;" fill="rgb(0, 0, 0)" stroke="rgb(204, 204, 204)" stroke-width="1px"></line></g><g transform="translate(0, 8)"><text style="text-anchor: middle; visibility: hidden; font-family: Roboto, sans-serif; font-size: 12px; font-weight: 200;" x="0" y="0" dx="0em" dy="0.95em" fill="rgb(33, 33, 33)" stroke="none" stroke-width="1px">-100k</text><text style="text-anchor: middle; visibility: inherit; font-family: Roboto, sans-serif; font-size: 12px; font-weight: 200;" x="24.07091657320658" y="0" dx="0em" dy="0.95em" fill="rgb(33, 33, 33)" stroke="none" stroke-width="1px">0</text><text style="text-anchor: middle; visibility: hidden; font-family: Roboto, sans-serif; font-size: 12px; font-weight: 200;" x="48.14183314641316" y="0" dx="0em" dy="0.95em" fill="rgb(33, 33, 33)" stroke="none" stroke-width="1px">100k</text><text style="text-anchor: middle; visibility: inherit; font-family: Roboto, sans-serif; font-size: 12px; font-weight: 200;" x="72.21274971961975" y="0" dx="0em" dy="0.95em" fill="rgb(33, 33, 33)" stroke="none" stroke-width="1px">200k</text><text style="text-anchor: middle; visibility: hidden; font-family: Roboto, sans-serif; font-size: 12px; font-weight: 200;" x="96.28366629282633" y="0" dx="0em" dy="0.95em" fill="rgb(33, 33, 33)" stroke="none" stroke-width="1px">300k</text><text style="text-anchor: middle; visibility: inherit; font-family: Roboto, sans-serif; font-size: 12px; font-weight: 200;" x="120.35458286603293" y="0" dx="0em" dy="0.95em" fill="rgb(33, 33, 33)" stroke="none" stroke-width="1px">400k</text><text style="text-anchor: middle; visibility: hidden; font-family: Roboto, sans-serif; font-size: 12px; font-weight: 200;" x="144.4254994392395" y="0" dx="0em" dy="0.95em" fill="rgb(33, 33, 33)" stroke="none" stroke-width="1px">500k</text><text style="text-anchor: middle; visibility: inherit; font-family: Roboto, sans-serif; font-size: 12px; font-weight: 200;" x="168.4964160124461" y="0" dx="0em" dy="0.95em" fill="rgb(33, 33, 33)" stroke="none" stroke-width="1px">600k</text><text style="text-anchor: middle; visibility: hidden; font-family: Roboto, sans-serif; font-size: 12px; font-weight: 200;" x="192.56733258565265" y="0" dx="0em" dy="0.95em" fill="rgb(33, 33, 33)" stroke="none" stroke-width="1px">700k</text><text style="text-anchor: middle; visibility: inherit; font-family: Roboto, sans-serif; font-size: 12px; font-weight: 200;" x="216.63824915885925" y="0" dx="0em" dy="0.95em" fill="rgb(33, 33, 33)" stroke="none" stroke-width="1px">800k</text><text style="text-anchor: middle; visibility: hidden; font-family: Roboto, sans-serif; font-size: 12px; font-weight: 200;" x="240.70916573206586" y="0" dx="0em" dy="0.95em" fill="rgb(33, 33, 33)" stroke="none" stroke-width="1px">900k</text><text style="text-anchor: middle; visibility: inherit; font-family: Roboto, sans-serif; font-size: 12px; font-weight: 200;" x="264.7800823052724" y="0" dx="0em" dy="0.95em" fill="rgb(33, 33, 33)" stroke="none" stroke-width="1px">1M</text><text style="text-anchor: middle; visibility: hidden; font-family: Roboto, sans-serif; font-size: 12px; font-weight: 200;" x="288.850998878479" y="0" dx="0em" dy="0.95em" fill="rgb(33, 33, 33)" stroke="none" stroke-width="1px">1.1M</text></g><line x1="0" y1="0" x2="288.850998878479" y2="0" fill="rgb(0, 0, 0)" stroke="rgb(204, 204, 204)" stroke-width="1px"></line></g></g></g></g></svg>