<svg viewBox="0 0 330 200" xmlns="http://www.w3.org/2000/svg"><g><g><g><g><g><line x1="61.91500186920166" y1="176.5999994277954" x2="56.91500186920166" y2="176.5999994277954" style="visibility: inherit;" fill="rgb(0, 0, 0)" stroke="rgb(204, 204, 204)" stroke-width="1px"></line><line x1="61.91500186920166" y1="161.88333280881244" x2="56.91500186920166" y2="161.88333280881244" style="visibility: inherit;" fill="rgb(0, 0, 0)" stroke="rgb(204, 204, 204)" stroke-width="1px"></line><line x1="61.91500186920166" y1="147.16666618982953" x2="56.91500186920166" y2="147.16666618982953" style="visibility: inherit;" fill="rgb(0, 0, 0)" stroke="rgb(204, 204, 204)" stroke-width="1px"></line><line x1="61.91500186920166" y1="132.44999957084656" x2="56.91500186920166" y2="132.44999957084656" style="visibility: inherit;" fill="rgb(0, 0, 0)" stroke="rgb(204, 204, 204)" stroke-width="1px"></line><line x1="61.91500186920166" y1="117.73333295186362" x2="56.91500186920166" y2="117.73333295186362" style="visibility: inherit;" fill="rgb(0, 0, 0)" stroke="rgb(204, 204, 204)" stroke-width="1px"></line><line x1="61.91500186920166" y1="103.01666633288065" x2="56.91500186920166" y2="103.01666633288065" style="visibility: inherit;" fill="rgb(0, 0, 0)" stroke="rgb(204, 204, 204)" stroke-width="1px"></line><line x1="61.91500186920166" y1="88.2999997138977" x2="56.91500186920166" y2="88.2999997138977" style="visibility: inherit;" fill="rgb(0, 0, 0)" stroke="rgb(204, 204, 204)" stroke-width="1px"></line><line x1="61.91500186920166" y1="73.58333309491475" x2="56.91500186920166" y2="73.58333309491475" style="visibility: inherit;" fill="rgb(0, 0, 0)" stroke="rgb(204, 204, 204)" stroke-width="1px"></line><line x1="61.91500186920166" y1="58.86666647593181" x2="56.91500186920166" y2="58.86666647593181" style="visibility: inherit;" fill="rgb(0, 0, 0)" stroke="rgb(204, 204, 204)" stroke-width="1px"></line><line x1="61.91500186920166" y1="44.14999985694885" x2="56.91500186920166" y2="44.14999985694885" style="visibility: inherit;" fill="rgb(0, 0, 0)" stroke="rgb(204, 204, 204)" stroke-width="1px"></line><line x1="61.91500186920166" y1="29.433333237965893" x2="56.91500186920166" y2="29.433333237965893" style="visibility: inherit;" fill="rgb(0, 0, 0)" stroke="rgb(204, 204, 204)" stroke-width="1px"></line><line x1="61.91500186920166" y1="14.716666618982957" x2="56.91500186920166" y2="14.716666618982957" style="visibility: inherit;" fill="rgb(0, 0, 0)" stroke="rgb(204, 204, 204)" stroke-width="1px"></line><line x1="61.91500186920166" y1="0" x2="56.91500186920166" y2="0" style="visibility: inherit;" fill="rgb(0, 0, 0)" stroke="rgb(204, 204, 204)" stroke-width="1px"></line></g><g transform="translate(51.91500186920166, 0)"><text style="text-anchor: end; visibility: hidden; font-family: Roboto, sans-serif; font-size: 12px; font-weight: 200;" x="0" y="176.5999994277954" dx="0em" dy="0.3em" fill="rgb(33, 33, 33)" stroke="none" stroke-width="1px">0.605</text><text style="text-anchor: end; visibility: inherit; font-family: Roboto, sans-serif; font-size: 12px; font-weight: 200;" x="0" y="161.88333280881244" dx="0em" dy="0.3em" fill="rgb(33, 33, 33)" stroke="none" stroke-width="1px">0.61</text><text style="text-anchor: end; visibility: hidden; font-family: Roboto, sans-serif; font-size: 12px; font-weight: 200;" x="0" y="147.16666618982953" dx="0em" dy="0.3em" fill="rgb(33, 33, 33)" stroke="none" stroke-width="1px">0.615</text><text style="text-anchor: end; visibility: inherit; font-family: Roboto, sans-serif; font-size: 12px; font-weight: 200;" x="0" y="132.44999957084656" dx="0em" dy="0.3em" fill="rgb(33, 33, 33)" stroke="none" stroke-width="1px">0.62</text><text style="text-anchor: end; visibility: hidden; font-family: Roboto, sans-serif; font-size: 12px; font-weight: 200;" x="0" y="117.73333295186362" dx="0em" dy="0.3em" fill="rgb(33, 33, 33)" stroke="none" stroke-width="1px">0.625</text><text style="text-anchor: end; visibility: inherit; font-family: Roboto, sans-serif; font-size: 12px; font-weight: 200;" x="0" y="103.01666633288065" dx="0em" dy="0.3em" fill="rgb(33, 33, 33)" stroke="none" stroke-width="1px">0.63</text><text style="text-anchor: end; visibility: hidden; font-family: Roboto, sans-serif; font-size: 12px; font-weight: 200;" x="0" y="88.2999997138977" dx="0em" dy="0.3em" fill="rgb(33, 33, 33)" stroke="none" stroke-width="1px">0.635</text><text style="text-anchor: end; visibility: inherit; font-family: Roboto, sans-serif; font-size: 12px; font-weight: 200;" x="0" y="73.58333309491475" dx="0em" dy="0.3em" fill="rgb(33, 33, 33)" stroke="none" stroke-width="1px">0.64</text><text style="text-anchor: end; visibility: hidden; font-family: Roboto, sans-serif; font-size: 12px; font-weight: 200;" x="0" y="58.86666647593181" dx="0em" dy="0.3em" fill="rgb(33, 33, 33)" stroke="none" stroke-width="1px">0.645</text><text style="text-anchor: end; visibility: inherit; font-family: Roboto, sans-serif; font-size: 12px; font-weight: 200;" x="0" y="44.14999985694885" dx="0em" dy="0.3em" fill="rgb(33, 33, 33)" stroke="none" stroke-width="1px">0.65</text><text style="text-anchor: end; visibility: hidden; font-family: Roboto, sans-serif; font-size: 12px; font-weight: 200;" x="0" y="29.433333237965893" dx="0em" dy="0.3em" fill="rgb(33, 33, 33)" stroke="none" stroke-width="1px">0.655</text><text style="text-anchor: end; visibility: inherit; font-family: Roboto, sans-serif; font-size: 12px; font-weight: 200;" x="0" y="14.716666618982957" dx="0em" dy="0.3em" fill="rgb(33, 33, 33)" stroke="none" stroke-width="1px">0.66</text><text style="text-anchor: end; visibility: hidden; font-family: Roboto, sans-serif; font-size: 12px; font-weight: 200;" x="0" y="0" dx="0em" dy="0.3em" fill="rgb(33, 33, 33)" stroke="none" stroke-width="1px">0.665</text></g><line x1="61.91500186920166" y1="0" x2="61.91500186920166" y2="176.5999994277954" fill="rgb(0, 0, 0)" stroke="rgb(204, 204, 204)" stroke-width="1px"></line></g></g><g transform="translate(61, 0)" clip-path="url(#clip_0)"><clipPath id="clip_0"><rect width="268" height="176"></rect></clipPath><g><g><g><line x1="0" y1="0" x2="0" y2="176.5999994277954" fill="rgb(0, 0, 0)" stroke="rgb(66, 66, 66)" stroke-width="1px" opacity="0.25"></line><line x1="22.34041651089986" y1="0" x2="22.34041651089986" y2="176.5999994277954" fill="rgb(0, 0, 0)" stroke="rgb(66, 66, 66)" stroke-width="1px" opacity="0.25"></line><line x1="44.68083302179972" y1="0" x2="44.68083302179972" y2="176.5999994277954" fill="rgb(0, 0, 0)" stroke="rgb(66, 66, 66)" stroke-width="1px" opacity="0.25"></line><line x1="67.02124953269958" y1="0" x2="67.02124953269958" y2="176.5999994277954" fill="rgb(0, 0, 0)" stroke="rgb(66, 66, 66)" stroke-width="1px" opacity="0.25"></line><line x1="89.36166604359944" y1="0" x2="89.36166604359944" y2="176.5999994277954" fill="rgb(0, 0, 0)" stroke="rgb(66, 66, 66)" stroke-width="1px" opacity="0.25"></line><line x1="111.70208255449931" y1="0" x2="111.70208255449931" y2="176.5999994277954" fill="rgb(0, 0, 0)" stroke="rgb(66, 66, 66)" stroke-width="1px" opacity="0.25"></line><line x1="134.04249906539917" y1="0" x2="134.04249906539917" y2="176.5999994277954" fill="rgb(0, 0, 0)" stroke="rgb(66, 66, 66)" stroke-width="1px" opacity="0.25"></line><line x1="156.38291557629904" y1="0" x2="156.38291557629904" y2="176.5999994277954" fill="rgb(0, 0, 0)" stroke="rgb(66, 66, 66)" stroke-width="1px" opacity="0.25"></line><line x1="178.72333208719888" y1="0" x2="178.72333208719888" y2="176.5999994277954" fill="rgb(0, 0, 0)" stroke="rgb(66, 66, 66)" stroke-width="1px" opacity="0.25"></line><line x1="201.06374859809875" y1="0" x2="201.06374859809875" y2="176.5999994277954" fill="rgb(0, 0, 0)" stroke="rgb(66, 66, 66)" stroke-width="1px" opacity="0.25"></line><line x1="223.40416510899863" y1="0" x2="223.40416510899863" y2="176.5999994277954" fill="rgb(0, 0, 0)" stroke="rgb(66, 66, 66)" stroke-width="1px" opacity="0.25"></line><line x1="245.74458161989847" y1="0" x2="245.74458161989847" y2="176.5999994277954" fill="rgb(0, 0, 0)" stroke="rgb(66, 66, 66)" stroke-width="1px" opacity="0.25"></line><line x1="268.08499813079834" y1="0" x2="268.08499813079834" y2="176.5999994277954" fill="rgb(0, 0, 0)" stroke="rgb(66, 66, 66)" stroke-width="1px" opacity="0.25"></line></g><g><line x1="0" y1="176.5999994277954" x2="268.08499813079834" y2="176.5999994277954" fill="rgb(0, 0, 0)" stroke="rgb(66, 66, 66)" stroke-width="1px" opacity="0.25"></line><line x1="0" y1="161.88333280881244" x2="268.08499813079834" y2="161.88333280881244" fill="rgb(0, 0, 0)" stroke="rgb(66, 66, 66)" stroke-width="1px" opacity="0.25"></line><line x1="0" y1="147.16666618982953" x2="268.08499813079834" y2="147.16666618982953" fill="rgb(0, 0, 0)" stroke="rgb(66, 66, 66)" stroke-width="1px" opacity="0.25"></line><line x1="0" y1="132.44999957084656" x2="268.08499813079834" y2="132.44999957084656" fill="rgb(0, 0, 0)" stroke="rgb(66, 66, 66)" stroke-width="1px" opacity="0.25"></line><line x1="0" y1="117.73333295186362" x2="268.08499813079834" y2="117.73333295186362" fill="rgb(0, 0, 0)" stroke="rgb(66, 66, 66)" stroke-width="1px" opacity="0.25"></line><line x1="0" y1="103.01666633288065" x2="268.08499813079834" y2="103.01666633288065" fill="rgb(0, 0, 0)" stroke="rgb(66, 66, 66)" stroke-width="1px" opacity="0.25"></line><line x1="0" y1="88.2999997138977" x2="268.08499813079834" y2="88.2999997138977" fill="rgb(0, 0, 0)" stroke="rgb(66, 66, 66)" stroke-width="1px" opacity="0.25"></line><line x1="0" y1="73.58333309491475" x2="268.08499813079834" y2="73.58333309491475" fill="rgb(0, 0, 0)" stroke="rgb(66, 66, 66)" stroke-width="1px" opacity="0.25"></line><line x1="0" y1="58.86666647593181" x2="268.08499813079834" y2="58.86666647593181" fill="rgb(0, 0, 0)" stroke="rgb(66, 66, 66)" stroke-width="1px" opacity="0.25"></line><line x1="0" y1="44.14999985694885" x2="268.08499813079834" y2="44.14999985694885" fill="rgb(0, 0, 0)" stroke="rgb(66, 66, 66)" stroke-width="1px" opacity="0.25"></line><line x1="0" y1="29.433333237965893" x2="268.08499813079834" y2="29.433333237965893" fill="rgb(0, 0, 0)" stroke="rgb(66, 66, 66)" stroke-width="1px" opacity="0.25"></line><line x1="0" y1="14.716666618982957" x2="268.08499813079834" y2="14.716666618982957" fill="rgb(0, 0, 0)" stroke="rgb(66, 66, 66)" stroke-width="1px" opacity="0.25"></line><line x1="0" y1="0" x2="268.08499813079834" y2="0" fill="rgb(0, 0, 0)" stroke="rgb(66, 66, 66)" stroke-width="1px" opacity="0.25"></line></g></g></g><g><g><line x1="0" y1="1957.3166603247307" x2="268.08499813079834" y2="1957.3166603247307" fill="rgb(0, 0, 0)" stroke="rgb(153, 153, 153)" stroke-width="1.5px"></line></g></g><g><g><line x1="22.34041651089986" y1="0" x2="22.34041651089986" y2="176.5999994277954" fill="rgb(0, 0, 0)" stroke="rgb(153, 153, 153)" stroke-width="1.5px"></line></g></g><g><g><g><g><g><path style="fill: none;" stroke="rgb(255, 112, 67)" stroke-width="2px" d="M23.680841501553854,117.08702548554342L24.574458161989845,202.4948822044113L25.46807482242584,111.66145283653441L26.361691482861836,265.1267054756725L32.1701997756958,201.1703798095401L33.063816436131795,167.26106248461915L34.40424142678579,174.3468040215339L35.297858087221776,161.59767296090274L36.19147474765778,159.37997059263506L37.085091408093774,145.08415888735337L38.42551639874777,151.08687187568867L39.319133059183756,123.4830575123447L40.21274971961975,132.74834846288994L41.10636638005574,135.1484993161294L41.99998304049174,136.02055038664852L43.34040803114573,127.34746582143586L44.23402469158173,131.85945576124064L45.12764135201772,123.59510731869702L46.021258012453714,162.2509564524964L47.36168300310771,154.21896888926807L48.2552996635437,151.3769235633287L49.14891632397969,153.45284166754774L50.04253298441569,153.84116274916835L50.93614964485168,136.4474377791703L52.276574635505675,137.4966427083142L53.17019129594167,150.42113421927436L54.063807956377666,150.1468990384592L54.957424616813654,138.84392308566558L55.85104127724966,142.16460915889573L56.74465793768565,81.52810470544047L57.63827459812164,89.42778754009673L58.531891258557636,86.64731875529702L59.87231624921163,74.97018128958953L60.765932909647624,81.89699620687834L61.65954957008362,85.12362577258244L62.553166230519615,83.461602683874L63.4467828909556,91.75092330320534L64.7872078816096,102.70269805033784L65.6808245420456,113.76204842507109L66.57444120248158,102.74260147073373L67.46805786291758,112.109680530241L68.36167452335357,117.46949049708631L69.25529118378958,119.41079866567371L70.14890784422556,131.52216185245535L71.04252450466156,143.2803235209884L72.38294949531556,137.75328898538197L73.27656615575154,129.44069032244172L74.17018281618755,131.27054537054065L75.06379947662354,125.23399855648587L75.95741613705952,134.0332367933643L77.29784112771353,127.37320997175581L78.19145778814952,131.95855925920046L79.0850744485855,133.07579837265442L79.97869110902151,128.85132689555954L80.8723077694575,146.42634342886424L82.21273276011148,160.37086998310144L83.10634942054749,146.45036395660117L83.99996608098348,139.53445986205475L85.34039107163748,146.95349716344666L86.23400773207347,160.62705715455914L87.12762439250946,159.19515763997396L88.02124105294546,153.95627581638146L88.91485771338145,139.5448319480591L90.70209103425343,137.49421762645804L92.04251602490743,142.5727994286663L92.93613268534342,139.62393266139847L93.82974934577942,127.30645332286622L94.72336600621541,134.28208511594116L95.61698266665141,126.96759155891121L96.5105993270874,141.2736311321361L97.85102431774139,146.05267979579807L98.74464097817739,149.61474784555637L99.63825763861338,145.35956008606215L100.53187429904938,143.213390902001L101.87229928970336,126.04450659359262L102.76591595013937,116.91915786944705L103.65953261057535,96.39447171675083L104.55314927101135,92.17971568252186L105.89357426166535,91.41560711926543L106.78719092210133,85.5048324355096L107.68080758253734,85.29970281554955L108.57442424297334,77.58659391227239L109.46804090340932,92.19257525011406L110.36165756384533,112.75345770038034L111.70208255449931,114.33479735195728L112.5956992149353,117.42780997136052L113.4893158753713,89.88050885436193L114.3829325358073,74.05467838228473L115.72335752646127,88.20775678350225L116.61697418689728,83.28168550225818L117.51059084733328,80.01099730500985L118.40420750776926,88.92534910063404L119.74463249842326,115.27132328046699L120.63824915885925,119.01153700519718L121.53186581929525,126.20598883933687L122.42548247973124,135.50402540044553L123.31909914016724,139.7608823176527L124.65952413082124,76.48568864270945L125.55314079125722,79.16529031211115L126.44675745169322,82.50750450094105L127.34037411212921,90.60366904863947L128.6807991027832,102.01261576427237L129.5744157632192,110.49929196422313L130.4680324236552,105.32533280142258L131.3616490840912,88.70145452983753L132.70207407474518,101.09444802364874L133.59569073518117,95.99119239765251L134.48930739561717,87.68166079849222L135.38292405605316,85.66986285385434L136.27654071648914,98.25861402302023L137.17015737692518,99.17150724119972L138.51058236757916,110.5964768442184L139.40419902801514,107.12911475566344L140.29781568845112,116.67990010194264L141.1914323488871,108.26158912737958L142.08504900932311,120.38837408173468L143.42547399997713,123.44497553274114L144.3190906604131,115.62702654506151L145.2127073208491,113.05700333930142L146.1063239812851,122.14301632296458L147.4467489719391,121.0641771559007L148.3403656323751,99.98690627161675L149.23398229281108,111.35403770018804L150.1275989532471,109.85979983154145L151.02121561368307,108.25158569166348L152.36164060433705,84.98380307775518L153.25525726477304,82.11244663367312L154.14887392520905,88.75423789901721L155.04249058564506,77.8393172225772L156.38291557629904,87.97024293199658L157.27653223673502,82.78068907636403L158.170148897171,77.59329055580703L159.063765557607,74.00612778672325L159.95738221804302,79.11531473200137L160.850998878479,80.22071388846145L162.191423869133,87.22990122815281L163.08504052956897,81.58463528915676L163.97865719000498,63.6759174616134L164.872273850441,82.95532741683218L165.76589051087697,77.80864135216959L166.65950717131298,59.07776765647066L167.99993216196697,54.08946302541896L168.89354882240295,50.994059037500975L169.78716548283893,61.20434594945988L170.68078214327497,69.8418389754289L171.57439880371095,86.7490975568862L172.46801546414693,83.07666051595461L173.80844045480092,91.968451751685L174.7020571152369,96.70591246817585L175.5956737756729,103.4780686154185L176.93609876632692,91.34436527344138L177.8297154267629,93.49418076113888L178.72333208719888,92.9184328215872L179.6169487476349,86.04060440274516L180.95737373828888,87.14534249397701L181.8509903987249,92.32581619375182L182.74460705916087,81.08188530498813L183.63822371959688,86.6989700403102L184.97864871025084,93.90005554180199L185.87226537068685,99.22467888818457L186.76588203112283,108.43781813788077L187.65949869155884,105.3383337151811L188.55311535199485,110.98547874757291L189.89354034264883,111.9536112853709L190.78715700308481,111.75794428888878L191.6807736635208,108.01852140674774L192.5743903239568,111.30379736988056L193.91481531461082,101.90221350099077L194.8084319750468,103.9919505235217L195.70204863548278,90.44207029852532L196.59566529591876,83.47891781075442L197.48928195635477,109.97099230800049L198.38289861679078,88.10243011631047L199.27651527722676,82.55624398173211L200.61694026788075,85.71155405525934L201.51055692831676,77.36540693655468L202.40417358875274,70.68272351709652L203.74459857940673,72.10637058432317L204.63821523984274,70.2301321907331L205.53183190027875,66.37228240796308L206.42544856071473,65.72474264394148L207.3190652211507,81.02838389418964L208.6594902118047,77.12546754873715L209.5531068722407,75.23990960925815L210.4467235326767,75.37060322939344L211.3403401931127,61.943086107779195L212.23395685354868,48.49654876396809L213.1275735139847,46.088189462535915L214.91480683485665,33.2850135701489L215.8084234952927,45.554883983398156L217.14884848594667,39.38549776572408L218.04246514638265,33.996241052118094L218.93608180681863,28.0191175031829L219.82969846725462,39.097582097654325L220.72331512769065,46.0310989898263L221.61693178812664,35.74016127957657L222.95735677878062,40.734361830443355L223.8509734392166,37.82469381678033L224.7445900996526,25.202717913628764L225.6382067600886,18.70271912490481L226.5318234205246,12.643757994226062L227.4254400809606,23.26027551192209L228.7658650716146,16.50449167178668L229.65948173205058,18.84496725043331L230.55309839248656,12.370733840994552L231.44671505292254,2.466520140390711L232.34033171335858,9.719923120966946L233.23394837379456,10.222080947648172L234.57437336444855,15.101685271129213L235.46799002488453,21.643599716834704L236.36160668532054,11.511160602436949L237.25522334575652,14.217023644228837L238.14884000619253,10.897567473131708L239.04245666662854,25.07343238196767L240.3828816572825,33.58104624115021L241.2764983177185,43.7876378087339L242.1701149781545,35.18178179712872L243.0637316385905,16.437670573141997L244.40415662924448,26.567289442485578L245.2977732896805,45.047089004519165" fill="none"></path></g></g></g></g><g opacity="0.2"><g><g><g><path style="fill: none;" stroke="rgb(255, 112, 67)" stroke-width="2px" d="M23.680841501553854,117.08702548554342L24.574458161989845,279.36195325139226L26.361691482861836,639.4284566625302L27.25530814329783,128.74003331273838L28.595733133951825,183.599853143264L29.489349794387817,147.53277375579464L30.382966454823812,218.96220476411878L31.276583115259807,202.16733332932918L32.1701997756958,162.37275808493658L33.063816436131795,-31.511762612284084L34.40424142678579,218.10625087482012L35.297858087221776,79.26207399912498L36.19147474765778,144.49404095879896L37.085091408093774,45.855662101941164L38.42551639874777,193.98814041543665L40.21274971961975,202.229262356368L41.10636638005574,153.50760909251204L41.99998304049174,142.80879950345917L43.34040803114573,58.77970619229842L44.23402469158173,168.02408881581945L45.12764135201772,56.54061222035361L46.021258012453714,479.3192027614993L47.36168300310771,87.69722852902215L48.2552996635437,127.63478438824946L49.14891632397969,170.9289636875159L50.04253298441569,157.13282556483574L50.93614964485168,-11.903418637489857L52.276574635505675,146.49471694846113L53.17019129594167,261.810600330508L54.063807956377666,147.77294610144946L54.957424616813654,40.61011561904926L55.85104127724966,171.12720674857505L56.74465793768565,-449.0221753830365L57.63827459812164,158.74526094022903L58.531891258557636,62.18685529745707L59.87231624921163,-27.993211432990414L60.765932909647624,143.10072556859402L61.65954957008362,113.68636752486191L62.553166230519615,68.72449040397773L63.4467828909556,165.3623687075105L64.7872078816096,200.0885881696039L65.6808245420456,212.2236950514807L66.57444120248158,4.529352197276678L67.46805786291758,195.67759234286973L68.36167452335357,165.32886036710144L69.25529118378958,136.75905285074865L70.14890784422556,239.8308833855048L71.04252450466156,248.49778931687024L72.38294949531556,88.26634400696537L73.27656615575154,54.97431660164931L74.17018281618755,147.6704912805127L75.06379947662354,71.1091965358155L75.95741613705952,212.95859786809723L77.29784112771353,67.61538188006993L78.19145778814952,173.11367239492236L79.0850744485855,143.10616409504786L79.97869110902151,90.9154326989944L80.8723077694575,304.2856673712921L82.21273276011148,285.64608285062934L83.10634942054749,21.368433589045832L83.99996608098348,77.38192277313324L85.34039107163748,213.6373610568032L86.23400773207347,283.5440046580537L87.12762439250946,146.32173671996176L88.02124105294546,106.85136782675258L88.91485771338145,9.953317435121818L90.70209103425343,119.05296508043594L92.04251602490743,188.24821433425745L92.93613268534342,113.10076103122L93.82974934577942,16.511654029434464L94.72336600621541,197.0309082481884L95.61698266665141,61.16721930553173L96.5105993270874,269.97505659207405L98.74464097817739,181.66268510767563L99.63825763861338,107.07434741135978L100.53187429904938,123.90307805923294L101.87229928970336,-28.437942547844294L102.76591595013937,34.80896225618013L103.65953261057535,-88.29138228101327L104.55314927101135,54.253624128347624L105.89357426166535,84.53972533172823L106.78719092210133,32.31548559526565L107.68080758253734,83.45377440433356L108.57442424297334,8.176673648090157L109.46804090340932,223.63267093360201L110.36165756384533,297.7839967139017L111.70208255449931,128.56564959354125L112.5956992149353,145.26280298849903L113.4893158753713,-158.02820350783432L115.72335752646127,215.57838869181043L116.61697418689728,38.94925981458311L117.51059084733328,50.57612762753223L118.40420750776926,169.1512672824609L119.74463249842326,352.3764515665033L120.63824915885925,152.6723566910054L121.53186581929525,190.95414439954592L124.65952413082124,-492.97880229164736L125.55314079125722,103.2812383643161L126.44675745169322,112.58690799950125L127.34037411212921,163.46800713820394L128.6807991027832,204.69168678559447L129.5744157632192,186.87840741324007L130.4680324236552,58.76023275886695L131.3616490840912,-60.91191031270132L132.70207407474518,212.63035648115775L133.59569073518117,50.0622745958135L134.48930739561717,12.896437428332328L135.38292405605316,67.56380359692712L136.27654071648914,211.5566860973685L137.17015737692518,107.38750127329831L138.51058236757916,213.42069718033594L139.40419902801514,75.92299419280786L140.29781568845112,202.63662553139392L141.1914323488871,32.49706220428883L142.08504900932311,229.52908622758187L143.42547399997713,150.95430864060538L144.3190906604131,45.26566969986874L145.2127073208491,89.92684893875705L146.1063239812851,203.9169599204289L147.4467489719391,111.3546431668647L148.3403656323751,-89.70820614040575L149.23398229281108,213.65806254459523L150.1275989532471,96.41167770777436L151.02121561368307,93.77767654074627L152.36164060433705,-124.42600465831251L153.25525726477304,56.27026482469688L154.14887392520905,148.5303047692302L155.04249058564506,-20.39488823163483L156.38291557629904,179.14850695896914L157.27653223673502,36.07473542922579L158.170148897171,30.906731807385324L159.063765557607,41.72168025167813L159.95738221804302,125.09797495204153L160.850998878479,90.16930195679574L162.191423869133,150.3125625190529L163.08504052956897,30.77725979051662L163.97865719000498,-97.50249173043656L164.872273850441,256.4699673528426L165.76589051087697,31.48847870160838L166.65950717131298,-109.50005652393253L167.99993216196697,9.194730712980512L168.89354882240295,23.135428377530353L169.78716548283893,153.09691262707892L170.68078214327497,147.57926438515807L171.57439880371095,238.9144039598651L172.46801546414693,50.0247312196483L173.80844045480092,171.99456399979303L174.7020571152369,139.34305466166887L175.5956737756729,164.42746846646267L176.93609876632692,-17.858955977113027L177.8297154267629,112.84251874283147L178.72333208719888,87.73670170489676L179.6169487476349,24.14015228079196L180.95737373828888,97.08798478775925L181.8509903987249,138.95007726629504L182.74460705916087,-20.113488346733217L183.63822371959688,137.25273070368704L184.97864871025084,158.7098228001105L185.87226537068685,147.14628750489794L186.76588203112283,191.356069048118L187.65949869155884,77.44297461848596L188.55311535199485,161.8097828787961L189.89354034264883,120.66680394652701L190.78715700308481,109.99694135311552L191.6807736635208,74.36371602759236L192.5743903239568,140.87128059519634L193.91481531461082,17.287959821635024L194.8084319750468,122.7995834981162L195.70204863548278,-31.506850394841898L196.59566529591876,20.81054603668475L197.48928195635477,348.39966067438985L198.38289861679078,-108.71462804219652L199.27651527722676,32.640569128135176L200.61694026788075,114.10934453390045L201.51055692831676,2.250083304108403L202.40417358875274,10.538573056089291L203.74459857940673,84.9191941291361L204.63821523984274,53.343986719859515L205.53183190027875,31.651634495223412L206.42544856071473,59.896884787718335L207.3190652211507,218.76115472166413L208.6594902118047,41.9992205371609L209.5531068722407,58.26988819633574L210.4467235326767,76.54684580796383L211.3403401931127,-58.904567742224756L212.23395685354868,-72.52228710995173L213.1275735139847,24.412955785169796L214.91480683485665,-81.94356929136516L215.8084234952927,155.98371755604168L217.14884848594667,-16.138978127003583L218.93608180681863,-25.77499438517486L219.82969846725462,138.80376336105317L220.72331512769065,108.43275097045785L221.61693178812664,-56.87827804732838L222.95735677878062,85.68216675970791L223.8509734392166,11.637681708775501L224.7445900996526,-88.39506515631057L226.5318234205246,-41.88689215916516L227.4254400809606,118.80893313536228L228.7658650716146,-44.297562868911584L229.65948173205058,39.909247451853496L230.55309839248656,-45.897366828025L231.44671505292254,-86.67140314311949L232.34033171335858,75.00054993170265L233.23394837379456,14.741501386879971L234.57437336444855,59.01812417458103L235.46799002488453,80.52082971868181L236.36160668532054,-79.68079141389558L237.25522334575652,38.56979101717524L238.14884000619253,-18.97753806323069L239.04245666662854,152.6562165479811L240.3828816572825,110.14957096649732L241.2764983177185,135.64696190910811L242.1701149781545,-42.27092230134078L243.0637316385905,-152.2593304310138L244.40415662924448,117.73385926087528L245.2977732896805,211.36528505346095" fill="none"></path></g></g></g></g></g></g><g transform="translate(61, 176)" clip-path="url(#clip_1)"><clipPath id="clip_1"><rect width="268" height="23"></rect></clipPath><g><g><line x1="0" y1="0" x2="0" y2="5" style="visibility: inherit;" fill="rgb(0, 0, 0)" stroke="rgb(204, 204, 204)" stroke-width="1px"></line><line x1="22.34041651089986" y1="0" x2="22.34041651089986" y2="5" style="visibility: inherit;" fill="rgb(0, 0, 0)" stroke="rgb(204, 204, 204)" stroke-width="1px"></line><line x1="44.68083302179972" y1="0" x2="44.68083302179972" y2="5" style="visibility: inherit;" fill="rgb(0, 0, 0)" stroke="rgb(204, 204, 204)" stroke-width="1px"></line><line x1="67.02124953269958" y1="0" x2="67.02124953269958" y2="5" style="visibility: inherit;" fill="rgb(0, 0, 0)" stroke="rgb(204, 204, 204)" stroke-width="1px"></line><line x1="89.36166604359944" y1="0" x2="89.36166604359944" y2="5" style="visibility: inherit;" fill="rgb(0, 0, 0)" stroke="rgb(204, 204, 204)" stroke-width="1px"></line><line x1="111.70208255449931" y1="0" x2="111.70208255449931" y2="5" style="visibility: inherit;" fill="rgb(0, 0, 0)" stroke="rgb(204, 204, 204)" stroke-width="1px"></line><line x1="134.04249906539917" y1="0" x2="134.04249906539917" y2="5" style="visibility: inherit;" fill="rgb(0, 0, 0)" stroke="rgb(204, 204, 204)" stroke-width="1px"></line><line x1="156.38291557629904" y1="0" x2="156.38291557629904" y2="5" style="visibility: inherit;" fill="rgb(0, 0, 0)" stroke="rgb(204, 204, 204)" stroke-width="1px"></line><line x1="178.72333208719888" y1="0" x2="178.72333208719888" y2="5" style="visibility: inherit;" fill="rgb(0, 0, 0)" stroke="rgb(204, 204, 204)" stroke-width="1px"></line><line x1="201.06374859809875" y1="0" x2="201.06374859809875" y2="5" style="visibility: inherit;" fill="rgb(0, 0, 0)" stroke="rgb(204, 204, 204)" stroke-width="1px"></line><line x1="223.40416510899863" y1="0" x2="223.40416510899863" y2="5" style="visibility: inherit;" fill="rgb(0, 0, 0)" stroke="rgb(204, 204, 204)" stroke-width="1px"></line><line x1="245.74458161989847" y1="0" x2="245.74458161989847" y2="5" style="visibility: inherit;" fill="rgb(0, 0, 0)" stroke="rgb(204, 204, 204)" stroke-width="1px"></line><line x1="268.08499813079834" y1="0" x2="268.08499813079834" y2="5" style="visibility: inherit;" fill="rgb(0, 0, 0)" stroke="rgb(204, 204, 204)" stroke-width="1px"></line></g><g transform="translate(0, 8)"><text style="text-anchor: middle; visibility: hidden; font-family: Roboto, sans-serif; font-size: 12px; font-weight: 200;" x="0" y="0" dx="0em" dy="0.95em" fill="rgb(33, 33, 33)" stroke="none" stroke-width="1px">-100k</text><text style="text-anchor: middle; visibility: inherit; font-family: Roboto, sans-serif; font-size: 12px; font-weight: 200;" x="22.34041651089986" y="0" dx="0em" dy="0.95em" fill="rgb(33, 33, 33)" stroke="none" stroke-width="1px">0</text><text style="text-anchor: middle; visibility: hidden; font-family: Roboto, sans-serif; font-size: 12px; font-weight: 200;" x="44.68083302179972" y="0" dx="0em" dy="0.95em" fill="rgb(33, 33, 33)" stroke="none" stroke-width="1px">100k</text><text style="text-anchor: middle; visibility: inherit; font-family: Roboto, sans-serif; font-size: 12px; font-weight: 200;" x="67.02124953269958" y="0" dx="0em" dy="0.95em" fill="rgb(33, 33, 33)" stroke="none" stroke-width="1px">200k</text><text style="text-anchor: middle; visibility: hidden; font-family: Roboto, sans-serif; font-size: 12px; font-weight: 200;" x="89.36166604359944" y="0" dx="0em" dy="0.95em" fill="rgb(33, 33, 33)" stroke="none" stroke-width="1px">300k</text><text style="text-anchor: middle; visibility: inherit; font-family: Roboto, sans-serif; font-size: 12px; font-weight: 200;" x="111.70208255449931" y="0" dx="0em" dy="0.95em" fill="rgb(33, 33, 33)" stroke="none" stroke-width="1px">400k</text><text style="text-anchor: middle; visibility: hidden; font-family: Roboto, sans-serif; font-size: 12px; font-weight: 200;" x="134.04249906539917" y="0" dx="0em" dy="0.95em" fill="rgb(33, 33, 33)" stroke="none" stroke-width="1px">500k</text><text style="text-anchor: middle; visibility: inherit; font-family: Roboto, sans-serif; font-size: 12px; font-weight: 200;" x="156.38291557629904" y="0" dx="0em" dy="0.95em" fill="rgb(33, 33, 33)" stroke="none" stroke-width="1px">600k</text><text style="text-anchor: middle; visibility: hidden; font-family: Roboto, sans-serif; font-size: 12px; font-weight: 200;" x="178.72333208719888" y="0" dx="0em" dy="0.95em" fill="rgb(33, 33, 33)" stroke="none" stroke-width="1px">700k</text><text style="text-anchor: middle; visibility: inherit; font-family: Roboto, sans-serif; font-size: 12px; font-weight: 200;" x="201.06374859809875" y="0" dx="0em" dy="0.95em" fill="rgb(33, 33, 33)" stroke="none" stroke-width="1px">800k</text><text style="text-anchor: middle; visibility: hidden; font-family: Roboto, sans-serif; font-size: 12px; font-weight: 200;" x="223.40416510899863" y="0" dx="0em" dy="0.95em" fill="rgb(33, 33, 33)" stroke="none" stroke-width="1px">900k</text><text style="text-anchor: middle; visibility: inherit; font-family: Roboto, sans-serif; font-size: 12px; font-weight: 200;" x="245.74458161989847" y="0" dx="0em" dy="0.95em" fill="rgb(33, 33, 33)" stroke="none" stroke-width="1px">1M</text><text style="text-anchor: middle; visibility: hidden; font-family: Roboto, sans-serif; font-size: 12px; font-weight: 200;" x="268.08499813079834" y="0" dx="0em" dy="0.95em" fill="rgb(33, 33, 33)" stroke="none" stroke-width="1px">1.1M</text></g><line x1="0" y1="0" x2="268.08499813079834" y2="0" fill="rgb(0, 0, 0)" stroke="rgb(204, 204, 204)" stroke-width="1px"></line></g></g></g></g></svg>