<svg viewBox="0 0 330 200" xmlns="http://www.w3.org/2000/svg"><g><g><g><g><g><line x1="72.29800224304199" y1="176.5999994277954" x2="67.29800224304199" y2="176.5999994277954" style="visibility: inherit;" fill="rgb(0, 0, 0)" stroke="rgb(204, 204, 204)" stroke-width="1px"></line><line x1="72.29800224304199" y1="163.01538408719574" x2="67.29800224304199" y2="163.01538408719574" style="visibility: inherit;" fill="rgb(0, 0, 0)" stroke="rgb(204, 204, 204)" stroke-width="1px"></line><line x1="72.29800224304199" y1="149.4307687465962" x2="67.29800224304199" y2="149.4307687465962" style="visibility: inherit;" fill="rgb(0, 0, 0)" stroke="rgb(204, 204, 204)" stroke-width="1px"></line><line x1="72.29800224304199" y1="135.8461534059965" x2="67.29800224304199" y2="135.8461534059965" style="visibility: inherit;" fill="rgb(0, 0, 0)" stroke="rgb(204, 204, 204)" stroke-width="1px"></line><line x1="72.29800224304199" y1="122.2615380653968" x2="67.29800224304199" y2="122.2615380653968" style="visibility: inherit;" fill="rgb(0, 0, 0)" stroke="rgb(204, 204, 204)" stroke-width="1px"></line><line x1="72.29800224304199" y1="108.67692272479711" x2="67.29800224304199" y2="108.67692272479711" style="visibility: inherit;" fill="rgb(0, 0, 0)" stroke="rgb(204, 204, 204)" stroke-width="1px"></line><line x1="72.29800224304199" y1="95.09230738419754" x2="67.29800224304199" y2="95.09230738419754" style="visibility: inherit;" fill="rgb(0, 0, 0)" stroke="rgb(204, 204, 204)" stroke-width="1px"></line><line x1="72.29800224304199" y1="81.50769204359787" x2="67.29800224304199" y2="81.50769204359787" style="visibility: inherit;" fill="rgb(0, 0, 0)" stroke="rgb(204, 204, 204)" stroke-width="1px"></line><line x1="72.29800224304199" y1="67.92307670299819" x2="67.29800224304199" y2="67.92307670299819" style="visibility: inherit;" fill="rgb(0, 0, 0)" stroke="rgb(204, 204, 204)" stroke-width="1px"></line><line x1="72.29800224304199" y1="54.33846136239861" x2="67.29800224304199" y2="54.33846136239861" style="visibility: inherit;" fill="rgb(0, 0, 0)" stroke="rgb(204, 204, 204)" stroke-width="1px"></line><line x1="72.29800224304199" y1="40.753846021798935" x2="67.29800224304199" y2="40.753846021798935" style="visibility: inherit;" fill="rgb(0, 0, 0)" stroke="rgb(204, 204, 204)" stroke-width="1px"></line><line x1="72.29800224304199" y1="27.169230681199256" x2="67.29800224304199" y2="27.169230681199256" style="visibility: inherit;" fill="rgb(0, 0, 0)" stroke="rgb(204, 204, 204)" stroke-width="1px"></line><line x1="72.29800224304199" y1="13.584615340599678" x2="67.29800224304199" y2="13.584615340599678" style="visibility: inherit;" fill="rgb(0, 0, 0)" stroke="rgb(204, 204, 204)" stroke-width="1px"></line><line x1="72.29800224304199" y1="0" x2="67.29800224304199" y2="0" style="visibility: inherit;" fill="rgb(0, 0, 0)" stroke="rgb(204, 204, 204)" stroke-width="1px"></line></g><g transform="translate(62.29800224304199, 0)"><text style="text-anchor: end; visibility: hidden; font-family: Roboto, sans-serif; font-size: 12px; font-weight: 200;" x="0" y="176.5999994277954" dx="0em" dy="0.3em" fill="rgb(33, 33, 33)" stroke="none" stroke-width="1px">0.0112</text><text style="text-anchor: end; visibility: inherit; font-family: Roboto, sans-serif; font-size: 12px; font-weight: 200;" x="0" y="163.01538408719574" dx="0em" dy="0.3em" fill="rgb(33, 33, 33)" stroke="none" stroke-width="1px">0.0114</text><text style="text-anchor: end; visibility: hidden; font-family: Roboto, sans-serif; font-size: 12px; font-weight: 200;" x="0" y="149.4307687465962" dx="0em" dy="0.3em" fill="rgb(33, 33, 33)" stroke="none" stroke-width="1px">0.0116</text><text style="text-anchor: end; visibility: inherit; font-family: Roboto, sans-serif; font-size: 12px; font-weight: 200;" x="0" y="135.8461534059965" dx="0em" dy="0.3em" fill="rgb(33, 33, 33)" stroke="none" stroke-width="1px">0.0118</text><text style="text-anchor: end; visibility: hidden; font-family: Roboto, sans-serif; font-size: 12px; font-weight: 200;" x="0" y="122.2615380653968" dx="0em" dy="0.3em" fill="rgb(33, 33, 33)" stroke="none" stroke-width="1px">0.012</text><text style="text-anchor: end; visibility: inherit; font-family: Roboto, sans-serif; font-size: 12px; font-weight: 200;" x="0" y="108.67692272479711" dx="0em" dy="0.3em" fill="rgb(33, 33, 33)" stroke="none" stroke-width="1px">0.0122</text><text style="text-anchor: end; visibility: hidden; font-family: Roboto, sans-serif; font-size: 12px; font-weight: 200;" x="0" y="95.09230738419754" dx="0em" dy="0.3em" fill="rgb(33, 33, 33)" stroke="none" stroke-width="1px">0.0124</text><text style="text-anchor: end; visibility: inherit; font-family: Roboto, sans-serif; font-size: 12px; font-weight: 200;" x="0" y="81.50769204359787" dx="0em" dy="0.3em" fill="rgb(33, 33, 33)" stroke="none" stroke-width="1px">0.0126</text><text style="text-anchor: end; visibility: hidden; font-family: Roboto, sans-serif; font-size: 12px; font-weight: 200;" x="0" y="67.92307670299819" dx="0em" dy="0.3em" fill="rgb(33, 33, 33)" stroke="none" stroke-width="1px">0.0128</text><text style="text-anchor: end; visibility: inherit; font-family: Roboto, sans-serif; font-size: 12px; font-weight: 200;" x="0" y="54.33846136239861" dx="0em" dy="0.3em" fill="rgb(33, 33, 33)" stroke="none" stroke-width="1px">0.013</text><text style="text-anchor: end; visibility: hidden; font-family: Roboto, sans-serif; font-size: 12px; font-weight: 200;" x="0" y="40.753846021798935" dx="0em" dy="0.3em" fill="rgb(33, 33, 33)" stroke="none" stroke-width="1px">0.0132</text><text style="text-anchor: end; visibility: inherit; font-family: Roboto, sans-serif; font-size: 12px; font-weight: 200;" x="0" y="27.169230681199256" dx="0em" dy="0.3em" fill="rgb(33, 33, 33)" stroke="none" stroke-width="1px">0.0134</text><text style="text-anchor: end; visibility: hidden; font-family: Roboto, sans-serif; font-size: 12px; font-weight: 200;" x="0" y="13.584615340599678" dx="0em" dy="0.3em" fill="rgb(33, 33, 33)" stroke="none" stroke-width="1px">0.0136</text><text style="text-anchor: end; visibility: hidden; font-family: Roboto, sans-serif; font-size: 12px; font-weight: 200;" x="0" y="0" dx="0em" dy="0.3em" fill="rgb(33, 33, 33)" stroke="none" stroke-width="1px">0.0138</text></g><line x1="72.29800224304199" y1="0" x2="72.29800224304199" y2="176.5999994277954" fill="rgb(0, 0, 0)" stroke="rgb(204, 204, 204)" stroke-width="1px"></line></g></g><g transform="translate(72, 0)" clip-path="url(#clip_0)"><clipPath id="clip_0"><rect width="257" height="176"></rect></clipPath><g><g><g><line x1="0" y1="0" x2="0" y2="176.5999994277954" fill="rgb(0, 0, 0)" stroke="rgb(66, 66, 66)" stroke-width="1px" opacity="0.25"></line><line x1="21.4751664797465" y1="0" x2="21.4751664797465" y2="176.5999994277954" fill="rgb(0, 0, 0)" stroke="rgb(66, 66, 66)" stroke-width="1px" opacity="0.25"></line><line x1="42.950332959493" y1="0" x2="42.950332959493" y2="176.5999994277954" fill="rgb(0, 0, 0)" stroke="rgb(66, 66, 66)" stroke-width="1px" opacity="0.25"></line><line x1="64.4254994392395" y1="0" x2="64.4254994392395" y2="176.5999994277954" fill="rgb(0, 0, 0)" stroke="rgb(66, 66, 66)" stroke-width="1px" opacity="0.25"></line><line x1="85.900665918986" y1="0" x2="85.900665918986" y2="176.5999994277954" fill="rgb(0, 0, 0)" stroke="rgb(66, 66, 66)" stroke-width="1px" opacity="0.25"></line><line x1="107.37583239873251" y1="0" x2="107.37583239873251" y2="176.5999994277954" fill="rgb(0, 0, 0)" stroke="rgb(66, 66, 66)" stroke-width="1px" opacity="0.25"></line><line x1="128.850998878479" y1="0" x2="128.850998878479" y2="176.5999994277954" fill="rgb(0, 0, 0)" stroke="rgb(66, 66, 66)" stroke-width="1px" opacity="0.25"></line><line x1="150.32616535822552" y1="0" x2="150.32616535822552" y2="176.5999994277954" fill="rgb(0, 0, 0)" stroke="rgb(66, 66, 66)" stroke-width="1px" opacity="0.25"></line><line x1="171.801331837972" y1="0" x2="171.801331837972" y2="176.5999994277954" fill="rgb(0, 0, 0)" stroke="rgb(66, 66, 66)" stroke-width="1px" opacity="0.25"></line><line x1="193.2764983177185" y1="0" x2="193.2764983177185" y2="176.5999994277954" fill="rgb(0, 0, 0)" stroke="rgb(66, 66, 66)" stroke-width="1px" opacity="0.25"></line><line x1="214.75166479746503" y1="0" x2="214.75166479746503" y2="176.5999994277954" fill="rgb(0, 0, 0)" stroke="rgb(66, 66, 66)" stroke-width="1px" opacity="0.25"></line><line x1="236.2268312772115" y1="0" x2="236.2268312772115" y2="176.5999994277954" fill="rgb(0, 0, 0)" stroke="rgb(66, 66, 66)" stroke-width="1px" opacity="0.25"></line><line x1="257.701997756958" y1="0" x2="257.701997756958" y2="176.5999994277954" fill="rgb(0, 0, 0)" stroke="rgb(66, 66, 66)" stroke-width="1px" opacity="0.25"></line></g><g><line x1="0" y1="176.5999994277954" x2="257.701997756958" y2="176.5999994277954" fill="rgb(0, 0, 0)" stroke="rgb(66, 66, 66)" stroke-width="1px" opacity="0.25"></line><line x1="0" y1="163.01538408719574" x2="257.701997756958" y2="163.01538408719574" fill="rgb(0, 0, 0)" stroke="rgb(66, 66, 66)" stroke-width="1px" opacity="0.25"></line><line x1="0" y1="149.4307687465962" x2="257.701997756958" y2="149.4307687465962" fill="rgb(0, 0, 0)" stroke="rgb(66, 66, 66)" stroke-width="1px" opacity="0.25"></line><line x1="0" y1="135.8461534059965" x2="257.701997756958" y2="135.8461534059965" fill="rgb(0, 0, 0)" stroke="rgb(66, 66, 66)" stroke-width="1px" opacity="0.25"></line><line x1="0" y1="122.2615380653968" x2="257.701997756958" y2="122.2615380653968" fill="rgb(0, 0, 0)" stroke="rgb(66, 66, 66)" stroke-width="1px" opacity="0.25"></line><line x1="0" y1="108.67692272479711" x2="257.701997756958" y2="108.67692272479711" fill="rgb(0, 0, 0)" stroke="rgb(66, 66, 66)" stroke-width="1px" opacity="0.25"></line><line x1="0" y1="95.09230738419754" x2="257.701997756958" y2="95.09230738419754" fill="rgb(0, 0, 0)" stroke="rgb(66, 66, 66)" stroke-width="1px" opacity="0.25"></line><line x1="0" y1="81.50769204359787" x2="257.701997756958" y2="81.50769204359787" fill="rgb(0, 0, 0)" stroke="rgb(66, 66, 66)" stroke-width="1px" opacity="0.25"></line><line x1="0" y1="67.92307670299819" x2="257.701997756958" y2="67.92307670299819" fill="rgb(0, 0, 0)" stroke="rgb(66, 66, 66)" stroke-width="1px" opacity="0.25"></line><line x1="0" y1="54.33846136239861" x2="257.701997756958" y2="54.33846136239861" fill="rgb(0, 0, 0)" stroke="rgb(66, 66, 66)" stroke-width="1px" opacity="0.25"></line><line x1="0" y1="40.753846021798935" x2="257.701997756958" y2="40.753846021798935" fill="rgb(0, 0, 0)" stroke="rgb(66, 66, 66)" stroke-width="1px" opacity="0.25"></line><line x1="0" y1="27.169230681199256" x2="257.701997756958" y2="27.169230681199256" fill="rgb(0, 0, 0)" stroke="rgb(66, 66, 66)" stroke-width="1px" opacity="0.25"></line><line x1="0" y1="13.584615340599678" x2="257.701997756958" y2="13.584615340599678" fill="rgb(0, 0, 0)" stroke="rgb(66, 66, 66)" stroke-width="1px" opacity="0.25"></line><line x1="0" y1="0" x2="257.701997756958" y2="0" fill="rgb(0, 0, 0)" stroke="rgb(66, 66, 66)" stroke-width="1px" opacity="0.25"></line></g></g></g><g><g><line x1="0" y1="937.3384585013756" x2="257.701997756958" y2="937.3384585013756" fill="rgb(0, 0, 0)" stroke="rgb(153, 153, 153)" stroke-width="1.5px"></line></g></g><g><g><line x1="21.4751664797465" y1="0" x2="21.4751664797465" y2="176.5999994277954" fill="rgb(0, 0, 0)" stroke="rgb(153, 153, 153)" stroke-width="1.5px"></line></g></g><g><g><g><g><g><path style="fill: none;" stroke="rgb(255, 112, 67)" stroke-width="2px" d="M22.76367646853129,197.6494138795585L23.62268312772115,139.7003545866018L24.481689786911012,123.15428455558681L25.340696446100868,116.94894144141468L26.19970310529073,125.4825550127326L27.488213094075522,126.79625012803731L28.34721975326538,133.09604813771122L29.20622641245524,128.95242685081695L30.0652330716451,125.6203087092369L30.92423973083496,134.27946156151407L31.78324639002482,135.53328121996148L33.07175637880961,144.89124369615047L33.93076303799947,153.44843142834108L34.789769697189335,153.07276995903172L35.648776356379194,158.9308851490729L36.93728634516398,166.61868843424512L37.79629300435384,168.15701575621017L38.6552996635437,157.3312805492875L39.51430632273356,156.2938978439402L40.373312981923426,154.55773580557792L41.66182297070821,147.00457997184654L42.520829629898074,152.237124325562L43.37983628908793,158.7169684770087L44.23884294827779,161.42800533864937L45.52735293706258,159.35710200979392L46.38635959625244,167.0505916281883L47.2453662554423,169.07703536391796L48.104372914632165,171.4732888336965L48.963379573822024,172.12193460427443L50.25188956260681,166.4237835417585L51.11089622179667,172.53352852645293L51.96990288098653,182.0242725826348L54.546922858556115,180.1184162765125L55.40592951774597,171.8040259268268L56.26493617693583,166.3839845690103L57.55344616572062,162.90241278970814L58.41245282491048,164.45474510671178L59.27145948410035,161.3428343699854L60.1304661432902,145.57290010122284L60.98947280248006,138.16713570903286L62.277982791264854,136.72436188465076L63.13698945045471,119.25343319541814L63.99599610964457,120.56572803846686L64.85500276883442,121.93387533497337L65.7140094280243,124.03583947408256L66.57301608721416,115.75363917073264L67.43202274640402,113.08276826304346L68.29102940559387,108.79848806118295L69.57953939437867,105.91297822419804L70.43854605356852,109.54637659957369L71.29755271275839,109.4105044268957L72.15655937194825,106.97274844921864L73.0155660311381,112.34698112366779L74.30407601992289,101.393736164811L75.16308267911276,83.83806203074883L76.0220893383026,72.592528072785L76.88109599749248,71.56035459397636L77.74010265668234,66.65176465605651L79.02861264546712,65.53989409133513L79.88761930465698,61.97134856142991L80.74662596384685,65.1358245784461L82.03513595263163,62.04558624018924L82.8941426118215,73.09017180462041L83.75314927101135,72.09799118173537L84.61215593020121,67.97291757322762L85.47116258939107,61.66716219812945L87.18917590777079,67.50086841329507L88.47768589655558,85.8128069009332L89.33669255574544,95.44066325799679L90.1956992149353,103.90415986585323L91.05470587412516,104.05669505967259L91.91371253331504,94.37844665387273L92.77271919250488,87.60173808435337L94.06122918128968,75.15868643170583L94.92023584047953,68.78370107024074L95.7792424996694,63.97599748831814L96.63824915885925,57.728923660004845L97.92675914764405,60.68953738153574L98.78576580683391,63.467227754664925L99.64477246602377,67.27564185777237L100.50377912521363,70.35920390052047L101.79228911399842,78.25000154443326L102.65129577318827,86.07345068009626L103.51030243237814,91.4343377144114L104.369309091568,92.86979024897614L105.22831575075786,101.03927687350235L106.08732240994772,100.88467767941025L107.37583239873251,99.08285973198275L108.23483905792236,95.66120003609936L109.09384571711223,95.17877799143594L109.95285237630209,91.63286302637084L111.24136236508687,96.91500623851736L112.10036902427673,98.6650119601823L112.9593756834666,98.23918780817486L113.81838234265645,98.25087261804526L115.10689233144124,101.65556703551691L115.9658989906311,103.42158371661266L116.82490564982096,104.71809514257028L117.68391230901082,95.35302606116774L118.5429189682007,86.61381927798911L119.83142895698548,88.73505193450957L120.69043561617534,99.36749786085001L121.5494422753652,100.6039103402527L122.40844893455505,99.10490845947304L123.69695892333984,95.60925878127522L124.55596558252971,99.84551623093623L125.41497224171957,98.28896613718105L126.27397890090943,81.8741101755869L127.56248888969421,86.22485312659701L128.42149554888408,81.18455975162891L129.28050220807395,77.08166309760027L130.1395088672638,79.80857742621797L130.99851552645364,79.20408375326168L131.85752218564352,84.82429391712276L133.1460321744283,81.92760447718986L134.00503883361816,76.36442596225909L134.86404549280803,73.5396216101682L135.72305215199788,65.78338864119604L136.58205881118775,68.02592682891608L137.87056879997255,66.18249604703229L138.7295754591624,55.80987494734566L139.58858211835224,47.606612414623214L140.44758877754214,41.56306884199238L141.7360987663269,51.04732354282438L142.59510542551678,54.64791968305793L143.45411208470662,56.17116086252551L144.3131187438965,58.5014413672896L145.17212540308634,59.305831437113234L146.46063539187114,42.50981686572011L147.31964205106098,35.66990840454007L148.17864871025085,33.90474748608516L149.03765536944073,35.26332171239182L150.32616535822552,34.941522775785245L151.18517201741537,27.398975377149863L152.0441786766052,27.736373735826856L152.9031853357951,27.321677007478304L153.76219199498496,21.592469057242578L154.6211986541748,25.0249478653531L155.9097086429596,33.87809293458842L156.76871530214945,43.518991463706634L157.62772196133932,48.62154041395401L158.48672862052916,56.16763674140961L159.34573527971904,48.35059070366045L160.2047419389089,44.350022653219575L161.4932519276937,43.38111405134917L162.35225858688355,39.476948644997755L163.2112652460734,40.334089372211956L164.07027190526327,37.757488062380204L164.92927856445314,32.92366885526299L165.788285223643,24.45517317478406L167.07679521242778,24.42227136328495L167.93580187161763,20.170168185039948L168.7948085308075,17.107498916873453L170.0833185195923,10.640889831098686L170.94232517878214,9.005977950304139L171.801331837972,10.325734807313001L172.6603384971619,8.209908281919892L173.94884848594666,11.857756657040975L174.80785514513653,13.519351853762592L175.66686180432637,15.070024662292303L176.52586846351625,23.202423717233998L177.814378452301,21.593869822312804L178.6733851114909,26.240190944475927L179.53239177068073,19.71213650517122L180.3913984298706,17.377523958942078L181.25040508906048,21.471611848319874L182.53891507784527,25.095196070654158L183.39792173703512,37.188355332070635L184.25692839622496,42.00700589687614L185.11593505541484,35.746900893623604L186.40444504419963,42.32347293940706L187.26345170338948,36.92868592084003L188.12245836257935,22.42384338647164L188.9814650217692,20.90662157834637L189.84047168095907,18.494614673195258L190.69947834014891,13.436250738851019L191.5584849993388,14.119163154596675L192.84699498812356,15.911729691491617L193.70600164731346,15.306976020115703L194.5650083065033,21.32657450309045L195.8535182952881,31.722710528172026L196.71252495447794,26.585859310334087L197.57153161366782,30.263971716994714L198.43053827285766,37.407327022211916L199.28954493204753,38.869065099860755L200.5780549208323,30.944610434082396L201.43706158002217,27.398555825858313L202.29606823921205,30.39879061990455L203.1550748984019,24.10731609259813L204.01408155759174,40.30305777004242L204.87308821678164,40.388970310378596L206.59110153516133,35.51948029517103L207.4501081943512,34.92081641875319L208.738618183136,37.976551337888594L209.59762484232584,34.49436639923537L210.45663150151572,40.48189813394702L211.31563816070556,44.42849511367171L212.17464481989543,46.06561646545815L213.03365147908528,53.87059900610667L214.32216146787007,59.72375475197728L215.18116812705992,60.07766528674933L216.04017478624982,63.16434876659855L216.89918144543967,64.95408588596665L217.7581881046295,61.857964056600125L218.61719476381938,69.24646255001655L219.90570475260418,70.98092904454175L220.76471141179402,63.38231229023908L221.62371807098387,61.26623171816408L222.48272473017374,64.01638043625998L223.34173138936362,69.62467231478387L224.20073804855346,74.8099115710609L225.48924803733826,74.81617325417858L226.3482546965281,78.06981856098928L227.20726135571797,85.2118798396826L228.06626801490785,81.18895864311918L228.9252746740977,85.8588667792984L229.78428133328757,87.19685389082714L231.07279132207233,89.91834309562464L231.9317979812622,79.90118147326913L232.79080464045205,71.4416815360495L233.64981129964193,59.10930951727273L234.9383212884267,60.11285917672759L235.7973279476166,63.61237038436256" fill="none"></path></g></g></g></g><g opacity="0.2"><g><g><g><path style="fill: none;" stroke="rgb(255, 112, 67)" stroke-width="2px" d="M22.76367646853129,197.6494138795585L23.62268312772115,87.54620122294101L24.481689786911012,94.86050480255167L25.340696446100868,101.81410958594918L26.19970310529073,151.89494237731793L27.488213094075522,131.63799170805322L28.34721975326538,159.66249163824514L29.20622641245524,109.49676621542817L30.0652330716451,108.54055383318372L30.92423973083496,182.01923814081377L31.78324639002482,142.88303920192058L33.07175637880961,202.68325593628532L33.93076303799947,208.71189793500582L34.789769697189335,150.55120968191991L35.648776356379194,199.5925821752574L37.79629300435384,179.436465227698L38.6552996635437,76.14851146403291L39.51430632273356,148.35880370521792L40.373312981923426,141.04304518482982L41.66182297070821,87.29076422906016L42.520829629898074,194.17716608507604L44.23884294827779,183.664839418381L45.52735293706258,142.20566938258523L46.38635959625244,231.32117154990044L48.963379573822024,177.65422603364172L50.25188956260681,117.55593621478796L51.11089622179667,225.1902408886972L52.82890954017639,196.01690706898813L53.687916199366256,133.62196160381478L54.546922858556115,195.67082093884395L55.40592951774597,98.84761185736012L56.26493617693583,118.70255606399162L57.55344616572062,132.2035841207052L58.41245282491048,178.1707932679238L59.27145948410035,133.79560562268625L60.1304661432902,5.74133365414555L60.98947280248006,72.40191244556301L62.277982791264854,123.89486014886891L63.13698945045471,-36.290640239894714L63.99599610964457,132.26184501009703L64.85500276883442,134.13973074569563L65.7140094280243,142.8049152080021L66.57301608721416,41.740806793490414L67.43202274640402,89.19787529679667L68.29102940559387,70.46076841529359L69.57953939437867,80.07723111286016L70.43854605356852,142.0952836583846L71.29755271275839,108.19275972908343L72.15655937194825,85.11537473362462L73.0155660311381,160.55152371154915L74.30407601992289,3.114532967938879L75.16308267911276,-73.73025171571592L76.0220893383026,-28.36779186555055L76.88109599749248,62.291402466617164L77.74010265668234,22.56266308154222L79.02861264546712,55.551041394555064L79.88761930465698,29.90638176817483L80.74662596384685,93.5746534467775L82.03513595263163,34.26987567627476L82.8941426118215,172.37424595235063L83.75314927101135,63.17784094983966L84.61215593020121,30.882710288124592L85.47116258939107,4.9641422458196045L87.18917590777079,119.96361016825485L88.47768589655558,250.50551457472636L90.1956992149353,180.03267465497066L91.05470587412516,105.42881506003037L91.91371253331504,7.313998117957336L92.77271919250488,26.636434000049704L94.06122918128968,-36.78734436965016L94.92023584047953,11.427938053580798L95.7792424996694,20.71963266630728L96.63824915885925,1.5204239422337038L97.92675914764405,87.32859268927332L98.78576580683391,88.46097942217605L99.64477246602377,101.54462925065141L100.50377912521363,98.1063511604072L101.79228911399842,149.2558695819451L102.65129577318827,156.4744001034241L103.51030243237814,139.67609669528764L104.369309091568,105.7873630742247L105.22831575075786,174.556973409968L106.08732240994772,99.49341578765471L107.37583239873251,82.8678707822643L108.23483905792236,64.8686086498019L109.09384571711223,90.83727726148618L109.95285237630209,59.72159750390894L111.24136236508687,144.45165513487342L112.10036902427673,114.4142762682553L112.9593756834666,94.40694282976175L113.81838234265645,98.356031649473L115.10689233144124,132.29670033046068L115.9658989906311,119.31521264787872L116.82490564982096,116.38635360461879L117.68391230901082,11.069643072565169L118.5429189682007,7.962838446396152L119.83142895698548,107.82573510340323L120.69043561617534,195.0576582885995L121.5494422753652,111.73142873297029L122.40844893455505,85.61410312880953L123.69695892333984,64.14885577303707L124.55596558252971,137.97134891220313L125.41497224171957,84.28017546908549L126.27397890090943,-65.85807323540314L127.56248888969421,125.381177040455L128.42149554888408,35.822297485791864L129.28050220807395,40.155870220512504L130.1395088672638,104.35064068566057L130.99851552645364,73.7636737549422L131.85752218564352,135.40590877182717L133.1460321744283,55.85752783223529L134.00503883361816,26.296041116425922L134.86404549280803,48.11648379677514L135.72305215199788,-4.022457611709413L136.58205881118775,88.20870534302874L137.87056879997255,49.59166722849914L138.7295754591624,-37.54347076585072L140.44758877754214,-12.82870807113185L141.7360987663269,136.40545308592112L142.59510542551678,87.05322933257116L143.45411208470662,69.88031030339394L144.3131187438965,79.47393675658434L145.17212540308634,66.54533300834721L146.46063539187114,-108.65414407077247L147.31964205106098,-25.88920536375766L148.17864871025085,18.018313708978347L149.03765536944073,47.4904797127125L150.32616535822552,32.04533448587998L151.18517201741537,-40.48390607703541L152.0441786766052,30.772957146870677L152.9031853357951,23.589408462344636L153.76219199498496,-29.970377502741655L154.6211986541748,55.91724366240455L155.9097086429596,113.55636727592938L156.76871530214945,130.28704756706273L157.62772196133932,94.54446636237614L158.48672862052916,124.08248425086265L159.34573527971904,-22.00280551406524L160.2047419389089,8.344918546208023L161.4932519276937,34.660938453929894L162.35225858688355,4.339466585945059L163.2112652460734,48.04835461341463L164.07027190526327,14.568079801041344L164.92927856445314,-10.580698053414183L165.788285223643,-51.761278559479585L167.07679521242778,24.126155092626725L167.93580187161763,-18.09875660015961L170.94232517878214,-5.7082279063926595L171.801331837972,22.203545742695873L172.6603384971619,-10.832529324498783L173.94884848594666,44.688390291972915L174.80785514513653,28.473707910469617L175.66686180432637,29.026079339535404L176.52586846351625,96.3940123819622L177.814378452301,7.116885271762992L178.6733851114909,68.05707973439097L179.53239177068073,-39.04035179264681L180.3913984298706,-3.63398842413577L181.25040508906048,58.31840201152035L182.53891507784527,57.70745340158936L183.39792173703512,146.02678667217737L184.25692839622496,85.37486025836441L185.11593505541484,-20.594043291745578L186.40444504419963,101.51262055354796L187.26345170338948,-11.624396657188376L188.12245836257935,-108.11973799739324L188.9814650217692,7.2516254394118755L189.84047168095907,-3.2134472811640107L190.69947834014891,-32.08902430785747L191.5584849993388,20.265374852275965L192.84699498812356,32.044828419522595L193.70600164731346,9.864193009317612L194.5650083065033,75.50296056691697L195.8535182952881,125.28793431411017L196.71252495447794,-19.64580145462968L197.57153161366782,63.36698325090548L198.43053827285766,101.69752454887085L199.28954493204753,52.02470775812904L200.5780549208323,-40.37548135996958L201.43706158002217,-4.515935568436638L202.29606823921205,57.40090370561447L203.1550748984019,-32.51595453859097L204.01408155759174,186.0647326016034L204.87308821678164,41.162183172136245L206.59110153516133,-8.305929777050716L207.4501081943512,29.53284153814351L208.738618183136,65.47816557725012L209.59762484232584,3.1547019850548748L210.45663150151572,94.36968369420062L211.31563816070556,79.94786790025829L212.17464481989543,60.79970861998408L213.03365147908528,124.11544182238615L214.32216146787007,112.40215643136523L215.18116812705992,63.26286009787729L216.04017478624982,90.94450007095327L216.89918144543967,81.06171995282246L217.7581881046295,33.99286760391116L218.61719476381938,135.74294896583342L219.90570475260418,86.59112749000066L220.76471141179402,-5.005238477715593L221.62371807098387,42.22150657469413L222.48272473017374,88.76771889303495L223.34173138936362,120.09929921032379L224.20073804855346,121.4770648682547L225.48924803733826,74.87252840222737L226.3482546965281,107.35262631756L227.20726135571797,149.49043133858459L228.06626801490785,44.98266787878168L228.9252746740977,127.88803999996576L229.78428133328757,99.23873789330992L231.07279132207233,114.41174593646848L231.9317979812622,-10.253273120197884L233.64981129964193,-51.88203864400623L234.9383212884267,69.14480611125609L235.7973279476166,95.10797125130401" fill="none"></path></g></g></g></g></g></g><g transform="translate(72, 176)" clip-path="url(#clip_1)"><clipPath id="clip_1"><rect width="257" height="23"></rect></clipPath><g><g><line x1="0" y1="0" x2="0" y2="5" style="visibility: inherit;" fill="rgb(0, 0, 0)" stroke="rgb(204, 204, 204)" stroke-width="1px"></line><line x1="21.4751664797465" y1="0" x2="21.4751664797465" y2="5" style="visibility: inherit;" fill="rgb(0, 0, 0)" stroke="rgb(204, 204, 204)" stroke-width="1px"></line><line x1="42.950332959493" y1="0" x2="42.950332959493" y2="5" style="visibility: inherit;" fill="rgb(0, 0, 0)" stroke="rgb(204, 204, 204)" stroke-width="1px"></line><line x1="64.4254994392395" y1="0" x2="64.4254994392395" y2="5" style="visibility: inherit;" fill="rgb(0, 0, 0)" stroke="rgb(204, 204, 204)" stroke-width="1px"></line><line x1="85.900665918986" y1="0" x2="85.900665918986" y2="5" style="visibility: inherit;" fill="rgb(0, 0, 0)" stroke="rgb(204, 204, 204)" stroke-width="1px"></line><line x1="107.37583239873251" y1="0" x2="107.37583239873251" y2="5" style="visibility: inherit;" fill="rgb(0, 0, 0)" stroke="rgb(204, 204, 204)" stroke-width="1px"></line><line x1="128.850998878479" y1="0" x2="128.850998878479" y2="5" style="visibility: inherit;" fill="rgb(0, 0, 0)" stroke="rgb(204, 204, 204)" stroke-width="1px"></line><line x1="150.32616535822552" y1="0" x2="150.32616535822552" y2="5" style="visibility: inherit;" fill="rgb(0, 0, 0)" stroke="rgb(204, 204, 204)" stroke-width="1px"></line><line x1="171.801331837972" y1="0" x2="171.801331837972" y2="5" style="visibility: inherit;" fill="rgb(0, 0, 0)" stroke="rgb(204, 204, 204)" stroke-width="1px"></line><line x1="193.2764983177185" y1="0" x2="193.2764983177185" y2="5" style="visibility: inherit;" fill="rgb(0, 0, 0)" stroke="rgb(204, 204, 204)" stroke-width="1px"></line><line x1="214.75166479746503" y1="0" x2="214.75166479746503" y2="5" style="visibility: inherit;" fill="rgb(0, 0, 0)" stroke="rgb(204, 204, 204)" stroke-width="1px"></line><line x1="236.2268312772115" y1="0" x2="236.2268312772115" y2="5" style="visibility: inherit;" fill="rgb(0, 0, 0)" stroke="rgb(204, 204, 204)" stroke-width="1px"></line><line x1="257.701997756958" y1="0" x2="257.701997756958" y2="5" style="visibility: inherit;" fill="rgb(0, 0, 0)" stroke="rgb(204, 204, 204)" stroke-width="1px"></line></g><g transform="translate(0, 8)"><text style="text-anchor: middle; visibility: hidden; font-family: Roboto, sans-serif; font-size: 12px; font-weight: 200;" x="0" y="0" dx="0em" dy="0.95em" fill="rgb(33, 33, 33)" stroke="none" stroke-width="1px">-100k</text><text style="text-anchor: middle; visibility: inherit; font-family: Roboto, sans-serif; font-size: 12px; font-weight: 200;" x="21.4751664797465" y="0" dx="0em" dy="0.95em" fill="rgb(33, 33, 33)" stroke="none" stroke-width="1px">0</text><text style="text-anchor: middle; visibility: hidden; font-family: Roboto, sans-serif; font-size: 12px; font-weight: 200;" x="42.950332959493" y="0" dx="0em" dy="0.95em" fill="rgb(33, 33, 33)" stroke="none" stroke-width="1px">100k</text><text style="text-anchor: middle; visibility: inherit; font-family: Roboto, sans-serif; font-size: 12px; font-weight: 200;" x="64.4254994392395" y="0" dx="0em" dy="0.95em" fill="rgb(33, 33, 33)" stroke="none" stroke-width="1px">200k</text><text style="text-anchor: middle; visibility: hidden; font-family: Roboto, sans-serif; font-size: 12px; font-weight: 200;" x="85.900665918986" y="0" dx="0em" dy="0.95em" fill="rgb(33, 33, 33)" stroke="none" stroke-width="1px">300k</text><text style="text-anchor: middle; visibility: inherit; font-family: Roboto, sans-serif; font-size: 12px; font-weight: 200;" x="107.37583239873251" y="0" dx="0em" dy="0.95em" fill="rgb(33, 33, 33)" stroke="none" stroke-width="1px">400k</text><text style="text-anchor: middle; visibility: hidden; font-family: Roboto, sans-serif; font-size: 12px; font-weight: 200;" x="128.850998878479" y="0" dx="0em" dy="0.95em" fill="rgb(33, 33, 33)" stroke="none" stroke-width="1px">500k</text><text style="text-anchor: middle; visibility: inherit; font-family: Roboto, sans-serif; font-size: 12px; font-weight: 200;" x="150.32616535822552" y="0" dx="0em" dy="0.95em" fill="rgb(33, 33, 33)" stroke="none" stroke-width="1px">600k</text><text style="text-anchor: middle; visibility: hidden; font-family: Roboto, sans-serif; font-size: 12px; font-weight: 200;" x="171.801331837972" y="0" dx="0em" dy="0.95em" fill="rgb(33, 33, 33)" stroke="none" stroke-width="1px">700k</text><text style="text-anchor: middle; visibility: inherit; font-family: Roboto, sans-serif; font-size: 12px; font-weight: 200;" x="193.2764983177185" y="0" dx="0em" dy="0.95em" fill="rgb(33, 33, 33)" stroke="none" stroke-width="1px">800k</text><text style="text-anchor: middle; visibility: hidden; font-family: Roboto, sans-serif; font-size: 12px; font-weight: 200;" x="214.75166479746503" y="0" dx="0em" dy="0.95em" fill="rgb(33, 33, 33)" stroke="none" stroke-width="1px">900k</text><text style="text-anchor: middle; visibility: inherit; font-family: Roboto, sans-serif; font-size: 12px; font-weight: 200;" x="236.2268312772115" y="0" dx="0em" dy="0.95em" fill="rgb(33, 33, 33)" stroke="none" stroke-width="1px">1M</text><text style="text-anchor: middle; visibility: hidden; font-family: Roboto, sans-serif; font-size: 12px; font-weight: 200;" x="257.701997756958" y="0" dx="0em" dy="0.95em" fill="rgb(33, 33, 33)" stroke="none" stroke-width="1px">1.1M</text></g><line x1="0" y1="0" x2="257.701997756958" y2="0" fill="rgb(0, 0, 0)" stroke="rgb(204, 204, 204)" stroke-width="1px"></line></g></g></g></g></svg>