<svg viewBox="0 0 330 200" xmlns="http://www.w3.org/2000/svg"><g><g><g><g><g><line x1="61.91500186920166" y1="176.5999994277954" x2="56.91500186920166" y2="176.5999994277954" style="visibility: inherit;" fill="rgb(0, 0, 0)" stroke="rgb(204, 204, 204)" stroke-width="1px"></line><line x1="61.91500186920166" y1="161.88333280881244" x2="56.91500186920166" y2="161.88333280881244" style="visibility: inherit;" fill="rgb(0, 0, 0)" stroke="rgb(204, 204, 204)" stroke-width="1px"></line><line x1="61.91500186920166" y1="147.16666618982953" x2="56.91500186920166" y2="147.16666618982953" style="visibility: inherit;" fill="rgb(0, 0, 0)" stroke="rgb(204, 204, 204)" stroke-width="1px"></line><line x1="61.91500186920166" y1="132.44999957084656" x2="56.91500186920166" y2="132.44999957084656" style="visibility: inherit;" fill="rgb(0, 0, 0)" stroke="rgb(204, 204, 204)" stroke-width="1px"></line><line x1="61.91500186920166" y1="117.73333295186362" x2="56.91500186920166" y2="117.73333295186362" style="visibility: inherit;" fill="rgb(0, 0, 0)" stroke="rgb(204, 204, 204)" stroke-width="1px"></line><line x1="61.91500186920166" y1="103.01666633288065" x2="56.91500186920166" y2="103.01666633288065" style="visibility: inherit;" fill="rgb(0, 0, 0)" stroke="rgb(204, 204, 204)" stroke-width="1px"></line><line x1="61.91500186920166" y1="88.2999997138977" x2="56.91500186920166" y2="88.2999997138977" style="visibility: inherit;" fill="rgb(0, 0, 0)" stroke="rgb(204, 204, 204)" stroke-width="1px"></line><line x1="61.91500186920166" y1="73.58333309491475" x2="56.91500186920166" y2="73.58333309491475" style="visibility: inherit;" fill="rgb(0, 0, 0)" stroke="rgb(204, 204, 204)" stroke-width="1px"></line><line x1="61.91500186920166" y1="58.86666647593181" x2="56.91500186920166" y2="58.86666647593181" style="visibility: inherit;" fill="rgb(0, 0, 0)" stroke="rgb(204, 204, 204)" stroke-width="1px"></line><line x1="61.91500186920166" y1="44.14999985694883" x2="56.91500186920166" y2="44.14999985694883" style="visibility: inherit;" fill="rgb(0, 0, 0)" stroke="rgb(204, 204, 204)" stroke-width="1px"></line><line x1="61.91500186920166" y1="29.433333237965936" x2="56.91500186920166" y2="29.433333237965936" style="visibility: inherit;" fill="rgb(0, 0, 0)" stroke="rgb(204, 204, 204)" stroke-width="1px"></line><line x1="61.91500186920166" y1="14.716666618982957" x2="56.91500186920166" y2="14.716666618982957" style="visibility: inherit;" fill="rgb(0, 0, 0)" stroke="rgb(204, 204, 204)" stroke-width="1px"></line><line x1="61.91500186920166" y1="0" x2="56.91500186920166" y2="0" style="visibility: inherit;" fill="rgb(0, 0, 0)" stroke="rgb(204, 204, 204)" stroke-width="1px"></line></g><g transform="translate(51.91500186920166, 0)"><text style="text-anchor: end; visibility: hidden; font-family: Roboto, sans-serif; font-size: 12px; font-weight: 200;" x="0" y="176.5999994277954" dx="0em" dy="0.3em" fill="rgb(33, 33, 33)" stroke="none" stroke-width="1px">-2e-3</text><text style="text-anchor: end; visibility: inherit; font-family: Roboto, sans-serif; font-size: 12px; font-weight: 200;" x="0" y="161.88333280881244" dx="0em" dy="0.3em" fill="rgb(33, 33, 33)" stroke="none" stroke-width="1px">0</text><text style="text-anchor: end; visibility: hidden; font-family: Roboto, sans-serif; font-size: 12px; font-weight: 200;" x="0" y="147.16666618982953" dx="0em" dy="0.3em" fill="rgb(33, 33, 33)" stroke="none" stroke-width="1px">2e-3</text><text style="text-anchor: end; visibility: inherit; font-family: Roboto, sans-serif; font-size: 12px; font-weight: 200;" x="0" y="132.44999957084656" dx="0em" dy="0.3em" fill="rgb(33, 33, 33)" stroke="none" stroke-width="1px">4e-3</text><text style="text-anchor: end; visibility: hidden; font-family: Roboto, sans-serif; font-size: 12px; font-weight: 200;" x="0" y="117.73333295186362" dx="0em" dy="0.3em" fill="rgb(33, 33, 33)" stroke="none" stroke-width="1px">6e-3</text><text style="text-anchor: end; visibility: inherit; font-family: Roboto, sans-serif; font-size: 12px; font-weight: 200;" x="0" y="103.01666633288065" dx="0em" dy="0.3em" fill="rgb(33, 33, 33)" stroke="none" stroke-width="1px">8e-3</text><text style="text-anchor: end; visibility: hidden; font-family: Roboto, sans-serif; font-size: 12px; font-weight: 200;" x="0" y="88.2999997138977" dx="0em" dy="0.3em" fill="rgb(33, 33, 33)" stroke="none" stroke-width="1px">0.01</text><text style="text-anchor: end; visibility: inherit; font-family: Roboto, sans-serif; font-size: 12px; font-weight: 200;" x="0" y="73.58333309491475" dx="0em" dy="0.3em" fill="rgb(33, 33, 33)" stroke="none" stroke-width="1px">0.012</text><text style="text-anchor: end; visibility: hidden; font-family: Roboto, sans-serif; font-size: 12px; font-weight: 200;" x="0" y="58.86666647593181" dx="0em" dy="0.3em" fill="rgb(33, 33, 33)" stroke="none" stroke-width="1px">0.014</text><text style="text-anchor: end; visibility: inherit; font-family: Roboto, sans-serif; font-size: 12px; font-weight: 200;" x="0" y="44.14999985694883" dx="0em" dy="0.3em" fill="rgb(33, 33, 33)" stroke="none" stroke-width="1px">0.016</text><text style="text-anchor: end; visibility: hidden; font-family: Roboto, sans-serif; font-size: 12px; font-weight: 200;" x="0" y="29.433333237965936" dx="0em" dy="0.3em" fill="rgb(33, 33, 33)" stroke="none" stroke-width="1px">0.018</text><text style="text-anchor: end; visibility: inherit; font-family: Roboto, sans-serif; font-size: 12px; font-weight: 200;" x="0" y="14.716666618982957" dx="0em" dy="0.3em" fill="rgb(33, 33, 33)" stroke="none" stroke-width="1px">0.02</text><text style="text-anchor: end; visibility: hidden; font-family: Roboto, sans-serif; font-size: 12px; font-weight: 200;" x="0" y="0" dx="0em" dy="0.3em" fill="rgb(33, 33, 33)" stroke="none" stroke-width="1px">0.022</text></g><line x1="61.91500186920166" y1="0" x2="61.91500186920166" y2="176.5999994277954" fill="rgb(0, 0, 0)" stroke="rgb(204, 204, 204)" stroke-width="1px"></line></g></g><g transform="translate(61, 0)" clip-path="url(#clip_0)"><clipPath id="clip_0"><rect width="268" height="176"></rect></clipPath><g><g><g><line x1="0" y1="0" x2="0" y2="176.5999994277954" fill="rgb(0, 0, 0)" stroke="rgb(66, 66, 66)" stroke-width="1px" opacity="0.25"></line><line x1="22.34041651089986" y1="0" x2="22.34041651089986" y2="176.5999994277954" fill="rgb(0, 0, 0)" stroke="rgb(66, 66, 66)" stroke-width="1px" opacity="0.25"></line><line x1="44.68083302179972" y1="0" x2="44.68083302179972" y2="176.5999994277954" fill="rgb(0, 0, 0)" stroke="rgb(66, 66, 66)" stroke-width="1px" opacity="0.25"></line><line x1="67.02124953269958" y1="0" x2="67.02124953269958" y2="176.5999994277954" fill="rgb(0, 0, 0)" stroke="rgb(66, 66, 66)" stroke-width="1px" opacity="0.25"></line><line x1="89.36166604359944" y1="0" x2="89.36166604359944" y2="176.5999994277954" fill="rgb(0, 0, 0)" stroke="rgb(66, 66, 66)" stroke-width="1px" opacity="0.25"></line><line x1="111.70208255449931" y1="0" x2="111.70208255449931" y2="176.5999994277954" fill="rgb(0, 0, 0)" stroke="rgb(66, 66, 66)" stroke-width="1px" opacity="0.25"></line><line x1="134.04249906539917" y1="0" x2="134.04249906539917" y2="176.5999994277954" fill="rgb(0, 0, 0)" stroke="rgb(66, 66, 66)" stroke-width="1px" opacity="0.25"></line><line x1="156.38291557629904" y1="0" x2="156.38291557629904" y2="176.5999994277954" fill="rgb(0, 0, 0)" stroke="rgb(66, 66, 66)" stroke-width="1px" opacity="0.25"></line><line x1="178.72333208719888" y1="0" x2="178.72333208719888" y2="176.5999994277954" fill="rgb(0, 0, 0)" stroke="rgb(66, 66, 66)" stroke-width="1px" opacity="0.25"></line><line x1="201.06374859809875" y1="0" x2="201.06374859809875" y2="176.5999994277954" fill="rgb(0, 0, 0)" stroke="rgb(66, 66, 66)" stroke-width="1px" opacity="0.25"></line><line x1="223.40416510899863" y1="0" x2="223.40416510899863" y2="176.5999994277954" fill="rgb(0, 0, 0)" stroke="rgb(66, 66, 66)" stroke-width="1px" opacity="0.25"></line><line x1="245.74458161989847" y1="0" x2="245.74458161989847" y2="176.5999994277954" fill="rgb(0, 0, 0)" stroke="rgb(66, 66, 66)" stroke-width="1px" opacity="0.25"></line><line x1="268.08499813079834" y1="0" x2="268.08499813079834" y2="176.5999994277954" fill="rgb(0, 0, 0)" stroke="rgb(66, 66, 66)" stroke-width="1px" opacity="0.25"></line></g><g><line x1="0" y1="176.5999994277954" x2="268.08499813079834" y2="176.5999994277954" fill="rgb(0, 0, 0)" stroke="rgb(66, 66, 66)" stroke-width="1px" opacity="0.25"></line><line x1="0" y1="161.88333280881244" x2="268.08499813079834" y2="161.88333280881244" fill="rgb(0, 0, 0)" stroke="rgb(66, 66, 66)" stroke-width="1px" opacity="0.25"></line><line x1="0" y1="147.16666618982953" x2="268.08499813079834" y2="147.16666618982953" fill="rgb(0, 0, 0)" stroke="rgb(66, 66, 66)" stroke-width="1px" opacity="0.25"></line><line x1="0" y1="132.44999957084656" x2="268.08499813079834" y2="132.44999957084656" fill="rgb(0, 0, 0)" stroke="rgb(66, 66, 66)" stroke-width="1px" opacity="0.25"></line><line x1="0" y1="117.73333295186362" x2="268.08499813079834" y2="117.73333295186362" fill="rgb(0, 0, 0)" stroke="rgb(66, 66, 66)" stroke-width="1px" opacity="0.25"></line><line x1="0" y1="103.01666633288065" x2="268.08499813079834" y2="103.01666633288065" fill="rgb(0, 0, 0)" stroke="rgb(66, 66, 66)" stroke-width="1px" opacity="0.25"></line><line x1="0" y1="88.2999997138977" x2="268.08499813079834" y2="88.2999997138977" fill="rgb(0, 0, 0)" stroke="rgb(66, 66, 66)" stroke-width="1px" opacity="0.25"></line><line x1="0" y1="73.58333309491475" x2="268.08499813079834" y2="73.58333309491475" fill="rgb(0, 0, 0)" stroke="rgb(66, 66, 66)" stroke-width="1px" opacity="0.25"></line><line x1="0" y1="58.86666647593181" x2="268.08499813079834" y2="58.86666647593181" fill="rgb(0, 0, 0)" stroke="rgb(66, 66, 66)" stroke-width="1px" opacity="0.25"></line><line x1="0" y1="44.14999985694883" x2="268.08499813079834" y2="44.14999985694883" fill="rgb(0, 0, 0)" stroke="rgb(66, 66, 66)" stroke-width="1px" opacity="0.25"></line><line x1="0" y1="29.433333237965936" x2="268.08499813079834" y2="29.433333237965936" fill="rgb(0, 0, 0)" stroke="rgb(66, 66, 66)" stroke-width="1px" opacity="0.25"></line><line x1="0" y1="14.716666618982957" x2="268.08499813079834" y2="14.716666618982957" fill="rgb(0, 0, 0)" stroke="rgb(66, 66, 66)" stroke-width="1px" opacity="0.25"></line><line x1="0" y1="0" x2="268.08499813079834" y2="0" fill="rgb(0, 0, 0)" stroke="rgb(66, 66, 66)" stroke-width="1px" opacity="0.25"></line></g></g></g><g><g><line x1="0" y1="161.88333280881244" x2="268.08499813079834" y2="161.88333280881244" fill="rgb(0, 0, 0)" stroke="rgb(153, 153, 153)" stroke-width="1.5px"></line></g></g><g><g><line x1="22.34041651089986" y1="0" x2="22.34041651089986" y2="176.5999994277954" fill="rgb(0, 0, 0)" stroke="rgb(153, 153, 153)" stroke-width="1.5px"></line></g></g><g><g><g><g><g><path style="fill: none;" stroke="rgb(255, 112, 67)" stroke-width="2px" d="M23.680841501553854,-12.728919629487645L24.574458161989845,31.040653911220847L25.46807482242584,-1.4696809775424848L26.361691482861836,3.2478462931061336L27.25530814329783,12.881421394862318L28.595733133951825,-9.590652217681152L30.382966454823812,-10.565663098086203L31.276583115259807,0.4531946099075528L32.1701997756958,8.025067176440114L33.063816436131795,14.335631704305609L34.40424142678579,11.670269561148922L35.297858087221776,11.481383591253108L36.19147474765778,7.672367336817049L37.085091408093774,5.716564765570234L38.42551639874777,0.42451721673449955L39.319133059183756,4.010288448012408L40.21274971961975,5.281394719094747L41.10636638005574,9.15377662251793L41.99998304049174,14.639292946627302L43.34040803114573,16.427975518901718L44.23402469158173,21.033517728432557L45.12764135201772,19.898319111700317L46.021258012453714,9.623862055895234L47.36168300310771,14.1986985242222L48.2552996635437,22.699617143800577L49.14891632397969,26.152780064279963L50.04253298441569,30.633625554802524L50.93614964485168,35.21330711725722L52.276574635505675,38.990421172870064L53.17019129594167,41.66760450467355L54.063807956377666,46.34395912470669L54.957424616813654,51.62932786978718L55.85104127724966,47.558107714956904L56.74465793768565,42.77210414025454L57.63827459812164,48.94047347773373L58.531891258557636,53.07518364985072L59.87231624921163,59.498137820695824L60.765932909647624,65.62020270489697L61.65954957008362,70.60898446267244L62.553166230519615,73.44416593893511L63.4467828909556,78.46318004782744L64.7872078816096,83.97016806256467L65.6808245420456,85.26951164942156L66.57444120248158,88.09991295170997L67.46805786291758,90.99279764050306L68.36167452335357,93.74662494277194L69.25529118378958,96.3981175702823L70.14890784422556,100.30221626867613L71.04252450466156,101.86107442602199L72.38294949531556,99.44606433326051L73.27656615575154,100.65175028260286L74.17018281618755,101.23419020143886L75.06379947662354,102.54949283022393L75.95741613705952,104.70371181363534L77.29784112771353,104.51437696549695L78.19145778814952,107.13384304485209L79.0850744485855,110.27174660080051L79.97869110902151,112.43308176797055L80.8723077694575,114.92618051302725L82.21273276011148,115.29160810902079L83.10634942054749,112.4243677458679L83.99996608098348,111.22231446930095L85.34039107163748,113.00550825739666L86.23400773207347,113.07016897108008L87.12762439250946,108.13600179178039L88.02124105294546,109.22170548884377L88.91485771338145,106.6179318098834L90.70209103425343,109.46071089602518L92.04251602490743,113.075754315513L92.93613268534342,116.26810047234758L93.82974934577942,118.93900236266609L94.72336600621541,121.9238206173472L95.61698266665141,122.44176955143368L96.5105993270874,124.73893655190773L97.85102431774139,127.23019661040301L98.74464097817739,129.44994074490904L99.63825763861338,130.37196228621212L100.53187429904938,132.57883285478772L101.87229928970336,133.20691031568802L102.76591595013937,134.63408505290136L103.65953261057535,136.179358446234L104.55314927101135,136.3827765479545L105.89357426166535,137.75244954682415L106.78719092210133,138.74048306615194L107.68080758253734,139.93100095590293L108.57442424297334,139.15875504991857L109.46804090340932,140.22882543521712L110.36165756384533,139.74624688062363L111.70208255449931,140.9031521462301L112.5956992149353,141.79438110827405L113.4893158753713,140.8759046439736L114.3829325358073,141.7625570614443L115.72335752646127,143.06025432854855L116.61697418689728,144.15769463495786L117.51059084733328,144.34554208472295L118.40420750776926,145.48398139277415L119.74463249842326,146.2754567217325L120.63824915885925,146.89081619641013L121.53186581929525,147.81858280475802L122.42548247973124,147.94500535465656L123.31909914016724,147.88688734614337L124.65952413082124,146.33402134264372L125.55314079125722,147.15589545480864L126.44675745169322,148.0248135381706L127.34037411212921,148.92054911585515L128.6807991027832,149.75029494090128L129.5744157632192,150.4281977778292L130.4680324236552,151.15104953772627L131.3616490840912,151.68397391768494L132.70207407474518,152.36207467202L133.59569073518117,152.6436067499934L134.48930739561717,151.9730365293575L135.38292405605316,152.51728031335628L136.27654071648914,153.04371438778674L137.17015737692518,153.53613117564151L138.51058236757916,154.0176851129563L139.40419902801514,154.37392442778778L140.29781568845112,154.48880427636198L141.1914323488871,154.79944349671038L142.08504900932311,155.20115207508434L143.42547399997713,155.33338652846382L144.3190906604131,155.62166720805678L145.2127073208491,155.93687695473756L146.1063239812851,156.00383372258693L147.4467489719391,156.35427062978857L148.3403656323751,156.52979621082525L149.23398229281108,156.82603575877363L150.1275989532471,157.0656320951337L151.02121561368307,157.32316200885344L152.36164060433705,157.32279387822697L153.25525726477304,157.56330586165194L154.14887392520905,157.81104653132925L155.04249058564506,157.9914574596515L156.38291557629904,158.22212911219177L157.27653223673502,158.32680956907723L158.170148897171,158.47448288010312L159.063765557607,158.5687265079724L159.95738221804302,158.75275093385252L160.850998878479,158.90044076130172L162.191423869133,159.07761769674082L163.08504052956897,159.15390892964734L163.97865719000498,158.96376199483407L164.872273850441,159.11781638935955L165.76589051087697,159.25053149908717L166.65950717131298,159.4049283373977L167.99993216196697,159.52940130955508L168.89354882240295,159.646736810548L169.78716548283893,159.76034733559922L170.68078214327497,159.86313770865772L171.57439880371095,159.98071242884103L172.46801546414693,160.07070892661793L173.80844045480092,160.17774699419425L174.7020571152369,160.25342626188944L175.5956737756729,160.34157418036423L176.93609876632692,160.43990064623614L177.8297154267629,160.53222522241455L178.72333208719888,160.60199143193637L179.6169487476349,160.681523000005L180.95737373828888,160.75717029104473L181.8509903987249,160.82658392362754L182.74460705916087,160.8851423364725L183.63822371959688,160.9420048551609L184.97864871025084,160.99905226681855L185.87226537068685,161.05263662505254L186.76588203112283,161.10626473957814L187.65949869155884,161.14900860811625L188.55311535199485,161.19358522362805L189.89354034264883,161.23674199995625L190.78715700308481,161.27122211771865L191.6807736635208,161.30747202521707L192.5743903239568,161.34389949025805L193.91481531461082,161.3767811342274L194.8084319750468,161.402259747376L195.70204863548278,161.43494563737283L196.59566529591876,161.46527508894954L197.48928195635477,161.49183914137612L198.38289861679078,161.51653568453045L199.27651527722676,161.54116555272375L200.61694026788075,161.56140196511046L201.51055692831676,161.58212193983985L202.40417358875274,161.60243432168332L203.74459857940673,161.62006495538182L204.63821523984274,161.63745316022886L205.53183190027875,161.65351040742843L206.42544856071473,161.66767810066722L207.3190652211507,161.68154706582354L208.6594902118047,161.69429991156736L209.5531068722407,161.70651519355943L210.4467235326767,161.71771017271382L211.3403401931127,161.72758253263473L212.23395685354868,161.73689153959293L213.1275735139847,161.74621743199236L214.91480683485665,161.7419826054731L215.8084234952927,161.73961520631528L217.14884848594667,161.74575352572583L218.04246514638265,161.75247255219108L218.93608180681863,161.75908238881024L219.82969846725462,161.76528276628025L220.72331512769065,161.7707981980911L221.61693178812664,161.77623888494537L222.95735677878062,161.78138637110635L223.8509734392166,161.78618364412898L224.7445900996526,161.79075958307166L225.6382067600886,161.79512671813302L226.5318234205246,161.79919772988364L227.4254400809606,161.8029810968347L228.7658650716146,161.80646371569517L229.65948173205058,161.8100989316203L230.55309839248656,161.8132019341811L231.44671505292254,161.81648028636755L232.34033171335858,161.81905796832595L233.23394837379456,161.82143209894627L234.57437336444855,161.82366958311206L235.46799002488453,161.82571786752715L236.36160668532054,161.82761902741538L237.25522334575652,161.82943296107518L238.14884000619253,161.8311271621446L239.04245666662854,161.8326880400516L240.3828816572825,161.83416021124268L241.2764983177185,161.83567363637144L242.1701149781545,161.83714741389255L243.0637316385905,161.8385187522244L244.40415662924448,161.8396854919937L245.2977732896805,161.840769029985" fill="none"></path></g></g></g></g><g opacity="0.2"><g><g><g><path style="fill: none;" stroke="rgb(255, 112, 67)" stroke-width="2px" d="M23.680841501553854,-12.728919629487645L24.574458161989845,70.43327009785848L25.46807482242584,-57.06235363732771L26.361691482861836,14.753895306218235L27.25530814329783,42.69829969230777L28.595733133951825,-92.41350200333532L29.489349794387817,-30.45212888983596L30.382966454823812,3.63167011728377L31.276583115259807,56.93360156732786L32.1701997756958,49.770433123887415L33.063816436131795,51.32749229355635L34.40424142678579,-4.790219780803925L35.297858087221776,10.261532654519778L36.19147474765778,-17.894971522076542L38.42551639874777,-37.397639774430345L39.319133059183756,30.302173693767365L40.21274971961975,14.813488837017818L41.10636638005574,38.774200007601316L41.99998304049174,57.33983262974015L43.34040803114573,30.568960280017066L44.23402469158173,57.94799365748599L45.12764135201772,10.687651070471661L46.021258012453714,-74.65068250747396L47.36168300310771,52.08796084453361L48.2552996635437,93.71537158653108L49.14891632397969,55.223241192048704L50.04253298441569,68.61619508807942L50.93614964485168,74.27335222419295L52.276574635505675,71.38328527583498L53.17019129594167,64.7408543697528L54.063807956377666,86.82543838532958L54.957424616813654,97.56430091252773L55.85104127724966,12.04944822621784L56.74465793768565,0.8960830874267369L57.63827459812164,103.06616262529153L58.531891258557636,89.44923957406394L59.87231624921163,116.13266444796272L60.765932909647624,119.71334750256015L61.65954957008362,114.77063429083118L62.553166230519615,98.58364085563399L63.4467828909556,123.0334048016563L64.7872078816096,132.93966771665006L65.6808245420456,96.83759700348348L66.57444120248158,113.32648827781121L67.46805786291758,116.80151891010672L68.36167452335357,118.33638469781908L69.25529118378958,120.09284508249209L70.14890784422556,135.21553958667928L71.04252450466156,115.81045779690437L72.38294949531556,77.82299127068063L73.27656615575154,111.4525917684203L74.17018281618755,106.45426660838888L75.06379947662354,114.34274095256131L75.95741613705952,124.02612433648396L77.29784112771353,102.81554907637931L78.19145778814952,130.64446701110796L79.0850744485855,138.4432632338403L79.97869110902151,131.84194336631225L80.8723077694575,137.31926797730188L82.21273276011148,118.5745463785778L83.10634942054749,86.66093940725771L83.99996608098348,100.41958212464618L85.34039107163748,129.03322816635833L86.23400773207347,113.65142926865676L87.12762439250946,63.77561871892604L88.02124105294546,118.98370709076201L88.91485771338145,83.20411029494882L90.70209103425343,135.02593128284272L92.04251602490743,145.58849399709814L92.93613268534342,144.9812135775294L93.82974934577942,142.96356377959202L94.72336600621541,148.77355097880857L95.61698266665141,127.10118067886258L96.5105993270874,145.40494030279027L97.85102431774139,149.64324149904667L98.74464097817739,149.42098558933048L99.63825763861338,138.6676692666347L100.53187429904938,152.43531080591038L101.87229928970336,138.85823527469495L102.76591595013937,147.47585147623067L103.65953261057535,150.0840844032822L104.55314927101135,138.21321548367803L105.89357426166535,150.077543232037L106.78719092210133,147.6315101076223L107.68080758253734,150.64427969730573L108.57442424297334,132.2093488596416L109.46804090340932,149.85845254334635L110.36165756384533,135.403448350999L111.70208255449931,151.31441823693746L112.5956992149353,149.81483074354028L113.4893158753713,132.6101831987898L114.3829325358073,149.74193643145153L115.72335752646127,154.73888114393696L116.61697418689728,154.03416374245748L117.51059084733328,146.03609308488666L118.40420750776926,155.7295203704397L119.74463249842326,153.39847514295104L120.63824915885925,152.4288698595258L121.53186581929525,156.16823585209957L122.42548247973124,149.0827780821054L123.31909914016724,147.36383777345907L124.65952413082124,132.35852799662536L125.55314079125722,154.5526192368355L126.44675745169322,155.84494000522687L127.34037411212921,156.9820428746265L128.6807991027832,157.2179019534592L129.5744157632192,156.52924580004964L130.4680324236552,157.65664099224443L131.3616490840912,156.4802439811229L132.70207407474518,158.46492493965303L133.59569073518117,155.1773743319957L134.48930739561717,145.93794981752657L135.38292405605316,157.41544129893714L136.27654071648914,157.7815922682633L137.17015737692518,157.96785803016706L138.51058236757916,158.35164921742924L139.40419902801514,157.58006405899496L140.29781568845112,155.5227187915819L141.1914323488871,157.59518644854145L142.08504900932311,158.81651760550722L143.42547399997713,156.52349315003693L144.3190906604131,158.21618653791944L145.2127073208491,158.77375799648934L146.1063239812851,156.60644335647444L147.4467489719391,159.50819678056743L148.3403656323751,158.10952372909532L149.23398229281108,159.492187572329L150.1275989532471,159.22199612484212L151.02121561368307,159.64092833262535L152.36164060433705,157.31948070631938L153.25525726477304,159.7279115189244L154.14887392520905,160.04071052489275L155.04249058564506,159.61515448176988L156.38291557629904,160.2981724513804L157.27653223673502,159.26893305465327L158.170148897171,159.80354188404576L159.063765557607,159.41691870200404L159.95738221804302,160.4089699640164L160.850998878479,160.22964862851282L162.191423869133,160.67220948965405L163.08504052956897,159.84052978319497L163.97865719000498,157.25244012572674L164.872273850441,160.5043055432672L165.76589051087697,160.4449671789664L166.65950717131298,160.79449956005223L167.99993216196697,160.64965782523635L168.89354882240295,160.70275612118516L169.78716548283893,160.78284188825688L170.68078214327497,160.78825092547285L171.57439880371095,161.03888476563623L172.46801546414693,160.88067730681968L173.80844045480092,161.14108949556393L174.7020571152369,160.93453960317504L175.5956737756729,161.1349053753847L176.93609876632692,161.32483876755123L177.8297154267629,161.36314634757082L178.72333208719888,161.2298872765216L179.6169487476349,161.39730707044342L180.95737373828888,161.43799587429496L181.8509903987249,161.451306587054L182.74460705916087,161.41216802943734L183.63822371959688,161.45376750357022L184.97864871025084,161.5124789538724L185.87226537068685,161.53489583405582L186.76588203112283,161.58891775670497L187.65949869155884,161.53370341520127L188.55311535199485,161.59477475407522L189.89354034264883,161.6251529789295L190.78715700308481,161.58154317184182L191.6807736635208,161.63372118727293L192.5743903239568,161.67174667071637L193.91481531461082,161.6727159259623L194.8084319750468,161.63156726293127L195.70204863548278,161.729118644132L196.59566529591876,161.7382401504573L197.48928195635477,161.73091561110078L198.38289861679078,161.73880457115007L199.27651527722676,161.76283436487572L200.61694026788075,161.74352967541628L201.51055692831676,161.7686017113223L202.40417358875274,161.7852457573197L203.74459857940673,161.7787406579227L204.63821523984274,161.7939470031901L205.53183190027875,161.79802563167436L206.42544856071473,161.7951873393792L207.3190652211507,161.80636775184564L208.6594902118047,161.8090755229431L209.5531068722407,161.8164527312134L210.4467235326767,161.818464984877L211.3403401931127,161.8164337717429L212.23395685354868,161.82067260206432L213.1275735139847,161.8301504634496L214.91480683485665,161.70386916685615L215.8084234952927,161.71830861392291L217.14884848594667,161.800998400355L218.04246514638265,161.81294379031328L218.93608180681863,161.8185709183251L219.82969846725462,161.82108616346167L220.72331512769065,161.82043708434963L221.61693178812664,161.82520506659944L222.95735677878062,161.8277137465258L223.8509734392166,161.8293591013081L224.7445900996526,161.8319430335345L225.6382067600886,161.83443093366702L226.5318234205246,161.83583683562395L227.4254400809606,161.83703139938154L228.7658650716146,161.8378072854286L229.65948173205058,161.84281587493675L230.55309839248656,161.84112895722063L231.44671505292254,161.8459854560382L232.34033171335858,161.84225710594637L233.23394837379456,161.842799274525L234.57437336444855,161.84380694060076L235.46799002488453,161.84415242725973L236.36160668532054,161.84472946640702L237.25522334575652,161.84575836401126L238.14884000619253,161.84637497176755L239.04245666662854,161.8467359412133L240.3828816572825,161.84740975196078L241.2764983177185,161.84929446252917L242.1701149781545,161.85041141158183L243.0637316385905,161.85086079720986L244.40415662924448,161.85018614991677L245.2977732896805,161.85052087190635" fill="none"></path></g></g></g></g></g></g><g transform="translate(61, 176)" clip-path="url(#clip_1)"><clipPath id="clip_1"><rect width="268" height="23"></rect></clipPath><g><g><line x1="0" y1="0" x2="0" y2="5" style="visibility: inherit;" fill="rgb(0, 0, 0)" stroke="rgb(204, 204, 204)" stroke-width="1px"></line><line x1="22.34041651089986" y1="0" x2="22.34041651089986" y2="5" style="visibility: inherit;" fill="rgb(0, 0, 0)" stroke="rgb(204, 204, 204)" stroke-width="1px"></line><line x1="44.68083302179972" y1="0" x2="44.68083302179972" y2="5" style="visibility: inherit;" fill="rgb(0, 0, 0)" stroke="rgb(204, 204, 204)" stroke-width="1px"></line><line x1="67.02124953269958" y1="0" x2="67.02124953269958" y2="5" style="visibility: inherit;" fill="rgb(0, 0, 0)" stroke="rgb(204, 204, 204)" stroke-width="1px"></line><line x1="89.36166604359944" y1="0" x2="89.36166604359944" y2="5" style="visibility: inherit;" fill="rgb(0, 0, 0)" stroke="rgb(204, 204, 204)" stroke-width="1px"></line><line x1="111.70208255449931" y1="0" x2="111.70208255449931" y2="5" style="visibility: inherit;" fill="rgb(0, 0, 0)" stroke="rgb(204, 204, 204)" stroke-width="1px"></line><line x1="134.04249906539917" y1="0" x2="134.04249906539917" y2="5" style="visibility: inherit;" fill="rgb(0, 0, 0)" stroke="rgb(204, 204, 204)" stroke-width="1px"></line><line x1="156.38291557629904" y1="0" x2="156.38291557629904" y2="5" style="visibility: inherit;" fill="rgb(0, 0, 0)" stroke="rgb(204, 204, 204)" stroke-width="1px"></line><line x1="178.72333208719888" y1="0" x2="178.72333208719888" y2="5" style="visibility: inherit;" fill="rgb(0, 0, 0)" stroke="rgb(204, 204, 204)" stroke-width="1px"></line><line x1="201.06374859809875" y1="0" x2="201.06374859809875" y2="5" style="visibility: inherit;" fill="rgb(0, 0, 0)" stroke="rgb(204, 204, 204)" stroke-width="1px"></line><line x1="223.40416510899863" y1="0" x2="223.40416510899863" y2="5" style="visibility: inherit;" fill="rgb(0, 0, 0)" stroke="rgb(204, 204, 204)" stroke-width="1px"></line><line x1="245.74458161989847" y1="0" x2="245.74458161989847" y2="5" style="visibility: inherit;" fill="rgb(0, 0, 0)" stroke="rgb(204, 204, 204)" stroke-width="1px"></line><line x1="268.08499813079834" y1="0" x2="268.08499813079834" y2="5" style="visibility: inherit;" fill="rgb(0, 0, 0)" stroke="rgb(204, 204, 204)" stroke-width="1px"></line></g><g transform="translate(0, 8)"><text style="text-anchor: middle; visibility: hidden; font-family: Roboto, sans-serif; font-size: 12px; font-weight: 200;" x="0" y="0" dx="0em" dy="0.95em" fill="rgb(33, 33, 33)" stroke="none" stroke-width="1px">-100k</text><text style="text-anchor: middle; visibility: inherit; font-family: Roboto, sans-serif; font-size: 12px; font-weight: 200;" x="22.34041651089986" y="0" dx="0em" dy="0.95em" fill="rgb(33, 33, 33)" stroke="none" stroke-width="1px">0</text><text style="text-anchor: middle; visibility: hidden; font-family: Roboto, sans-serif; font-size: 12px; font-weight: 200;" x="44.68083302179972" y="0" dx="0em" dy="0.95em" fill="rgb(33, 33, 33)" stroke="none" stroke-width="1px">100k</text><text style="text-anchor: middle; visibility: inherit; font-family: Roboto, sans-serif; font-size: 12px; font-weight: 200;" x="67.02124953269958" y="0" dx="0em" dy="0.95em" fill="rgb(33, 33, 33)" stroke="none" stroke-width="1px">200k</text><text style="text-anchor: middle; visibility: hidden; font-family: Roboto, sans-serif; font-size: 12px; font-weight: 200;" x="89.36166604359944" y="0" dx="0em" dy="0.95em" fill="rgb(33, 33, 33)" stroke="none" stroke-width="1px">300k</text><text style="text-anchor: middle; visibility: inherit; font-family: Roboto, sans-serif; font-size: 12px; font-weight: 200;" x="111.70208255449931" y="0" dx="0em" dy="0.95em" fill="rgb(33, 33, 33)" stroke="none" stroke-width="1px">400k</text><text style="text-anchor: middle; visibility: hidden; font-family: Roboto, sans-serif; font-size: 12px; font-weight: 200;" x="134.04249906539917" y="0" dx="0em" dy="0.95em" fill="rgb(33, 33, 33)" stroke="none" stroke-width="1px">500k</text><text style="text-anchor: middle; visibility: inherit; font-family: Roboto, sans-serif; font-size: 12px; font-weight: 200;" x="156.38291557629904" y="0" dx="0em" dy="0.95em" fill="rgb(33, 33, 33)" stroke="none" stroke-width="1px">600k</text><text style="text-anchor: middle; visibility: hidden; font-family: Roboto, sans-serif; font-size: 12px; font-weight: 200;" x="178.72333208719888" y="0" dx="0em" dy="0.95em" fill="rgb(33, 33, 33)" stroke="none" stroke-width="1px">700k</text><text style="text-anchor: middle; visibility: inherit; font-family: Roboto, sans-serif; font-size: 12px; font-weight: 200;" x="201.06374859809875" y="0" dx="0em" dy="0.95em" fill="rgb(33, 33, 33)" stroke="none" stroke-width="1px">800k</text><text style="text-anchor: middle; visibility: hidden; font-family: Roboto, sans-serif; font-size: 12px; font-weight: 200;" x="223.40416510899863" y="0" dx="0em" dy="0.95em" fill="rgb(33, 33, 33)" stroke="none" stroke-width="1px">900k</text><text style="text-anchor: middle; visibility: inherit; font-family: Roboto, sans-serif; font-size: 12px; font-weight: 200;" x="245.74458161989847" y="0" dx="0em" dy="0.95em" fill="rgb(33, 33, 33)" stroke="none" stroke-width="1px">1M</text><text style="text-anchor: middle; visibility: hidden; font-family: Roboto, sans-serif; font-size: 12px; font-weight: 200;" x="268.08499813079834" y="0" dx="0em" dy="0.95em" fill="rgb(33, 33, 33)" stroke="none" stroke-width="1px">1.1M</text></g><line x1="0" y1="0" x2="268.08499813079834" y2="0" fill="rgb(0, 0, 0)" stroke="rgb(204, 204, 204)" stroke-width="1px"></line></g></g></g></g></svg>