<svg viewBox="0 0 1498 400" xmlns="http://www.w3.org/2000/svg"><g><g><g><g><g><line x1="51.5625" y1="365" x2="46.5625" y2="365" style="visibility: inherit;" fill="rgb(0, 0, 0)" stroke="rgb(204, 204, 204)" stroke-width="1px"></line><line x1="51.5625" y1="324.4444444444444" x2="46.5625" y2="324.4444444444444" style="visibility: inherit;" fill="rgb(0, 0, 0)" stroke="rgb(204, 204, 204)" stroke-width="1px"></line><line x1="51.5625" y1="283.8888888888889" x2="46.5625" y2="283.8888888888889" style="visibility: inherit;" fill="rgb(0, 0, 0)" stroke="rgb(204, 204, 204)" stroke-width="1px"></line><line x1="51.5625" y1="243.33333333333331" x2="46.5625" y2="243.33333333333331" style="visibility: inherit;" fill="rgb(0, 0, 0)" stroke="rgb(204, 204, 204)" stroke-width="1px"></line><line x1="51.5625" y1="202.7777777777778" x2="46.5625" y2="202.7777777777778" style="visibility: inherit;" fill="rgb(0, 0, 0)" stroke="rgb(204, 204, 204)" stroke-width="1px"></line><line x1="51.5625" y1="162.2222222222222" x2="46.5625" y2="162.2222222222222" style="visibility: inherit;" fill="rgb(0, 0, 0)" stroke="rgb(204, 204, 204)" stroke-width="1px"></line><line x1="51.5625" y1="121.66666666666669" x2="46.5625" y2="121.66666666666669" style="visibility: inherit;" fill="rgb(0, 0, 0)" stroke="rgb(204, 204, 204)" stroke-width="1px"></line><line x1="51.5625" y1="81.11111111111114" x2="46.5625" y2="81.11111111111114" style="visibility: inherit;" fill="rgb(0, 0, 0)" stroke="rgb(204, 204, 204)" stroke-width="1px"></line><line x1="51.5625" y1="40.55555555555557" x2="46.5625" y2="40.55555555555557" style="visibility: inherit;" fill="rgb(0, 0, 0)" stroke="rgb(204, 204, 204)" stroke-width="1px"></line><line x1="51.5625" y1="0" x2="46.5625" y2="0" style="visibility: inherit;" fill="rgb(0, 0, 0)" stroke="rgb(204, 204, 204)" stroke-width="1px"></line></g><g transform="translate(41.5625, 0)"><text x="0" y="365" dx="0em" dy="0.3em" style="text-anchor: end; visibility: hidden; font-family: Roboto, sans-serif; font-size: 12px; font-weight: 200;" fill="rgb(33, 33, 33)" stroke="none" stroke-width="1px">-0.2</text><text x="0" y="324.4444444444444" dx="0em" dy="0.3em" style="text-anchor: end; visibility: inherit; font-family: Roboto, sans-serif; font-size: 12px; font-weight: 200;" fill="rgb(33, 33, 33)" stroke="none" stroke-width="1px">0</text><text x="0" y="283.8888888888889" dx="0em" dy="0.3em" style="text-anchor: end; visibility: inherit; font-family: Roboto, sans-serif; font-size: 12px; font-weight: 200;" fill="rgb(33, 33, 33)" stroke="none" stroke-width="1px">0.2</text><text x="0" y="243.33333333333331" dx="0em" dy="0.3em" style="text-anchor: end; visibility: inherit; font-family: Roboto, sans-serif; font-size: 12px; font-weight: 200;" fill="rgb(33, 33, 33)" stroke="none" stroke-width="1px">0.4</text><text x="0" y="202.7777777777778" dx="0em" dy="0.3em" style="text-anchor: end; visibility: inherit; font-family: Roboto, sans-serif; font-size: 12px; font-weight: 200;" fill="rgb(33, 33, 33)" stroke="none" stroke-width="1px">0.6</text><text x="0" y="162.2222222222222" dx="0em" dy="0.3em" style="text-anchor: end; visibility: inherit; font-family: Roboto, sans-serif; font-size: 12px; font-weight: 200;" fill="rgb(33, 33, 33)" stroke="none" stroke-width="1px">0.8</text><text x="0" y="121.66666666666669" dx="0em" dy="0.3em" style="text-anchor: end; visibility: inherit; font-family: Roboto, sans-serif; font-size: 12px; font-weight: 200;" fill="rgb(33, 33, 33)" stroke="none" stroke-width="1px">1</text><text x="0" y="81.11111111111114" dx="0em" dy="0.3em" style="text-anchor: end; visibility: inherit; font-family: Roboto, sans-serif; font-size: 12px; font-weight: 200;" fill="rgb(33, 33, 33)" stroke="none" stroke-width="1px">1.2</text><text x="0" y="40.55555555555557" dx="0em" dy="0.3em" style="text-anchor: end; visibility: inherit; font-family: Roboto, sans-serif; font-size: 12px; font-weight: 200;" fill="rgb(33, 33, 33)" stroke="none" stroke-width="1px">1.4</text><text x="0" y="0" dx="0em" dy="0.3em" style="text-anchor: end; visibility: hidden; font-family: Roboto, sans-serif; font-size: 12px; font-weight: 200;" fill="rgb(33, 33, 33)" stroke="none" stroke-width="1px">1.6</text></g><line x1="51.5625" y1="0" x2="51.5625" y2="365" fill="rgb(0, 0, 0)" stroke="rgb(204, 204, 204)" stroke-width="1px"></line></g></g><g transform="translate(51, 0)" clip-path="url(#clip_0)"><clipPath id="clip_0"><rect width="1446" height="365"></rect></clipPath><g><g><g><line x1="0" y1="0" x2="0" y2="365" fill="rgb(0, 0, 0)" stroke="rgb(66, 66, 66)" stroke-width="1px" opacity="0.25"></line><line x1="131.4943181818182" y1="0" x2="131.4943181818182" y2="365" fill="rgb(0, 0, 0)" stroke="rgb(66, 66, 66)" stroke-width="1px" opacity="0.25"></line><line x1="262.9886363636364" y1="0" x2="262.9886363636364" y2="365" fill="rgb(0, 0, 0)" stroke="rgb(66, 66, 66)" stroke-width="1px" opacity="0.25"></line><line x1="394.4829545454545" y1="0" x2="394.4829545454545" y2="365" fill="rgb(0, 0, 0)" stroke="rgb(66, 66, 66)" stroke-width="1px" opacity="0.25"></line><line x1="525.9772727272727" y1="0" x2="525.9772727272727" y2="365" fill="rgb(0, 0, 0)" stroke="rgb(66, 66, 66)" stroke-width="1px" opacity="0.25"></line><line x1="657.4715909090909" y1="0" x2="657.4715909090909" y2="365" fill="rgb(0, 0, 0)" stroke="rgb(66, 66, 66)" stroke-width="1px" opacity="0.25"></line><line x1="788.965909090909" y1="0" x2="788.965909090909" y2="365" fill="rgb(0, 0, 0)" stroke="rgb(66, 66, 66)" stroke-width="1px" opacity="0.25"></line><line x1="920.4602272727273" y1="0" x2="920.4602272727273" y2="365" fill="rgb(0, 0, 0)" stroke="rgb(66, 66, 66)" stroke-width="1px" opacity="0.25"></line><line x1="1051.9545454545455" y1="0" x2="1051.9545454545455" y2="365" fill="rgb(0, 0, 0)" stroke="rgb(66, 66, 66)" stroke-width="1px" opacity="0.25"></line><line x1="1183.4488636363637" y1="0" x2="1183.4488636363637" y2="365" fill="rgb(0, 0, 0)" stroke="rgb(66, 66, 66)" stroke-width="1px" opacity="0.25"></line><line x1="1314.9431818181818" y1="0" x2="1314.9431818181818" y2="365" fill="rgb(0, 0, 0)" stroke="rgb(66, 66, 66)" stroke-width="1px" opacity="0.25"></line><line x1="1446.4375" y1="0" x2="1446.4375" y2="365" fill="rgb(0, 0, 0)" stroke="rgb(66, 66, 66)" stroke-width="1px" opacity="0.25"></line></g><g><line x1="0" y1="365" x2="1446.4375" y2="365" fill="rgb(0, 0, 0)" stroke="rgb(66, 66, 66)" stroke-width="1px" opacity="0.25"></line><line x1="0" y1="324.4444444444444" x2="1446.4375" y2="324.4444444444444" fill="rgb(0, 0, 0)" stroke="rgb(66, 66, 66)" stroke-width="1px" opacity="0.25"></line><line x1="0" y1="283.8888888888889" x2="1446.4375" y2="283.8888888888889" fill="rgb(0, 0, 0)" stroke="rgb(66, 66, 66)" stroke-width="1px" opacity="0.25"></line><line x1="0" y1="243.33333333333331" x2="1446.4375" y2="243.33333333333331" fill="rgb(0, 0, 0)" stroke="rgb(66, 66, 66)" stroke-width="1px" opacity="0.25"></line><line x1="0" y1="202.7777777777778" x2="1446.4375" y2="202.7777777777778" fill="rgb(0, 0, 0)" stroke="rgb(66, 66, 66)" stroke-width="1px" opacity="0.25"></line><line x1="0" y1="162.2222222222222" x2="1446.4375" y2="162.2222222222222" fill="rgb(0, 0, 0)" stroke="rgb(66, 66, 66)" stroke-width="1px" opacity="0.25"></line><line x1="0" y1="121.66666666666669" x2="1446.4375" y2="121.66666666666669" fill="rgb(0, 0, 0)" stroke="rgb(66, 66, 66)" stroke-width="1px" opacity="0.25"></line><line x1="0" y1="81.11111111111114" x2="1446.4375" y2="81.11111111111114" fill="rgb(0, 0, 0)" stroke="rgb(66, 66, 66)" stroke-width="1px" opacity="0.25"></line><line x1="0" y1="40.55555555555557" x2="1446.4375" y2="40.55555555555557" fill="rgb(0, 0, 0)" stroke="rgb(66, 66, 66)" stroke-width="1px" opacity="0.25"></line><line x1="0" y1="0" x2="1446.4375" y2="0" fill="rgb(0, 0, 0)" stroke="rgb(66, 66, 66)" stroke-width="1px" opacity="0.25"></line></g></g></g><g><g><line x1="0" y1="324.4444444444444" x2="1446.4375" y2="324.4444444444444" fill="rgb(0, 0, 0)" stroke="rgb(153, 153, 153)" stroke-width="1.5px"></line></g></g><g><g><line x1="-10136984.65151515" y1="0" x2="-10136984.65151515" y2="365" fill="rgb(0, 0, 0)" stroke="rgb(153, 153, 153)" stroke-width="1.5px"></line></g></g><g><g><g><g><g><path stroke="rgb(187, 187, 187)" stroke-width="2px" d="M1262.9662660074705,87.2833855946859L1263.674630769676,134.66414236265427L1264.3831538120792,167.1804832123137L1265.097563660301,186.2033473085176L1265.7965351015362,200.7899026937403L1266.4743152593646,212.50773963483576L1267.2978227777778,221.62113154498803L1267.9718224739584,229.37973914762372L1268.6400266798191,234.9566398463204L1269.3375370730746,240.35900366521932L1270.0419570057345,245.40529454534868L1270.6775250523463,249.1535694876126L1271.34769558528,252.86065690495334L1272.0580327622579,256.0713034026098L1272.8758543689498,259.1806762405106L1273.5725611858165,261.7841915107401L1274.224359040404,264.2497382287879L1274.9156417166455,266.03474155933554L1275.5760841051135,268.21149103500744L1276.2958633046612,270.2672040012076L1276.97216415141,272.1054024585515L1277.683724956071,273.88430889499875L1278.5256112405302,275.4390381123897L1279.1764350631313,277.01337740975634L1279.85924974879,278.23735569079264L1280.563006122159,279.5509680485286L1281.250788370949,280.88478766876096L1282.081193253367,282.1711340077466L1282.8090569184028,283.33534699033174L1283.4514431889204,284.4311087184739L1284.1494101596697,285.4679146407523L1284.8085680434554,286.4520006375284L1285.461376456229,287.41574204344107L1286.152835675768,288.2954927855789L1286.8358634309238,289.1547415511185L1287.5213384414456,289.97641639376917L1288.3581232333754,290.769545003245L1289.0259804403408,291.5233614916825L1289.7187850415614,292.277417196782L1290.4170137834071,292.97420388573755L1291.1404516906039,293.6241427562587L1291.7704921056923,294.2898866173761L1292.4526736705598,294.9250877136623L1293.353720222801,295.4996044353588L1294.045544704335,296.05250506209745L1294.7179798616373,296.6217777611236L1295.4555838465383,297.17325311541214L1296.10347339778,297.6749126545614L1296.9678172072286,298.18866047884524L1297.5990508115003,298.66812224358983L1298.3178072774622,299.1406753729634L1299.0290636971276,299.5995724609641L1299.6678643123946,300.04519989442093L1300.5203127562079,300.4568000965053L1301.205124207439,300.86892076714145L1301.8909340414564,301.27304949561744L1302.547839476273,301.66840061000164L1303.2423547211702,302.0429577171655L1303.9432803140783,302.4059327738834L1304.6242930405617,302.7608455161239L1305.3210546467278,303.10717572357095L1305.9753606336806,303.4399016713791L1306.8263967311132,303.76202208704916L1307.551496580387,304.0743026311401L1308.2478746614584,304.3779314254051L1309.140349732218,304.67361436724383L1309.7777501765047,304.96463525427407L1310.5065330842276,305.2478477472464L1311.1787247335333,305.5218483328452L1311.874402729114,305.79164595575895L1312.6999070130996,306.053592123962L1313.4014048498,306.3101774146185L1314.1150598232323,306.5578035291004L1314.9695172080176,306.79587216248154L1315.6729874594907,307.03183707579404L1316.3450877932976,307.2620229169773L1317.0388846896044,307.4850729014145L1317.7195199786931,307.7038148478369L1318.3473383833123,307.9186698308549L1319.0360703132892,308.1284316605981L1319.7346704048296,308.33212590247814L1320.538496389415,308.53256983413985L1321.2018060845433,308.72844178532347L1321.9161733188657,308.91982644790045L1322.6326895112584,309.106437200247L1323.3197960253578,309.28893352663147L1324.012704117477,309.46779303161867L1324.809748404356,309.6427358115763L1325.4762176157408,309.8139158530061L1326.1557753819445,309.9817873850428L1326.843222807239,310.14577276401053L1327.580187583649,310.30632115550435L1328.2674036763467,310.4635051362722L1329.113417421349,310.61753275886036L1329.7582874734323,310.7683823001128L1330.4251949992108,310.9162965807453L1331.1070721790825,311.06130529245024L1331.8556705500316,311.20338585757196L1332.685600591856,311.3427242281531L1333.3813699029356,311.479286182814L1334.0316701833437,311.6130049351899L1334.7598808472749,311.74427169988405L1335.4468777827756,311.87306945972733L1336.2587760574495,311.9994408870473L1336.9963374284512,312.1234136053575L1337.6434538418034,312.24509158694883L1338.323084660406,312.3645294732916L1339.0036955986952,312.48176919917813L1339.7589660887522,312.59690437243506L1340.5268746438342,312.70996392732894L1341.2205497861428,312.8209803252268L1341.8776804658564,312.9300183706628L1342.558766244739,313.03715383586416L1343.288279676452,313.14240014785923L1344.158315485322,313.24581378601744" style="fill: none;" fill="none"></path></g><g><path stroke="rgb(238, 51, 119)" stroke-width="2px" d="M1099.8352184474957,131.1381174127261L1100.4984185640258,160.472893111617L1101.1805940411932,180.95378871395803L1101.8811056705072,195.33553818029256L1102.5473009353955,203.7160718596681L1103.2340056613004,213.91796956265L1103.9399840451388,222.0931158658392L1104.625148582965,228.63860014320784L1105.2820235792824,234.49869570072173L1105.9746455495056,239.82323962651634L1106.66499680766,243.90426620108838L1107.320520334596,247.05490959270904L1107.991220497422,250.21263235545473L1108.6701086166352,253.34248655393023L1109.3699566866583,256.080034226869L1110.0606732068077,258.1254337536838L1110.7451315714436,260.37149874383215L1111.4210732438974,262.52969367739627L1112.0989568926243,264.3853441769426L1112.7884741358903,266.4820025308705L1113.4911347232744,268.2811917709451L1114.1768471540931,269.9813960765924L1114.865639961069,271.5064802841283L1115.5382699247684,272.9952285732515L1116.245033621896,274.2118258572798L1116.9284266390468,275.46335900962157L1117.60150709254,276.72623169491817L1118.3067427769888,277.83820679699505L1118.9744173529566,278.990652015648L1119.6882671327862,279.9020777805468L1120.4016907736216,280.97589160067633L1121.069858453283,281.9911894480493L1121.762029933712,282.9534426924902L1122.4361148576916,283.88740930950024L1123.1216994468118,284.6148161147927L1123.787699905303,285.4844925563185L1124.4878097464225,286.34304982073485L1125.1676901607218,287.1756992860955L1125.8607991469382,288.0052568137047L1126.5301295772833,288.8125721999837L1127.2082628217067,289.5701746332163L1128.0756565688132,290.3058235360416L1128.5886853038194,291.0207287818745L1129.2624901936028,291.67908331369694L1130.1205332336385,292.2905534329766L1130.7860345007366,292.91196013630247L1131.4654461621424,293.49325962931056L1132.1689164136153,294.06880673722617L1132.84624608165,294.62963384251213L1133.5303696227904,295.16888172911285L1134.187658582702,295.6889885451313L1134.8613965077864,296.17461276369244L1135.5544567924032,296.6545998840809L1136.2348303103956,297.12513061550766L1136.9192947627314,297.5867636716234L1137.626642879051,298.02921748355635L1138.2883454214016,298.43595261164495L1138.972103700547,298.8610465103063L1139.6243581326282,299.27821424929874L1140.3049812463173,299.6765488147033L1140.9583436397832,300.05488885462074L1141.6531206557765,300.4253502946929L1142.3280274192443,300.79232631163677L1142.9904604855851,301.144238937802L1143.70826118266,301.47177107972715L1144.3772872280092,301.81013555502193L1145.067626310764,302.1369530030205L1145.7445298398043,302.4563228222221L1146.436524776936,302.7642910069532L1147.107011870265,303.0672871157897L1147.7715938946758,303.3646398858659L1148.4538424242423,303.64840158362944L1149.125382689657,303.92907408739813L1149.8039298976746,304.2025598539916L1150.4702956181607,304.46926561599247L1151.1501455939606,304.7324806729824L1151.8305434627525,304.9889299440131L1152.5095046343645,305.23752904030295L1153.1903286421507,305.48211360919004L1153.8702394949496,305.7220766484058L1154.5391620494004,305.9549802155478L1155.2048094212962,306.18221413683347L1155.9136064101956,306.4043343017607L1156.6372512991898,306.62141306466276L1157.3444776615108,306.8348883748143L1158.0445022748318,307.04356592374995L1158.742091808186,307.24815393637186L1159.426105770728,307.4468642198132L1160.1570071980218,307.6418903503082L1160.8710943981482,307.833926098362L1161.5577017208545,308.02174157200596L1162.4394380889626,308.2060081530052L1163.1137117316393,308.38644972680004L1163.8343858230744,308.5632375341801L1164.5280853161828,308.7363649334685L1165.222990173874,308.90586494257906L1165.9184185737586,309.07190418420134L1166.6152593200231,309.23481785902527L1167.3054218594802,309.3946441836535L1168.0136039906881,309.5514184000466L1168.7247325686553,309.7051681254314L1169.4230648013993,309.855867658113L1170.1293536579335,310.0037531446847L1170.8131545509784,310.1488115827756L1171.5246544786405,310.29108018782324L1172.240543637942,310.43080734192L1172.9209780329336,310.5679579119918L1173.6558182020729,310.70261611079303L1174.3596719786406,310.8348611607722L1175.0779718671085,310.96474460131753L1175.7461821606692,311.0923082468824L1176.4313832246949,311.21763631436073L1177.1087189804293,311.34074054465253L1177.8150808893624,311.461725151503L1178.4776904990006,311.5806409206366L1179.1255617871423,311.69750197822646L1179.8298721412036,311.81238685849195L1180.4966213867845,311.92533716149376L1181.1660248695287,312.03640462146643L1181.8354466153723,312.14561781709045L1182.5377906423612,312.25303106743235L1183.2166239722749,312.3586854954716L1183.9012223540087,312.4626547887469" style="fill: none;" fill="none"></path></g><g><path stroke="rgb(51, 187, 238)" stroke-width="2px" d="M1010.9656114315026,182.46871047549777L1011.8324694610163,205.85735570946275L1012.6162669128788,219.0498588018351L1013.4340337302715,227.55026865276497L1014.204079068024,233.55586551114706L1015.0165556741897,239.57599713420038L1015.8264084816919,245.7979117028862L1016.8493125231481,250.9901803452559L1017.6680594602273,255.8314870769889L1018.4949760905934,259.6169558366694L1019.2837289301874,262.5196121176988L1020.1097445809659,265.177345026112L1020.9443012747265,267.920552018818L1021.910778425663,269.686545131617L1022.7463517653093,271.6258951268586L1023.5566794134049,273.6757094735218L1024.4745584559132,275.57558547933394L1025.3336607557344,277.37188066035947L1026.3076196898674,279.0081979802441L1027.1699910845434,279.8981070023926L1028.0050287065974,281.3312521532948L1028.825541076652,282.73478041448294L1029.706632148569,284.12025937219994L1030.525470401147,285.271550482931L1031.330118225221,286.45441650342116L1032.219458130524,287.4201461593716L1033.341823013205,288.3181030764403L1034.2004626478324,289.273070933725L1035.0040512121213,290.1155508773167L1035.8354362142256,290.9858527161503L1036.592392997159,291.8386505049703L1037.3748694181397,292.5235015759107L1038.2410273621633,293.3281913515678L1039.0215496314709,294.05502523661823L1039.8174920446654,294.7390871931864L1040.5328089601746,295.40454783256973L1041.3057581307871,296.0744693840904L1042.0114625681292,296.7304044461664L1042.8921092379524,297.35821024330073L1043.5707355860688,297.9438871799847L1044.2658717763575,298.51444683280386L1044.9860284132997,299.06432106780824L1045.742851266835,299.6098860567703L1046.446765920402,300.10982413066347L1047.271594469697,300.596338287406L1048.0012722693077,301.01734886638866L1048.7371412597329,301.4775395185385L1049.4304267892467,301.91809136257035L1050.1581321740846,302.32146005919003L1051.0616138062921,302.72119023788457L1051.7653945304608,303.1139067713523L1052.4905126428346,303.49770160189314L1053.1775278414352,303.8631408366077L1053.9417046364688,304.2256640701945L1054.8839101278409,304.5811944447016L1055.5858280158354,304.92058759762983L1056.3210577977693,305.25613348906234L1057.0560927733059,305.57434538785424L1057.7889848784723,305.8816889900297L1058.5295535732323,306.1825123072999L1059.4057075205178,306.47366841008073L1060.1144679832175,306.7572588444489L1060.8339184469696,307.033766506909L1061.5685211958123,307.30442011963686L1062.2508488654778,307.5648527881357L1062.9690026491478,307.81814884100584L1063.903671568024,308.0654545784504L1064.6359488154988,308.3057586994926L1065.3553262268517,308.53563053576687L1066.0655720883312,308.76409593775537L1066.7611405053135,308.9864227624824L1067.6641472969277,309.2014263877164L1068.4069136513574,309.4124515795079L1069.1621658783145,309.6171180096642L1069.8605650757577,309.8169620762542L1070.5926840430345,310.0122984083046L1071.332570915404,310.2025629196871L1072.0968268505367,310.3881639910332L1073.0153146630366,310.5695330887824L1073.7369262602588,310.7466460674445L1074.5304701196865,310.9199525744314L1075.273260824916,311.08855648954807L1076.1765293876263,311.25360055681006L1077.1051166942866,311.4151441260966L1077.8122334780091,311.5732082167908L1078.51514974879,311.727699643992L1079.2244641921823,311.87867710442214L1080.0606402141202,312.0261880499375L1080.725228326231,312.17075289332655L1081.4523310287775,312.3121531688039L1082.1374712158038,312.4504777272172L1082.819677131471,312.58593856439427L1083.6455345020518,312.71852251252506L1084.3622881147412,312.84836988194087L1085.0630371643517,312.97546680394885L1085.7317953509048,313.0999874707492L1086.417836517519,313.22198173231345L1087.0854015148884,313.3415040933392L1087.9143575247263,313.4586543810262L1088.5980914530724,313.57349470209067L1089.3050743073968,313.6861111753493L1090.0219740248842,313.7965092257161L1090.8853255392467,313.9047866605901L1091.5683898206019,314.0110076831594L1092.2524950986426,314.1152395409986L1092.8795403653723,314.21751659098254L1093.5531139225589,314.31788224941977L1094.4107308236007,314.41638633117276L1095.1118877491058,314.51310465060925L1095.821129140099,314.608067849417L1096.5099219470749,314.7013259690985L1097.3475285784932,314.7929189213892L1098.022386640362,314.8828947568338L1098.7070946006945,314.9712957142612" style="fill: none;" fill="none"></path></g><g><path stroke="rgb(0, 119, 187)" stroke-width="2px" d="M846.4601255984322,162.70025286409592L847.116824051452,192.47947186730033L847.7893200857534,206.49887291518723L848.4621752943498,220.47272923136708L849.1343182420559,231.50620524191984L849.8118488041877,239.73352819267015L850.4885818776304,245.94611315399203L851.0141208359638,250.7329681056396L851.8448727172769,254.8465861961535L852.5342499434449,257.99938718306066L853.2083774813236,260.92288085287396L853.8899076623001,264.1336253437734L854.5486028808922,266.95183715172186L855.2299382554713,269.35886791779956L855.9201007949284,271.9896518329978L856.5874831613006,274.02824137487755L857.3023252362163,275.7553763937964L857.9639242876684,277.6201311956289L858.6160934919507,279.45419157364165L859.2869762857745,280.99286388454465L859.9597645296717,282.52206758580104L860.6521916934976,283.7828828959577L861.350195190446,284.91522030148656L862.071325859375,285.97887810386476L862.7495747700967,287.17349069781113L863.4121843797349,288.1355330441807L864.1008554327126,289.24092674808486L864.7742524466014,290.2674477597092L865.4606527875106,291.22966356239334L866.1279560137837,292.1515551636311L866.8212963325968,293.01266694977926L867.4739829913722,293.8255233815052L868.1879971390994,294.6235569224565L868.8752071440972,295.3807934765286L869.5712686647728,296.12643757846973L870.2523240051557,296.7820649924597L870.9182879374473,297.3540987747556L871.7753021561974,297.9643088605144L872.2937854703283,298.561039846217L872.9826026281039,299.1419796584133L873.6669270633417,299.7170738717744L874.3902553919403,300.25569462671444L875.2761861852904,300.75679260416837L875.9907299629105,301.22861686491063L876.6916007665193,301.7046498052302L877.4018892418982,302.16553891326765L878.0791275944339,302.60892159685073L878.8081540101535,303.0213872590732L879.5422149537037,303.4318215021171L880.236626707702,303.8218292756045L880.9421728648464,304.20149453994014L881.6404442205913,304.5595758225885L882.359273738952,304.89790932996704L883.0748646009575,305.23974382491895L883.7833937310605,305.5815530760933L884.4646073516415,305.9032361426832L885.1735260945392,306.2139841680134L885.8778303609007,306.51645005262793L886.5830477822495,306.8070740580722L887.2940059046191,307.0854412508501L887.9903535471907,307.36303617848375L888.6635922808816,307.63407137027946L889.5437458470119,307.8942366749358L890.2536934111953,308.14567578639736L890.9788419620685,308.3936852819049L891.7027242713594,308.6320478817866L892.4017261510943,308.86507314387234L893.0890457346907,309.0903244675757L893.8011057307449,309.3072307834891L894.500521574074,309.52363395857316L895.1836345570287,309.73456673754345L895.8786124671192,309.93858961200954L896.6173609396044,310.1350032704672L897.3011983588489,310.33071260641026L898.0143906670876,310.51966138363696L898.6921830003157,310.7063901066992L899.377621484638,310.8883796696815L900.1076401954441,311.06377841183286L900.8021067387416,311.2355162151388L901.4850431783987,311.40442797089617L902.1860418237059,311.56892403048107L903.0494968289668,311.7299174416835L903.7455522619424,311.887515528356L904.4202581313131,312.04067212934643L905.153247639678,312.1909855908173L905.8677731541983,312.33766875508434L906.5803993063446,312.4811633797105L907.2859028495897,312.6210253868632L908.0019685521886,312.7586326508989L908.7696457746739,312.8925591383235L909.4680084459175,313.02422321003496L910.1490394355008,313.1530129600508L910.8085808443814,313.2791217009191L911.4826048913616,313.40267506069875L912.1447274850063,313.523752163937L912.812931690867,313.64234881135167L913.5433887160668,313.75853370486317L914.1904259893203,313.87239852699565L914.8696306689288,313.98400576212794L915.5528227919823,314.09341911369796L916.2392109574917,314.200680300622L916.9132045659723,314.30589845374647L917.5836977470012,314.409084437919L918.4375524494949,314.5103218044756L919.1515970357218,314.60962444527223L919.796479263205,314.7070775281994L920.491487611795,314.80272296128237L921.167770195444,314.8966315234812L921.8639352070181,314.98882024600226L922.5507555992214,315.0793526389585L923.2537144839016,315.16825892656146L923.9220647945602,315.25558800765515L924.7967637815657,315.34137832059116L925.4691685003681,315.42566916801053L926.1423646201598,315.50850592191273L926.6492873921507,315.58991624373226L927.5189640267257,315.6699364683338L928.2307926901831,315.7486025450444L928.9071300631313,315.82594704438117L929.5691613412774,315.9020092044227L930.2449629966329,315.97681330685214L930.9166737176453,316.05039084494" style="fill: none;" fill="none"></path></g><g><path stroke="rgb(255, 112, 67)" stroke-width="2px" d="M764.5794659446022,172.19555026955075L765.1939766372053,206.09958731689332L765.8695226091645,220.49439199613607L766.5975810805976,230.13638527709796L767.2865139046718,237.97517575640916L767.9453978419613,244.9831363909589L768.6207733583227,250.91418764287192L769.4569189417613,256.29522143574513L770.1461561508313,260.4717346258985L770.8283985926978,264.42735648071675L771.5064405216225,267.8171842819523L772.1741272729904,270.4214151242476L772.8633157804609,273.1182180859887L773.6726389580703,275.5964901469065L774.4302653879945,277.69811601728463L775.1021952662037,279.80944988499425L775.7653345057344,281.8382365503867L776.6117865651305,283.55402973352255L777.2706278885207,285.2501053580825L777.9331766211595,286.63807656733144L778.7056205126788,288.0563238714423L779.3568156849748,289.43862427098213L780.0538816761365,290.6831858251174L780.874114011995,291.7473767185884L781.5265693381733,292.8167453386931L782.2632297295876,293.8522178605345L782.9572153445918,294.8195779104226L783.8149357365319,295.7283100993523L784.5298143376474,296.590919218546L785.174075619739,297.4171433638037L785.9192831418351,298.21411043598584L786.7362646459386,298.9380256104017L787.4352847887732,299.63187136774457L788.1234870888574,300.32019710070944L788.8256484848484,300.9407683069776L789.7019789754314,301.53260324508517L790.3811410411406,302.1043562595781L791.054787650726,302.650151638917L791.7577039215067,303.179558231582L792.4585016727168,303.68999275271506L793.3092394728535,304.16391999149374L794.0275393613216,304.62429148228347L794.6848526720328,305.0664181193471L795.4017523895202,305.4807889729771L796.0883049229273,305.8863130996309L796.7708700128894,306.27238431873354L797.5805888909932,306.64549922374135L798.2378108862058,307.00665045602756L798.9317356242109,307.3531258677309L799.627821495686,307.6898553052222L800.3405754895308,308.0107684319428L801.1819321440972,308.32382812421713L801.8788094165615,308.6260538124816L802.5988686503052,308.9145746599018L803.2935178246003,309.192786268631L804.011397661774,309.4658664720062L804.6825726651936,309.7277176062762L805.3746406547243,309.9828158850557L806.1434562770938,310.2307451374049L806.8574095478219,310.46817810347665L807.5684955118898,310.7002194168562L808.2561316558819,310.9230062712267L808.9478526465172,311.1400221226929L809.6537092763574,311.34996496359406L810.4230788794191,311.5514174579242L811.1207901667718,311.75032922059467L811.7720401283669,311.94217642196105L812.5094675699705,312.1291174547995L813.1801677327967,312.31130977570626L813.9005191761364,312.4879683008981L814.714462917982,312.6602114611201L815.3741017300609,312.8277219267058L816.0979657762522,312.99096694820776L816.782351088489,313.1500752870964L817.4428908801558,313.3051601823912L818.3355181434133,313.4557985136326L819.0585725255155,313.6029605898688L819.6974096669823,313.7450073386329L820.3673610427189,313.8848103888726L821.0216792050715,314.0210929444L821.7078847395833,314.15423798137397L822.3847395670243,314.2838927754101L823.0227061674032,314.4106608914499L823.8309031205282,314.53461736276734L824.5048845536089,314.6554249419393L825.1994180616057,314.7736362736717L825.911837231955,314.88922898531587L826.606401178451,315.0021803960765L827.2668861808187,315.1126339652155L827.9383473061342,315.22067196575387L828.8308649907934,315.32635212170146L829.5451165588173,315.4297393483462L830.2620406271044,315.5309598488905L830.9530615322496,315.6299979974748L831.7916482833544,315.72700252561333L832.4602664528094,315.82201063549854L833.1622878317024,315.91506238462813L834.0579285064184,316.00622929246026L834.7489554992634,316.0955644777443L835.4052947779882,316.18312677943095L836.1062264585964,316.2689564439958L836.7506886347853,316.35311849606006L837.4325475515573,316.43564764409615L838.1652874642256,316.5165950859958L839.0020600807554,316.59600361999736L839.6870054613846,316.6739151412445L840.3678842584701,316.75037424062816L841.0954618016099,316.8254148610881L841.917824832439,316.8990831430445L842.6047061016413,316.9714198071163L843.2868267895097,317.0424491306389L844.0077504766414,317.1122097946701L844.6536615254104,317.1807370395537L845.4959922119634,317.2480613352717" style="fill: none;" fill="none"></path></g><g><path stroke="rgb(0, 153, 136)" stroke-width="2px" d="M601.4737675670771,223.85137889120315L602.3430302380577,246.9255121796111L603.0424217305872,253.4203809915405L603.7542808325442,262.6355650696625L604.4346117366373,269.99981022268423L605.1182726125842,274.1742489051144L605.8327007239058,277.0396474389733L606.4840602640993,280.9763050705553L607.1910065922243,284.0738108558943L607.9057269131418,285.5554935834316L608.5993898800506,287.7861582870928L609.3060135600799,289.7941277095702L610.0221888412774,291.705499350716L610.7059714712226,293.20833466851496L611.3886826659827,294.74394515503974L612.0837153653724,296.07310434067006L612.7763921248948,297.2495301987023L613.4665668397517,298.3566011307139L614.1689108667402,299.35423240531793L614.8379795259891,300.33554184602724L615.5424542479483,301.17828069600415L616.2569736747685,301.8658385847623L617.0146731570918,302.61677496915934L617.677483660827,303.2452021388611L618.3862197727273,303.8793347873506L619.085233827862,304.54440085623463L619.7903538460122,305.12878688081315L620.6491700239372,305.72566192330214L621.3783668952547,306.2671504740486L622.0430037089646,306.77438726703826L622.7821904958439,307.2745195212899L623.4599950044718,307.7058761722246L624.1685484853746,308.14771907011584L624.8752878317024,308.5785814607902L625.6055865767046,308.9652669713337L626.2885169286616,309.3517635103363L626.9808040753893,309.72703508028803L627.6871477212227,310.0721410534125L628.3800436379419,310.409253221318L629.0883049092487,310.73878300437184L629.7954156052714,311.032078802239L630.4867469831124,311.330028211229L631.1769764872686,311.6184115364619L631.8782795175715,311.8852939101303L632.5962019686448,312.1255738259334L633.306240848327,312.3817168478288L633.9725639549138,312.6179184321187L634.6836255681818,312.8522801604708L635.365904536248,313.0824639140191L636.0869012757786,313.3003581577463L636.974993202599,313.5129397104894L637.6572782583648,313.7066502961764L638.3376396009575,313.90103638263037L639.0329888607429,314.0926549682177L639.7416093063447,314.27592315221534L640.4461570807028,314.4536665931972L641.1629106933923,314.62794571803545L641.8626978864163,314.79553959733516L642.5740517092803,314.95605148024026L643.2633376199495,315.10505564957606L643.9830985563973,315.25725373753767L644.7013436555661,315.4043703285773L645.3769322414246,315.5479571804813L646.0851691619318,315.68562987965265L646.7919145959596,315.8211051399127L647.4741205116267,315.94250113380485L648.2050767282198,316.07000901149223L649.0481683772622,316.1944831724449L649.7410095046822,316.3155248637864L650.2952458804187,316.42974918387193L650.9578615777567,316.544183077715L651.6584340840699,316.6539276981881L652.3650151502,316.76252045149005L653.1970028345959,316.8679187230069L653.8931069691708,316.97072305347274L654.6245745525567,317.07089493807666L655.2815652151726,317.1689191311035L655.9915493055555,317.2635377372531L656.6837207859849,317.356661698767L657.3768297722012,317.447062611776L658.09072825363,317.5359047441248L658.7736890440867,317.6227528047918L659.4846167279567,317.707515644612L660.196524531513,317.79030758132717L660.8853599523885,317.87132803477317L661.5711880495054,317.95044296881224L662.2455225691814,318.02378618796627L662.9502590622369,318.09899824913555L663.6698678061869,318.1727058935971L664.3738676875525,318.24492184233225L665.2511539470223,318.31556371228294L665.9634270125737,318.38479003460276L666.6266453922033,318.45256065783155L667.3351684346065,318.5189239611368L668.0285574550189,318.583935676269L668.7113660529777,318.6476074416647L669.3908994683817,318.7100144117098L670.1075252393729,318.7711801290909L670.8090352514731,318.83107051639047L671.5088102690972,318.88981731506317L672.1770692642572,318.9474164214702L672.8690033243897,319.0039114756306L673.552645937237,319.0593270760357L674.2729547666771,319.1136674902684L674.994310680503,319.1669920343677L675.7022432160143,319.2193202256775L676.624511490162,319.2706817146931L677.34136859375,319.3210983039162L678.0239032452125,319.3705915841487L678.7079902601536,319.4191904441914L679.4050866898149,319.4669209550767L680.1255355363531,319.51380113298796L680.8011484730114,319.55985149104276L681.485917310343,319.6050979750637L682.1625773313867,319.64956252849856L682.8521371885522,319.69326423290545L683.5612507378472,319.7362208481937L684.392392231955,319.7784500783909L685.0513187831439,319.8199696498709L685.7358989017782,319.860798016461L686.4071713083964,319.9009502294726" style="fill: none;" fill="none"></path></g><g><path stroke="rgb(238, 51, 119)" stroke-width="2px" d="M519.4061972627314,202.5359946489334L520.039336317077,231.26055036213967L520.7313312542087,247.17224229307624L521.4805749213489,256.2220428352861L522.2880048242845,262.3109484157917L522.9368805829124,268.7377769131196L523.6300626215278,273.27578078442633L524.3857166366793,277.25261280304676L525.2976540840699,280.7782622520552L526.0002842329545,283.86423341490416L526.8782949287142,286.2224459813094L527.5572317495265,288.53436738105995L528.2537437599958,290.414780785508L528.9693102712016,292.1156657670859L529.6050548611111,293.45903318999984L530.3176323116583,294.84681383610774L531.0174195046823,296.00118346121974L531.8491697687815,297.2759224652702L532.5725528866793,298.335524112764L533.2358138802083,299.4120438763494L534.1254338197075,300.3776835599933L534.833646389415,301.30555571485326L535.4951115114688,302.127357099805L536.1827354800611,302.8845007683974L537.0923717768834,303.64461399975113L537.7931695280935,304.300247764082L538.4920557415298,304.9731461508431L539.1719300681292,305.5618773851652L539.9926250691814,306.07993176084324L540.7188633183396,306.63016619578536L541.4457955652883,307.1572752468548L542.2942017763573,307.6406917017479L542.9932280068919,308.11987007471856L543.7301258186027,308.52677348432763L544.4298399592277,308.94867671591834L545.2878829992635,309.3508537840004L545.9976235816498,309.72499958690986L546.658845195707,310.09149125574896L547.385832231955,310.44049248700696L548.0554305210964,310.7617837667593L548.9034897332702,311.0763151605924L549.5843137410565,311.38317722907635L550.2746223853114,311.6790783619812L550.9098069068287,311.95169431916474L551.5741454232428,312.2206477333146L552.2682406168456,312.46804980911213L553.1889260890151,312.7046038044443L553.8217364075653,312.9404302672268L554.5372481294719,313.16697917369714L555.206858594013,313.38281531955676L555.939768962279,313.5962480779002L556.7710139472854,313.8030348786204L557.4454336947601,313.9989289181717L558.1790928501158,314.1840948079074L558.8818691037984,314.36855334745866L559.5406921640888,314.5385422084859L560.2827097314289,314.7098540448546L561.0778242174348,314.8758448638691L561.7850140535564,315.036717320583L562.4857570154671,315.1942610796849L563.3757239538616,315.3408372300069L564.0788837326388,315.48583620918663L564.7491760195707,315.6281307262959L565.465071266572,315.76738471185763L566.3270591361531,315.9017350422937L566.9515962705176,316.03171418540217L567.6866068952546,316.15911745411665L568.3592185958544,316.2829016058487L569.0853290033144,316.4001970746057L569.945405335122,316.51584471384496L570.600210513468,316.6292838465149L571.3286829484954,316.740212489889L572.1777466311553,316.8477248289504L572.8705329692762,316.95205977742006L573.5587474447601,317.0546082646855L574.2526721827652,317.15418265784166L575.1378237505261,317.2515636819924L575.7971399145097,317.34661674212373L576.518307109638,317.439218200879L577.15387515625,317.52965902631803L577.9135044394466,317.61788994260354L578.668945385101,317.7039763851354L579.4406770157302,317.7880916479254L580.1286723340172,317.87017788330513L581.0065186618792,317.9504046955018L581.711456049032,318.02871348749716L582.4485791056397,318.10529206805666L583.1228649237164,318.1802164940436L584.020764135101,318.25346228714767L584.6734264430767,318.3251120064716L585.4231388631102,318.3951869271439L586.3145790248842,318.46374623851614L586.9980450944339,318.5308660656762L587.6390798955703,318.5965700739446L588.3749610613952,318.66090286857235L589.0345024702757,318.7239051228788L589.8989923845223,318.7856187206897L590.6499101691394,318.8460768440491L591.3235750418245,318.90531708781776L592.0258460164141,318.96338508698284L592.8980125202546,319.02030234758485L593.5805106455177,319.07611789552595L594.3276540561868,319.1308545494906L594.929222298769,319.1845408411021L595.6660896719802,319.2372112451693L596.3809013083965,319.288888662682L597.0722996509364,319.33960184860825L597.9387254537563,319.38937906092724L598.5928122835122,319.43824333117146L599.2750181991793,319.48621982736904L600.002741847117,319.53333341201693L600.6804367771465,319.5796048299171" style="fill: none;" fill="none"></path></g><g><path stroke="rgb(204, 51, 17)" stroke-width="2px" d="M353.57439033670033,208.31352170970706L354.4376566232639,223.30193333948404L355.1151506591961,233.14804959402764L355.8608634603851,241.36380399651722L356.5543864101957,247.31269286501308L357.26546019886365,252.2170864507145L357.9461746280513,255.89932224583745L358.6460166103746,259.4685375032585L359.34842151436237,262.7310775280059L360.0191399402883,265.88884623093406L360.8838855379314,268.24193170566866L361.59837452625214,270.6544138959527L362.2992088036616,273.142727056848L362.9962747948232,275.26730272606886L363.6728069741688,277.17602994785375L364.373878671875,278.67696877294185L365.09618426688763,280.2871566835347L365.7832359916877,281.71333417726885L366.5432853261784,283.10942516252203L367.26979143413297,284.5638112858604L367.9922553093435,285.8227699888986L368.6932722177504,287.110401208831L369.48562288799457,288.3558714384431L370.3701291595644,289.5547361879824L371.1019620049453,290.5817989641721L371.8094805768624,291.6036000577625L372.59693064867423,292.390342065588L373.30222721012206,293.2677584910882L374.01081721722437,294.1627416301358L374.70723182449495,294.96982022463635L375.4150608691077,295.74981925986145L376.1149941669297,296.48220384681923L376.7882694268203,297.21304110023874L377.52380359375,297.91517303024443L378.2128399087227,298.59234173824615L378.89419963410137,299.2078143953247L379.5711214262416,299.83197184658127L380.45483629682235,300.33388430345855L381.1274479974221,300.8889245160074L381.8423326862374,301.42140702123703L382.550027801452,301.900260214123L383.2813614554398,302.3961163486167L383.9491273469066,302.848852049499L384.6402152167508,303.30848408356593L385.3241865653935,303.7332334975064L385.9817190333018,304.1517185128445L386.69964148437504,304.56033837771565L387.36636637915615,304.9564930696545L388.0253598950442,305.32135450899386L388.7511720052083,305.68247552566396L389.4604681855008,306.0317457088347L390.5215481931292,306.3581856655039L391.2815305629209,306.68967809186546L392.1446020430871,306.99876115930846L392.9007856881313,307.30840175140446L393.696277611532,307.6027926470021L394.55111243371215,307.893317800604L395.2792500452441,308.169359997098L396.0587069670665,308.4424240226646L396.8018081449916,308.7069337896635L397.60098921454124,308.9623568192798L398.3783702306924,309.20934165471266L399.16461493792093,309.44792944607184L400.0115722764099,309.6833259834185L400.78393094013046,309.91165874603854L401.8781158599011,310.1329930774539L402.7149676165299,310.3486842076027L403.4639677756734,310.5554725654636L404.2404904261364,310.7417764143095L404.9285648845223,310.9387319250839L405.7926469228746,311.1302614580121L406.5180633325442,311.31778090051114L407.20350181686655,311.5001945500905L407.8878079890046,311.67823610906953L408.5929462702547,311.85182145294544L409.3115079298191,312.01895522164455L410.1883376117951,312.1834709704631L410.8595247906145,312.3445760118653L411.57288146675086,312.49873063858456L412.26805418323863,312.6521840483201L412.9593003332807,312.8016805943217L413.6267131381524,312.947586491824L414.3498710111532,313.0898953327113L415.0787878482744,313.2289705963071L415.9520257873001,313.3650673224066L416.67644990188336,313.49742491855005L417.34359484795874,313.6274204680339L418.06274092671504,313.75452663340707L418.81944202625215,313.87883263346384L419.64357657775673,314.0004062669677L420.3607076278409,314.11940745259096L421.0829279950547,314.23583650154427L421.7620230960648,314.34974123144866L422.4604649074074,314.4614507056073L423.13230955781773,314.57091454699497L424.00319155697605,314.67812150906127L424.72236198653195,314.7831932839553L425.38539773516413,314.88616254521287L426.0970133291246,314.9870493250847L426.7895439838489,315.0859476789471L427.49731215146255,315.18292110945913L428.1901411034827,315.27795912643944L429.061242259838,315.3712107816868L429.76521779040405,315.4626946949523L430.48348115267254,315.55247689998214L431.1723774505472,315.64058290096614L431.8922662286932,315.7270560365426L432.5794031812921,315.81193931863504L433.30153223300715,315.8952426092491L433.9991704679608,315.9770682985348L434.8732363341751,316.05743291598634L435.5811688696864,316.13637562120715L436.2432792879314,316.2139193024028L436.9357977672559,316.29010981898574L437.669061222117,316.3649781045363L438.37391338147097,316.4385572804233L439.2531720557134,316.51088426312833L439.9548342603115,316.58198586632386" style="fill: none;" fill="none"></path></g><g><path stroke="rgb(255, 112, 67)" stroke-width="2px" d="M129.3954557941393,40.27510530418824L130.16646298847854,100.20790427798642L130.87769505734428,134.8347063357422L131.75558399910565,154.54133173264788L132.45402581044823,168.2350813291186L133.40390180371423,177.8895264206972L134.16510780118898,185.9453967911674L135.02060618265995,192.87887087620624L135.98476391992844,199.3185090113068L137.05674699810606,204.78159287677315L137.92872478324915,210.0717224485778L139.0473092042824,215.08105085290694L139.96035461305766,220.11067064859043L141.11844820654463,224.40128616144708L142.04752252919823,228.39722410260146L143.15713368055555,232.31504315167203L143.84578038273358,235.69675295324308L144.63777187868266,239.20621092265426L145.69952153330178,242.63973914280902L146.50586173795244,245.36571745603433L147.57710820444024,248.27142992358915L148.444410636048,251.07787173599192L149.26259750473486,253.46011059715445L150.31296316051137,255.95537863320214L151.19714069628577,258.2742292267367L152.31406926294193,260.3854866938549L153.20460844512837,262.35804420824786L154.34903515230428,264.27286943390925L155.1296548248106,266.0494470971835L156.06103638573234,267.7569363181136L157.10545435869108,269.36309911586966L157.99961572232743,270.9012586864476L159.14557044218225,272.35349330441505L160.01346338068183,273.72602339319326L160.9251755831755,275.07143696966375L161.8066136539878,276.2989310226009L162.75007929924243,277.50713228680934L163.83394556765572,278.64281150584617L164.69584212173822,279.7321070770409L165.67311885232533,280.8088312516058L166.73106369449704,281.7671222157845L167.6416496725063,282.7318603133185L168.60297662931399,283.65537614100833L169.62185670112584,284.5615121147991L170.7125594565446,285.37292976256504L171.62413772964015,286.20188769314075L172.58328528987795,286.9775101380979L173.58810886258416,287.7451539955656L174.77060195733375,288.4840369901096L175.85969755997473,289.057647341536L176.7966311032197,289.7321767706136L177.92406703993055,290.38498350903234L178.94467601851852,291.0174656345877L179.83673712568392,291.62998117005463L180.9623345770202,292.217113725764L182.12491480534513,292.7802125671234L183.13866294612794,293.33498949640546L184.1205602409512,293.8615113457734L185.4709399239794,294.37992451992693L186.49474494502311,294.8776262340522L187.4389959035669,295.36322768305376L188.60032206570918,295.8328495348121L189.8970021477799,296.29090214698044L190.88839625447181,296.7235175411156L191.88292552662037,297.13479850187684L192.90068546164775,297.5452066860039L194.23921848063975,297.93658778490084L195.29288975747056,298.33013680793755L196.38826177872474,298.7098273491826L197.7925297814078,299.0810478448021L198.83340471301557,299.4424267801776L199.95250050084175,299.7942155171639L201.26616526567759,300.1386179930812L202.3028275089436,300.4720551135445L203.4756655116267,300.79818479692386L204.6113563694234,301.11668273474396L206.06301711595117,301.4216044135192L207.061649497843,301.7143122826385L208.11692792745157,302.0087803482792L209.24977582938763,302.2966722412111L210.40681016308923,302.57753416236545L211.7401808125526,302.8512901387302L213.03904029119317,303.11909465634494L213.9895859314499,303.3808375881156L215.17376531907615,303.63619939441344L216.33049526778197,303.8860050435158L217.7993233280724,304.13044200162574L218.89937070286197,304.3682080942801L220.02470029540194,304.6018847375084L221.68673977562077,304.8305302591166L222.65388048584805,305.05431415300006L223.95821280671296,305.27322039279363L225.03956485506103,305.48740796984043L226.54117517939815,305.6964472340827L227.8269034893203,305.9018603610708L228.92987904776936,306.1032173011424L230.22914640230428,306.3003812649755L231.77747982349536,306.4936505886677L232.85729777146463,306.6830508793077L234.0538899792193,306.86874093396864L235.22124296427822,307.050753399771L236.49281128419614,307.22927862745826L238.1229146906566,307.4043672132038L239.19252965356694,307.5761196483778L240.55986966856062,307.7446231185643L241.65266659275042,307.9099811514706L242.97605950205178,308.0722607717462L244.55299293744739,308.2315397760931" style="fill: none;" fill="none"></path></g></g></g></g><g opacity="0.2"><g><g><g><path stroke="rgb(187, 187, 187)" stroke-width="2px" d="M1262.9662660074705,87.2833855946859L1263.674630769676,181.9975183738603L1264.3831538120792,232.11564840541948L1265.097563660301,243.15787848499085L1265.7965351015362,258.9904044734107L1266.4743152593646,270.9213909672366L1267.2978227777778,276.1104204257329L1267.9718224739584,283.4731852925486L1268.6400266798191,279.3715447684129L1269.3375370730746,288.7378188139862L1270.0419570057345,295.5914883232779L1270.6775250523463,290.1380304743846L1271.34769558528,297.05761067569256L1272.0580327622579,297.5187045087417L1272.8758543689498,302.38682235280675L1273.5725611858165,300.52595197326605L1274.224359040404,303.36484208289124L1274.9156417166455,296.10814378493365L1275.5760841051135,307.0228582951758L1276.2958633046612,308.93749848008156L1276.97216415141,308.48578376902475L1277.683724956071,310.83314322349094L1278.5256112405302,309.25247411347095L1279.1764350631313,312.79183340362374L1279.85924974879,307.24844068288803L1280.563006122159,311.96774881540074L1281.250788370949,315.09980522924L1282.081193253367,316.4204341028299L1282.8090569184028,315.4648665525019L1283.4514431889204,315.7359614016281L1284.1494101596697,316.09460555016994L1284.8085680434554,316.47540575928156L1285.461376456229,317.75183053480254L1286.152835675768,316.8389509825243L1286.8358634309238,317.86352563442455L1287.5213384414456,318.2231994014647L1288.3581232333754,318.800061861467L1289.0259804403408,318.89094250173207L1289.7187850415614,320.37960843803984L1290.4170137834071,319.612212166604L1291.1404516906039,319.09561071648363L1291.7704921056923,321.0197482444346L1292.4526736705598,321.03770840188696L1293.353720222801,319.667862177723L1294.045544704335,319.8405249696225L1294.7179798616373,321.6584014116476L1295.4555838465383,321.95381920370795L1296.10347339778,320.6956189777702L1296.9678172072286,322.2537460147093L1297.5990508115003,321.58369609309983L1298.3178072774622,322.17555053118207L1299.0290636971276,322.4048449844122L1299.6678643123946,322.6140618769245L1300.5203127562079,321.6926913713623L1301.205124207439,322.5221106373808L1301.8909340414564,322.88882686653074L1302.547839476273,323.18849608405594L1303.2423547211702,322.78497004933246L1303.9432803140783,322.8490722991733L1304.6242930405617,323.08447572143956L1305.3210546467278,323.265489622071L1305.9753606336806,323.1193999389911L1306.8263967311132,323.116988777183L1307.551496580387,323.13123413077034L1308.2478746614584,323.1916857862638L1309.140349732218,323.2720856391825L1309.7777501765047,323.54228769273806L1310.5065330842276,323.5918924722096L1311.1787247335333,323.5252049394573L1311.874402729114,323.77064525356724L1312.6999070130996,323.7536080607161L1313.4014048498,323.8869433729754L1314.1150598232323,323.75125785073675L1314.9695172080176,323.5470214449904L1315.6729874594907,323.85408877925425L1316.3450877932976,323.8858223031275L1317.0388846896044,323.8002460772016L1317.7195199786931,323.9063962128582L1318.3473383833123,324.03206278414774L1319.0360703132892,324.05367608544316L1319.7346704048296,323.9847413612167L1320.538496389415,324.1202601275614L1321.2018060845433,324.14103211893234L1321.9161733188657,324.15545895883247L1322.6326895112584,324.13359974924884L1323.3197960253578,324.15239260027494L1324.012704117477,324.1991636626578L1324.809748404356,324.21187303960323L1325.4762176157408,324.22644739614856L1326.1557753819445,324.2693281289798L1326.843222807239,324.25242774725325L1327.580187583649,324.26389006677914L1328.2674036763467,324.27194454878594L1329.113417421349,324.2890320233548L1329.7582874734323,324.2951041899505L1330.4251949992108,324.31431565398174L1331.1070721790825,324.3278679106798L1331.8556705500316,324.33099790039705L1332.685600591856,324.3432944833249L1333.3813699029356,324.34449471737025L1334.0316701833437,324.33134916422813L1334.7598808472749,324.3480512636597L1335.4468777827756,324.3560859870761L1336.2587760574495,324.3612956392624L1336.9963374284512,324.3623443494693L1337.6434538418034,324.36702347051727L1338.323084660406,324.37071591318175L1339.0036955986952,324.3723284750174L1339.7589660887522,324.3773609372632L1340.5268746438342,324.3794247775158L1341.2205497861428,324.3790031900992L1341.8776804658564,324.3796500301687L1342.558766244739,324.38278193790916L1343.288279676452,324.38196273541604L1344.158315485322,324.3819261336305" style="fill: none;" fill="none"></path></g><g><path stroke="rgb(238, 51, 119)" stroke-width="2px" d="M1099.8352184474957,131.1381174127261L1100.4984185640258,189.77833403481375L1101.1805940411932,221.8541577127245L1101.8811056705072,238.39455359511905L1102.5473009353955,237.15448500381578L1103.2340056613004,264.77463349699974L1103.9399840451388,270.9726014567746L1104.625148582965,274.2740826143159L1105.2820235792824,281.16898823115565L1105.9746455495056,287.50516831047L1106.66499680766,284.4907475097312L1107.320520334596,281.5047360211611L1107.991220497422,287.85990398791097L1108.6701086166352,293.7469105422497L1109.3699566866583,294.1195009979937L1110.0606732068077,288.5621204227209L1110.7451315714436,296.0045957399739L1111.4210732438974,298.8905582245853L1112.0989568926243,297.47152788771524L1112.7884741358903,305.92252623289824L1113.4911347232744,303.88952902207774L1114.1768471540931,305.2955452228586L1114.865639961069,304.6751740160916L1115.5382699247684,306.8285421654582L1116.245033621896,303.04796433697146L1116.9284266390468,306.3481749014722L1117.60150709254,309.121325040857L1118.3067427769888,307.4448281360997L1118.9744173529566,310.79540917856826L1119.6882671327862,305.94063029521044L1120.4016907736216,312.69577596543564L1121.069858453283,312.9668345550696L1121.762029933712,313.242687707146L1122.4361148576916,314.18989819991924L1123.1216994468118,308.9185634710723L1123.787699905303,315.38143043923714L1124.4878097464225,316.68592686040535L1125.1676901607218,317.4053401148154L1125.8607991469382,318.9212543041342L1126.5301295772833,319.67606928716935L1127.2082628217067,319.26103785116635L1128.0756565688132,319.8423983767215L1128.5886853038194,320.40992477287847L1129.2624901936028,319.3741553804527L1130.1205332336385,318.598469660307L1130.7860345007366,320.24143824353814L1131.4654461621424,319.6139745290081L1132.1689164136153,320.4801473228468L1132.84624608165,320.90001713484526L1133.5303696227904,320.9418957152714L1134.187658582702,321.04189561783437L1134.8613965077864,320.3081122734066L1135.5544567924032,320.96361288490397L1136.2348303103956,321.40145361889154L1136.9192947627314,321.8413787071283L1137.626642879051,321.6949022561312L1138.2883454214016,320.5757126139684L1138.972103700547,322.40165679301657L1139.6243581326282,322.7735430214347L1140.3049812463173,322.48667491548173L1140.9583436397832,322.07635022596355L1141.6531206557765,322.336762122189L1142.3280274192443,322.84249214558963L1142.9904604855851,322.61971967967435L1143.70826118266,321.76664883788266L1144.3772872280092,323.09327733547735L1145.067626310764,322.9997200081643L1145.7445298398043,323.1423250029588L1146.436524776936,322.99950707807307L1147.107011870265,323.25859484185156L1147.7715938946758,323.4571222660856L1148.4538424242423,323.08682276815586L1149.125382689657,323.41704240198146L1149.8039298976746,323.4457538765855L1150.4702956181607,323.48307320356577L1151.1501455939606,323.7416181608569L1151.8305434627525,323.74712119978443L1152.5095046343645,323.65167937034533L1153.1903286421507,323.82512438524924L1153.8702394949496,323.94021508245106L1154.5391620494004,323.85214776331037L1155.2048094212962,323.8532504201349L1155.9136064101956,323.88231972116046L1156.6372512991898,323.9024857116035L1157.3444776615108,324.0253671950713L1158.0445022748318,324.03936123449563L1158.742091808186,324.098596638974L1159.426105770728,323.99534589352294L1160.1570071980218,324.0621472565302L1160.8710943981482,324.17808249773867L1161.5577017208545,324.178353240002L1162.4394380889626,324.2255613756263L1163.1137117316393,324.238043044849L1163.8343858230744,324.2549319066327L1164.5280853161828,324.26074878138024L1165.222990173874,324.2591110609808L1165.9184185737586,324.2625087359274L1166.6152593200231,324.28731654334115L1167.3054218594802,324.3067847038037L1168.0136039906881,324.32078071436587L1168.7247325686553,324.3287111799388L1169.4230648013993,324.3255142187506L1170.1293536579335,324.3367429053372L1170.8131545509784,324.33865955943475L1171.5246544786405,324.336231637054L1172.240543637942,324.3508528759897L1172.9209780329336,324.35466634297177L1173.6558182020729,324.35977269927713L1174.3596719786406,324.36597440031215L1175.0779718671085,324.3706856202173L1175.7461821606692,324.37308081817014L1176.4313832246949,324.3778154379591L1177.1087189804293,324.3774582371083L1177.8150808893624,324.38202644329675L1178.4776904990006,324.38610244930413L1179.1255617871423,324.3858615986958L1179.8298721412036,324.3884763483463L1180.4966213867845,324.39012754802303L1181.1660248695287,324.3921105893323L1181.8354466153723,324.3920005951238L1182.5377906423612,324.39284220603037L1183.2166239722749,324.39332284495725L1183.9012223540087,324.3973683839027" style="fill: none;" fill="none"></path></g><g><path stroke="rgb(51, 187, 238)" stroke-width="2px" d="M1010.9656114315026,182.46871047549777L1011.8324694610163,229.22261229819725L1012.6162669128788,245.39530066980254L1013.4340337302715,253.00052973959183L1014.204079068024,257.5182570020358L1015.0165556741897,269.5864735874865L1015.8264084816919,282.9989564584361L1016.8493125231481,287.1909677237272L1017.6680594602273,294.38805994888145L1018.4949760905934,293.51628204186756L1019.2837289301874,291.38700681428116L1020.1097445809659,294.23758003446795L1020.9443012747265,300.62584838519496L1021.910778425663,292.48439128200215L1022.7463517653093,298.574043073588L1023.5566794134049,304.1780911261837L1024.4745584559132,305.7165058412486L1025.3336607557344,307.63552587065436L1026.3076196898674,308.18367874456777L1027.1699910845434,296.6383059074481L1028.0050287065974,309.6950922244125L1028.825541076652,311.8868100746638L1029.706632148569,314.2527117269735L1030.525470401147,311.43580771154825L1031.330118225221,314.4910468802684L1032.219458130524,311.25202194270156L1033.341823013205,311.3524108794L1034.2004626478324,314.699334245589L1035.0040512121213,313.36600095240607L1035.8354362142256,315.84953444078565L1036.592392997159,317.02983983481926L1037.3748694181397,313.4175710152421L1038.2410273621633,318.6577456206497L1039.0215496314709,317.63710550136034L1039.8174920446654,317.59461844133006L1040.5328089601746,318.2811424477647L1041.3057581307871,319.7506388214727L1042.0114625681292,320.5443647721161L1042.8921092379524,320.7553126776798L1043.5707355860688,320.3341930463082L1044.2658717763575,320.87499884060685L1044.9860284132997,321.1419744603336L1045.742851266835,322.0376364193443L1046.446765920402,321.14077374235626L1047.271594469697,321.5281439070693L1048.0012722693077,319.53340178252097L1048.7371412597329,322.15622403296743L1049.4304267892467,322.1346203630997L1050.1581321740846,321.2161428740041L1051.0616138062921,321.8260430192782L1051.7653945304608,322.25710096199896L1052.4905126428346,322.5707049667835L1053.1775278414352,322.3708605864603L1053.9417046364688,322.9295032181674L1054.8839101278409,323.26107937247593L1055.5858280158354,323.0738301611402L1056.3210577977693,323.52085908823125L1057.0560927733059,323.1961045341773L1057.7889848784723,323.19160609092154L1058.5295535732323,323.40877986461334L1059.4057075205178,323.4205473918054L1060.1144679832175,323.53057483806174L1060.8339184469696,323.6480397293862L1061.5685211958123,323.82106662702023L1062.2508488654778,323.7020451270251L1062.9690026491478,323.7504827568773L1063.903671568024,323.8525002546764L1064.6359488154988,323.87057188173964L1065.3553262268517,323.63948381117854L1066.0655720883312,323.9887641819142L1066.7611405053135,324.0093122661993L1067.6641472969277,323.9297391108185L1068.4069136513574,324.064589555233L1069.1621658783145,324.0179984447443L1069.8605650757577,324.0641106985923L1070.5926840430345,324.1192998647845L1071.332570915404,324.1196159078067L1072.0968268505367,324.1359453795788L1073.0153146630366,324.17159854039915L1073.7369262602588,324.1931700582952L1074.5304701196865,324.2374626096959L1075.273260824916,324.2001812182652L1076.1765293876263,324.24043496740825L1077.1051166942866,324.27520523555967L1077.8122334780091,324.3016000921489L1078.51514974879,324.31029267984235L1079.2244641921823,324.31360432111734L1080.0606402141202,324.3108173919932L1080.725228326231,324.3424134909744L1081.4523310287775,324.34672611023416L1082.1374712158038,324.34968992241517L1082.819677131471,324.36247492259196L1083.6455345020518,324.3658761798158L1084.3622881147412,324.37362870004205L1085.0630371643517,324.3722844726128L1085.7317953509048,324.3790219336127L1086.417836517519,324.3829974470039L1087.0854015148884,324.384838448362L1087.9143575247263,324.38902868593385L1088.5980914530724,324.3923547743503L1089.3050743073968,324.39736182131224L1090.0219740248842,324.39654720437017L1090.8853255392467,324.3989832267107L1091.5683898206019,324.4017176757673L1092.2524950986426,324.4052977635793L1092.8795403653723,324.406668456779L1093.5531139225589,324.4068820153916L1094.4107308236007,324.4067595953432L1095.1118877491058,324.4091766233517L1095.821129140099,324.40971028234344L1096.5099219470749,324.41051758423987L1097.3475285784932,324.41071390424946L1098.022386640362,324.41132089664785L1098.7070946006945,324.41189344134824" style="fill: none;" fill="none"></path></g><g><path stroke="rgb(0, 119, 187)" stroke-width="2px" d="M846.4601255984322,162.70025286409592L847.116824051452,222.22891165150534L847.7893200857534,234.49563082721497L848.4621752943498,262.31051092346513L849.1343182420559,275.5298848036263L849.8118488041877,280.7468975252575L850.4885818776304,283.09137586090304L851.0141208359638,284.10718855758506L851.8448727172769,287.607785695129L852.5342499434449,286.2330976956421L853.2083774813236,289.99750681221485L853.8899076623001,299.24061038427885L854.5486028808922,300.5513623232643L855.2299382554713,300.432101831668L855.9201007949284,308.54558775822323L856.5874831613006,304.3635916668508L857.3023252362163,303.15581668582223L857.9639242876684,309.0371712918083L858.6160934919507,312.15542417019606L859.2869762857745,309.9370367079973L859.9597645296717,312.7870335533387L860.6521916934976,309.97068853841887L861.350195190446,309.54215724021196L862.071325859375,310.1515795911352L862.7495747700967,315.4885417347153L863.4121843797349,311.8764149314827L864.1008554327126,317.5963838253584L864.7742524466014,317.59883209649064L865.4606527875106,317.7845396184259L866.1279560137837,318.48910649927956L866.8212963325968,318.4494473019408L867.4739829913722,318.6248986754153L868.1879971390994,319.74359012726285L868.8752071440972,319.9492864497006L869.5712686647728,321.03952024338975L870.2523240051557,319.3206220171932L870.9182879374473,317.5707476089398L871.7753021561974,320.1182073375417L872.2937854703283,320.8000444269015L872.9826026281039,321.3511862538548L873.6669270633417,322.2553378441889L874.3902553919403,321.8815166430755L875.2761861852904,321.35653887254495L875.9907299629105,321.076899625154L876.6916007665193,322.18551112701084L877.4018892418982,322.43545026207966L878.0791275944339,322.532339402371L878.8081540101535,321.9490665663034L879.5422149537037,322.65747015467946L880.236626707702,322.4620058077077L880.9421728648464,322.70849708053805L881.6404442205913,322.35472303504747L882.359273738952,322.0328558319145L883.0748646009575,322.8761787246913L883.7833937310605,323.540517870699L884.4646073516415,323.1092130046131L885.1735260945392,323.12889076665874L885.8778303609007,323.26623530230586L886.5830477822495,323.175325767758L887.2940059046191,323.0257871837562L887.9903535471907,323.52058053223624L888.6635922808816,323.6647916148003L889.5437458470119,323.52656098781154L890.2536934111953,323.489756658932L890.9788419620685,323.7611004143643L891.7027242713594,323.62506688598336L892.4017261510943,323.74050828046165L893.0890457346907,323.68014821795646L893.8011057307449,323.5591775341891L894.500521574074,323.944489453376L895.1836345570287,323.9875469394287L895.8786124671192,323.91469208251993L896.6173609396044,323.7726168634577L897.3011983588489,324.1013478043412L898.0143906670876,323.9900703734666L898.6921830003157,324.19175834595484L899.377621484638,324.2001548026585L900.1076401954441,324.05585623462684L900.8021067387416,324.1152673418401L901.4850431783987,324.22831018034935L902.1860418237059,324.2094068511829L903.0494968289668,324.2497049568273L903.7455522619424,324.288447527894L904.4202581313131,324.2330686249382L905.153247639678,324.295244270567L905.8677731541983,324.2843158579005L906.5803993063446,324.2997832460808L907.2859028495897,324.2686554044485L908.0019685521886,324.3444987186619L908.7696457746739,324.2910382166802L909.4680084459175,324.35047464180064L910.1490394355008,324.3495861189958L910.8085808443814,324.35763554922437L911.4826048913616,324.3692772776962L912.1447274850063,324.3807709465748L912.812931690867,324.38478785976054L913.5433887160668,324.3880617307311L914.1904259893203,324.393001460978L914.8696306689288,324.39720131817415L915.5528227919823,324.40101604219916L916.2392109574917,324.40257549839674L916.9132045659723,324.40858066106256L917.5836977470012,324.4098200670447L918.4375524494949,324.4135226103147L919.1515970357218,324.4130566841017L919.796479263205,324.4156510731975L920.491487611795,324.4172342096054L921.167770195444,324.4209230286813L921.8639352070181,324.42143072206414L922.5507555992214,324.4236687055511L923.2537144839016,324.4243771613805L923.9220647945602,324.4256516096478L924.7967637815657,324.4265583167887L925.4691685003681,324.42733618292954L926.1423646201598,324.4287935589778L926.6492873921507,324.4291605683045L927.5189640267257,324.4295008536655L928.2307926901831,324.4299086652488L928.9071300631313,324.4301403181978L929.5691613412774,324.43107312816005L930.2449629966329,324.4311489963083L930.9166737176453,324.43128887627" style="fill: none;" fill="none"></path></g><g><path stroke="rgb(255, 112, 67)" stroke-width="2px" d="M764.5794659446022,172.19555026955075L765.1939766372053,239.96972032719188L765.8695226091645,249.24083133538568L766.5975810805976,259.0045517186324L767.2865139046718,269.2520281175772L767.9453978419613,279.9179602083232L768.6207733583227,286.37615045739545L769.4569189417613,293.81209000117246L770.1461561508313,293.7338359736734L770.8283985926978,299.85042403555576L771.5064405216225,301.5295799697439L772.1741272729904,298.896646797657L772.8633157804609,305.27027235676843L773.6726389580703,307.58940379652717L774.4302653879945,306.90116086353856L775.1021952662037,311.2272763500611L775.7653345057344,314.0242829691205L776.6117865651305,312.4613923413886L777.2706278885207,315.4910746113294L777.9331766211595,312.74739059723083L778.7056205126788,316.12531582928364L779.3568156849748,318.149739936408L780.0538816761365,317.750859082573L780.874114011995,315.9321932411856L781.5265693381733,318.16322771211463L782.2632297295876,319.40517915309306L782.9572153445918,319.6342084587862L783.8149357365319,319.9235369223688L784.5298143376474,320.39688684149746L785.174075619739,321.0215680177013L785.9192831418351,321.7560903381349L786.7362646459386,321.02389882318676L787.4352847887732,321.47234243702974L788.1234870888574,322.65288276235674L788.8256484848484,321.6749787982553L789.7019789754314,321.8781611292313L790.3811410411406,322.3110822810688L791.054787650726,322.4654508371734L791.7577039215067,322.9095134734073L792.4585016727168,323.2037969288003L793.3092394728535,322.73739362963374L794.0275393613216,323.1083766756476L794.6848526720328,323.2418986676364L795.4017523895202,322.91217297496684L796.0883049229273,323.33360024546795L796.7708700128894,323.2518035522662L797.5805888909932,323.41143171768636L798.2378108862058,323.57955659636195L798.9317356242109,323.5828012543627L799.627821495686,323.7836272376848L800.3405754895308,323.65386409917846L801.1819321440972,323.8815899516663L801.8788094165615,323.932314903941L802.5988686503052,323.80037237165703L803.2935178246003,323.8102738569594L804.011397661774,324.0722046623705L804.6825726651936,323.98102613243583L805.3746406547243,324.1095045612504L806.1434562770938,324.1943831460473L806.8574095478219,324.0644772121838L807.5684955118898,324.20629405875746L808.2561316558819,324.10001739258104L808.9478526465172,324.17966311415915L809.6537092763574,324.16173442409166L810.4230788794191,324.03402060787715L811.1207901667718,324.261888665561L811.7720401283669,324.18896277687355L812.5094675699705,324.2375334054102L813.1801677327967,324.28235471746626L813.9005191761364,324.260286626296L814.714462917982,324.2988878419985L815.3741017300609,324.3026285421284L816.0979657762522,324.32557851089064L816.782351088489,324.3453659012448L817.4428908801558,324.3613681051324L818.3355181434133,324.3347534725844L819.0585725255155,324.3672507769306L819.6974096669823,324.26664729900136L820.3673610427189,324.3695636533246L821.0216792050715,324.36774662430656L821.7078847395833,324.3855928039638L822.3847395670243,324.3666064686517L823.0227061674032,324.3856727707801L823.8309031205282,324.40246789434036L824.5048845536089,324.3836700003885L825.1994180616057,324.4013878347808L825.911837231955,324.40976901811763L826.606401178451,324.4087109420555L827.2668861808187,324.41229025675665L827.9383473061342,324.4157827499212L828.8308649907934,324.4173668689473L829.5451165588173,324.41789754172436L830.2620406271044,324.4230692244269L830.9530615322496,324.4206288776816L831.7916482833544,324.42542655322336L832.4602664528094,324.4278089594364L833.1622878317024,324.4281844036393L834.0579285064184,324.42964593737184L834.7489554992634,324.43072978576515L835.4052947779882,324.4321832151117L836.1062264585964,324.4324428630858L836.7506886347853,324.434066893963L837.4325475515573,324.4343327157589L838.1652874642256,324.4350030722692L839.0020600807554,324.43543443496515L839.6870054613846,324.43569867144106L840.3678842584701,324.43622862348394L841.0954618016099,324.4361026115682L841.917824832439,324.43671018822596L842.6047061016413,324.4376606764611L843.2868267895097,324.4373796174457L844.0077504766414,324.4374869883884L844.6536615254104,324.43776097506185L845.4959922119634,324.4378204920617" style="fill: none;" fill="none"></path></g><g><path stroke="rgb(0, 153, 136)" stroke-width="2px" d="M601.4737675670771,223.85137889120315L602.3430302380577,269.9765713347329L603.0424217305872,266.39064050383035L603.7542808325442,290.2258630510833L604.4346117366373,299.38322198887664L605.1182726125842,294.98390916321017L605.8327007239058,294.1719654616382L606.4840602640993,308.4229022554225L607.1910065922243,308.7426067309247L607.9057269131418,298.8241398996777L608.5993898800506,309.9704860895872L609.3060135600799,311.7497061358558L610.0221888412774,314.4934173445735L610.7059714712226,312.6089813167022L611.3886826659827,316.08194947656654L612.0837153653724,315.8517349387209L612.7763921248948,315.91314718748134L613.4665668397517,317.00832511401836L614.1689108667402,317.14196324969333L614.8379795259891,318.7950863792664L615.5424542479483,317.85719835302893L616.2569736747685,316.1467822040949L617.0146731570918,318.9487118046317L617.677483660827,317.5268464287122L618.3862197727273,318.909729073445L619.085233827862,320.9566253785872L619.7903538460122,320.11940314537947L620.6491700239372,321.61761250450377L621.3783668952547,321.2109513456623L622.0430037089646,321.26565181132815L622.7821904958439,322.0481580930452L623.4599950044718,320.8661035562141L624.1685484853746,322.0557914715674L624.8752878317024,322.557884970059L625.6055865767046,321.885007185758L626.2885169286616,322.6383865195223L626.9808040753893,322.9897719709616L627.6871477212227,322.60133857217926L628.3800436379419,322.9727688185974L629.0883049092487,323.3366371667944L629.7954156052714,322.5265052122995L630.4867469831124,323.29280690031334L631.1769764872686,323.47362467863906L631.8782795175715,323.1122639009522L632.5962019686448,322.46338706774014L633.306240848327,323.64689160655774L633.9725639549138,323.23164563522573L634.6836255681818,323.6069296802291L635.365904536248,323.8647805609637L636.0869012757786,323.7144766561687L636.974993202599,323.87535025016405L637.6572782583648,323.3332589907675L638.3376396009575,323.7457461718522L639.0329888607429,323.97892671727783L639.7416093063447,323.9049980034017L640.4461570807028,323.96069338609874L641.1629106933923,324.1144585143775L641.8626978864163,324.0764589678211L642.5740517092803,323.99625068116524L643.2633376199495,323.63759133007585L643.9830985563973,324.116015595177L644.7013436555661,324.1057677325767L645.3769322414246,324.1755343241514L646.0851691619318,324.0871113267753L646.7919145959596,324.2155602003267L647.4741205116267,323.5783149920301L648.2050767282198,324.20962077274453L649.0481683772622,324.25683787881604L649.7410095046822,324.26863463078104L650.2952458804187,324.04152481195825L650.9578615777567,324.276618175435L651.6584340840699,324.17172228535895L652.3650151502,324.3024543856154L653.1970028345959,324.2840245544276L653.8931069691708,324.2997801536371L654.6245745525567,324.3052118066892L655.2815652151726,324.3389787421135L655.9915493055555,324.27209594869055L656.6837207859849,324.3406420755006L657.3768297722012,324.3103543634707L658.09072825363,324.3628612714949L658.7736890440867,324.3765650107202L659.4846167279567,324.3772553279511L660.196524531513,324.38115715974067L660.8853599523885,324.3956440691788L661.5711880495054,324.3939786141628L662.2455225691814,324.0645394859732L662.9502590622369,324.3626167913963L663.6698678061869,324.3785330560382L664.3738676875525,324.391218938674L665.2511539470223,324.3924499142061L665.9634270125737,324.4031073485449L666.6266453922033,324.40613519024436L667.3351684346065,324.40933398683325L668.0285574550189,324.41355493048223L668.7113660529777,324.4149716444372L669.3908994683817,324.41950569800815L670.1075252393729,324.42262026386743L670.8090352514731,324.41897271770154L671.5088102690972,324.42422708196113L672.1770692642572,324.4258197834036L672.8690033243897,324.428370673207L673.552645937237,324.4301802381637L674.2729547666771,324.4293335562988L674.994310680503,324.43133898979187L675.7022432160143,324.43241434798136L676.624511490162,324.4336633433422L677.34136859375,324.43439448496065L678.0239032452125,324.43466906400823L678.7079902601536,324.43532990417225L679.4050866898149,324.43618987941386L680.1255355363531,324.43649363971014L680.8011484730114,324.4365768170024L681.485917310343,324.43710281570424L682.1625773313867,324.4377342953582L682.8521371885522,324.43824047202725L683.5612507378472,324.4385475320612L684.392392231955,324.43871648409186L685.0513187831439,324.43881676535665L685.7358989017782,324.43899758847596L686.4071713083964,324.43894047933304" style="fill: none;" fill="none"></path></g><g><path stroke="rgb(238, 51, 119)" stroke-width="2px" d="M519.4061972627314,202.5359946489334L520.039336317077,259.95638151963556L520.7313312542087,278.947906990846L521.4805749213489,283.3171818488174L522.2880048242845,286.60574254062436L522.9368805829124,300.7756454125047L523.6300626215278,300.4086646023724L524.3857166366793,304.9793080613017L525.2976540840699,308.8568301747243L526.0002842329545,311.4994748474823L526.8782949287142,309.67525828215815L527.5572317495265,313.8134234460692L528.2537437599958,312.8336058494945L528.9693102712016,314.07300741722185L529.6050548611111,312.12573293389545L530.3176323116583,315.4977644876474L531.0174195046823,314.31488542507094L531.8491697687815,318.752486763729L532.5725528866793,317.2281845452057L533.2358138802083,319.6626026628332L534.1254338197075,319.4889714403285L534.833646389415,320.57795465923846L535.4951115114688,320.00051997912425L536.1827354800611,320.0913579389453L537.0923717768834,321.6610362680836L537.7931695280935,320.47970578798817L538.4920557415298,322.2342733454166L539.1719300681292,321.23699699218076L539.9926250691814,320.3770049309565L540.7188633183396,322.3498317806257L541.4457955652883,322.72779392906364L542.2942017763573,322.3892077006813L542.9932280068919,323.20316673127104L543.7301258186027,321.72872934076526L544.4298399592277,323.04509356928367L545.2878829992635,323.17652761884443L545.9976235816498,322.9479499515664L546.658845195707,323.3971042136869L547.385832231955,323.4470903788072L548.0554305210964,323.04468168411404L548.9034897332702,323.40297645734L549.5843137410565,323.70380248486373L550.2746223853114,323.84334270273234L550.9098069068287,323.419859594562L551.5741454232428,323.7921107785466L552.2682406168456,323.34879759957806L553.1889260890151,323.3341666111826L553.8217364075653,323.7622951363058L554.5372481294719,323.7790315358952L555.206858594013,323.69856832329083L555.939768962279,324.0001511260764L556.7710139472854,324.07947695678257L557.4454336947601,323.920009197124L558.1790928501158,323.7374494523586L558.8818691037984,324.0601705476486L559.5406921640888,323.63079701886613L560.2827097314289,324.03484881622717L561.0778242174348,324.06799086557135L561.7850140535564,324.0972244202082L562.4857570154671,324.2158055892732L563.3757239538616,323.8723715423193L564.0788837326388,324.0619847734019L564.7491760195707,324.1780564834416L565.465071266572,324.265364218154L566.3270591361531,324.2264860634977L566.9515962705176,324.20740854240853L567.6866068952546,324.2920513814897L568.3592185958544,324.30056350975065L569.0853290033144,324.1071592614107L569.945405335122,324.2224686722814L570.600210513468,324.29450174179186L571.3286829484954,324.3391157538927L572.1777466311553,324.3126422288414L572.8705329692762,324.2933473396503L573.5587474447601,324.3654259636888L574.2526721827652,324.3453492705076L575.1378237505261,324.3745781805774L575.7971399145097,324.38735568570945L576.518307109638,324.38401264786893L577.15387515625,324.3959809537369L577.9135044394466,324.397878377438L578.668945385101,324.39856071864295L579.4406770157302,324.40687539083433L580.1286723340172,324.40484842384143L581.0065186618792,324.41081135753643L581.711456049032,324.406592691909L582.4485791056397,324.41251880840963L583.1228649237164,324.4198809386055L584.020764135101,324.4204037991262L584.6734264430767,324.4232173356593L585.4231388631102,324.4233019647476L586.3145790248842,324.4240757322202L586.9980450944339,324.42726888096837L587.6390798955703,324.42846104013574L588.3749610613952,324.4296431252547L589.0345024702757,324.43062526677545L589.8989923845223,324.4316747412409L590.6499101691394,324.43213843959614L591.3235750418245,324.4325594966055L592.0258460164141,324.43384660972794L592.8980125202546,324.43385355149684L593.5805106455177,324.43533326218835L594.3276540561868,324.4359045513213L594.929222298769,324.43621958811895L595.6660896719802,324.43697968156107L596.3809013083965,324.43715071317155L597.0722996509364,324.4374144760432L597.9387254537563,324.4378290567733L598.5928122835122,324.4379614616082L599.2750181991793,324.4381218990909L600.002741847117,324.43837355849814L600.6804367771465,324.43837397972555" style="fill: none;" fill="none"></path></g><g><path stroke="rgb(204, 51, 17)" stroke-width="2px" d="M353.57439033670033,208.31352170970706L354.4376566232639,238.27535655763413L355.1151506591961,252.81075360046495L355.8608634603851,265.96180553237593L356.5543864101957,271.04881890945967L357.26546019886365,276.6655864897702L357.9461746280513,277.9155388143327L358.6460166103746,284.3533059044017L359.34842151436237,288.7142199277878L360.0191399402883,294.16704323556684L360.8838855379314,291.64375423557226L361.59837452625214,297.03302371833064L362.2992088036616,302.80910644266345L362.9962747948232,302.6942212631305L363.6728069741688,303.69866056574716L364.373878671875,301.01177629083395L365.09618426688763,305.8322688026561L365.7832359916877,305.74130582312745L366.5432853261784,308.00167875571384L367.26979143413297,311.9224652420316L367.9922553093435,310.73922962778147L368.6932722177504,313.855187582473L369.48562288799457,315.4433072627419L370.3701291595644,316.8001525704231L371.1019620049453,314.9255360662937L371.8094805768624,316.8191835160057L372.59693064867423,312.57177530063524L373.30222721012206,316.629195107768L374.01081721722437,318.86215548651916L374.70723182449495,318.02727501218516L375.4150608691077,318.79057245018583L376.1149941669297,318.82646972520484L376.7882694268203,320.2179088546998L377.52380359375,320.69579989752833L378.2128399087227,321.21755926041965L378.89419963410137,320.3659680703034L379.5711214262416,321.8907599808235L380.45483629682235,318.55599808610145L381.1274479974221,321.57419497302425L381.8423326862374,321.77810098303274L382.550027801452,320.66678474967676L383.2813614554398,322.3049230775278L383.9491273469066,321.46046292088516L384.6402152167508,322.6438751113083L385.3241865653935,322.00767021522756L385.9817190333018,322.5566970939851L386.69964148437504,322.92168759792634L387.36636637915615,323.1356765795499L388.0253598950442,322.4122721370723L388.7511720052083,322.9420276622598L389.4604681855008,323.05712246698226L390.5215481931292,322.58089086247816L391.2815305629209,323.47815711516887L392.1446020430871,322.94543558240144L392.9007856881313,323.57719633003904L393.696277611532,323.34898342947577L394.55111243371215,323.7074354688068L395.2792500452441,323.45586914181087L396.0587069670665,323.82167907250636L396.8018081449916,323.8537517265003L397.60098921454124,323.8293753385854L398.3783702306924,323.81757306271334L399.16461493792093,323.78374465611864L400.0115722764099,324.0484081902671L400.78393094013046,324.0598442594314L401.8781158599011,324.05493317559984L402.7149676165299,324.1175751310463L403.4639677756734,323.94942579609864L404.2404904261364,322.98297152207755L404.9285648845223,324.0636177253004L405.7926469228746,324.0721411138333L406.5180633325442,324.1633549590026L407.20350181686655,324.16574381272466L407.8878079890046,324.2057190058727L408.5929462702547,324.2269508979128L409.3115079298191,324.08919476037323L410.1883376117951,324.21710970345885L410.8595247906145,324.2778955435238L411.57288146675086,324.0598033258639L412.26805418323863,324.3024593193614L412.9593003332807,324.2895455696594L413.6267131381524,324.2940808625685L414.3498710111532,324.28776134769174L415.0787878482744,324.30038864504445L415.9520257873001,324.3244981149392L416.67644990188336,324.27732253259614L417.34359484795874,324.3342186332706L418.06274092671504,324.33985725578776L418.81944202625215,324.34479660833154L419.64357657775673,324.3475343416342L420.3607076278409,324.3563485674127L421.0829279950547,324.3578094401649L421.7620230960648,324.35614617169546L422.4604649074074,324.3767890594447L423.13230955781773,324.3865687886298L424.00319155697605,324.38888720663573L424.72236198653195,324.3960038844428L425.38539773516413,324.4000641331513L426.0970133291246,324.40000330230555L426.7895439838489,324.40294925031293L427.49731215146255,324.40632058342294L428.1901411034827,324.4031799619552L429.061242259838,324.40911606102924L429.76521779040405,324.4117971300229L430.48348115267254,324.4160253031441L431.1723774505472,324.417971615783L431.8922662286932,324.41954566076066L432.5794031812921,324.420878734147L433.30153223300715,324.41870914884527L433.9991704679608,324.42272049091116L434.8732363341751,324.42426974027416L435.5811688696864,324.4258207719233L436.2432792879314,324.425782356868L436.9357977672559,324.4267187269765L437.669061222117,324.42718009272033L438.37391338147097,324.4275235236394L439.2531720557134,324.42829345506556L439.9548342603115,324.4285038164808" style="fill: none;" fill="none"></path></g><g><path stroke="rgb(255, 112, 67)" stroke-width="2px" d="M129.3954557941393,40.27510530418824L130.16646298847854,160.08077045281732L130.87769505734428,203.9844646718767L131.75558399910565,213.5430469777849L132.45402581044823,222.8732790880733L133.40390180371423,226.01712814635704L134.16510780118898,234.1117274098926L135.02060618265995,241.2194399866793L135.98476391992844,250.60432723826835L137.05674699810606,253.70416331622337L137.92872478324915,262.6829321682453L139.0473092042824,269.85414720243875L139.96035461305766,280.0752327342828L141.11844820654463,279.7903993146287L142.04752252919823,283.9225945042239L143.15713368055555,290.6143774671687L143.84578038273358,289.3464887804455L144.63777187868266,298.33290234208107L145.69952153330178,303.85942760027115L146.50586173795244,296.6444639778799L147.57710820444024,305.7793269223637L148.444410636048,309.36916320274275L149.26259750473486,305.2708570410808L150.31296316051137,312.6628734978537L151.19714069628577,313.2362924392025L152.31406926294193,312.48622253951095L153.20460844512837,312.95790716591813L154.34903515230428,315.2555805403326L155.1296548248106,315.0787807669904L156.06103638573234,316.53825176879764L157.10545435869108,316.808286783182L157.99961572232743,317.8288524949716L159.14557044218225,318.06608551078375L160.01346338068183,318.2576768907408L160.9251755831755,320.0237132122533L161.8066136539878,318.49659408442676L162.75007929924243,320.20702420837347L163.83394556765572,319.8740574458821L164.69584212173822,320.3280368643916L165.67311885232533,321.9717695408811L166.73106369449704,319.3230812417136L167.6416496725063,321.4664508360956L168.60297662931399,321.6203901326905L169.62185670112584,322.68003319027935L170.7125594565446,320.28339689700965L171.62413772964015,322.65947254736807L172.58328528987795,321.8301342986524L173.58810886258416,322.97164213041674L174.77060195733375,323.0949523540524L175.85969755997473,316.4729937476416L176.7966311032197,322.6125032853128L177.92406703993055,322.82675741447343L178.94467601851852,323.0496089147507L179.83673712568392,323.2317958666115L180.9623345770202,323.06558509253796L182.12491480534513,322.89888103828866L183.13866294612794,323.5330894905039L184.1205602409512,323.01894150493257L185.4709399239794,323.57750340261396L186.49474494502311,323.3778866828006L187.4389959035669,323.6278902162384L188.60032206570918,323.60922970291637L189.8970021477799,323.8135074199333L190.88839625447181,323.1238876177101L191.88292552662037,322.61900525436636L192.90068546164775,323.3599012192442L194.23921848063975,322.9208495692971L195.29288975747056,323.8208233390469L196.38826177872474,323.657599629498L197.7925297814078,323.8187492299928L198.83340471301557,323.86123374052755L199.95250050084175,323.8926674626095L201.26616526567759,324.0515572657912L202.3028275089436,323.9335876215612L203.4756655116267,324.0484025719343L204.6113563694234,324.1182965438606L206.06301711595117,323.7253494992749L207.061649497843,323.3956730968526L208.11692792745157,324.0928837151862L209.24977582938763,324.1535981103597L210.40681016308923,324.1599981940171L211.7401808125526,324.14015301509704L213.03904029119317,324.1918480268214L213.9895859314499,324.2175079204996L215.17376531907615,324.19966277362414L216.33049526778197,324.2314887875303L217.7993233280724,324.26295565305435L218.89937070286197,324.1692357954L220.02470029540194,324.27632787523584L221.68673977562077,324.29054331946344L222.65388048584805,324.3050681024842L223.95821280671296,324.3042358928424L225.03956485506103,324.3035504680463L226.54117517939815,324.25078248459613L227.8269034893203,324.3213147274542L228.92987904776936,324.34205206457085L230.22914640230428,324.3385256046895L231.77747982349536,324.35087616374307L232.85729777146463,324.35450616147136L234.0538899792193,324.3622022859118L235.22124296427822,324.36244045128757L236.49281128419614,324.370651933827L238.1229146906566,324.3738681755753L239.19252965356694,324.3772170324034L240.55986966856062,324.37975324932876L241.65266659275042,324.38345305720253L242.97605950205178,324.3850023655816L244.55299293744739,324.385760781491" style="fill: none;" fill="none"></path></g></g></g></g></g><g><g opacity="0.429272"><span fill="rgb(0, 0, 0)" stroke="none" stroke-width="1px">Alt + Scroll to Zoom</span></g></g></g><g transform="translate(51, 365)" clip-path="url(#clip_1)"><clipPath id="clip_1"><rect width="1446" height="35"></rect></clipPath><g><g visibility="inherit"><g><g transform="translate(0,0)" style="visibility: inherit;"><text transform="translate(3,14)" style="text-anchor: start; font-family: Roboto, sans-serif; font-size: 12px; font-weight: 200;" fill="rgb(33, 33, 33)" stroke="none" stroke-width="1px">06 PM</text></g><g transform="translate(65.7471590909091,0)" style="visibility: inherit;"><text transform="translate(3,14)" style="text-anchor: start; font-family: Roboto, sans-serif; font-size: 12px; font-weight: 200;" fill="rgb(33, 33, 33)" stroke="none" stroke-width="1px">09 PM</text></g><g transform="translate(131.4943181818182,0)" style="visibility: inherit;"><text transform="translate(3,14)" style="text-anchor: start; font-family: Roboto, sans-serif; font-size: 12px; font-weight: 200;" fill="rgb(33, 33, 33)" stroke="none" stroke-width="1px">12 AM</text></g><g transform="translate(197.24147727272725,0)" style="visibility: inherit;"><text transform="translate(3,14)" style="text-anchor: start; font-family: Roboto, sans-serif; font-size: 12px; font-weight: 200;" fill="rgb(33, 33, 33)" stroke="none" stroke-width="1px">03 AM</text></g><g transform="translate(262.9886363636364,0)" style="visibility: inherit;"><text transform="translate(3,14)" style="text-anchor: start; font-family: Roboto, sans-serif; font-size: 12px; font-weight: 200;" fill="rgb(33, 33, 33)" stroke="none" stroke-width="1px">06 AM</text></g><g transform="translate(328.73579545454544,0)" style="visibility: inherit;"><text transform="translate(3,14)" style="text-anchor: start; font-family: Roboto, sans-serif; font-size: 12px; font-weight: 200;" fill="rgb(33, 33, 33)" stroke="none" stroke-width="1px">09 AM</text></g><g transform="translate(394.4829545454545,0)" style="visibility: inherit;"><text transform="translate(3,14)" style="text-anchor: start; font-family: Roboto, sans-serif; font-size: 12px; font-weight: 200;" fill="rgb(33, 33, 33)" stroke="none" stroke-width="1px">12 PM</text></g><g transform="translate(460.2301136363636,0)" style="visibility: inherit;"><text transform="translate(3,14)" style="text-anchor: start; font-family: Roboto, sans-serif; font-size: 12px; font-weight: 200;" fill="rgb(33, 33, 33)" stroke="none" stroke-width="1px">03 PM</text></g><g transform="translate(525.9772727272727,0)" style="visibility: inherit;"><text transform="translate(3,14)" style="text-anchor: start; font-family: Roboto, sans-serif; font-size: 12px; font-weight: 200;" fill="rgb(33, 33, 33)" stroke="none" stroke-width="1px">06 PM</text></g><g transform="translate(591.7244318181819,0)" style="visibility: inherit;"><text transform="translate(3,14)" style="text-anchor: start; font-family: Roboto, sans-serif; font-size: 12px; font-weight: 200;" fill="rgb(33, 33, 33)" stroke="none" stroke-width="1px">09 PM</text></g><g transform="translate(657.4715909090909,0)" style="visibility: inherit;"><text transform="translate(3,14)" style="text-anchor: start; font-family: Roboto, sans-serif; font-size: 12px; font-weight: 200;" fill="rgb(33, 33, 33)" stroke="none" stroke-width="1px">12 AM</text></g><g transform="translate(723.21875,0)" style="visibility: inherit;"><text transform="translate(3,14)" style="text-anchor: start; font-family: Roboto, sans-serif; font-size: 12px; font-weight: 200;" fill="rgb(33, 33, 33)" stroke="none" stroke-width="1px">03 AM</text></g><g transform="translate(788.965909090909,0)" style="visibility: inherit;"><text transform="translate(3,14)" style="text-anchor: start; font-family: Roboto, sans-serif; font-size: 12px; font-weight: 200;" fill="rgb(33, 33, 33)" stroke="none" stroke-width="1px">06 AM</text></g><g transform="translate(854.7130681818182,0)" style="visibility: inherit;"><text transform="translate(3,14)" style="text-anchor: start; font-family: Roboto, sans-serif; font-size: 12px; font-weight: 200;" fill="rgb(33, 33, 33)" stroke="none" stroke-width="1px">09 AM</text></g><g transform="translate(920.4602272727273,0)" style="visibility: inherit;"><text transform="translate(3,14)" style="text-anchor: start; font-family: Roboto, sans-serif; font-size: 12px; font-weight: 200;" fill="rgb(33, 33, 33)" stroke="none" stroke-width="1px">12 PM</text></g><g transform="translate(986.2073863636363,0)" style="visibility: inherit;"><text transform="translate(3,14)" style="text-anchor: start; font-family: Roboto, sans-serif; font-size: 12px; font-weight: 200;" fill="rgb(33, 33, 33)" stroke="none" stroke-width="1px">03 PM</text></g><g transform="translate(1051.9545454545455,0)" style="visibility: inherit;"><text transform="translate(3,14)" style="text-anchor: start; font-family: Roboto, sans-serif; font-size: 12px; font-weight: 200;" fill="rgb(33, 33, 33)" stroke="none" stroke-width="1px">06 PM</text></g><g transform="translate(1117.7017045454545,0)" style="visibility: inherit;"><text transform="translate(3,14)" style="text-anchor: start; font-family: Roboto, sans-serif; font-size: 12px; font-weight: 200;" fill="rgb(33, 33, 33)" stroke="none" stroke-width="1px">09 PM</text></g><g transform="translate(1183.4488636363637,0)" style="visibility: inherit;"><text transform="translate(3,14)" style="text-anchor: start; font-family: Roboto, sans-serif; font-size: 12px; font-weight: 200;" fill="rgb(33, 33, 33)" stroke="none" stroke-width="1px">12 AM</text></g><g transform="translate(1249.1960227272727,0)" style="visibility: inherit;"><text transform="translate(3,14)" style="text-anchor: start; font-family: Roboto, sans-serif; font-size: 12px; font-weight: 200;" fill="rgb(33, 33, 33)" stroke="none" stroke-width="1px">03 AM</text></g><g transform="translate(1314.9431818181818,0)" style="visibility: inherit;"><text transform="translate(3,14)" style="text-anchor: start; font-family: Roboto, sans-serif; font-size: 12px; font-weight: 200;" fill="rgb(33, 33, 33)" stroke="none" stroke-width="1px">06 AM</text></g><g transform="translate(1380.690340909091,0)" style="visibility: inherit;"><text transform="translate(3,14)" style="text-anchor: start; font-family: Roboto, sans-serif; font-size: 12px; font-weight: 200;" fill="rgb(33, 33, 33)" stroke="none" stroke-width="1px">09 AM</text></g><g transform="translate(1446.4375,0)" style="visibility: hidden;"><text transform="translate(3,14)" style="text-anchor: start; font-family: Roboto, sans-serif; font-size: 12px; font-weight: 200;" fill="rgb(33, 33, 33)" stroke="none" stroke-width="1px">12 PM</text></g></g><g><line x1="0" y1="0" x2="0" y2="17" fill="rgb(0, 0, 0)" stroke="rgb(204, 204, 204)" stroke-width="1px"></line><line x1="65.7471590909091" y1="0" x2="65.7471590909091" y2="17" fill="rgb(0, 0, 0)" stroke="rgb(204, 204, 204)" stroke-width="1px"></line><line x1="131.4943181818182" y1="0" x2="131.4943181818182" y2="17" fill="rgb(0, 0, 0)" stroke="rgb(204, 204, 204)" stroke-width="1px"></line><line x1="197.24147727272725" y1="0" x2="197.24147727272725" y2="17" fill="rgb(0, 0, 0)" stroke="rgb(204, 204, 204)" stroke-width="1px"></line><line x1="262.9886363636364" y1="0" x2="262.9886363636364" y2="17" fill="rgb(0, 0, 0)" stroke="rgb(204, 204, 204)" stroke-width="1px"></line><line x1="328.73579545454544" y1="0" x2="328.73579545454544" y2="17" fill="rgb(0, 0, 0)" stroke="rgb(204, 204, 204)" stroke-width="1px"></line><line x1="394.4829545454545" y1="0" x2="394.4829545454545" y2="17" fill="rgb(0, 0, 0)" stroke="rgb(204, 204, 204)" stroke-width="1px"></line><line x1="460.2301136363636" y1="0" x2="460.2301136363636" y2="17" fill="rgb(0, 0, 0)" stroke="rgb(204, 204, 204)" stroke-width="1px"></line><line x1="525.9772727272727" y1="0" x2="525.9772727272727" y2="17" fill="rgb(0, 0, 0)" stroke="rgb(204, 204, 204)" stroke-width="1px"></line><line x1="591.7244318181819" y1="0" x2="591.7244318181819" y2="17" fill="rgb(0, 0, 0)" stroke="rgb(204, 204, 204)" stroke-width="1px"></line><line x1="657.4715909090909" y1="0" x2="657.4715909090909" y2="17" fill="rgb(0, 0, 0)" stroke="rgb(204, 204, 204)" stroke-width="1px"></line><line x1="723.21875" y1="0" x2="723.21875" y2="17" fill="rgb(0, 0, 0)" stroke="rgb(204, 204, 204)" stroke-width="1px"></line><line x1="788.965909090909" y1="0" x2="788.965909090909" y2="17" fill="rgb(0, 0, 0)" stroke="rgb(204, 204, 204)" stroke-width="1px"></line><line x1="854.7130681818182" y1="0" x2="854.7130681818182" y2="17" fill="rgb(0, 0, 0)" stroke="rgb(204, 204, 204)" stroke-width="1px"></line><line x1="920.4602272727273" y1="0" x2="920.4602272727273" y2="17" fill="rgb(0, 0, 0)" stroke="rgb(204, 204, 204)" stroke-width="1px"></line><line x1="986.2073863636363" y1="0" x2="986.2073863636363" y2="17" fill="rgb(0, 0, 0)" stroke="rgb(204, 204, 204)" stroke-width="1px"></line><line x1="1051.9545454545455" y1="0" x2="1051.9545454545455" y2="17" fill="rgb(0, 0, 0)" stroke="rgb(204, 204, 204)" stroke-width="1px"></line><line x1="1117.7017045454545" y1="0" x2="1117.7017045454545" y2="17" fill="rgb(0, 0, 0)" stroke="rgb(204, 204, 204)" stroke-width="1px"></line><line x1="1183.4488636363637" y1="0" x2="1183.4488636363637" y2="17" fill="rgb(0, 0, 0)" stroke="rgb(204, 204, 204)" stroke-width="1px"></line><line x1="1249.1960227272727" y1="0" x2="1249.1960227272727" y2="17" fill="rgb(0, 0, 0)" stroke="rgb(204, 204, 204)" stroke-width="1px"></line><line x1="1314.9431818181818" y1="0" x2="1314.9431818181818" y2="17" fill="rgb(0, 0, 0)" stroke="rgb(204, 204, 204)" stroke-width="1px"></line><line x1="1380.690340909091" y1="0" x2="1380.690340909091" y2="17" fill="rgb(0, 0, 0)" stroke="rgb(204, 204, 204)" stroke-width="1px"></line><line x1="1446.4375" y1="0" x2="1446.4375" y2="17" fill="rgb(0, 0, 0)" stroke="rgb(204, 204, 204)" stroke-width="1px"></line></g><line x1="0" y1="0" x2="1446.4375" y2="0" style="visibility: inherit;" fill="rgb(0, 0, 0)" stroke="rgb(204, 204, 204)" stroke-width="1px"></line></g><g visibility="inherit"><g><g transform="translate(65.7471590909091,0)" style="visibility: inherit;"><text transform="translate(0,31)" style="text-anchor: middle; font-family: Roboto, sans-serif; font-size: 12px; font-weight: 200;" fill="rgb(33, 33, 33)" stroke="none" stroke-width="1px">October  7, 2022</text></g><g transform="translate(394.4829545454545,0)" style="visibility: inherit;"><text transform="translate(0,31)" style="text-anchor: middle; font-family: Roboto, sans-serif; font-size: 12px; font-weight: 200;" fill="rgb(33, 33, 33)" stroke="none" stroke-width="1px">October  8, 2022</text></g><g transform="translate(920.4602272727273,0)" style="visibility: inherit;"><text transform="translate(0,31)" style="text-anchor: middle; font-family: Roboto, sans-serif; font-size: 12px; font-weight: 200;" fill="rgb(33, 33, 33)" stroke="none" stroke-width="1px">October  9, 2022</text></g><g transform="translate(1314.9431818181818,0)" style="visibility: inherit;"><text transform="translate(0,31)" style="text-anchor: middle; font-family: Roboto, sans-serif; font-size: 12px; font-weight: 200;" fill="rgb(33, 33, 33)" stroke="none" stroke-width="1px">October 10, 2022</text></g></g><g><line x1="0" y1="17" x2="0" y2="34" fill="rgb(0, 0, 0)" stroke="rgb(204, 204, 204)" stroke-width="1px"></line><line x1="131.4943181818182" y1="17" x2="131.4943181818182" y2="34" fill="rgb(0, 0, 0)" stroke="rgb(204, 204, 204)" stroke-width="1px"></line><line x1="657.4715909090909" y1="17" x2="657.4715909090909" y2="34" fill="rgb(0, 0, 0)" stroke="rgb(204, 204, 204)" stroke-width="1px"></line><line x1="1183.4488636363637" y1="17" x2="1183.4488636363637" y2="34" fill="rgb(0, 0, 0)" stroke="rgb(204, 204, 204)" stroke-width="1px"></line><line x1="1446.4375" y1="17" x2="1446.4375" y2="34" fill="rgb(0, 0, 0)" stroke="rgb(204, 204, 204)" stroke-width="1px"></line></g><line x1="0" y1="17" x2="1446.4375" y2="17" style="visibility: inherit;" fill="rgb(0, 0, 0)" stroke="rgb(204, 204, 204)" stroke-width="1px"></line></g></g></g></g></g></svg>