<svg viewBox="0 0 1498 400" xmlns="http://www.w3.org/2000/svg"><g><g><g><g><g><line x1="51.5625" y1="365" x2="46.5625" y2="365" style="visibility: inherit;" fill="rgb(0, 0, 0)" stroke="rgb(204, 204, 204)" stroke-width="1px"></line><line x1="51.5625" y1="338.92857142857144" x2="46.5625" y2="338.92857142857144" style="visibility: inherit;" fill="rgb(0, 0, 0)" stroke="rgb(204, 204, 204)" stroke-width="1px"></line><line x1="51.5625" y1="312.8571428571429" x2="46.5625" y2="312.8571428571429" style="visibility: inherit;" fill="rgb(0, 0, 0)" stroke="rgb(204, 204, 204)" stroke-width="1px"></line><line x1="51.5625" y1="286.7857142857143" x2="46.5625" y2="286.7857142857143" style="visibility: inherit;" fill="rgb(0, 0, 0)" stroke="rgb(204, 204, 204)" stroke-width="1px"></line><line x1="51.5625" y1="260.7142857142857" x2="46.5625" y2="260.7142857142857" style="visibility: inherit;" fill="rgb(0, 0, 0)" stroke="rgb(204, 204, 204)" stroke-width="1px"></line><line x1="51.5625" y1="234.64285714285717" x2="46.5625" y2="234.64285714285717" style="visibility: inherit;" fill="rgb(0, 0, 0)" stroke="rgb(204, 204, 204)" stroke-width="1px"></line><line x1="51.5625" y1="208.5714285714286" x2="46.5625" y2="208.5714285714286" style="visibility: inherit;" fill="rgb(0, 0, 0)" stroke="rgb(204, 204, 204)" stroke-width="1px"></line><line x1="51.5625" y1="182.5" x2="46.5625" y2="182.5" style="visibility: inherit;" fill="rgb(0, 0, 0)" stroke="rgb(204, 204, 204)" stroke-width="1px"></line><line x1="51.5625" y1="156.42857142857147" x2="46.5625" y2="156.42857142857147" style="visibility: inherit;" fill="rgb(0, 0, 0)" stroke="rgb(204, 204, 204)" stroke-width="1px"></line><line x1="51.5625" y1="130.3571428571429" x2="46.5625" y2="130.3571428571429" style="visibility: inherit;" fill="rgb(0, 0, 0)" stroke="rgb(204, 204, 204)" stroke-width="1px"></line><line x1="51.5625" y1="104.28571428571432" x2="46.5625" y2="104.28571428571432" style="visibility: inherit;" fill="rgb(0, 0, 0)" stroke="rgb(204, 204, 204)" stroke-width="1px"></line><line x1="51.5625" y1="78.21428571428572" x2="46.5625" y2="78.21428571428572" style="visibility: inherit;" fill="rgb(0, 0, 0)" stroke="rgb(204, 204, 204)" stroke-width="1px"></line><line x1="51.5625" y1="52.14285714285712" x2="46.5625" y2="52.14285714285712" style="visibility: inherit;" fill="rgb(0, 0, 0)" stroke="rgb(204, 204, 204)" stroke-width="1px"></line><line x1="51.5625" y1="26.0714285714286" x2="46.5625" y2="26.0714285714286" style="visibility: inherit;" fill="rgb(0, 0, 0)" stroke="rgb(204, 204, 204)" stroke-width="1px"></line><line x1="51.5625" y1="0" x2="46.5625" y2="0" style="visibility: inherit;" fill="rgb(0, 0, 0)" stroke="rgb(204, 204, 204)" stroke-width="1px"></line></g><g transform="translate(41.5625, 0)"><text x="0" y="365" dx="0em" dy="0.3em" style="text-anchor: end; visibility: hidden; font-family: Roboto, sans-serif; font-size: 12px; font-weight: 200;" fill="rgb(33, 33, 33)" stroke="none" stroke-width="1px">-0.1</text><text x="0" y="338.92857142857144" dx="0em" dy="0.3em" style="text-anchor: end; visibility: inherit; font-family: Roboto, sans-serif; font-size: 12px; font-weight: 200;" fill="rgb(33, 33, 33)" stroke="none" stroke-width="1px">0</text><text x="0" y="312.8571428571429" dx="0em" dy="0.3em" style="text-anchor: end; visibility: inherit; font-family: Roboto, sans-serif; font-size: 12px; font-weight: 200;" fill="rgb(33, 33, 33)" stroke="none" stroke-width="1px">0.1</text><text x="0" y="286.7857142857143" dx="0em" dy="0.3em" style="text-anchor: end; visibility: inherit; font-family: Roboto, sans-serif; font-size: 12px; font-weight: 200;" fill="rgb(33, 33, 33)" stroke="none" stroke-width="1px">0.2</text><text x="0" y="260.7142857142857" dx="0em" dy="0.3em" style="text-anchor: end; visibility: inherit; font-family: Roboto, sans-serif; font-size: 12px; font-weight: 200;" fill="rgb(33, 33, 33)" stroke="none" stroke-width="1px">0.3</text><text x="0" y="234.64285714285717" dx="0em" dy="0.3em" style="text-anchor: end; visibility: inherit; font-family: Roboto, sans-serif; font-size: 12px; font-weight: 200;" fill="rgb(33, 33, 33)" stroke="none" stroke-width="1px">0.4</text><text x="0" y="208.5714285714286" dx="0em" dy="0.3em" style="text-anchor: end; visibility: inherit; font-family: Roboto, sans-serif; font-size: 12px; font-weight: 200;" fill="rgb(33, 33, 33)" stroke="none" stroke-width="1px">0.5</text><text x="0" y="182.5" dx="0em" dy="0.3em" style="text-anchor: end; visibility: inherit; font-family: Roboto, sans-serif; font-size: 12px; font-weight: 200;" fill="rgb(33, 33, 33)" stroke="none" stroke-width="1px">0.6</text><text x="0" y="156.42857142857147" dx="0em" dy="0.3em" style="text-anchor: end; visibility: inherit; font-family: Roboto, sans-serif; font-size: 12px; font-weight: 200;" fill="rgb(33, 33, 33)" stroke="none" stroke-width="1px">0.7</text><text x="0" y="130.3571428571429" dx="0em" dy="0.3em" style="text-anchor: end; visibility: inherit; font-family: Roboto, sans-serif; font-size: 12px; font-weight: 200;" fill="rgb(33, 33, 33)" stroke="none" stroke-width="1px">0.8</text><text x="0" y="104.28571428571432" dx="0em" dy="0.3em" style="text-anchor: end; visibility: inherit; font-family: Roboto, sans-serif; font-size: 12px; font-weight: 200;" fill="rgb(33, 33, 33)" stroke="none" stroke-width="1px">0.9</text><text x="0" y="78.21428571428572" dx="0em" dy="0.3em" style="text-anchor: end; visibility: inherit; font-family: Roboto, sans-serif; font-size: 12px; font-weight: 200;" fill="rgb(33, 33, 33)" stroke="none" stroke-width="1px">1</text><text x="0" y="52.14285714285712" dx="0em" dy="0.3em" style="text-anchor: end; visibility: inherit; font-family: Roboto, sans-serif; font-size: 12px; font-weight: 200;" fill="rgb(33, 33, 33)" stroke="none" stroke-width="1px">1.1</text><text x="0" y="26.0714285714286" dx="0em" dy="0.3em" style="text-anchor: end; visibility: inherit; font-family: Roboto, sans-serif; font-size: 12px; font-weight: 200;" fill="rgb(33, 33, 33)" stroke="none" stroke-width="1px">1.2</text><text x="0" y="0" dx="0em" dy="0.3em" style="text-anchor: end; visibility: hidden; font-family: Roboto, sans-serif; font-size: 12px; font-weight: 200;" fill="rgb(33, 33, 33)" stroke="none" stroke-width="1px">1.3</text></g><line x1="51.5625" y1="0" x2="51.5625" y2="365" fill="rgb(0, 0, 0)" stroke="rgb(204, 204, 204)" stroke-width="1px"></line></g></g><g transform="translate(51, 0)" clip-path="url(#clip_0)"><clipPath id="clip_0"><rect width="1446" height="365"></rect></clipPath><g><g><g><line x1="0" y1="0" x2="0" y2="365" fill="rgb(0, 0, 0)" stroke="rgb(66, 66, 66)" stroke-width="1px" opacity="0.25"></line><line x1="160.71527777777777" y1="0" x2="160.71527777777777" y2="365" fill="rgb(0, 0, 0)" stroke="rgb(66, 66, 66)" stroke-width="1px" opacity="0.25"></line><line x1="321.43055555555554" y1="0" x2="321.43055555555554" y2="365" fill="rgb(0, 0, 0)" stroke="rgb(66, 66, 66)" stroke-width="1px" opacity="0.25"></line><line x1="482.1458333333333" y1="0" x2="482.1458333333333" y2="365" fill="rgb(0, 0, 0)" stroke="rgb(66, 66, 66)" stroke-width="1px" opacity="0.25"></line><line x1="642.8611111111111" y1="0" x2="642.8611111111111" y2="365" fill="rgb(0, 0, 0)" stroke="rgb(66, 66, 66)" stroke-width="1px" opacity="0.25"></line><line x1="803.5763888888889" y1="0" x2="803.5763888888889" y2="365" fill="rgb(0, 0, 0)" stroke="rgb(66, 66, 66)" stroke-width="1px" opacity="0.25"></line><line x1="964.2916666666666" y1="0" x2="964.2916666666666" y2="365" fill="rgb(0, 0, 0)" stroke="rgb(66, 66, 66)" stroke-width="1px" opacity="0.25"></line><line x1="1125.0069444444446" y1="0" x2="1125.0069444444446" y2="365" fill="rgb(0, 0, 0)" stroke="rgb(66, 66, 66)" stroke-width="1px" opacity="0.25"></line><line x1="1285.7222222222222" y1="0" x2="1285.7222222222222" y2="365" fill="rgb(0, 0, 0)" stroke="rgb(66, 66, 66)" stroke-width="1px" opacity="0.25"></line><line x1="1446.4375" y1="0" x2="1446.4375" y2="365" fill="rgb(0, 0, 0)" stroke="rgb(66, 66, 66)" stroke-width="1px" opacity="0.25"></line></g><g><line x1="0" y1="365" x2="1446.4375" y2="365" fill="rgb(0, 0, 0)" stroke="rgb(66, 66, 66)" stroke-width="1px" opacity="0.25"></line><line x1="0" y1="338.92857142857144" x2="1446.4375" y2="338.92857142857144" fill="rgb(0, 0, 0)" stroke="rgb(66, 66, 66)" stroke-width="1px" opacity="0.25"></line><line x1="0" y1="312.8571428571429" x2="1446.4375" y2="312.8571428571429" fill="rgb(0, 0, 0)" stroke="rgb(66, 66, 66)" stroke-width="1px" opacity="0.25"></line><line x1="0" y1="286.7857142857143" x2="1446.4375" y2="286.7857142857143" fill="rgb(0, 0, 0)" stroke="rgb(66, 66, 66)" stroke-width="1px" opacity="0.25"></line><line x1="0" y1="260.7142857142857" x2="1446.4375" y2="260.7142857142857" fill="rgb(0, 0, 0)" stroke="rgb(66, 66, 66)" stroke-width="1px" opacity="0.25"></line><line x1="0" y1="234.64285714285717" x2="1446.4375" y2="234.64285714285717" fill="rgb(0, 0, 0)" stroke="rgb(66, 66, 66)" stroke-width="1px" opacity="0.25"></line><line x1="0" y1="208.5714285714286" x2="1446.4375" y2="208.5714285714286" fill="rgb(0, 0, 0)" stroke="rgb(66, 66, 66)" stroke-width="1px" opacity="0.25"></line><line x1="0" y1="182.5" x2="1446.4375" y2="182.5" fill="rgb(0, 0, 0)" stroke="rgb(66, 66, 66)" stroke-width="1px" opacity="0.25"></line><line x1="0" y1="156.42857142857147" x2="1446.4375" y2="156.42857142857147" fill="rgb(0, 0, 0)" stroke="rgb(66, 66, 66)" stroke-width="1px" opacity="0.25"></line><line x1="0" y1="130.3571428571429" x2="1446.4375" y2="130.3571428571429" fill="rgb(0, 0, 0)" stroke="rgb(66, 66, 66)" stroke-width="1px" opacity="0.25"></line><line x1="0" y1="104.28571428571432" x2="1446.4375" y2="104.28571428571432" fill="rgb(0, 0, 0)" stroke="rgb(66, 66, 66)" stroke-width="1px" opacity="0.25"></line><line x1="0" y1="78.21428571428572" x2="1446.4375" y2="78.21428571428572" fill="rgb(0, 0, 0)" stroke="rgb(66, 66, 66)" stroke-width="1px" opacity="0.25"></line><line x1="0" y1="52.14285714285712" x2="1446.4375" y2="52.14285714285712" fill="rgb(0, 0, 0)" stroke="rgb(66, 66, 66)" stroke-width="1px" opacity="0.25"></line><line x1="0" y1="26.0714285714286" x2="1446.4375" y2="26.0714285714286" fill="rgb(0, 0, 0)" stroke="rgb(66, 66, 66)" stroke-width="1px" opacity="0.25"></line><line x1="0" y1="0" x2="1446.4375" y2="0" fill="rgb(0, 0, 0)" stroke="rgb(66, 66, 66)" stroke-width="1px" opacity="0.25"></line></g></g></g><g><g><line x1="0" y1="338.92857142857144" x2="1446.4375" y2="338.92857142857144" fill="rgb(0, 0, 0)" stroke="rgb(153, 153, 153)" stroke-width="1.5px"></line></g></g><g><g><line x1="-12389969.337962963" y1="0" x2="-12389969.337962963" y2="365" fill="rgb(0, 0, 0)" stroke="rgb(153, 153, 153)" stroke-width="1.5px"></line></g></g><g><g><g><g><g><path stroke="rgb(187, 187, 187)" stroke-width="2px" d="M1222.1948806757973,34.0072100503104L1223.060659829604,94.92532589484128L1223.9266324369855,136.73204984440335L1224.7998000292566,161.19001796809414L1225.654098457433,179.94416060623757L1226.4824964281122,195.0099509590746L1227.489005617284,206.72716912927038L1228.3127830237268,216.70252176123046L1229.1294770531122,223.8728226595548L1229.98198975598,230.8187189981391L1230.8429474514533,237.30680727259116L1231.6197528417567,242.12601791264476L1232.4388501597866,246.89227316351148L1233.3070400427598,251.02024723192693L1234.306599784272,255.01801230922786L1235.1581303382202,258.36538908523727L1235.9547721604938,261.5353777227273L1236.7996732092336,263.83038200486L1237.6068805729167,266.6290599021524L1238.486610705697,269.27211943012406L1239.3132006295011,271.6355174467091L1240.1828860574203,273.92268286499836L1241.2118581828704,275.92162043021534L1242.007309521605,277.94577095540103L1242.8418608040765,279.51945731673334L1243.702007482639,281.2083874909654L1244.54263023116,282.92329843126413L1245.557569531893,284.5771722956743L1246.4471806780477,286.0740175589979L1247.232319453125,287.4828540666093L1248.0853901951516,288.8158902523959L1248.8910276086676,290.08114367682225L1249.6889045576131,291.3202397701385L1250.5340213814943,292.45134786717284L1251.3688330822401,293.55609628000946L1252.206635872878,294.6125353634175L1253.2293728407922,295.63227214702925L1254.0456427604167,296.60146477502036L1254.8924039396861,297.5709649672911L1255.745794624164,298.46683356737685L1256.6299965107382,299.3024692580469L1257.4000459069573,300.1584256509122L1258.2338233751286,300.9751127747087L1259.3351024945343,301.71377713117556L1260.1806657497427,302.4246493655539L1261.0025309420012,303.15657140715894L1261.904046923547,303.865611148387L1262.6959119306198,304.5106019844361L1263.7523321421681,305.17113490137245L1264.5238398807228,305.7875857417584L1265.402320005787,306.39515405095295L1266.2716334076003,306.9851645926681L1267.0523897151493,307.55811414996975L1268.0942711464763,308.0873144097925L1268.9312629202032,308.61718384346756L1269.7694749395575,309.13677792293674L1270.5723593598893,309.64508649857356L1271.4212113258745,310.1266599220699L1272.2778981616511,310.5933421378501L1273.1102470495755,311.0496585207307L1273.961844568223,311.4949402160198L1274.7615518856096,311.9227307203446L1275.8017071158051,312.3368855404918L1276.6879402649176,312.73838909718006L1277.5390690306713,313.12876897552087L1278.629871894933,313.5089327578849L1279.4089168823946,313.88310246978097L1280.2996515473894,314.24723281788823L1281.1212191187628,314.59951928508667L1281.9714922244727,314.94640194311864L1282.9804419048996,315.28318987366544L1283.8378281497558,315.61308524736666L1284.710073117284,315.9314616802719L1285.7544099209106,316.2375499231906L1286.6142068949332,316.5409333831638L1287.4356628584749,316.8368866075423L1288.2836368428498,317.12366515896156L1289.1155244184029,317.40490480436176L1289.8828580240483,317.6811469253849L1290.72464149402,317.9508407064833L1291.5784860503472,318.2127333031862L1292.560940031507,318.4704469296084L1293.3716518811086,318.7222822954159L1294.2447673897248,318.96834829015773L1295.120509402649,319.2082764003176L1295.960306253215,319.4429145342405L1296.8071939213607,319.6728767549382L1297.7813591608794,319.8978031863124L1298.5959326414609,320.11789181100784L1299.4265032445987,320.33372663791215L1300.2667167644033,320.5445649822993L1301.1674514911265,320.7509843427913L1302.0073822710906,320.95307803235005L1303.0413990705374,321.15111354710615L1303.8295735786394,321.34506295728795L1304.6446827768132,321.5352384609583L1305.4780882188786,321.7216782331504L1306.393041783372,321.9043532454496L1307.4074007233796,322.08350257905397L1308.2577854369213,322.25908223504655L1309.0525968907536,322.4310063452441L1309.9426321466692,322.59977789985095L1310.782295067837,322.76537501964947L1311.7746151813271,322.92785256906075L1312.6760790792182,323.08724606403104L1313.466999139982,323.24368918322L1314.2976590293852,323.3972521799463L1315.1295168428499,323.54798897037193L1316.052625219586,323.6960199074165L1316.9911801202418,323.8413821922801L1317.8390052941745,323.9841175610059L1318.6421650138245,324.1243093337094L1319.4746031880145,324.26205493182533L1320.3662307156635,324.39737161867623L1321.4296078153934,324.53033201059384" style="fill: none;" fill="none"></path></g><g><path stroke="rgb(238, 51, 119)" stroke-width="2px" d="M1022.812489213606,90.39186524493356L1023.6230671338091,128.10800542922186L1024.4568371614582,154.44058548937463L1025.3130180417309,172.93140623180471L1026.1272566988168,183.70637810528757L1026.9665624749227,196.82310372340714L1027.8294249440587,207.33400611322185L1028.6668482680684,215.74962875555295L1029.4696954857895,223.28403732949937L1030.3162334493954,230.12987951980674L1031.159996098251,235.3769136871136L1031.9611915200617,239.42774090491162L1032.780936163516,243.487670171299L1033.6106883092207,247.51176842648178L1034.4660581725823,251.031472577403L1035.310267252765,253.66127196902207L1036.146827476209,256.5490698134985L1036.9729784092078,259.32389187093804L1037.8015028687628,261.70972822749764L1038.6442461660881,264.4054318254049L1039.5030535506687,266.71867513407227L1040.341146521669,268.90465209847594L1041.1830043968623,270.86547465102205L1042.005107685828,272.7795795941805L1042.8689299823172,274.3437761022169L1043.7041881143905,275.9528901552277L1044.5268420019934,277.57658360775196L1045.3887967274304,279.00626588185077L1046.2048434313915,280.4879811629759L1047.0773264956276,281.65981428927444L1047.9492887233152,283.0404320580124L1048.765938109568,284.3458150046348L1049.6119254745372,285.5829977474874L1050.4358070482897,286.78381196935743L1051.2737437683256,287.7190492904478L1052.0877443287038,288.8372047152667L1052.9434341345166,289.9410640552305L1053.7743990853266,291.01161336783707L1054.6215322907021,292.078187331906L1055.4396028166796,293.1161642571219L1056.2684323376416,294.090224528421L1057.3285802507717,295.0360588320535L1057.955615371335,295.9552227195529L1058.77915468107,296.8016785461818L1059.8278739522248,297.587854413827L1060.641264389789,298.38680588953173L1061.4716564203961,299.13419095197065L1062.3314533944188,299.8741800907194L1063.159300766461,300.59524351180136L1063.9954517611882,301.2885622231451L1064.7988049344135,301.95727098659734L1065.6222623984054,302.5816449818903L1066.4693360796039,303.19877127953254L1067.3009037127058,303.80373936279557L1068.1374713766718,304.39726757780153L1069.0020079632845,304.9661367645725L1069.8107555150464,305.4890819292578L1070.6464600784466,306.03563122753667L1071.4436599398791,306.57198974909835L1072.275532634388,307.08413419033286L1073.074086670846,307.57057138451233L1073.9232585792824,308.04687895031947L1074.748144623521,308.51870525781874L1075.5577850379373,308.9711643486026L1076.4350970010287,309.39227710250634L1077.2527955009002,309.82731714217107L1078.0965432687115,310.24751100388346L1078.9238698042052,310.65812934285697L1079.7696413940328,311.05408843751127L1080.589125619213,311.44365486315826L1081.4013925379372,311.82596556754186L1082.235251851852,312.19080203609496L1083.0560232873586,312.5516666837976L1083.8853587638246,312.9032912408463L1084.6998057555297,313.24619864913313L1085.5307335037294,313.5846180081202L1086.3623308989197,313.91433849944536L1087.19217233089,314.23396590896095L1088.0242905626287,314.5484317832443L1088.8552927160495,314.85695569080747L1089.6728647270447,315.1564031342757L1090.4864337371398,315.44856103307166L1091.352741168017,315.73414410226377L1092.237196032343,316.0132453688521L1093.1015838085134,316.2877136247612L1093.9571694470164,316.5560133305356L1094.8097788766718,316.8190550610496L1095.645795942001,317.07453971118844L1096.5391199086935,317.32528759325334L1097.4118931532923,317.572190697894L1098.2510798810442,317.8136677354363L1099.3287576642877,318.05058191100665L1100.1528698942257,318.2825782201715L1101.0336937837576,318.50987682966013L1101.8815487197787,318.7324692001738L1102.7308768791795,318.95039778331596L1103.5808449234826,319.16387680825886L1104.4325391689172,319.37333724731826L1105.276071161587,319.57882823612596L1106.14162709973,319.78039508577416L1107.0107842505788,319.97807330412604L1107.8643014239326,320.17182984614533L1108.7275433596965,320.36196832888027L1109.5633000067514,320.5484720349972L1110.4329110294495,320.73138881291555L1111.3078866685958,320.91103801104003L1112.1395287069188,321.0873744582752L1113.0376666914224,321.2605064281625L1113.8979324183385,321.43053577813566L1114.7758545042439,321.5975287731226L1115.5925559741513,321.76153917456304L1116.4300239412937,321.922675261321L1117.257878753858,322.08095212883904L1118.1212099758873,322.23650376621816L1118.931066165445,322.3893954693899L1119.7229088509516,322.53964540057683L1120.5837326170267,322.68735453234683L1121.3986483616254,322.83257635049193L1122.2168081738685,322.97537737045684L1123.0349903076774,323.11579433625917L1123.893410785108,323.2538970866987L1124.7230959661138,323.3897384941777L1125.5598273215664,323.5234132998174" style="fill: none;" fill="none"></path></g><g><path stroke="rgb(51, 187, 238)" stroke-width="2px" d="M914.1940806385031,156.38834203992576L915.2535737856866,186.45945734073786L916.2115484490741,203.42124703093077L917.2110412258875,214.3503454106978L918.1522077498071,222.07182708576053L919.1452347128987,229.8119963154005L920.1350548109568,237.8116007608537L921.3852708616256,244.4873747296148L922.3859615625,250.7119119561287L923.3966374440587,255.57894321857492L924.3606686924512,259.3109298656127L925.3702433767362,262.72801503357255L926.3902571135546,266.254995452766L927.5715069646991,268.52555802636465L928.5927632687113,271.0190080202468L929.5831637274948,273.6544836088138L930.7050158905607,276.0971813305722L931.7550298125643,278.4067037061765L932.9454240653936,280.51054026031386L933.9994335477753,281.6547090030762L935.0200350858411,283.49732419709335L936.0228835381301,285.30186053290663L937.0997726260289,287.0831906213999L938.100574934735,288.5634220494827L939.0840333863812,290.084249790113L940.1710043817516,291.32590220490636L941.5427836828061,292.48041824113756L942.5922321251287,293.70823405764645L943.574395925926,294.79142255655006L944.5905331507201,295.91038206362185L945.5157025520833,297.0068363635332L946.4720626221707,297.88735916902806L947.5307001093107,298.92196030915864L948.4846717717979,299.85646101850915L949.4574902768132,300.7359692483825L950.3317665068801,301.59156149901827L951.2764821598507,302.45288920811623L952.1390098054914,303.29623428792826L953.2153557352752,304.1034131699581L954.0447879385288,304.856426374266L954.89439883777,305.5900030707479L955.7745902829218,306.2969842300392L956.6995959927983,306.9984249301332L957.5599361249356,307.6412024537102L958.5680599074075,308.26672065523627L959.4598883291538,308.80801997107113L960.3592837618955,309.3996936666924L961.2066327424125,309.96611746616185L962.0960504349922,310.48473436181575L963.2003057632459,310.99867316299446L964.0604822038965,311.50359442031004L964.9467376745756,311.99704491671974L965.7864229173097,312.4668953613527L966.7204167779064,312.93299666167866L967.872001267361,313.39010714318783L968.7299009082434,313.82646976838123L969.6285150861626,314.25788591450873L970.526891167374,314.66701549866974L971.4226481847993,315.0621715586097L972.3277877006173,315.44894439509983L973.3986425250772,315.82328795581816L974.2649053128215,316.1879042285772L975.1442336574074,316.5434140803115L976.0420814615484,316.89139729667596L976.8760375022505,317.2262392990316L977.753781015625,317.5519056527218L978.896154138696,317.86987017229336L979.7911596633875,318.17883261363346L980.6703987217078,318.47438211741456L981.5384769968492,318.7681233485426L982.388616173161,319.05397212319167L983.4922911406893,319.33040535563543L984.4001166849923,319.60172345936735L985.3232027401621,319.86486601242535L986.1768017592593,320.12180838375536L987.0716138303756,320.37295509639165L987.975920007716,320.6175808967406L988.9100105951004,320.8562108456141L990.0326068103782,321.08939968557735L990.9145765403164,321.31711637242864L991.8844634796168,321.5399390242689L992.7923187860083,321.7567154865618L993.8963136959877,321.96891500161297L995.0312537374615,322.17661387640993L995.8955075842335,322.37983913587397L996.7546274707432,322.5784709708469L997.6215673460005,322.7725848485428L998.6435602617026,322.96224177849103L999.4558346209491,323.14811086284845L1000.344515701839,323.32991121703355L1001.1819092637602,323.5077570778507L1002.0157164940201,323.68192101136407L1003.02509772473,323.85238608753224L1003.901129918017,324.01933270535255L1004.7576009786524,324.18274303364853L1005.5749720955504,324.34284103382043L1006.4134668547453,324.4996907986887L1007.2293796293081,324.6533624057218L1008.2425480857767,324.8039842041765L1009.0782228870885,324.9516360455452L1009.9423130423739,325.0964286540206L1010.8185238081919,325.23836900449214L1011.8737312146347,325.37758284933017L1012.7085875585134,325.51415273549065L1013.5447162316744,325.648165124141L1014.3111048910108,325.7796641884062L1015.1343614609053,325.908705749254L1016.1825598955119,326.035353854365L1017.0395294711291,326.1597059793547L1017.9063800601209,326.28180152067904L1018.7482379353138,326.4017048174123L1019.771979373714,326.5194671846433L1020.5968058937757,326.63515040164344L1021.4336711786265,326.7488087754787" style="fill: none;" fill="none"></path></g><g><path stroke="rgb(0, 119, 187)" stroke-width="2px" d="M713.1318201758617,130.97175368240903L713.9344516184414,169.2593209722433L714.7563912159208,187.2842651766693L715.5787698042052,205.2506518689006L716.4002778514017,219.4365495967541L717.2283707606739,230.01453624771875L718.0554889615483,238.00214548370406L718.6978143550668,244.15667327867945L719.7131777655607,249.44561082362597L720.555749930877,253.49921209250658L721.3796835882845,257.2579896679809L722.212664920589,261.3860897277087L723.0177368544238,265.0095049093567L723.8504800900205,268.10425875145654L724.6940120826904,271.4866952138544L725.5097016415896,274.1077389105568L726.3833975109311,276.3283410777382L727.1920185738169,278.72588296580864L727.9891142679398,281.08396059468214L728.8090821270576,283.06225356584315L729.6313788695987,285.02837261031567L730.477678736497,286.6494208662313L731.3307941216564,288.10528324476843L732.2121760503472,289.47284327639755L733.0411469412294,291.00877375432856L733.851003130787,292.2456853425181L734.6927121955375,293.66690581896626L735.5157529902907,294.98671854819753L736.3546867402907,296.2238531516486L737.1702795724023,297.40914235323993L738.0176955176182,298.5162860782876L738.8154236561214,299.56138720479237L739.6881076144547,300.58743032887264L740.5280309538965,301.5610201841082L741.3787728125,302.5197054580325L742.2111737840792,303.3626549903053L743.0251297013245,304.09812699611433L744.0725915242413,304.8826828206614L744.7062933526234,305.6499083737075L745.548180989905,306.39683098938843L746.3845775218622,307.1362378351385L747.2686454790381,307.8287502343472L748.3514497820216,308.4730190625022L749.2247810657794,309.07965025488505L750.081400936857,309.69169260672453L750.9495312956533,310.28426431705844L751.7772670598636,310.8543277673796L752.6682993457433,311.3846407616656L753.5654849434156,311.91234193129344L754.4142104205247,312.4137804972058L755.2765446125901,312.9019215513516L756.1299873807228,313.3623117718995L757.0085567920526,313.7973119956719L757.8831678456147,314.2368134891815L758.7491478935186,314.6762825264057L759.5817423186729,315.08987504059274L760.4481985599923,315.48940821601724L761.3090148855453,315.8782929248074L762.1709472894161,316.2519523603786L763.0398961056455,316.6098530368073L763.8909876687885,316.9667608009077L764.7138350099666,317.31523461893073L765.7895782574587,317.6497328677747L766.6572919470165,317.973011725368L767.543584620306,318.29188107673485L768.4283296649949,318.59834727658273L769.282665295782,318.89795118497875L770.1227225646219,319.1875600297402L770.993018115355,319.4664395787717L771.847859701646,319.74467223245125L772.6827755697017,320.01587151969875L773.5321930153679,320.27818664401224L774.4351078150721,320.5307184906007L775.2709091052598,320.7823447796703L776.142588593107,321.02527892181894L776.9710014448302,321.2653587086133L777.8087595923354,321.49934528959056L778.7010046833204,321.7248579580708L779.5497971251286,321.9456637051784L780.3844972180426,322.16283596258074L781.2412733400848,322.37433089633276L782.2966072354037,322.5813224250216L783.1473416534851,322.78394853645773L783.9719821604939,322.9808641663026L784.867858226273,323.1741243310508L785.7411671884645,323.3627169708227L786.6121547077546,323.54721005962784L787.474436816165,323.7270326402527L788.3496282304527,323.9039562654414L789.287900391268,324.07614746355887L790.1414547672325,324.24542984147354L790.9738259767232,324.4110166629224L791.7799321431327,324.57315647261026L792.6037393116641,324.732010792327L793.4130002594521,324.8876813536333L794.2296942888374,325.04016275745215L795.1224750974151,325.18954333482407L795.9132984313915,325.33594096328017L796.7434374842464,325.47943597987876L797.5784500790894,325.6201102890402L798.4173689480452,325.75801752937116L799.2411389139661,325.89329801195976L800.0606305796682,326.0259657058959L801.104230771605,326.15612803432583L801.9769519325489,326.2838028582072L802.765141321695,326.4090996791136L803.6145959699718,326.53207237879167L804.4411635722093,326.6528119587615L805.2920319196887,326.77134031628856L806.1314790657151,326.8877391072324L806.9906510358795,327.00204719129334L807.8075236377958,327.1143274384138L808.8766001774692,327.2246292693315L809.6984281671168,327.33300321601354L810.5212234246399,327.4395076138878L811.1407957015175,327.5441780276558L812.2037338104424,327.647061173572L813.0737466213349,327.74820327219993L813.9003811882717,327.84764619991864L814.7095305282279,327.9454404056863L815.5355103292181,328.04161710880993L816.3564900993441,328.1362168006372" style="fill: none;" fill="none"></path></g><g><path stroke="rgb(255, 112, 67)" stroke-width="2px" d="M613.055458376736,143.17999320370814L613.8065270010288,186.7708979788628L614.6321943000901,205.27850399503214L615.5220435429527,217.67535249912592L616.3640725501543,227.75379740109753L617.1693751401749,236.7640325026614L617.9948341046168,244.38966982654964L619.0167898177083,251.30814184595806L619.8591908510159,256.6779445190123L620.6930427244084,261.76374404663585L621.5217606375386,266.12209407679575L622.3378222225438,269.4703908740326L623.1801637316744,272.93770896769973L624.1693365043081,276.12405876030834L625.0953243631044,278.82614916508027L625.9165719920268,281.5407212807069L626.7270755070087,284.14916127906855L627.7616280240483,286.3551810859576L628.5668785304141,288.53584974610607L629.3766603147506,290.3203841579976L630.3207584043853,292.1438449775687L631.1166636149692,293.9210883484056L631.9686331597222,295.52123891800807L632.9711393479938,296.8894843524708L633.7685847466563,298.264386864034L634.6689474472737,299.59570867783015L635.5171520878343,300.8394573134005L636.5654770113168,302.0078272705958L637.4392175237912,303.1168961381305L638.2266479796812,304.17918432489046L639.1374571733539,305.203856274839L640.1359901228138,306.13460435623085L640.9903480751672,307.0266917585288L641.8314842197145,307.91168198662643L642.6896814814814,308.7095592518283L643.7607520810828,309.470489886538L644.5908390502829,310.2056009051718L645.4141849064429,310.9073378214647L646.2733047929527,311.58800344060546L647.129835377765,312.24427639634797L648.1696260223765,312.85361141763474L649.047548108282,313.4455176200787L649.8509310435957,314.01396615344623L650.7271418094136,314.546728679542L651.5662615724666,315.0681168423826L652.4005077935313,315.56449412408597L653.3901642001028,316.0442132876675L654.1934355275849,316.5085505863211L655.0415657629244,316.95401897279686L655.8923373836162,317.38695682099996L656.7634811538709,317.79955941249784L657.7918059538966,318.2020647311364L658.643544842464,318.5906406160478L659.5236172392619,318.9615959913024L660.3726328967335,319.31929663109696L661.2500415866126,319.67039974972226L662.0703665907922,320.00706549378367L662.9162274668853,320.33504899507165L663.8558910053368,320.6538151766635L664.728500558449,320.95908613304135L665.5976056256429,321.2574249645294L666.4380498016333,321.5438652058629L667.2834865679655,321.82288558631944L668.146200226659,322.09281209604956L669.0865408526234,322.35182244590254L669.9392990927212,322.60756614076456L670.7352712680041,322.85422682823565L671.6365714744085,323.0945795847422L672.4563161178627,323.32882685447953L673.3367456597223,323.5559592440119L674.3315657886445,323.7774147357259L675.1377910034079,323.992785334336L676.0225137265304,324.20267179055287L676.8589846637088,324.40723965483824L677.666311075746,324.6066345202173L678.7572999530607,324.8003123746705L679.6410330867413,324.98952075840276L680.4218340374229,325.172152292528L681.2406634966563,325.3518990714076L682.0403856950875,325.52711949994284L682.8790813483796,325.69830597605227L683.7063483596966,325.86500499695586L684.4860853157151,326.0279925747213L685.4738815917567,326.1873651807009L686.2976366766331,326.34268921106485L687.1465109641847,326.49467520900646L688.0172455057227,326.64329440969186L688.8661569958848,326.7885176520983L689.6734164432228,326.9305293838485L690.4940911519419,327.0694353845407L691.5849460998585,327.20530987075904L692.4579202385545,327.3382363050165L693.3341607664609,327.46837694857345L694.1787418727495,327.59571171103903L695.203681235211,327.72043181864575L696.0208812201003,327.8425851027838L696.8789073498585,327.96222306595047L697.9735792856225,328.07943766173463L698.8181678324331,328.19429718567125L699.6203602842078,328.3068772878398L700.4770545605068,328.4172297137089L701.2647305536266,328.525438066363L702.0981136741254,328.63154697098076L702.993684678498,328.7356222534232L704.0164067653678,328.8377189399966L704.8535622305812,328.9378908958858L705.6857474270191,329.03619545223626L706.5750088686343,329.1326762499704L707.5801192396476,329.2273926124858L708.4196407908951,329.3203968948638L709.2533438538451,329.4117203108214L710.134472804784,329.5014125931473L710.9239196421682,329.58951905085485L711.9534349257331,329.6760788596351" style="fill: none;" fill="none"></path></g><g><path stroke="rgb(0, 153, 136)" stroke-width="2px" d="M413.7040492486497,209.59463000297546L414.7664814020705,239.26137280235716L415.6212932262731,247.61191841769497L416.4913432397762,259.46001223242325L417.32285878922323,268.9283274291654L418.15844430426955,274.29546287800423L419.031634218107,277.9795467072515L419.8277403227881,283.04096366214253L420.6917858349408,287.02347110043553L421.56533289384004,288.92849175012634L422.4131431867284,291.7964892262622L423.2767943512089,294.37816419801885L424.15211969489457,296.8356420223492L424.9878540203832,298.76785885951927L425.8222788139789,300.74221519933684L426.67176322434415,302.45113415229L427.51836815264915,303.96368168404587L428.3619150263632,305.3870585966322L429.22033550379376,306.6697273782659L430.03808608732,307.9314109448922L430.89911074749233,309.0149323234339L431.7724122691615,309.8989353232658L432.6984894142233,310.86442496034766L433.5085911410108,311.67240274996425L434.37482416666666,312.48771615516506L435.22917467849794,313.34280110087315L436.0909880340149,314.0941545610455L437.14065225147885,314.86156532995994L438.0318928719779,315.5577648952053L438.8442267554012,316.20992648619205L439.74767727269807,316.8529536702299L440.57610500546554,317.40755507857443L441.4421148154578,317.97563880443465L442.30590734985856,318.5296047353017L443.1984947048611,319.02677182028617L444.0331873572531,319.523695941861L444.8793160921425,320.00618796037037L445.7426249926055,320.44989564010183L446.58949777970673,320.883325570266L447.45515044463735,321.30700671990667L448.3193968508873,321.6841013171645L449.164357423804,322.06717912872296L450.00797126221704,322.4379576897368L450.86511941036525,322.78109217016754L451.7425801838992,323.0900234904858L452.6104054812886,323.41935023292274L453.424800389339,323.72303798415254L454.29387569444447,324.02436020631956L455.1277722109697,324.320310746596L456.0089904481739,324.6004604885309L457.0944361365097,324.873779627772L457.9283400935571,325.122836095084L458.7598928456147,325.3727610633819L459.60976416313014,325.61912781627984L460.4758558188657,325.85475833856265L461.3369697653035,326.08328561982495L462.21300195859055,326.3073587803313L463.06829741673096,326.5228366251452L463.93772986689817,326.72920904602324L464.7801904243827,326.9207858351692L465.6598982355967,327.1164690911198L466.537753356803,327.30561899388505L467.363472739519,327.4902306606188L468.22909564236113,327.66723841669625L469.09289561728394,327.84142089417344L469.9267028475437,327.99750145774914L470.82009377893513,328.1614401576329L471.8505391277649,328.32147836457204L472.6973449501672,328.47710339629685L473.3747449649563,328.6239632364068L474.184608595036,328.77109252849067L475.04086388052986,328.9121927548133L475.9044629613555,329.05181200905866L476.92133679783956,329.18732407243743L477.77213074009774,329.3195010687507L478.6661466753472,329.4482934918128L479.4691352629887,329.57432459713306L480.33689359567904,329.695977090754L481.18288096064816,329.81570789841476L482.0300141660237,329.931937643712L482.9025567544368,330.0461632424462L483.73728660943925,330.15782503473235L484.6061982230582,330.2668058287869L485.4763077607382,330.3732526045635L486.3182177195859,330.47742175899407L487.15645206050675,330.5791409599015L487.98063869566613,330.6734393845281L488.8419832982896,330.77014060603136L489.7215050964506,330.8649075774819L490.58194939589765,330.9577566544271L491.65418815747176,331.0485819157924L492.52474412647894,331.1375871873464L493.3353443682484,331.2247208457834L494.20131697563016,331.31004509289016L495.0487924450232,331.3936315837745L495.8833362869727,331.4754952821404L496.71387712802215,331.5557328150555L497.5897530703446,331.6343744516883L498.4471541962448,331.71137637821636L499.3024347733411,331.7869079765098L500.1191957674254,331.8609639704617L500.9648929520319,331.933600468668L501.8004561455119,332.0048490977602L502.68083360371656,332.0747153446309L503.5624908317258,332.14327547275843L504.4277417084619,332.2105545758711L505.5549584879758,332.276590776034L506.4311171701389,332.3414121050351L507.2653261885931,332.4050463224769L508.1014325401878,332.46753057110317L508.9534392875514,332.52889837081295L509.8339878777649,332.5891728852703L510.65973702256946,332.64838048848355L511.4966767126415,332.70655453936763L512.3237056272505,332.7637232509267L513.1665010082304,332.81991115659275L514.0331953462578,332.8751410905347L515.0490349501672,332.929435815074L515.8543896238426,332.98281812126265L516.691098657729,333.0353117354499L517.5115427102623,333.0869360093219" style="fill: none;" fill="none"></path></g><g><path stroke="rgb(238, 51, 119)" stroke-width="2px" d="M313.39924109889404,182.18913597720012L314.1730777208719,219.12070760846535L315.0188493106996,239.57859723395515L315.9345915705375,251.2140550739393L316.92145034079215,259.04264796316073L317.7145207124486,267.305713174011L318.5617432040895,273.1402895799767L319.48532033371913,278.253359318203L320.5999105471965,282.7863371812138L321.45868072916664,286.7540143905911L322.53180491287293,289.7860019759692L323.3616165827546,292.7584723470771L324.2129090399948,295.17614672422457L325.08749033146864,297.36299884339616L325.86451149691356,299.0901855299998L326.7354394920268,300.8744749321385L327.5907349501672,302.35866445013966L328.6073186062886,303.9976145982045L329.49145352816356,305.3599595735538L330.302105853588,306.7440564124492L331.3894191129758,307.98559314856277L332.25501225372943,309.17857163338283L333.0634696251286,310.23517341403505L333.9038989200746,311.2086438450824L335.0156766161909,312.18593228539424L335.8722072010031,313.02888998239115L336.72640146186984,313.894045051084L337.55735897215794,314.6509852094981L338.5604306401106,315.3170551210842L339.44805516685955,316.0244993945812L340.3365279131301,316.70221103167046L341.3734688377701,317.3237464736759L342.2278342306456,317.9398329532096L343.12848711162553,318.46299447984984L343.9836932835005,319.005441491895L345.03241255465537,319.5225262937148L345.89987326646093,320.00357089745563L346.7080330169753,320.4747744716772L347.596572727945,320.9234903404375L348.4149706368956,321.3365791286906L349.4514874517747,321.74097663504745L350.2836056835134,322.135513580241L351.12731624871395,322.51595789397584L351.903652886124,322.86646412464046L352.7156221839635,323.21226137140445L353.56396075392234,323.53034975457274L354.6892429976852,323.834490605714L355.4626778314686,324.137696057863L356.3371921582433,324.42897322332493L357.1556049482382,324.70647683943014L358.05138428722995,324.98089038587165L359.06735038001545,325.2467591296548L359.89164118248453,325.49862289479216L360.788335705697,325.7366933244524L361.6472844601981,325.97385430387544L362.4525126449974,326.19241141091044L363.3594230050797,326.41266948624155L364.33122959908695,326.6260862535459L365.19557273212445,326.832922269321L366.0520363522377,327.03547853102344L367.13977372138635,327.2239335814375L367.9991912287809,327.4103608403828L368.8184373572531,327.5933109338091L369.69342043692126,327.7723517723884L370.74696116640945,327.9450879115205L371.5102843306327,328.1122039526599L372.40863064975565,328.2760081552929L373.23071161715535,328.43515920751975L374.1181798929398,328.5859676673502L375.16938429848256,328.7346574892293L375.9697017386831,328.880507802662L376.86005693704993,329.02313034414306L377.8978014380787,329.16136049436477L378.7445402957819,329.2955054281115L379.5856913213734,329.4273534831671L380.4338215567129,329.55537770293927L381.5156734728652,329.68058187684744L382.3215043399563,329.8027929541591L383.20293091177984,329.9218519725587L383.9797363020833,330.0381330338374L384.9081720926569,330.1515727833474L385.8314888040124,330.2622553523169L386.77471635255915,330.3704035473326L387.6155995193544,330.47594299282093L388.6885228089635,330.57909175135944L389.55011294881683,330.67977448392486L390.45104112911525,330.77823265892994L391.2751682400978,330.87456406377026L392.3726006095679,330.96873722633273L393.1702989859825,331.0608582940349L394.08661416602365,331.1509546206136L395.17615214152517,331.2391023066636L396.0114995598637,331.325399227298L396.79498653903033,331.4098758093574L397.6943968528164,331.49258940245016L398.50050301922585,331.57359230084427L399.55710180330504,331.6529383551725L400.47489020672583,331.73067022806316L401.2982583844522,331.8068362557657L402.1565895756173,331.8814951118351L403.222570858089,331.9546744468948L404.0567352334105,332.02643729424767L404.96991051311727,332.0968129922022L405.7051605873842,332.1658382242741L406.6057762657536,332.2335573152177L407.47943493248454,332.29999970916253L408.32447735114454,332.36520237678207L409.3834422212577,332.4292016497636L410.18288167984826,332.49202714007754L411.01668891010803,332.5537112066174L411.9061289242541,332.6142858154504L412.7344227276235,332.67377763846486" style="fill: none;" fill="none"></path></g><g><path stroke="rgb(204, 51, 17)" stroke-width="2px" d="M110.71592152263374,189.61738505533765L111.77102476176698,208.8882000079081L112.59907302790639,221.54749233517845L113.51049978491511,232.1106051383793L114.35813894579476,239.75917654073115L115.22722913194444,246.06482543663293L116.05921343428498,250.799128601791L116.91457585712448,255.38811964704664L117.77307073977623,259.5828139645791L118.59283770479682,263.6428022969152L119.64974899080505,266.66819790728835L120.52301330986369,269.7699607233677L121.37958853780864,272.9692205016617L122.23155808256173,275.70081779066004L123.05843074620627,278.15489564724055L123.9152961545139,280.0846741366395L124.79811410397376,282.15491573597325L125.63784398984053,283.98857251363137L126.56679317644033,285.7835466375283L127.45474508616255,287.6534716532491L128.33775648919752,289.2721328428696L129.19455493280608,290.9276586970684L130.1629835297711,292.52897756371254L131.24404675057872,294.0703750988346L132.13850911715537,295.39088438250695L133.00325403838735,296.70462864569464L133.9656930150463,297.7161540843274L134.82772214570474,298.8442609171134L135.69377659882974,299.99495352446036L136.54495000771607,301.03262600310387L137.41007439557612,302.0354819055362L138.26554842624742,302.9771192316247L139.08844041055812,303.9167671288784L139.98742661458334,304.81950818174283L140.829582110661,305.69015366345934L141.6623551083462,306.48147565113175L142.4897039654064,307.28396380274734L143.56979991833848,307.9292798187324L144.39188088573817,308.6429029491525L145.26562883873459,309.32752331301907L146.13058953510802,309.94319170387246L147.02444177887088,310.58072101965007L147.84060009066357,311.1628097779273L148.68526304269548,311.7537652502991L149.52122802436986,312.29987163965103L150.32487881847993,312.83792380222866L151.20233959201389,313.3632921999202L152.01722557452416,313.87263394669867L152.82266209394288,314.3417415115635L153.7097657841435,314.80603996156793L154.57668333783437,315.2551016256446L155.87355890271348,315.67481014136223L156.80242624356995,316.10101468954133L157.85729138599535,316.4984072048252L158.78151584104938,316.89651653752003L159.75378374742797,317.2750191175741L160.7985818634259,317.64855145791944L161.68852783307614,318.0034628534117L162.64119740419238,318.35454517199736L163.5494321772119,318.6946291581388L164.52620903999485,319.0230301962169L165.47634139306842,319.3405821274877L166.43730714634773,319.6473378592352L167.47247722672324,319.9499905501095L168.41647114904836,320.2435612449067L169.75380827321246,320.5281339567264L170.77662708686987,320.80545112406054L171.69207172582304,321.0713218698818L172.64115496527776,321.31085538982654L173.4821348588606,321.5640839036794L174.53823512795782,321.8103361603013L175.4248551842207,322.0514325863715L176.26261333172582,322.2859644215449L177.09898754211676,322.5148749973751L177.9608232192001,322.738056153787L178.8390652475566,322.95294242782876L179.9107459699717,323.16446267630965L180.73108585519546,323.3715977295411L181.60296623713992,323.56979653532295L182.4526217795139,323.76709377641157L183.29747818512087,323.95930362127075L184.11320494663065,324.1468969180594L184.99706456918724,324.32986542777167L185.88796292566875,324.50867648096624L186.9552537400334,324.6836579859513L187.84066099119084,324.8538320381358L188.65606036972738,325.0209691731864L189.5350166882073,325.184391385809L190.45987358764145,325.3442133858821L191.46714915059155,325.5005223432442L192.34364265625,325.65352386761697L193.22635643840022,325.80321835912827L194.05636156185702,325.9496672975768L194.91001266460904,326.0932937643523L195.7311561262217,326.23403298899353L196.79556745852625,326.3718705116502L197.67455353909463,326.5069627936568L198.4849305652006,326.63935184384513L199.35468295781894,326.76906341796604L200.20110931359312,326.89621844436056L201.066159296232,327.0208985693046L201.91295023759005,327.14309030542216L202.97762942869085,327.2629852907401L203.83804396604936,327.38060746493863L204.715921408822,327.4960417285484L205.55790577289096,327.60932087267076L206.43776983506945,327.72050061841185L207.2776038882459,327.8296362668165L208.1602060625643,327.93674049760597L209.0128750163966,328.04194495525905L210.08117774176955,328.1452708919824L210.94642861850565,328.2467686558378L211.75567468524946,328.3464676745179L212.60208615997942,328.44442691012455L213.49829704925412,328.54068613440387L214.35978302179782,328.6352879319728L215.43443251253856,328.72827976687927L216.29201965149176,328.81969611384494" style="fill: none;" fill="none"></path></g></g></g></g><g opacity="0.2"><g><g><g><path stroke="rgb(187, 187, 187)" stroke-width="2px" d="M1222.1948806757973,34.0072100503104L1223.060659829604,155.78252362353464L1223.9266324369855,220.22011937839648L1224.7998000292566,234.41727233784542L1225.654098457433,254.7733771800995L1226.4824964281122,270.1132169578757L1227.489005617284,276.78482626165663L1228.3127830237268,286.2512382332768L1229.1294770531122,280.9777004165309L1229.98198975598,293.02005276083946L1230.8429474514533,301.83191355850016L1231.6197528417567,294.8203248956374L1232.4388501597866,303.71692801160475L1233.3070400427598,304.30976293981075L1234.306599784272,310.5687715964658L1235.1581303382202,308.1762239656278L1235.9547721604938,311.82622553514585L1236.7996732092336,302.49618486634324L1237.6068805729167,316.52938923665454L1238.486610705697,318.9910694743906L1239.3132006295011,318.4102934173175L1240.1828860574203,321.42832700163126L1241.2118581828704,319.3960381458913L1242.007309521605,323.9466429475163L1242.8418608040765,316.81942373514175L1243.702007482639,322.88710561980093L1244.54263023116,326.9140352947371L1245.557569531893,328.61198670363854L1246.4471806780477,327.38339985321676L1247.232319453125,327.7319503735219L1248.0853901951516,328.19306427878996L1248.8910276086676,328.68266454764773L1249.6889045576131,330.3237821161747L1250.5340213814943,329.1500798346741L1251.3688330822401,330.467390101403L1252.206635872878,330.9298278018832L1253.2293728407922,331.67150810760046L1254.0456427604167,331.78835464508404L1254.8924039396861,333.7023537060512L1255.745794624164,332.71570135706236L1256.6299965107382,332.0514994926219L1257.4000459069573,334.52539059998736L1258.2338233751286,334.54848223099754L1259.3351024945343,332.78725137135814L1260.1806657497427,333.00924638951466L1261.0025309420012,335.34651610068977L1261.904046923547,335.7263389761959L1262.6959119306198,334.10865297141885L1263.7523321421681,336.11195916176905L1264.5238398807228,335.25046640541404L1265.402320005787,336.0114221115198L1266.2716334076003,336.3062292656728L1267.0523897151493,336.57522241318867L1268.0942711464763,335.39060319175144L1268.9312629202032,336.4569993909182L1269.7694749395575,336.9284916855395L1270.5723593598893,337.31378067950055L1271.4212113258745,336.79496149199883L1272.2778981616511,336.8773786703657L1273.1102470495755,337.1800402132794L1273.961844568223,337.4127723712341L1274.7615518856096,337.2249427787028L1275.8017071158051,337.221842713521L1276.6879402649176,337.24015816813335L1277.5390690306713,337.31788172519634L1278.629871894933,337.4212529646632L1279.4089168823946,337.76865560494895L1280.2996515473894,337.8324331785552L1281.1212191187628,337.74669206501653L1281.9714922244727,338.0622581831579L1282.9804419048996,338.04035322092074L1283.8378281497558,338.2117843366827L1284.710073117284,338.0373315223759L1285.7544099209106,337.7747418578448L1286.6142068949332,338.1695427161841L1287.4356628584749,338.2103429611639L1288.2836368428498,338.10031638497355L1289.1155244184029,338.23679513081777L1289.8828580240483,338.3983664367614L1290.72464149402,338.4261549669983L1291.5784860503472,338.3375246072787L1292.560940031507,338.51176302115033L1293.3716518811086,338.5384698671987L1294.2447673897248,338.557018661356L1295.120509402649,338.52891396332L1295.960306253215,338.55307620035353L1296.8071939213607,338.6132104234171L1297.7813591608794,338.62955105091845L1298.5959326414609,338.64828950933384L1299.4265032445987,338.7034218801169L1300.2667167644033,338.681692817897L1301.1674514911265,338.6964300858589L1302.0073822710906,338.7067858484391L1303.0413990705374,338.72875545859904L1303.8295735786394,338.73656252993635L1304.6446827768132,338.76126298369076L1305.4780882188786,338.7786873137312L1306.393041783372,338.78271158622476L1307.4074007233796,338.79852147856064L1308.2577854369213,338.8000646366189L1309.0525968907536,338.78316321115045L1309.9426321466692,338.8046373389911L1310.782295067837,338.8149676976692L1311.7746151813271,338.8216658219088L1312.6760790792182,338.82301416360343L1313.466999139982,338.8290301763794L1314.2976590293852,338.8337776026622L1315.1295168428499,338.835850896451L1316.052625219586,338.8423212050527L1316.9911801202418,338.84497471394883L1317.8390052941745,338.8444326729846L1318.6421650138245,338.84526432450264L1319.4746031880145,338.8492910630261L1320.3662307156635,338.84823780267783L1321.4296078153934,338.8481907432392" style="fill: none;" fill="none"></path></g><g><path stroke="rgb(238, 51, 119)" stroke-width="2px" d="M1022.812489213606,90.39186524493356L1023.6230671338091,165.78642947333202L1024.4568371614582,207.02677420207436L1025.3130180417309,228.29299747943878L1026.1272566988168,226.69862357633457L1026.9665624749227,262.2102430675711L1027.8294249440587,270.1790590158531L1028.6668482680684,274.42382050412044L1029.4696954857895,283.2886991543429L1030.3162334493954,291.43521639917583L1031.159996098251,287.5595325125115L1031.9611915200617,283.72037488435L1032.780936163516,291.8913051273142L1033.6106883092207,299.46031355432103L1034.4660581725823,299.9393584259919L1035.310267252765,292.79415482921263L1036.146827476209,302.36305166568076L1036.9729784092078,306.0735748601811L1037.8015028687628,304.2491072842053L1038.6442461660881,315.1146765851549L1039.5030535506687,312.50082302838564L1040.341146521669,314.3085581436753L1041.1830043968623,313.51093802068914L1042.005107685828,316.27955421273197L1042.8689299823172,311.4188112903919L1043.7041881143905,315.6619391590357L1044.5268420019934,319.2274179096733L1045.3887967274304,317.07192188927104L1046.2048434313915,321.37981180101633L1047.0773264956276,315.1379532366991L1047.9492887233152,323.8231405269887L1048.765938109568,324.17164442794666L1049.6119254745372,324.5263127663306L1050.4358070482897,325.7441548284676L1051.2737437683256,318.9667244628072L1052.0877443287038,327.2761248504477L1052.9434341345166,328.95333453480686L1053.7743990853266,329.8782944333341L1054.6215322907021,331.82732696245824L1055.4396028166796,332.7978033692177L1056.2684323376416,332.26419152292823L1057.3285802507717,333.0116550557848L1057.955615371335,333.7413318508438L1058.77915468107,332.4096283462963L1059.8278739522248,331.4123181346804L1060.641264389789,333.5247063131205L1061.4716564203961,332.7179672515818L1062.3314533944188,333.8316179865173L1063.159300766461,334.37145060194393L1063.9954517611882,334.42529449106326L1064.7988049344135,334.5538657943585L1065.6222623984054,333.61043006580854L1066.4693360796039,334.45321656630506L1067.3009037127058,335.01615465286056L1068.1374713766718,335.58177262345066L1069.0020079632845,335.39344575788294L1069.8107555150464,333.95448764653077L1070.6464600784466,336.3021301624498L1071.4436599398791,336.7802695989875L1072.275532634388,336.411439177048L1073.074086670846,335.8838788619531L1073.9232585792824,336.2186941571002L1074.748144623521,336.868918472901L1075.5577850379373,336.5824967310099L1076.4350970010287,335.48569136299193L1077.2527955009002,337.1913565741852L1078.0965432687115,337.07106858192543L1078.9238698042052,337.254417860947L1079.7696413940328,337.0707948146654L1080.589125619213,337.40390765380914L1081.4013925379372,337.65915719925295L1082.235251851852,337.1830578447719L1083.0560232873586,337.6076259454047L1083.8853587638246,337.6445406984671L1084.6998057555297,337.69252269029886L1085.5307335037294,338.02493763538746L1086.3623308989197,338.03201297115135L1087.19217233089,337.9093020475869L1088.0242905626287,338.1323027810348L1088.8552927160495,338.28027653457997L1089.6728647270447,338.16704712425627L1090.4864337371398,338.1684648258878L1091.352741168017,338.20583964149205L1092.237196032343,338.2317673434903L1093.1015838085134,338.38975782223446L1093.9571694470164,338.4077501586372L1094.8097788766718,338.48390996439514L1095.645795942001,338.35115900595804L1096.5391199086935,338.4370464726817L1097.4118931532923,338.5861060685212L1098.2510798810442,338.58645416571693L1099.3287576642877,338.6471503400909L1100.1528698942257,338.6631982005201L1101.0336937837576,338.68491245138495L1101.8815487197787,338.69239129034605L1102.7308768791795,338.6902856498325L1103.5808449234826,338.69465408904944L1104.4325391689172,338.7265498414386L1105.276071161587,338.7515803334619L1106.14162709973,338.76957520418466L1107.0107842505788,338.77977151706415L1107.8643014239326,338.7756611383936L1108.7275433596965,338.79009802114786L1109.5633000067514,338.7925622907018L1110.4329110294495,338.7894406762124L1111.3078866685958,338.8082394119868L1112.1395287069188,338.8131424409637L1113.0376666914224,338.81970775621346L1113.8979324183385,338.8276813718299L1114.7758545042439,338.833738654565L1115.5925559741513,338.83681819479017L1116.4300239412937,338.8429055630903L1117.257878753858,338.8424463048536L1118.1212099758873,338.8483197128101L1118.931066165445,338.8535602919624L1119.7229088509516,338.8532506268946L1120.5837326170267,338.8566124478738L1121.3986483616254,338.8587354188868L1122.2168081738685,338.8612850434272L1123.0349903076774,338.8611436223021L1123.893410785108,338.8622256934676L1124.7230959661138,338.8628436578022L1125.5598273215664,338.8680450650177" style="fill: none;" fill="none"></path></g><g><path stroke="rgb(51, 187, 238)" stroke-width="2px" d="M914.1940806385031,156.38834203992576L915.2535737856866,216.5005015262536L916.2115484490741,237.29395800403188L917.2110412258875,247.0721096651895L918.1522077498071,252.88061614547462L919.1452347128987,268.39689461248264L920.1350548109568,285.64151544656073L921.3852708616256,291.0312442162207L922.3859615625,300.28464850570475L923.3966374440587,299.16379119668693L924.3606686924512,296.4261516183615L925.3702433767362,300.0911743300302L926.3902571135546,308.30466220953633L927.5715069646991,297.83707450543136L928.5927632687113,305.6666268088988L929.5831637274948,312.87183144795046L930.7050158905607,314.8497932244625L931.7550298125643,317.3171046908413L932.9454240653936,318.0218726715871L933.9994335477753,303.1778218810048L935.0200350858411,319.9651185742446L936.0228835381301,322.7830415245678L937.0997726260289,325.8249150775373L938.100574934735,322.2031813434192L939.0840333863812,326.1313459889165L940.1710043817516,321.96688535490205L941.5427836828061,322.0959568449429L942.5922321251287,326.3991440300431L943.574395925926,324.6848583673792L944.5905331507201,327.8779728524387L945.5157025520833,329.39550835905334L946.4720626221707,324.75116273388267L947.5307001093107,331.4885300836925L948.4846717717979,330.17627850174904L949.4574902768132,330.1216522817101L950.3317665068801,331.0043260042689L951.2764821598507,332.89367848475064L952.1390098054914,333.9141832784351L953.2153557352752,334.18540201415976L954.0447879385288,333.64396248811056L954.89439883777,334.33928422363743L955.7745902829218,334.68253859185745L956.6995959927983,335.83410396772837L957.5599361249356,334.6809948116009L958.5680599074075,335.179042166232L959.4598883291538,332.6143737203841L960.3592837618955,335.98657375667244L961.2066327424125,335.9587976096996L962.0960504349922,334.77789798086246L963.2003057632459,335.5620553105005L964.0604822038965,336.11627266542723L964.9467376745756,336.51947781443596L965.7864229173097,336.26253503973464L966.7204167779064,336.98078985192944L967.872001267361,337.4071020503262L968.7299009082434,337.1663530643231L969.6285150861626,337.74110454201167L970.526891167374,337.3235629725137L971.4226481847993,337.3177792597562L972.3277877006173,337.5970026830744L973.3986425250772,337.61213236089264L974.2649053128215,337.75359622036507L975.1442336574074,337.90462250921075L976.0420814615484,338.12708566331173L976.8760375022505,337.9740580204608L977.753781015625,338.03633497312796L978.896154138696,338.1675003274411L979.7911596633875,338.1907352765224L980.6703987217078,337.8936220429439L981.5384769968492,338.34269680531827L982.388616173161,338.3691157708277L983.4922911406893,338.2668074281953L984.4001166849923,338.44018657101384L985.3232027401621,338.38028371467124L986.1768017592593,338.43957089819014L987.0716138303756,338.51052839758006L987.975920007716,338.5109347386086L988.9100105951004,338.5319297737442L990.0326068103782,338.57776955194174L990.9145765403164,338.6055043606653L991.8844634796168,338.6624519267519L992.7923187860083,338.614518709198L993.8963136959877,338.6662735295249L995.0312537374615,338.71097816000525L995.8955075842335,338.74491440419143L996.7546274707432,338.75609058836875L997.6215673460005,338.7603484128652L998.6435602617026,338.756765218277L999.4558346209491,338.79738877411L1000.344515701839,338.8029335703011L1001.1819092637602,338.8067441859624L1002.0157164940201,338.82318204333257L1003.02509772473,338.82755508833463L1003.901129918017,338.83752261433983L1004.7576009786524,338.83579432193073L1005.5749720955504,338.8444567717878L1006.4134668547453,338.84956814614793L1007.2293796293081,338.85193514789404L1008.2425480857767,338.8573225962007L1009.0782228870885,338.8615989955932L1009.9423130423739,338.8680366274015L1010.8185238081919,338.8669892627617L1011.8737312146347,338.8701212914852L1012.7085875585134,338.87363701170085L1013.5447162316744,338.8782399817449L1014.3111048910108,338.880002301573L1015.1343614609053,338.88027687693204L1016.1825598955119,338.880119479727L1017.0395294711291,338.8832270871665L1017.9063800601209,338.8839132201559L1018.7482379353138,338.88495117973696L1019.771979373714,338.88520359117786L1020.5968058937757,338.8859840099758L1021.4336711786265,338.8867201388764" style="fill: none;" fill="none"></path></g><g><path stroke="rgb(0, 119, 187)" stroke-width="2px" d="M713.1318201758617,130.97175368240903L713.9344516184414,207.50860069479265L714.7563912159208,223.28009677784786L715.5787698042052,259.04208547302653L716.4002778514017,276.0384233189481L717.2283707606739,282.74601110390256L718.0554889615483,285.76034039258957L718.6978143550668,287.06638528832366L719.7131777655607,291.5671530365944L720.555749930877,289.7996970372541L721.3796835882845,294.6396516157048L722.212664920589,306.52364192264423L723.0177368544238,308.20889441562554L723.8504800900205,308.0555594978588L724.6940120826904,318.4871842605727L725.5097016415896,313.11033214309384L726.3833975109311,311.5574785960572L727.1920185738169,319.11922023232495L727.9891142679398,323.1284025045378L728.8090821270576,320.27619005313943L729.6313788695987,323.9404717114355L730.477678736497,320.31945669225286L731.3307941216564,319.7684878802725L732.2121760503472,320.5520309028881L733.0411469412294,327.4138393732054L733.851003130787,322.7696763404778L734.6927121955375,330.1239220611751L735.5157529902907,330.12706983834505L736.3546867402907,330.36583665226186L737.1702795724023,331.27170835621655L738.0176955176182,331.22071795963814L738.8154236561214,331.4462982969625L739.6881076144547,332.8846158779093L740.5280309538965,333.1490825781865L741.3787728125,334.5508117415011L742.2111737840792,332.3407997363912L743.0251297013245,330.09096121149406L744.0725915242413,333.36626657683934L744.7062933526234,334.24291426315904L745.548180989905,334.9515251835276L746.3845775218622,336.11400579967136L747.2686454790381,335.63337854109704L748.3514497820216,334.95840712184355L749.2247810657794,334.59887094662656L750.081400936857,336.02422859187106L750.9495312956533,336.3455789083881L751.7772670598636,336.4701506601913L752.6682993457433,335.72022844239007L753.5654849434156,336.63103305601646L754.4142104205247,336.37972175276707L755.2765446125901,336.6966391035489L756.1299873807228,336.2417867593467L757.0085567920526,335.82795749817575L757.8831678456147,336.9122297888888L758.7491478935186,337.7663801194701L759.5817423186729,337.21184529164543L760.4481985599923,337.23714527141834L761.3090148855453,337.41373110296473L762.1709472894161,337.29684741568883L763.0398961056455,337.1045835219723L763.8909876687885,337.74074639858947L764.7138350099666,337.92616064760034L765.7895782574587,337.7484355557577L766.6572919470165,337.70111570434113L767.543584620306,338.0499862470398L768.4283296649949,337.8750859962643L769.282665295782,338.02351064630784L770.1227225646219,337.94590485165827L770.993018115355,337.79037111538594L771.847859701646,338.2857721543405L772.6827755697017,338.3411317792655L773.5321930153679,338.2474612489542L774.4351078150721,338.0647931101599L775.2709091052598,338.48744717701004L776.142588593107,338.34437619445714L776.9710014448302,338.6036893019419L777.8087595923354,338.6144847462752L778.7010046833204,338.4289580159488L779.5497971251286,338.505343725223L780.3844972180426,338.6506845175921L781.2412733400848,338.62638023723514L782.2966072354037,338.6781920873494L783.1473416534851,338.7280039644351L783.9719821604939,338.6568025177777L784.867858226273,338.7367426335862L785.7411671884645,338.7226918173006L786.6121547077546,338.7425784592467L787.474436816165,338.70255694857667L788.3496282304527,338.8000697811367L789.287900391268,338.73133485001745L790.1414547672325,338.80775311088655L790.9738259767232,338.8066107244231L791.7799321431327,338.8169599918599L792.6037393116641,338.83192792846654L793.4130002594521,338.846705502739L794.2296942888374,338.8518701054064L795.1224750974151,338.85607936808293L795.9132984313915,338.8624304498288L796.7434374842464,338.8678302662239L797.5784500790894,338.8727349113989L798.4173689480452,338.8747399265101L799.2411389139661,338.88246084993756L800.0606305796682,338.8840543719146L801.104230771605,338.8888147846904L801.9769519325489,338.88821573670225L802.765141321695,338.8915513798254L803.6145959699718,338.8935868409213L804.4411635722093,338.89832960830455L805.2920319196887,338.8989823569396L806.1314790657151,338.90185976427995L806.9906510358795,338.90277063606067L807.8075236377958,338.90440921240435L808.8766001774692,338.9055749787284L809.6984281671168,338.906575092338L810.5212234246399,338.9084488615429L811.1407957015175,338.90892073067727L812.2037338104424,338.909358240427L813.0737466213349,338.90988256960554L813.9003811882717,338.9101804091115L814.7095305282279,338.91137973620584L815.5355103292181,338.9114772809678L816.3564900993441,338.9116571266329" style="fill: none;" fill="none"></path></g><g><path stroke="rgb(255, 112, 67)" stroke-width="2px" d="M613.055458376736,143.17999320370814L613.8065270010288,230.31821184924672L614.6321943000901,242.2382117169244L615.5220435429527,254.79156649538447L616.3640725501543,267.9668932940279L617.1693751401749,281.68023455355853L617.9948341046168,289.98362201665134L619.0167898177083,299.5441157157932L619.8591908510159,299.44350339472294L620.6930427244084,307.3076880457146L621.5217606375386,309.46660281824217L622.3378222225438,306.08140302555904L623.1801637316744,314.2760644587023L624.1693365043081,317.25780488124917L625.0953243631044,316.3729211102639L625.9165719920268,321.9350695929357L626.7270755070087,325.5312209602978L627.7616280240483,323.52179015321394L628.5668785304141,327.41709592885206L629.3766603147506,323.8895021964397L630.3207584043853,328.23254892336473L631.1166636149692,330.83537991823897L631.9686331597222,330.3225331061653L632.9711393479938,327.98424845295295L633.7685847466563,330.8527213441474L634.6689474472737,332.44951605397677L635.5171520878343,332.7439823041537L636.5654770113168,333.1159760430455L637.4392175237912,333.7245687962111L638.2266479796812,334.5277303084731L639.1374571733539,335.4721161490306L640.1359901228138,334.530727058383L640.9903480751672,335.1072974190382L641.8314842197145,336.625134980173L642.6896814814814,335.36782988347113L643.7607520810828,335.6290643090116L644.5908390502829,336.185677218517L645.4141849064429,336.3841510763658L646.2733047929527,336.95508875152365L647.129835377765,337.33345319417174L648.1696260223765,336.73379180952907L649.047548108282,337.2107700115469L649.8509310435957,337.382441144104L650.7271418094136,336.9585081106717L651.5662615724666,337.50034317274446L652.4005077935313,337.39517599577084L653.3901642001028,337.6004122084539L654.1934355275849,337.81657276675105L655.0415657629244,337.8207444698949L655.8923373836162,338.0789493055948L656.7634811538709,337.91211098465806L657.7918059538966,338.2049013664281L658.643544842464,338.2701191622099L659.5236172392619,338.10047876355907L660.3726328967335,338.11320924466213L661.2500415866126,338.4499774230478L662.0703665907922,338.3327478845604L662.9162274668853,338.4979344358934L663.8558910053368,338.60706404491793L664.728500558449,338.4400421299506L665.5976056256429,338.62237807554527L666.4380498016333,338.4857366476042L667.2834865679655,338.5881382896332L668.146200226659,338.5650871166893L669.0865408526234,338.40088363869916L669.9392990927212,338.6938568557214L670.7352712680041,338.60009499883745L671.6365714744085,338.66254294981314L672.4563161178627,338.72017035102806L673.3367456597223,338.6917970909521L674.3315657886445,338.74142722542666L675.1377910034079,338.74623669702225L676.0225137265304,338.7757437997165L676.8589846637088,338.8011847301719L677.666311075746,338.8217589923131L678.7572999530607,338.787540179037L679.6410330867413,338.8293224274821L680.4218340374229,338.6999750987161L681.2406634966563,338.83229612570307L682.0403856950875,338.82995994553704L682.8790813483796,338.8529050336677L683.7063483596966,338.8284940311236L684.4860853157151,338.85300784814586L685.4738815917567,338.87460157843765L686.2976366766331,338.8504328576424L687.1465109641847,338.8732129304325L688.0172455057227,338.8839887375798L688.8661569958848,338.8826283540714L689.6734164432228,338.8872303301157L690.4940911519419,338.8917206784702L691.5849460998585,338.89375740293224L692.4579202385545,338.8944396965027L693.3341607664609,338.9010890028346L694.1787418727495,338.8979514141621L695.203681235211,338.90411985414437L696.0208812201003,338.9071829478469L696.8789073498585,338.907665661822L697.9735792856225,338.90954477662103L698.8181678324331,338.9109382959837L699.6203602842078,338.91280699085786L700.4770545605068,338.9131408239674L701.2647305536266,338.9152288636667L702.0981136741254,338.9155706345472L702.993684678498,338.9164325214889L704.0164067653678,338.91698713066944L704.8535622305812,338.91732686328135L705.6857474270191,338.91800823019366L706.5750088686343,338.91784621487335L707.5801192396476,338.9186273848619L708.4196407908951,338.91984944116433L709.2533438538451,338.91948807957306L710.134472804784,338.919626127928L710.9239196421682,338.91997839650816L711.9534349257331,338.92005491836505" style="fill: none;" fill="none"></path></g><g><path stroke="rgb(0, 153, 136)" stroke-width="2px" d="M413.7040492486497,209.59463000297546L414.7664814020705,268.8984488589423L415.6212932262731,264.28796636206766L416.4913432397762,294.93325249425004L417.32285878922323,306.7069996999843L418.15844430426955,301.05074035269877L419.031634218107,300.006812736392L419.8277403227881,318.32944575697184L420.6917858349408,318.7404943683318L421.56533289384004,305.9881798710142L422.4131431867284,320.31919640089785L423.2767943512089,322.6067650318146L424.15211969489457,326.13439372873734L424.9878540203832,323.7115474071886L425.8222788139789,328.176792184157L426.67176322434415,327.8808020640697L427.51836815264915,327.95976066961884L428.3619150263632,329.3678465751665L429.22033550379376,329.53966703532L430.03808608732,331.66511105905687L430.89911074749233,330.45925502532293L431.7724122691615,328.26014854812195L432.6984894142233,331.8626294630979L433.5085911410108,330.0345168369157L434.37482416666666,331.812508808715L435.22917467849794,334.4442326296121L436.0909880340149,333.36780404405937L437.14065225147885,335.2940732200763L438.0318928719779,334.77122315870866L438.8442267554012,334.8415523288505L439.74767727269807,335.8476318339152L440.57610500546554,334.32784742941817L441.4421148154578,335.85744617772957L442.30590734985856,336.50299496150444L443.1984947048611,335.63786638168887L444.0331873572531,336.6064969536715L444.8793160921425,337.0582782483793L445.7426249926055,336.5588638785162L446.58949777970673,337.0364170524824L447.45515044463735,337.50424778587853L448.3193968508873,336.4626495586708L449.164357423804,337.4478945861172L450.00797126221704,337.6803745868217L450.86511941036525,337.21576787265286L451.7425801838992,336.3814976585231L452.6104054812886,337.90314635128846L453.424800389339,337.3692586738616L454.29387569444447,337.8517667317231L455.1277722109697,338.1832892926676L456.0089904481739,337.9900414150741L457.0944361365097,338.19687889306806L457.9283400935571,337.4999044167011L458.7598928456147,338.0302450780956L459.60976416313014,338.33004863650007L460.4758558188657,338.234997432945L461.3369697653035,338.306605782127L462.21300195859055,338.5043038041996L463.06829741673096,338.4554472443415L463.93772986689817,338.35232230435525L464.7801904243827,337.89118885295466L465.6598982355967,338.5063057652276L466.537753356803,338.4931299418843L467.363472739519,338.58282984533747L468.22909564236113,338.4691431344254L469.09289561728394,338.6342916861343L469.9267028475437,337.81497641832436L470.82009377893513,338.626655279243L471.8505391277649,338.6873629870492L472.6973449501672,338.7025302395757L473.3747449649563,338.4105319010892L474.184608595036,338.7127947969878L475.04086388052986,338.5779286526044L475.9044629613555,338.74601278150556L476.92133679783956,338.72231728426414L477.77213074009774,338.74257448324767L478.6661466753472,338.7495580371719L479.4691352629887,338.7929726684316L480.33689359567904,338.7069805054593L481.18288096064816,338.7951112399294L482.0300141660237,338.756169895891L482.9025567544368,338.8236787776363L483.73728660943925,338.841297870926L484.6061982230582,338.8421854216514L485.4763077607382,338.84720206252365L486.3182177195859,338.8658280889441L487.15645206050675,338.86368678963794L487.98063869566613,338.44012219625125L488.8419832982896,338.82336444608103L489.7215050964506,338.84382821490624L490.58194939589765,338.860138635438L491.65418815747176,338.86172131826504L492.52474412647894,338.8754237338435L493.3353443682484,338.8793166731713L494.20131697563016,338.8834294116428L495.0487924450232,338.8888563391915L495.8833362869727,338.8906778285621L496.71387712802215,338.89650732601046L497.5897530703446,338.9005117678296L498.4471541962448,338.8958220656163L499.3024347733411,338.9025776768072L500.1191957674254,338.90462543580463L500.9648929520319,338.90790515126616L501.8004561455119,338.9102317347819L502.68083360371656,338.9091431438127L503.5624908317258,338.91172155830384L504.4277417084619,338.9131041616903L505.5549584879758,338.91471001286845L506.4311171701389,338.91565005209225L507.2653261885931,338.9160030822963L508.1014325401878,338.91685273393574L508.9534392875514,338.9179584163893L509.8339878777649,338.9183489653416L510.65973702256946,338.9184559075745L511.4966767126415,338.9191321916197L512.3237056272505,338.91994409403196L513.1665010082304,338.92059489260646L514.0331953462578,338.92098968407873L515.0490349501672,338.9212069081181L515.8543896238426,338.92133584117283L516.691098657729,338.92156832804045L517.5115427102623,338.9214949019996" style="fill: none;" fill="none"></path></g><g><path stroke="rgb(238, 51, 119)" stroke-width="2px" d="M313.39924109889404,182.18913597720012L314.1730777208719,256.01534766810283L315.0188493106996,280.43302327394485L315.9345915705375,286.05066237705097L316.92145034079215,290.2788118379457L317.7145207124486,308.497258387506L318.5617432040895,308.02542591733595L319.48532033371913,313.9019675073879L320.5999105471965,318.8873530817883L321.45868072916664,322.2850390896201L322.53180491287293,319.93961779134617L323.3616165827546,325.2601158592318L324.2129090399948,324.00035037792156L325.08749033146864,325.59386667928527L325.86451149691356,323.0902280578656L326.7354394920268,327.4256971984037L327.5907349501672,325.9048526893769L328.6073186062886,331.61034012479445L329.49145352816356,329.65052298669303L330.302105853588,332.7804891379284L331.3894191129758,332.55724899470806L332.25501225372943,333.9573702761637L333.0634696251286,333.21495425887406L333.9038989200746,333.3317459215011L335.0156766161909,335.34990377325033L335.8722072010031,333.83105029884194L336.72640146186984,336.08692287267854L337.55735897215794,334.8047104185181L338.5604306401106,333.6990063398012L339.44805516685955,336.23549800366163L340.3365279131301,336.7214493373675L341.3734688377701,336.2861241865903L342.2278342306456,337.3326429402057L343.12848711162553,335.43693772384097L343.9836932835005,337.12940601765047L345.03241255465537,337.29839265280003L345.89987326646093,337.0045070805853L346.7080330169753,337.5819911318831L347.596572727945,337.64625905846646L348.4149706368956,337.12887645100375L349.4514874517747,337.5895411594372L350.2836056835134,337.97631748053914L351.12731624871395,338.15572633208444L351.903652886124,337.6112480501511L352.7156221839635,338.0898567152742L353.56396075392234,337.51988262802894L354.6892429976852,337.50107135723476L355.4626778314686,338.05152231810746L356.3371921582433,338.0730405461509L357.1556049482382,337.96958784423106L358.05138428722995,338.3573371620982L359.06735038001545,338.45932751586327L359.89164118248453,338.2542975391594L360.788335705697,338.0195778673182L361.6472844601981,338.43450498983395L362.4525126449974,337.8824533099708L363.3594230050797,338.4019484780064L364.33122959908695,338.444559684306L365.19557273212445,338.4821456831248L366.0520363522377,338.63460718620837L367.13977372138635,338.193049125839L367.9991912287809,338.4368375658024L368.8184373572531,338.5860726215677L369.69342043692126,338.69832542334086L370.74696116640945,338.648339224497L371.5102843306327,338.62381098309663L372.40863064975565,338.7326374904868L373.23071161715535,338.7435816553937L374.1181798929398,338.49491905038514L375.16938429848256,338.643174007219L375.9697017386831,338.7357879537324L376.86005693704993,338.79314882643354L377.8978014380787,338.75911143708174L378.7445402957819,338.73430372240756L379.5856913213734,338.8269762390285L380.4338215567129,338.8011633477955L381.5156734728652,338.83874337502806L382.3215043399563,338.8551715959121L383.20293091177984,338.8508734044029L383.9797363020833,338.8662612262332L384.9081720926569,338.8687007709918L385.8314888040124,338.86957806682665L386.77471635255915,338.8802683596441L387.6155995193544,338.87766225922473L388.6885228089635,338.88532888826114L389.55011294881683,338.87990488959724L390.45104112911525,338.88752418224095L391.2751682400978,338.89698977820706L392.3726006095679,338.89766202744795L393.1702989859825,338.901279431562L394.08661416602365,338.9013882403898L395.17615214152517,338.9023830842832L396.0114995598637,338.90648856124506L396.79498653903033,338.90802133731734L397.6943968528164,338.9095411610418L398.50050301922585,338.9108039144256L399.55710180330504,338.9121532387383L400.47489020672583,338.91274942233787L401.2982583844522,338.91329078134993L402.1565895756173,338.9149456410788L403.222570858089,338.9149545662102L404.0567352334105,338.9168570513851L404.96991051311727,338.9175915659845L405.7051605873842,338.9179966132958L406.6057762657536,338.9189738762928L407.47943493248454,338.9191937740777L408.32447735114454,338.9195328977699L409.3834422212577,338.9200659301371L410.18288167984826,338.92023616492486L411.01668891010803,338.92044244168835L411.9061289242541,338.9207660037833L412.7344227276235,338.9207665453614" style="fill: none;" fill="none"></path></g><g><path stroke="rgb(204, 51, 17)" stroke-width="2px" d="M110.71592152263374,189.61738505533765L111.77102476176698,228.13974414552965L112.59907302790639,246.82811177202632L113.51049978491511,263.73660711305484L114.35813894579476,270.27705288359095L115.22722913194444,277.4986112011331L116.05921343428498,279.105692761285L116.91457585712448,287.38282187708785L117.77307073977623,292.9897113357272L118.59283770479682,300.0004841600146L119.64974899080505,296.7562554457358L120.52301330986369,303.6853162092822L121.37958853780864,311.1117082834244L122.23155808256173,310.96399876688207L123.05843074620627,312.2554207273892L123.9152961545139,308.8008552310722L124.79811410397376,314.99863131770064L125.63784398984053,314.8816789154496L126.56679317644033,317.7878726859178L127.45474508616255,322.828883882612L128.33775648919752,321.3075809500047L129.19455493280608,325.31381260603666L130.1629835297711,327.3556807663824L131.24404675057872,329.10019616197263L132.13850911715537,326.68997494237766L133.00325403838735,329.12466452057873L133.9656930150463,323.6637111008167L134.82772214570474,328.8803937099874L135.69377659882974,331.75134276838173L136.54495000771607,330.6779250156667L137.41007439557612,331.6593074359532L138.26554842624742,331.7054610752634L139.08844041055812,333.4944542417569L139.98742661458334,334.10888558253646L140.829582110661,334.779719049111L141.6623551083462,333.6848160903901L142.4897039654064,335.6452628324873L143.56979991833848,331.35771182498763L144.39188088573817,335.2382506796026L145.26562883873459,335.50041554961354L146.13058953510802,334.0715803924416L147.02444177887088,336.1777582425358L147.84060009066357,335.0920237554237L148.68526304269548,336.6135537145393L149.52122802436986,335.79557599100684L150.32487881847993,336.5014676922666L151.20233959201389,336.97074119733384L152.01722557452416,337.24586988799274L152.82266209394288,336.3157784619502L153.7097657841435,336.9968927086198L154.57668333783437,337.1448717432629L155.87355890271348,336.53257396604334L156.80242624356995,337.6862020052171L157.85729138599535,337.00127432023044L158.78151584104938,337.81353813862165L159.75378374742797,337.5201215521832L160.7985818634259,337.98098845989443L161.68852783307614,337.65754603947113L162.64119740419238,338.12787309322243L163.5494321772119,338.1691093626432L164.52620903999485,338.137768292467L165.47634139306842,338.12259393777435L166.43730714634773,338.0791002721526L167.47247722672324,338.4193819589148L168.41647114904836,338.4340854764118L169.75380827321246,338.4277712257712L170.77662708686987,338.5083108827738L171.69207172582304,338.2921188806982L172.64115496527776,337.0495348140997L173.4821348588606,338.4389370753862L174.53823512795782,338.4498957177857L175.4248551842207,338.5671706615748L176.26261333172582,338.57024204493166L177.09898754211676,338.62163872183635L177.9608232192001,338.64893686874507L178.8390652475566,338.47182183476565L179.9107459699717,338.6362839044471L180.73108585519546,338.7144371273878L181.60296623713992,338.4340328475394L182.4526217795139,338.7460191248933L183.29747818512087,338.7294157324193L184.11320494663065,338.73524682330236L184.99706456918724,338.7271217327465L185.88796292566875,338.7433568293428L186.9552537400334,338.7743547192076L187.84066099119084,338.71370039905224L188.65606036972738,338.7868525284908L189.5350166882073,338.7941021860128L190.45987358764145,338.8004527821405L191.46714915059155,338.8039727249582L192.34364265625,338.81530530095915L193.22635643840022,338.8171835659263L194.05636156185702,338.81504507789424L194.91001266460904,338.84158593357176L195.7311561262217,338.8541598710955L196.79556745852625,338.85714069424597L197.67455353909463,338.86629070856935L198.4849305652006,338.8715110283374L199.35468295781894,338.87143281725L200.20110931359312,338.875220464688L201.066159296232,338.87955503582947L201.91295023759005,338.8755170939424L202.97762942869085,338.8831492213233L203.83804396604936,338.88659631002935L204.715921408822,338.8920325326139L205.55790577289096,338.8945349345782L206.43776983506945,338.8965587066923L207.2776038882459,338.89827265818894L208.1602060625643,338.8954831913725L209.0128750163966,338.9006406311715L210.08117774176955,338.9026325232096L210.94642861850565,338.90462670675856L211.75567468524946,338.90457731597314L212.60208615997942,338.90578122039835L213.49829704925412,338.90637440492617L214.35978302179782,338.906815958965L215.43443251253856,338.90780587079854L216.29201965149176,338.9080763354754" style="fill: none;" fill="none"></path></g></g></g></g></g></g><g transform="translate(51, 365)" clip-path="url(#clip_1)"><clipPath id="clip_1"><rect width="1446" height="35"></rect></clipPath><g><g visibility="inherit"><g><g transform="translate(0,0)" style="visibility: inherit;"><text transform="translate(3,14)" style="text-anchor: start; font-family: Roboto, sans-serif; font-size: 12px; font-weight: 200;" fill="rgb(33, 33, 33)" stroke="none" stroke-width="1px">06 AM</text></g><g transform="translate(80.35763888888889,0)" style="visibility: inherit;"><text transform="translate(3,14)" style="text-anchor: start; font-family: Roboto, sans-serif; font-size: 12px; font-weight: 200;" fill="rgb(33, 33, 33)" stroke="none" stroke-width="1px">09 AM</text></g><g transform="translate(160.71527777777777,0)" style="visibility: inherit;"><text transform="translate(3,14)" style="text-anchor: start; font-family: Roboto, sans-serif; font-size: 12px; font-weight: 200;" fill="rgb(33, 33, 33)" stroke="none" stroke-width="1px">12 PM</text></g><g transform="translate(241.07291666666666,0)" style="visibility: inherit;"><text transform="translate(3,14)" style="text-anchor: start; font-family: Roboto, sans-serif; font-size: 12px; font-weight: 200;" fill="rgb(33, 33, 33)" stroke="none" stroke-width="1px">03 PM</text></g><g transform="translate(321.43055555555554,0)" style="visibility: inherit;"><text transform="translate(3,14)" style="text-anchor: start; font-family: Roboto, sans-serif; font-size: 12px; font-weight: 200;" fill="rgb(33, 33, 33)" stroke="none" stroke-width="1px">06 PM</text></g><g transform="translate(401.78819444444446,0)" style="visibility: inherit;"><text transform="translate(3,14)" style="text-anchor: start; font-family: Roboto, sans-serif; font-size: 12px; font-weight: 200;" fill="rgb(33, 33, 33)" stroke="none" stroke-width="1px">09 PM</text></g><g transform="translate(482.1458333333333,0)" style="visibility: inherit;"><text transform="translate(3,14)" style="text-anchor: start; font-family: Roboto, sans-serif; font-size: 12px; font-weight: 200;" fill="rgb(33, 33, 33)" stroke="none" stroke-width="1px">12 AM</text></g><g transform="translate(562.5034722222223,0)" style="visibility: inherit;"><text transform="translate(3,14)" style="text-anchor: start; font-family: Roboto, sans-serif; font-size: 12px; font-weight: 200;" fill="rgb(33, 33, 33)" stroke="none" stroke-width="1px">03 AM</text></g><g transform="translate(642.8611111111111,0)" style="visibility: inherit;"><text transform="translate(3,14)" style="text-anchor: start; font-family: Roboto, sans-serif; font-size: 12px; font-weight: 200;" fill="rgb(33, 33, 33)" stroke="none" stroke-width="1px">06 AM</text></g><g transform="translate(723.21875,0)" style="visibility: inherit;"><text transform="translate(3,14)" style="text-anchor: start; font-family: Roboto, sans-serif; font-size: 12px; font-weight: 200;" fill="rgb(33, 33, 33)" stroke="none" stroke-width="1px">09 AM</text></g><g transform="translate(803.5763888888889,0)" style="visibility: inherit;"><text transform="translate(3,14)" style="text-anchor: start; font-family: Roboto, sans-serif; font-size: 12px; font-weight: 200;" fill="rgb(33, 33, 33)" stroke="none" stroke-width="1px">12 PM</text></g><g transform="translate(883.9340277777778,0)" style="visibility: inherit;"><text transform="translate(3,14)" style="text-anchor: start; font-family: Roboto, sans-serif; font-size: 12px; font-weight: 200;" fill="rgb(33, 33, 33)" stroke="none" stroke-width="1px">03 PM</text></g><g transform="translate(964.2916666666666,0)" style="visibility: inherit;"><text transform="translate(3,14)" style="text-anchor: start; font-family: Roboto, sans-serif; font-size: 12px; font-weight: 200;" fill="rgb(33, 33, 33)" stroke="none" stroke-width="1px">06 PM</text></g><g transform="translate(1044.6493055555554,0)" style="visibility: inherit;"><text transform="translate(3,14)" style="text-anchor: start; font-family: Roboto, sans-serif; font-size: 12px; font-weight: 200;" fill="rgb(33, 33, 33)" stroke="none" stroke-width="1px">09 PM</text></g><g transform="translate(1125.0069444444446,0)" style="visibility: inherit;"><text transform="translate(3,14)" style="text-anchor: start; font-family: Roboto, sans-serif; font-size: 12px; font-weight: 200;" fill="rgb(33, 33, 33)" stroke="none" stroke-width="1px">12 AM</text></g><g transform="translate(1205.3645833333335,0)" style="visibility: inherit;"><text transform="translate(3,14)" style="text-anchor: start; font-family: Roboto, sans-serif; font-size: 12px; font-weight: 200;" fill="rgb(33, 33, 33)" stroke="none" stroke-width="1px">03 AM</text></g><g transform="translate(1285.7222222222222,0)" style="visibility: inherit;"><text transform="translate(3,14)" style="text-anchor: start; font-family: Roboto, sans-serif; font-size: 12px; font-weight: 200;" fill="rgb(33, 33, 33)" stroke="none" stroke-width="1px">06 AM</text></g><g transform="translate(1366.079861111111,0)" style="visibility: inherit;"><text transform="translate(3,14)" style="text-anchor: start; font-family: Roboto, sans-serif; font-size: 12px; font-weight: 200;" fill="rgb(33, 33, 33)" stroke="none" stroke-width="1px">09 AM</text></g><g transform="translate(1446.4375,0)" style="visibility: hidden;"><text transform="translate(3,14)" style="text-anchor: start; font-family: Roboto, sans-serif; font-size: 12px; font-weight: 200;" fill="rgb(33, 33, 33)" stroke="none" stroke-width="1px">12 PM</text></g></g><g><line x1="0" y1="0" x2="0" y2="17" fill="rgb(0, 0, 0)" stroke="rgb(204, 204, 204)" stroke-width="1px"></line><line x1="80.35763888888889" y1="0" x2="80.35763888888889" y2="17" fill="rgb(0, 0, 0)" stroke="rgb(204, 204, 204)" stroke-width="1px"></line><line x1="160.71527777777777" y1="0" x2="160.71527777777777" y2="17" fill="rgb(0, 0, 0)" stroke="rgb(204, 204, 204)" stroke-width="1px"></line><line x1="241.07291666666666" y1="0" x2="241.07291666666666" y2="17" fill="rgb(0, 0, 0)" stroke="rgb(204, 204, 204)" stroke-width="1px"></line><line x1="321.43055555555554" y1="0" x2="321.43055555555554" y2="17" fill="rgb(0, 0, 0)" stroke="rgb(204, 204, 204)" stroke-width="1px"></line><line x1="401.78819444444446" y1="0" x2="401.78819444444446" y2="17" fill="rgb(0, 0, 0)" stroke="rgb(204, 204, 204)" stroke-width="1px"></line><line x1="482.1458333333333" y1="0" x2="482.1458333333333" y2="17" fill="rgb(0, 0, 0)" stroke="rgb(204, 204, 204)" stroke-width="1px"></line><line x1="562.5034722222223" y1="0" x2="562.5034722222223" y2="17" fill="rgb(0, 0, 0)" stroke="rgb(204, 204, 204)" stroke-width="1px"></line><line x1="642.8611111111111" y1="0" x2="642.8611111111111" y2="17" fill="rgb(0, 0, 0)" stroke="rgb(204, 204, 204)" stroke-width="1px"></line><line x1="723.21875" y1="0" x2="723.21875" y2="17" fill="rgb(0, 0, 0)" stroke="rgb(204, 204, 204)" stroke-width="1px"></line><line x1="803.5763888888889" y1="0" x2="803.5763888888889" y2="17" fill="rgb(0, 0, 0)" stroke="rgb(204, 204, 204)" stroke-width="1px"></line><line x1="883.9340277777778" y1="0" x2="883.9340277777778" y2="17" fill="rgb(0, 0, 0)" stroke="rgb(204, 204, 204)" stroke-width="1px"></line><line x1="964.2916666666666" y1="0" x2="964.2916666666666" y2="17" fill="rgb(0, 0, 0)" stroke="rgb(204, 204, 204)" stroke-width="1px"></line><line x1="1044.6493055555554" y1="0" x2="1044.6493055555554" y2="17" fill="rgb(0, 0, 0)" stroke="rgb(204, 204, 204)" stroke-width="1px"></line><line x1="1125.0069444444446" y1="0" x2="1125.0069444444446" y2="17" fill="rgb(0, 0, 0)" stroke="rgb(204, 204, 204)" stroke-width="1px"></line><line x1="1205.3645833333335" y1="0" x2="1205.3645833333335" y2="17" fill="rgb(0, 0, 0)" stroke="rgb(204, 204, 204)" stroke-width="1px"></line><line x1="1285.7222222222222" y1="0" x2="1285.7222222222222" y2="17" fill="rgb(0, 0, 0)" stroke="rgb(204, 204, 204)" stroke-width="1px"></line><line x1="1366.079861111111" y1="0" x2="1366.079861111111" y2="17" fill="rgb(0, 0, 0)" stroke="rgb(204, 204, 204)" stroke-width="1px"></line><line x1="1446.4375" y1="0" x2="1446.4375" y2="17" fill="rgb(0, 0, 0)" stroke="rgb(204, 204, 204)" stroke-width="1px"></line></g><line x1="0" y1="0" x2="1446.4375" y2="0" style="visibility: inherit;" fill="rgb(0, 0, 0)" stroke="rgb(204, 204, 204)" stroke-width="1px"></line></g><g visibility="inherit"><g><g transform="translate(241.07291666666666,0)" style="visibility: inherit;"><text transform="translate(0,31)" style="text-anchor: middle; font-family: Roboto, sans-serif; font-size: 12px; font-weight: 200;" fill="rgb(33, 33, 33)" stroke="none" stroke-width="1px">October  8, 2022</text></g><g transform="translate(803.5763888888889,0)" style="visibility: inherit;"><text transform="translate(0,31)" style="text-anchor: middle; font-family: Roboto, sans-serif; font-size: 12px; font-weight: 200;" fill="rgb(33, 33, 33)" stroke="none" stroke-width="1px">October  9, 2022</text></g><g transform="translate(1285.7222222222222,0)" style="visibility: inherit;"><text transform="translate(0,31)" style="text-anchor: middle; font-family: Roboto, sans-serif; font-size: 12px; font-weight: 200;" fill="rgb(33, 33, 33)" stroke="none" stroke-width="1px">October 10, 2022</text></g></g><g><line x1="0" y1="17" x2="0" y2="34" fill="rgb(0, 0, 0)" stroke="rgb(204, 204, 204)" stroke-width="1px"></line><line x1="482.1458333333333" y1="17" x2="482.1458333333333" y2="34" fill="rgb(0, 0, 0)" stroke="rgb(204, 204, 204)" stroke-width="1px"></line><line x1="1125.0069444444446" y1="17" x2="1125.0069444444446" y2="34" fill="rgb(0, 0, 0)" stroke="rgb(204, 204, 204)" stroke-width="1px"></line><line x1="1446.4375" y1="17" x2="1446.4375" y2="34" fill="rgb(0, 0, 0)" stroke="rgb(204, 204, 204)" stroke-width="1px"></line></g><line x1="0" y1="17" x2="1446.4375" y2="17" style="visibility: inherit;" fill="rgb(0, 0, 0)" stroke="rgb(204, 204, 204)" stroke-width="1px"></line></g></g></g></g></g></svg>